<svg width="1600" height="286" viewBox="0 0 1600 286" fill="none" xmlns="http://www.w3.org/2000/svg">
<mask id="mask0" mask-type="alpha" maskUnits="userSpaceOnUse" x="0" y="0" width="1600" height="286">
<rect width="1600" height="286" fill="white"/>
</mask>
<g mask="url(#mask0)">
<g opacity="0.3">
<path d="M1592.85 32.8423H6.03432V33.7363H1592.85V32.8423Z" fill="#E6E8ED"/>
<path d="M1592.85 87.375H6.03432V88.269H1592.85V87.375Z" fill="#E6E8ED"/>
<path d="M1592.85 141.684H6.03432V142.578H1592.85V141.684Z" fill="#E6E8ED"/>
<path d="M1592.85 196.216H6.03432V197.11H1592.85V196.216Z" fill="#E6E8ED"/>
<path d="M1592.85 250.526H6.03432V251.42H1592.85V250.526Z" fill="#E6E8ED"/>
<path d="M138.343 -76H137.449V469.104H138.343V-76Z" fill="#E6E8ED"/>
<path d="M270.652 -76H269.758V469.104H270.652V-76Z" fill="#E6E8ED"/>
<path d="M402.961 -76H402.067V469.104H402.961V-76Z" fill="#E6E8ED"/>
<path d="M535.27 -76H534.376V469.104H535.27V-76Z" fill="#E6E8ED"/>
<path d="M667.579 -76H666.685V469.104H667.579V-76Z" fill="#E6E8ED"/>
<path d="M799.888 -76H798.994V469.104H799.888V-76Z" fill="#E6E8ED"/>
<path d="M932.197 -76H931.303V469.104H932.197V-76Z" fill="#E6E8ED"/>
<path d="M1064.51 -76H1063.61V469.104H1064.51V-76Z" fill="#E6E8ED"/>
<path d="M1196.82 -76H1195.92V469.104H1196.82V-76Z" fill="#E6E8ED"/>
<path d="M1329.12 -76H1328.23V469.104H1329.12V-76Z" fill="#E6E8ED"/>
<path d="M1461.43 -76H1460.54V469.104H1461.43V-76Z" fill="#E6E8ED"/>
<path d="M6.03432 414.795L137.449 305.059L270.652 359.368L402.067 197.111L534.376 142.578L667.579 251.42L799.441 196.664L932.197 251.42L1064.51 141.684L1196.82 33.7363L1328.23 87.375L1461.43 142.578L1592.85 32.8423" stroke="#D5D5D5" stroke-width="1.4173" stroke-miterlimit="10"/>
<path fill-rule="evenodd" clip-rule="evenodd" d="M402.961 189.959C406.761 189.959 410.113 193.312 410.113 197.111C410.113 201.134 406.761 204.263 402.961 204.263C398.938 204.263 395.809 201.134 395.809 197.111C395.809 193.088 399.162 189.959 402.961 189.959Z" fill="#E6E8ED" stroke="#FEFEFE" stroke-width="0.2268" stroke-miterlimit="10"/>
<path fill-rule="evenodd" clip-rule="evenodd" d="M534.376 135.427C538.399 135.427 541.528 138.556 541.528 142.579C541.528 146.602 538.399 149.73 534.376 149.73C530.353 149.73 527.224 146.602 527.224 142.579C527.224 138.556 530.353 135.427 534.376 135.427Z" fill="#E6E8ED" stroke="#FEFEFE" stroke-width="0.2268" stroke-miterlimit="10"/>
<path fill-rule="evenodd" clip-rule="evenodd" d="M667.579 244.268C671.602 244.268 674.731 247.397 674.731 251.42C674.731 255.443 671.602 258.572 667.579 258.572C663.556 258.572 660.427 255.443 660.427 251.42C660.427 247.62 663.78 244.268 667.579 244.268Z" fill="#E6E8ED" stroke="#FEFEFE" stroke-width="0.2268" stroke-miterlimit="10"/>
<path fill-rule="evenodd" clip-rule="evenodd" d="M798.994 188.842C803.017 188.842 806.146 192.194 806.146 195.994C806.146 200.017 802.794 203.145 798.994 203.145C795.195 203.145 791.842 199.793 791.842 195.994C791.842 192.194 795.195 188.842 798.994 188.842Z" fill="#E6E8ED" stroke="#FEFEFE" stroke-width="0.2268" stroke-miterlimit="10"/>
<path fill-rule="evenodd" clip-rule="evenodd" d="M932.197 243.375C936.22 243.375 939.349 246.503 939.349 250.526C939.349 254.549 935.997 257.678 932.197 257.678C928.398 257.678 925.045 254.549 925.045 250.526C925.045 246.503 928.398 243.375 932.197 243.375Z" fill="#E6E8ED" stroke="#FEFEFE" stroke-width="0.2268" stroke-miterlimit="10"/>
<path fill-rule="evenodd" clip-rule="evenodd" d="M1196.82 26.584C1200.84 26.584 1203.97 29.9364 1203.97 33.7358C1203.97 37.7587 1200.84 40.8877 1196.82 40.8877C1192.79 40.8877 1189.66 37.5352 1189.66 33.7358C1189.66 29.9364 1193.02 26.584 1196.82 26.584Z" fill="#E6E8ED" stroke="#FEFEFE" stroke-width="0.2268" stroke-miterlimit="10"/>
<path fill-rule="evenodd" clip-rule="evenodd" d="M1461.43 134.533C1465.46 134.533 1468.59 137.662 1468.59 141.685C1468.59 145.707 1465.23 148.836 1461.43 148.836C1457.41 148.836 1454.28 145.707 1454.28 141.685C1454.28 137.662 1457.63 134.533 1461.43 134.533Z" fill="#E6E8ED" stroke="#FEFEFE" stroke-width="0.2268" stroke-miterlimit="10"/>
<path fill-rule="evenodd" clip-rule="evenodd" d="M1592.85 25.6904C1596.87 25.6904 1600 28.8194 1600 32.8423C1600 36.8652 1596.87 39.9941 1592.85 39.9941C1588.83 39.9941 1585.7 36.8652 1585.7 32.8423C1585.7 28.8194 1589.05 25.6904 1592.85 25.6904Z" fill="#E6E8ED" stroke="#FEFEFE" stroke-width="0.2268" stroke-miterlimit="10"/>
<path d="M6.03432 251.42L138.343 196.217L270.652 251.42L402.961 88.2687H534.376L667.579 142.578L798.994 87.3747L932.197 88.2687L1064.51 -0.0117751L1196.82 -21.4673H1329.12L1461.43 0.882208L1592.85 -21.4673" stroke="#D5D5D5" stroke-width="1.4173" stroke-miterlimit="10"/>
<path fill-rule="evenodd" clip-rule="evenodd" d="M136.332 189.959C140.355 189.959 143.484 193.311 143.484 197.111C143.484 201.134 140.355 204.263 136.332 204.263C132.309 204.263 129.18 201.134 129.18 197.111C129.18 193.088 132.309 189.959 136.332 189.959Z" fill="#E6E8ED" stroke="#FEFEFE" stroke-width="0.2268" stroke-miterlimit="10"/>
<path fill-rule="evenodd" clip-rule="evenodd" d="M8.26929 243.375C12.2922 243.375 15.4211 246.504 15.4211 250.527C15.4211 254.55 12.2922 257.679 8.26929 257.679C4.24639 257.679 1.11746 254.55 1.11746 250.527C1.11746 246.504 4.24639 243.375 8.26929 243.375Z" fill="#E6E8ED" stroke="#FEFEFE" stroke-width="0.2268" stroke-miterlimit="10"/>
<path fill-rule="evenodd" clip-rule="evenodd" d="M269.758 244.269C273.558 244.269 276.91 247.397 276.91 251.42C276.91 255.443 273.558 258.572 269.758 258.572C265.735 258.572 262.606 255.443 262.606 251.42C262.606 247.621 265.735 244.269 269.758 244.269Z" fill="#E6E8ED" stroke="#FEFEFE" stroke-width="0.2268" stroke-miterlimit="10"/>
<path fill-rule="evenodd" clip-rule="evenodd" d="M402.067 82.2349C406.09 82.2349 409.219 85.3638 409.219 89.3867C409.219 93.4096 405.867 96.5385 402.067 96.5385C398.044 96.5385 394.915 93.4096 394.915 89.3867C394.915 85.3638 398.044 82.2349 402.067 82.2349Z" fill="#E6E8ED" stroke="#FEFEFE" stroke-width="0.2268" stroke-miterlimit="10"/>
<path fill-rule="evenodd" clip-rule="evenodd" d="M534.376 81.1177C538.399 81.1177 541.528 84.2466 541.528 88.2695C541.528 92.2924 538.399 95.4213 534.376 95.4213C530.353 95.4213 527.224 92.2924 527.224 88.2695C527.224 84.2466 530.353 81.1177 534.376 81.1177Z" fill="#E6E8ED" stroke="#FEFEFE" stroke-width="0.2268" stroke-miterlimit="10"/>
<path fill-rule="evenodd" clip-rule="evenodd" d="M667.579 134.532C671.602 134.532 674.731 137.661 674.731 141.684C674.731 145.707 671.602 148.836 667.579 148.836C663.556 148.836 660.427 145.707 660.427 141.684C660.427 137.661 663.78 134.532 667.579 134.532Z" fill="#E6E8ED" stroke="#FEFEFE" stroke-width="0.2268" stroke-miterlimit="10"/>
<path fill-rule="evenodd" clip-rule="evenodd" d="M798.994 81.1177C803.017 81.1177 806.146 84.2466 806.146 88.2695C806.146 92.2924 802.794 95.4213 798.994 95.4213C795.195 95.4213 791.842 92.2924 791.842 88.2695C791.842 84.2466 795.195 81.1177 798.994 81.1177Z" fill="#E6E8ED" stroke="#FEFEFE" stroke-width="0.2268" stroke-miterlimit="10"/>
<path fill-rule="evenodd" clip-rule="evenodd" d="M932.197 81.1177C936.22 81.1177 939.349 84.2466 939.349 88.2695C939.349 92.2924 935.997 95.4213 932.197 95.4213C928.398 95.4213 925.045 92.2924 925.045 88.2695C925.045 84.2466 928.398 81.1177 932.197 81.1177Z" fill="#E6E8ED" stroke="#FEFEFE" stroke-width="0.2268" stroke-miterlimit="10"/>
<path fill-rule="evenodd" clip-rule="evenodd" d="M1063.61 -6.49316C1067.64 -6.49316 1070.76 -3.14074 1070.76 0.65867C1070.76 4.68158 1067.64 7.81051 1063.61 7.81051C1059.59 7.81051 1056.46 4.45808 1056.46 0.65867C1056.46 -3.36424 1059.59 -6.49316 1063.61 -6.49316Z" fill="#E6E8ED" stroke="#FEFEFE" stroke-width="0.2268" stroke-miterlimit="10"/>
<path fill-rule="evenodd" clip-rule="evenodd" d="M1460.54 -6.49316C1464.56 -6.49316 1467.69 -3.14074 1467.69 0.65867C1467.69 4.68158 1464.56 7.81051 1460.54 7.81051C1456.52 7.81051 1453.39 4.68158 1453.39 0.65867C1453.39 -3.14074 1456.52 -6.49316 1460.54 -6.49316Z" fill="#E6E8ED" stroke="#FEFEFE" stroke-width="0.2268" stroke-miterlimit="10"/>
</g>
</g>
</svg>
