<svg width="144" height="61" viewBox="0 0 144 61" fill="none" xmlns="http://www.w3.org/2000/svg">
<path d="M116.37 11.9681C116.386 11.8328 116.483 11.5446 116.53 11.6196L116.438 12.1246L116.37 11.9681Z" fill="#222222"/>
<path d="M117.083 11.1743C117.091 11.4341 117.064 11.8869 116.885 12.3279C116.945 11.8316 116.866 12.0273 116.95 11.4283C116.904 11.3533 116.79 11.5497 116.747 11.7449C116.763 11.6095 116.611 11.8249 116.665 11.5047C116.857 11.1474 116.974 11.1598 116.999 11.5114C117.05 11.4102 117.064 11.2667 117.083 11.1743Z" fill="#222222"/>
<path d="M123.794 12.2587L123.737 12.3088C123.755 12.2778 123.777 12.2631 123.794 12.2587Z" fill="#222222"/>
<path d="M127.89 13.1354C127.867 13.1153 127.862 13.0642 127.875 13.0169C127.894 13.0555 127.913 13.094 127.89 13.1354Z" fill="#222222"/>
<path d="M128.729 12.7795C128.707 12.7942 128.698 12.7964 128.682 12.8007C128.716 12.7654 128.736 12.7425 128.729 12.7795Z" fill="#222222"/>
<path d="M123.794 12.2587L123.943 12.1314C123.909 12.2977 123.857 12.2331 123.794 12.2587Z" fill="#222222"/>
<path d="M117.631 12.6346C117.615 12.6042 117.61 12.5531 117.611 12.4917C117.625 12.5139 117.632 12.5384 117.647 12.5607C117.643 12.5791 117.641 12.6058 117.631 12.6346Z" fill="#222222"/>
<path d="M122.135 11.3493L122.106 11.3395C122.115 11.2759 122.125 11.2123 122.137 11.1302L122.135 11.3493Z" fill="#222222"/>
<path d="M120.797 10.8867C120.829 10.878 120.724 11.2993 120.678 11.4863C120.71 11.3118 120.71 11.2156 120.691 11.1771C120.723 11.0988 120.75 11.0042 120.797 10.8867Z" fill="#222222"/>
<path d="M118.427 11.0064L118.407 10.9331C118.406 10.9597 118.42 10.982 118.427 11.0064Z" fill="#222222"/>
<path d="M123.137 11.535C123.156 11.4774 123.176 11.4198 123.194 11.3888C123.172 11.4382 123.15 11.4877 123.137 11.535Z" fill="#222222"/>
<path d="M118.25 27.0388C118.267 27.0692 118.28 27.0833 118.286 27.1078C118.259 27.0714 118.244 27.0491 118.25 27.0388Z" fill="#222222"/>
<path d="M117.927 29.7458L117.956 29.7556L118.091 29.9641L117.927 29.7458Z" fill="#222222"/>
<path d="M130.14 12.6022C130.132 12.6044 130.134 12.6126 130.134 12.6126C130.117 12.5474 130.129 12.5615 130.14 12.6022Z" fill="#222222"/>
<path d="M140.226 18.6872C139.714 18.5361 139.049 18.7929 138.546 18.5783C138.813 18.6291 140.014 18.5167 140.226 18.6872Z" fill="#222222"/>
<path d="M117.688 12.5845C117.709 12.5965 117.719 12.6024 117.746 12.604C117.713 12.6128 117.694 12.609 117.688 12.5845Z" fill="#222222"/>
<path d="M138.548 18.5864L138.491 18.5669C138.517 18.5685 138.527 18.5745 138.548 18.5864Z" fill="#222222"/>
<path d="M132.962 13.6804C132.937 13.7484 132.909 13.8082 132.879 13.8599C132.901 13.8104 132.923 13.7609 132.962 13.6804Z" fill="#222222"/>
<path d="M130.635 13.6664L130.702 13.6223C130.676 13.6554 130.651 13.662 130.635 13.6664Z" fill="#222222"/>
<path d="M134.067 14.6422C134.124 14.6269 134.162 14.573 134.198 14.642C134.186 14.6627 134.172 14.6752 134.158 14.6877C134.167 14.6241 134.148 14.5856 134.067 14.6422Z" fill="#222222"/>
<path d="M135.807 15.1369C135.768 15.1559 135.738 15.1728 135.702 15.2L135.666 15.1658L135.807 15.1369Z" fill="#222222"/>
<path d="M121.54 25.3625C121.581 25.4826 121.632 25.6086 121.691 25.7325C121.548 25.4565 121.337 25.4519 121.54 25.3625Z" fill="#222222"/>
<path d="M117.707 12.3959C117.685 12.5068 117.681 12.5601 117.688 12.5845C117.678 12.5786 117.665 12.5644 117.653 12.5503C117.67 12.4845 117.681 12.4291 117.707 12.3959Z" fill="#222222"/>
<path d="M132.707 17.8456L132.763 17.7955C132.729 17.8309 132.715 17.8434 132.707 17.8456Z" fill="#222222"/>
<path d="M129.081 21.0359L129.013 21.0105C129.025 20.9898 129.043 20.9936 129.081 21.0359Z" fill="#222222"/>
<path d="M132.801 17.8726C132.916 17.7459 132.992 17.6729 133.041 17.6251C133.015 17.6582 132.995 17.6811 132.96 17.7165L132.801 17.8726Z" fill="#222222"/>
<path d="M120.068 25.4773C120.224 25.3744 120.424 25.9237 120.624 26.1843C120.895 26.2166 120.495 25.7649 120.416 25.4715C120.607 25.5337 120.968 25.935 121.047 25.8702C121.007 25.7849 121.004 25.742 120.927 25.6491C121.284 25.9726 121.31 25.4503 121.745 25.8666C121.732 25.8177 121.71 25.771 121.691 25.7325C121.814 25.9964 121.962 26.2539 122.069 26.4261C122.149 26.3961 122.386 26.6643 122.225 26.3231C122.191 26.3585 122.105 26.2331 122.028 26.1402L122.185 26.2379C121.98 25.7337 121.991 26.1327 121.784 25.7861C122.021 25.8538 122.412 26.1419 122.446 25.9408C122.207 25.472 122.096 25.9385 122.008 25.4467L121.941 25.718C121.649 24.9227 121.865 25.8257 121.536 24.988C121.682 24.7216 121.926 25.0756 122.073 24.8091C122.273 25.035 122.272 25.1926 122.472 25.4185C123.06 25.689 122.055 24.1238 122.644 24.5949C122.882 24.8631 123.244 25.43 123.231 25.023L122.875 24.5419C123.062 24.3606 123.43 25.214 123.459 24.7346C123.299 24.5593 123.188 24.6676 123.182 24.5817C123.094 24.0899 123.463 24.8124 123.576 24.747L123.337 24.2782C123.616 24.2122 124.068 24.3969 124.371 24.3243C124.275 24.1929 124.148 24.0784 124.127 23.9007C124.582 23.936 124.788 23.4352 124.946 22.9822L125.296 23.3079C125.324 23.2829 125.239 23.096 125.17 23.0358C125.208 22.8162 125.324 23.2829 125.469 23.4012C125.553 23.3875 125.43 23.1235 125.315 23.0231C125.73 23.2351 126.355 23.3822 126.337 22.8279L126.225 22.7356C126.311 22.4681 126.9 23.4283 126.845 22.9626L126.769 22.9393C127.055 22.5395 127.69 22.6578 127.64 21.885C128.027 22.4188 127.871 21.4124 128.359 22.1901C128.35 21.6683 128.199 21.5604 128.359 21.1156C128.423 21.0285 128.77 21.5385 128.924 21.5584L128.681 21.1429L129.074 21.5006L128.86 20.9639L129.023 21.0164C129.001 21.0659 129.051 21.2533 129.125 21.3647C129.387 21.4606 129.323 20.8661 129.203 20.645L129.766 20.7911C129.661 20.6271 129.569 20.6081 129.459 20.524C129.892 20.836 129.24 20.0672 129.64 20.3532C129.668 20.4591 129.8 20.5899 129.848 20.673C129.786 20.3753 129.98 20.2533 130.187 20.2764L129.992 20.0054C130.212 19.7807 130.624 19.8188 130.918 19.644C130.89 19.8348 131.203 20.3187 131.316 20.3147L131.097 19.8579C131.31 20.0979 131.103 20.0748 131.41 20.3418C131.492 20.2238 131.194 19.7969 131.045 19.6971L131.266 19.7691C131.194 19.6312 131.127 19.5791 131.024 19.4232C131.237 19.6632 131 18.8444 131.351 19.2744L131.279 19.1365C131.573 18.9616 131.794 19.0337 132.049 18.9127C132.273 19.2896 132.321 19.1455 132.567 19.4116C132.666 19.193 132.708 18.7625 132.907 18.6916C133.063 18.8506 133.121 19.0011 133.288 19.2009C133.076 18.8647 133.162 18.8592 132.956 18.6437C133.072 18.656 133.066 18.6664 133.464 18.8132C133.591 18.9277 133.625 18.9885 133.753 19.0764C133.845 19.0953 133.677 18.9222 133.505 18.8023L133.463 18.7784C133.808 18.922 133.662 18.6727 133.418 18.5111C133.196 18.3347 132.894 18.2497 133.473 18.3914L133.418 18.3801C133.629 18.4195 133.865 18.4524 134.115 18.4727C134.067 18.4244 133.657 18.3945 133.335 18.2976C133.854 18.3768 133.886 18.3333 133.834 18.3035C133.79 18.2715 133.677 18.2406 134.107 18.2477C133.111 18.1478 133.132 18.1598 133.309 18.1383C133.473 18.1295 133.81 18.0828 133.014 18.1126L133.609 18.0842C134.21 18.0454 133.288 18.0916 133.149 18.094C133.597 18.0701 133.656 18.0629 134.018 18.0446C134.428 17.9783 134.38 17.93 134.075 17.9331C133.542 17.9625 132.852 18.0601 132.58 18.124C132.452 18.1671 135.438 17.4455 134.042 17.7413L133.08 17.9989C133.64 17.8401 133.537 17.8152 133.465 17.8083C133.375 17.7975 133.308 17.8068 133.581 17.6201C133.437 17.7023 133.228 17.802 133.238 17.808C132.727 18.0499 133.158 17.8032 133.503 17.5886C133.438 17.6061 133.17 17.7825 132.98 17.886C132.733 18.0396 133.45 17.524 133.044 17.799C132.993 17.8387 132.935 17.8806 132.89 17.91C133.072 17.7739 132.8 17.9341 133.227 17.6015C132.996 17.7507 133.283 17.4204 133.039 17.6169C133.347 17.2024 132.806 17.7927 133.224 17.2004C132.784 17.8074 132.837 17.6796 132.928 17.367C132.841 17.565 132.806 17.5656 132.696 17.8396C132.684 17.8255 132.71 17.6961 132.827 17.3503C132.79 17.4389 132.762 17.4988 132.741 17.5482C132.706 17.5836 132.664 17.5864 132.635 17.5766C132.575 17.549 132.535 17.4637 132.502 17.3762C132.432 17.2116 132.36 17.0737 132.146 17.5767C131.843 17.0988 131.546 16.7415 131.222 16.4788C131.046 17.1551 131.604 16.6648 131.391 17.3683C131.125 16.9942 131.094 16.3561 130.708 16.4158C130.594 16.4812 130.676 16.7213 130.674 16.8442C130.408 16.47 129.992 16.7124 129.792 16.2593C129.775 16.3251 129.786 16.4006 129.804 16.4658C129.75 16.4279 129.637 16.528 129.73 16.2235L129.767 16.3273C129.987 15.9102 129.795 15.324 129.854 15.0896C129.706 16.0029 129.488 15.2227 129.336 16.3816C129.308 16.3104 129.301 16.155 129.37 15.9533C129.295 15.9996 129.237 16.1111 129.235 16.3649C129.07 16.1384 129.241 15.8306 129.035 15.7809C128.997 15.9309 129.014 15.9961 128.985 16.1788C128.969 15.8597 128.953 15.5407 128.748 15.622C128.729 15.7144 128.68 15.8237 128.727 15.8372C128.457 15.7087 128.466 14.9288 128.07 15.1135C127.979 15.7843 127.901 15.2985 127.726 15.852L127.608 15.6391L127.751 15.3911C127.604 15.3608 127.588 14.9108 127.41 15.0632L127.454 15.3224L127.211 15.1341L127.427 14.9626C127.364 14.6301 127.648 14.2569 127.405 14.3572C127.432 14.4284 127.255 14.3188 127.084 14.6266C127.066 14.4304 127.044 14.218 126.89 14.329C126.813 14.4981 126.735 14.9559 126.686 15.0652C126.747 14.577 126.379 14.8329 126.432 14.3122C126.43 14.435 126.342 14.7291 126.315 14.789L126.365 14.3911C126.263 14.4972 126.233 14.5488 126.184 14.7891C125.959 14.797 126.453 14.0969 126.123 14.3337C126.132 14.3663 126.104 14.4262 126.132 14.4973C125.841 14.5841 125.727 14.1255 125.452 14.2427C125.222 14.7848 125.609 14.4365 125.398 14.8863C125.102 14.6948 124.92 14.0183 124.573 14.059L124.648 14.0127C124.833 13.2032 124.3 14.3419 124.247 13.9191C124.267 13.9925 124.169 14.3768 124.188 14.2844C123.935 14.3521 123.806 13.9675 123.557 13.6237L123.536 13.839C123.356 13.9832 123.172 13.8492 123.011 13.901C123.032 13.6858 122.938 13.6935 123.072 13.4129C122.32 14.453 122.45 12.5576 121.799 13.422C121.847 13.4356 121.856 13.6339 121.817 13.6182L121.55 13.3403C121.678 13.0004 121.653 13.138 121.797 12.8899C121.818 12.6747 121.767 12.4872 121.691 12.464C121.771 12.7307 121.535 13.0212 121.415 13.1931C121.456 13.086 121.468 12.9691 121.501 12.8642C121.157 13.4369 121.672 12.1634 121.328 12.509L121.29 12.6938C121.233 12.5781 121.222 12.3102 121.116 12.3386C120.967 12.7279 121.154 12.5467 121.062 12.8859C120.94 12.8225 121.023 12.0577 120.798 12.4237C120.823 12.5482 120.899 12.5714 120.926 12.704C120.667 13.1402 120.685 13.013 120.567 13.0621L120.582 13.0496L120.308 13.2015L120.4 13.0895C120.535 11.9963 120.123 12.8055 120.106 12.0588C120.131 12.7686 120.035 12.4448 119.922 12.9031C119.83 13.0151 119.703 13.1278 119.695 13.261C119.694 12.868 119.445 13.5026 119.448 12.9254C119.399 13.0695 119.339 12.9108 119.255 13.2827C119.152 13.1268 119.355 13.0374 119.401 12.8504C119.339 12.2907 118.748 13.3137 118.647 12.5459C118.473 12.1906 118.565 11.6856 118.402 11.3711C118.258 11.5843 118.313 11.9191 118.313 11.9191C118.126 12.1003 118.037 12.0281 117.966 11.8287C117.93 11.9869 117.87 12.0903 117.789 12.2431C117.702 12.1791 117.878 11.6951 117.688 11.8682C117.664 12.0405 117.614 12.3074 117.617 12.4813C117.538 12.3189 117.506 12.0043 117.428 11.8419C117.328 12.0871 117.387 12.2457 117.384 12.43C117.282 12.2741 117.105 12.1031 117.175 11.6824L117.3 11.5616C117.257 11.5296 117.173 11.9014 117.195 11.9829C117.219 12.3345 117.398 11.8935 117.447 11.7495L117.389 11.6338C117.725 10.8013 117.688 11.8682 117.872 11.8712L117.98 11.2309L118.01 11.7993C118.092 11.6465 118.219 11.3067 118.162 11.191C118.368 10.9173 118.203 11.442 118.408 11.1336C118.438 11.0819 118.44 11.0553 118.431 11.0227L118.498 11.2406C118.514 11.1052 118.645 10.8083 118.549 10.8774C118.862 10.5754 118.762 11.4408 118.973 10.9911L118.958 10.934C119.194 11.2289 118.855 11.3983 118.92 12.001L119.389 10.9145L119.287 11.3788C119.319 11.37 119.392 11.3504 119.43 11.1655C119.452 11.509 119.352 11.3613 119.339 11.6706C119.604 11.2936 119.692 11.9778 119.927 11.2595C119.884 11.6204 119.708 11.4842 119.795 11.7755C120.06 11.0055 119.941 11.9633 120.177 11.638C120.25 11.2254 120.061 11.3985 120.299 11.0813C120.182 11.7853 120.602 11.0087 120.681 11.1711C120.53 11.718 120.866 11.4709 120.999 11.7061C121.037 11.5212 121.444 11.5082 121.675 11.3591L121.694 11.2666C121.572 11.8233 121.786 11.7747 121.879 11.9246C121.965 11.5957 121.981 11.4603 121.952 11.2848L122.075 11.3216C122.056 11.5102 122.066 11.6124 122.133 11.6993L122.222 11.2823C122.401 11.3652 122.441 11.8701 122.734 11.6605C122.636 12.0449 122.256 12.6796 122.413 13.0044C122.481 12.8027 122.587 12.4509 122.559 12.345C122.568 12.3776 122.577 12.5412 122.643 12.4623L122.645 12.0775C122.786 11.9523 122.613 12.383 122.699 12.3774C122.786 12.0833 122.812 12.1811 122.872 11.9468C122.863 11.9142 122.769 12.0529 122.769 11.9219C122.875 11.8935 123.028 11.7477 123.129 11.5372C123.076 11.6998 123.017 11.9341 123.067 11.9906C123.226 12.0616 123.229 11.6501 123.362 11.5271C123.341 11.7424 123.51 11.5574 123.384 12.0016C123.431 12.0151 123.5 11.8134 123.555 11.6938C123.587 11.9122 123.941 11.8613 123.711 12.3072L123.682 12.3322C123.685 12.3404 123.687 12.3485 123.689 12.3567C123.845 12.8739 124.349 12.276 124.576 12.5382L124.615 12.3882C124.733 12.6011 124.958 12.5932 124.982 12.9448C125.029 12.9584 125.173 12.7104 125.202 12.5277C125.295 12.6776 125.261 12.844 125.515 12.6534C125.464 12.3616 125.624 12.4408 125.438 12.4296C125.643 12.3484 125.748 12.1194 125.809 12.5748C125.86 12.1769 126.065 12.1305 126.119 12.2646L125.928 12.4991C126.001 12.5757 126.087 12.5701 126.179 12.5543L126.279 12.047C126.788 11.535 126.594 13.2554 127.145 12.3129C127.133 12.6917 126.89 12.5034 126.859 12.9399C127.037 12.9185 127.398 12.2452 127.453 12.2565C127.744 12.0388 127.446 13.0446 127.726 12.9171C127.649 13.0862 127.485 13.5495 127.606 13.7705C127.783 13.7491 128.013 13.076 127.951 12.9092C127.918 12.8832 127.88 12.937 127.869 12.9925C127.839 12.9132 127.796 12.8197 127.906 12.6419L127.876 12.8245C128.009 12.6667 128.212 12.7431 128.244 12.4376C128.315 12.637 128.212 12.7431 128.099 12.8085C128.376 12.6033 128.418 12.8891 128.667 12.7785C128.603 12.8655 128.517 13.0634 128.545 13.0732C128.912 12.9401 128.585 13.4471 128.761 13.5833C128.959 13.3466 128.907 12.9238 129.045 13.2101C129.225 13.0658 129.209 12.7468 129.2 12.5832C129.289 12.9788 129.612 12.4556 129.744 12.4288L129.69 12.2598C129.727 12.3636 129.774 12.3771 129.821 12.3906L129.659 12.7311C129.734 12.6848 129.781 12.6983 129.828 12.5461C129.824 12.7917 129.617 13.1268 129.641 13.4784C129.774 13.3206 129.823 13.7353 129.979 13.2742C129.688 13.361 130.144 12.8109 129.957 12.6688C129.983 12.7318 130.03 12.7453 130.105 12.699C130.127 12.6495 130.122 12.5984 130.113 12.5659C130.463 12.21 130.071 13.1273 130.314 13.1847C130.362 12.9096 130.514 12.6942 130.542 12.7653C130.439 12.7405 130.369 13.196 130.395 13.4248C130.614 13.2615 130.52 13.6274 130.608 13.63L130.486 13.6975C130.437 13.9726 130.529 13.9567 130.613 14.074C130.681 13.8723 130.559 13.905 130.623 13.818C130.609 14.3197 131.03 13.4121 131.109 13.775C131.242 13.6173 131.257 13.2814 131.359 13.1753C131.448 13.5708 131.669 12.8651 131.779 13.2112C131.617 13.5516 131.636 13.4592 131.672 13.8515L131.422 13.5078L131.481 14.086C131.378 14.0611 131.335 13.8019 131.26 13.8482C131.276 14.1672 131.295 14.0748 131.162 14.3636C131.449 13.8676 131.337 14.7536 131.599 14.4299L131.851 13.5415C132.199 13.2123 132.134 14.1119 132.501 13.9788L132.359 14.104C132.3 14.4693 132.535 14.2054 132.589 14.3744C132.666 14.0743 132.757 13.9888 132.85 13.8153C132.786 14.0334 133.08 13.8585 132.934 14.4566L133.18 14.1025C133.479 14.0135 133.2 15.0231 133.498 14.9956C133.511 14.6515 133.682 14.4747 133.581 14.196C133.636 14.2074 133.808 14.1963 133.732 14.4002C133.872 14.2402 133.914 14.8842 134.126 14.635C134.121 14.7764 133.99 15.0733 134.115 15.0834C134.153 15.0296 134.183 14.9431 134.183 14.9431C134.115 15.0834 134.265 15.1833 133.997 15.4559C134.381 15.0646 134.624 15.1568 134.814 15.2457C135.014 15.3405 135.161 15.4322 135.662 15.1495C135.826 15.3064 136.015 15.4567 136.203 15.5375C136.287 15.4624 136.364 15.4242 136.289 15.4358C136.913 15.3209 135.496 16.1286 136.147 15.9805C136.905 15.6812 136.302 15.7466 136.624 15.643C137.238 15.2949 137.323 15.3508 137.349 15.4486C137.384 15.5442 137.343 15.6861 137.868 15.5279L137.888 15.4703C138.569 15.3053 137.833 15.8519 138.218 15.8884C138.218 15.8884 138.342 15.829 138.456 15.7984C137.875 16.1725 137.907 16.3561 137.885 16.5018C138.513 16.2723 138.142 16.3542 138.902 16.1593C138.92 16.2245 137.735 16.4982 137.731 16.6129C138.186 16.5172 138.705 16.4655 139.551 16.265L139.355 16.1865C140.52 15.9356 139.645 16.2921 139.956 16.2787L140.413 16.1564C140.673 16.3137 139.411 16.5908 139.861 16.6712L139.424 16.7359C138.283 17.0416 140.341 16.6386 139.522 16.8754L140.982 16.6503C140.799 16.7516 140.073 17.0074 139.984 17.101C141.001 16.916 141.27 16.7478 141.691 16.5913C141.851 16.6357 142.111 16.7582 141.428 16.8802C141.523 16.8458 141.809 16.7694 141.524 16.7844C140.882 16.9303 140.481 17.0292 140.353 17.107C140.141 17.1638 140.013 17.2069 139.946 17.251C141.443 17.0682 141.455 17.1438 141.362 17.2558C141.26 17.3619 141.068 17.4921 141.99 17.4806C141.244 17.6631 141.114 17.7942 141.04 17.9448C140.967 18.0955 140.952 18.2656 140.564 18.4481C139.06 18.2483 140.338 18.5522 138.646 18.4292C138.426 18.4882 138.414 18.5089 138.506 18.5278C138.765 18.6769 138.965 18.7718 139.145 18.8895C139.507 19.0022 139.625 18.8569 139.976 18.894C139.777 19.0959 140.515 19.0466 140.688 19.2361C140.18 19.1361 139.786 19.198 139.799 19.3431C139.66 19.2493 139.524 19.1636 139.371 19.0822C138.17 19.1945 140.205 19.5225 138.984 19.6577L139.555 19.6706C139.061 19.7505 138.59 20.2435 137.455 20.015C137.552 20.085 137.804 20.2445 137.988 20.2127C137.77 20.4108 137.217 20.4979 136.78 20.5625C136.337 20.6375 136.005 20.7004 135.991 20.9749L136.227 21.104C136.065 21.121 135.701 20.9041 135.765 21.1404C135.844 21.2066 135.986 21.282 135.944 21.3196C135.825 21.299 135.38 21.1735 135.349 21.348L135.637 21.4803C135.466 21.7533 135.137 21.7629 134.836 21.6861C134.672 21.6602 134.548 21.5886 134.443 21.5208C134.331 21.4633 134.232 21.42 134.146 21.4255C134.496 22.0132 134.361 22.3552 134.292 22.5221L134.348 22.603C134.032 22.8888 133.448 22.4688 132.974 22.4297C133.145 23.1964 132.431 23.1081 132.301 23.667C132.291 23.53 132.021 23.2091 131.927 23.1821C131.919 23.35 131.466 22.8951 131.802 23.4338L131.822 23.411C132.071 23.9819 131.831 23.9327 131.714 24.0166L131.282 23.3198C131.559 24.5472 130.198 23.4445 130.561 24.474C130.376 24.3399 130.279 24.4009 130.095 24.2669L130.318 24.6438C130.152 24.8717 130.076 24.9795 129.746 25.0505L129.959 25.2905C129.823 25.4053 129.125 24.2996 128.969 24.3677L129.259 24.9625C128.983 25.1063 129.003 25.765 128.444 25.4081C128.501 25.489 128.603 25.6448 128.657 25.648C128.542 25.74 128.392 26.3217 127.983 25.514C128.276 26.0208 127.735 25.729 127.46 25.5842L127.706 25.9465C127.308 25.5377 127.222 25.4122 126.976 25.3734C126.961 25.4473 127.114 25.6944 127.114 25.5635C127.092 25.8401 126.8 25.272 126.756 25.5633L126.96 25.7707C126.841 25.8812 126.777 25.741 126.532 25.5098C126.356 25.4084 126.327 25.7568 126.501 26.112C126.361 25.9138 126.124 25.6804 126.101 25.8261C126.163 25.9581 126.242 26.0243 126.275 26.0503C126.196 26.4385 125.68 25.8168 125.732 26.2744C125.802 26.4042 125.828 26.4672 125.841 26.5161C126.019 26.3985 126.156 26.2918 126.125 26.2739C126.332 26.6204 126.213 26.7657 126.611 27.1744C126.342 26.9845 125.802 26.5352 125.755 26.7836C125.766 26.8244 125.783 26.8548 125.809 26.9178L125.844 26.952C125.833 27.0074 125.785 26.9939 125.721 26.95C125.708 27.032 125.707 27.0935 125.663 27.1229C125.813 27.4232 125.583 27.38 125.519 27.4323C125.303 27.0532 125.238 27.1669 125.15 26.8061C125.15 26.8409 125.187 26.8484 125.253 26.831C125.271 26.8347 125.287 26.8304 125.31 26.8505L125.271 26.8347C125.328 26.8194 125.399 26.7916 125.468 26.7557C125.296 26.601 125.138 26.4686 125.181 26.7278C124.999 26.5057 124.81 26.2858 124.72 26.1788C124.93 26.7688 124.896 27.1624 125.057 27.5035C124.704 27.4235 124.44 27.6776 123.887 27.0484C123.767 26.9931 123.936 27.2972 123.969 27.4195C124.052 27.4672 124.086 27.4318 124.163 27.5247C123.924 27.4141 123.74 27.673 123.421 27.1995C123.394 27.5213 123.782 27.6007 123.508 27.6564L123.623 27.7916C123.651 28.8411 122.172 26.9401 122.284 28.2378C122.281 28.1601 122.278 28.1172 122.238 28.0319C121.948 28.8084 120.852 28.2722 120.72 29.312C120.652 29.5485 120.447 29.2368 120.214 29.0545L120.416 29.4809L119.984 29.1075C119.553 28.8998 120.164 30.3345 119.495 29.8586L119.371 29.5598C119.298 29.6757 118.944 29.5957 119.148 29.8993C119.11 29.8569 118.945 29.6305 118.991 29.8016L119.109 30.0145L118.641 29.7993C118.531 30.0734 119.168 30.6275 118.902 30.8387C118.748 30.8188 118.233 30.3977 118.189 30.2347C118.224 30.1993 118.223 30.0335 118.105 29.8206L117.942 29.7681C117.559 29.1544 117.109 28.55 117.095 27.9772L117.487 28.2653L117.363 27.9317L117.214 27.9977C117.125 27.6635 117.325 27.8894 117.485 28.03C117.405 27.8594 117.361 27.7312 117.358 27.6535L117.886 28.1235C117.765 27.8677 117.53 27.6772 117.556 27.4782C117.793 27.7117 117.803 28.0758 118.04 28.1782C117.951 27.8441 117.796 27.6236 118.03 27.8141C117.949 27.6435 117.872 27.5507 117.789 27.503C117.986 27.6511 118.065 27.4553 118.295 27.7605C118.17 27.3574 118.634 27.6873 118.276 27.1018C118.389 27.2289 118.7 27.4774 118.792 27.4615C118.239 26.8323 119.058 27.2503 118.571 26.5074C119.049 27.0868 119.112 26.572 119.509 26.815C119.472 26.7727 119.386 26.682 119.389 26.7249C119.463 26.6091 119.382 26.4037 119.373 26.2401C119.695 26.7566 119.928 26.7813 120.203 27.0571C120.038 26.4725 119.762 26.4853 119.52 25.9736C119.767 26.4054 119.991 26.2666 120.155 26.6506C120.073 26.2795 120.154 26.4501 119.942 25.9829C120.343 26.6352 120.098 26.0458 120.419 26.3965C120.371 25.99 120.091 25.7594 120.365 25.8694C120.345 25.6303 120.068 25.4773 120.068 25.4773ZM124.433 24.4563C124.39 24.4591 124.357 24.4678 124.341 24.4722C124.357 24.4678 124.392 24.4672 124.433 24.4563ZM124.753 24.2831C124.727 24.3163 124.675 24.3478 124.63 24.3772C124.694 24.5174 124.788 24.6407 124.816 24.6156C124.735 24.5413 124.764 24.42 124.753 24.2831ZM125.621 27.2914C125.697 27.3147 125.675 27.2332 125.634 27.1479C125.61 27.1545 125.575 27.155 125.522 27.1518C125.509 27.1377 125.497 27.1236 125.493 27.1073C125.539 27.1823 125.583 27.2491 125.621 27.2914Z" fill="#222222"/>
<path d="M125.247 26.8413C125.236 26.8353 125.224 26.8212 125.207 26.8256C125.197 26.7848 125.196 26.75 125.189 26.7256L125.271 26.8347L125.247 26.8413Z" fill="#222222"/>
<path d="M123.721 12.3132L123.727 12.3028C123.713 12.3153 123.709 12.3338 123.697 12.3545C123.711 12.342 123.715 12.3235 123.721 12.3132Z" fill="#222222"/>
<path d="M128.622 21.0539L128.673 21.1451L128.602 21.0767L128.622 21.0539Z" fill="#222222"/>
<path d="M121.403 13.2138C121.387 13.253 121.369 13.284 121.351 13.315C121.353 13.2883 121.379 13.2551 121.403 13.2138Z" fill="#222222"/>
<path d="M120.553 13.0746L120.391 13.1878C120.468 13.1149 120.513 13.0855 120.553 13.0746Z" fill="#222222"/>
<path d="M119.862 13.1026C119.877 13.0287 119.888 12.9732 119.9 12.9178L119.862 13.1026Z" fill="#222222"/>
<path d="M129.788 16.4702C129.798 16.4762 129.8 16.4843 129.805 16.5006C129.839 16.5962 129.809 16.5517 129.788 16.4702Z" fill="#222222"/>
<path d="M127.076 14.6288C127.089 14.7125 127.095 14.7984 127.118 14.8532C127.053 14.8707 127.01 14.8735 127.076 14.6288Z" fill="#222222"/>
<path d="M127.25 14.8879C127.173 14.9608 127.13 14.9288 127.11 14.8554C127.167 14.8401 127.23 14.8145 127.25 14.8879Z" fill="#222222"/>
<path d="M117.056 12.5092L117.024 12.5179C117.033 12.4891 117.035 12.4625 117.039 12.444L117.056 12.5092Z" fill="#222222"/>
<path d="M117.039 12.444L117.024 12.3869C117.034 12.3929 117.044 12.3989 117.039 12.444Z" fill="#222222"/>
<path d="M116.98 12.2587L117.024 12.3869C116.997 12.3853 116.962 12.3859 116.98 12.2587Z" fill="#222222"/>
<path d="M117.949 12.5494L117.913 12.7076C117.923 12.6788 117.934 12.6234 117.949 12.5494Z" fill="#222222"/>
<path d="M118.191 12.6682C118.117 12.6878 117.944 12.9527 117.884 12.8289L117.913 12.7076C117.891 12.9495 118.213 12.3915 118.191 12.6682Z" fill="#222222"/>
<path d="M119.801 11.0836L119.555 11.1409C119.636 10.9881 119.747 10.7836 119.668 10.7174C120.067 10.3137 119.5 11.0682 119.801 11.0836Z" fill="#222222"/>
<path d="M120.531 11.0365C120.441 10.9295 120.599 10.8 120.618 10.7076C120.645 10.8749 120.656 10.9157 120.531 11.0365Z" fill="#222222"/>
<path d="M125.317 12.4009L125.415 12.0166C125.488 12.0931 125.366 12.1606 125.317 12.4009Z" fill="#222222"/>
<path d="M125.666 14.6484L125.503 14.8579L125.565 14.5007L125.666 14.6484Z" fill="#222222"/>
<path d="M126.983 12.0679L126.958 12.0049L127.067 12.1852L126.983 12.0679Z" fill="#222222"/>
<path d="M135.804 14.7358L135.385 15.1276C135.367 15.0276 135.748 14.5586 135.804 14.7358Z" fill="#222222"/>
<path d="M140.449 16.5835C141.026 16.4899 141.538 16.4752 141.092 16.6034C140.901 16.5759 140.371 16.6217 140.449 16.5835Z" fill="#222222"/>
<path d="M131.43 23.9702L131.582 24.0782L131.392 24.024L131.43 23.9702Z" fill="#222222"/>
<path d="M6.25716 57.9383C6.10711 57.8998 5.91279 57.6637 6.10344 57.5602L6.58039 57.808L6.25716 57.9383Z" fill="#222222"/>
<path d="M6.54053 56.29C6.89054 56.2923 7.40589 56.3901 7.63851 56.8344C7.11164 56.6611 7.22329 56.8496 6.61158 56.6204C6.42093 56.7239 6.47451 56.989 6.64203 57.0927C6.49198 57.0542 6.49784 57.4021 6.1884 57.2579C6.09057 56.7949 6.31745 56.5332 6.80819 56.5066C6.77543 56.3843 6.6232 56.3377 6.54053 56.29Z" fill="#222222"/>
<path d="M21.2645 42.1946L21.1929 42.3186C21.1983 42.2735 21.2303 42.23 21.2645 42.1946Z" fill="#222222"/>
<path d="M31.66 34.9281C31.5747 34.9684 31.5068 34.943 31.4795 34.9066C31.5773 34.8804 31.6551 34.877 31.66 34.9281Z" fill="#222222"/>
<path d="M33.2566 33.356C33.2224 33.3914 33.1941 33.4164 33.1599 33.4518C33.1854 33.3838 33.2152 33.3321 33.2566 33.356Z" fill="#222222"/>
<path d="M21.2645 42.1946L21.4391 41.8683C21.5577 41.985 21.379 42.0679 21.2645 42.1946Z" fill="#222222"/>
<path d="M9.39529 55.1757C9.32631 55.2116 9.25674 55.2128 9.16869 55.2102C9.22356 55.1868 9.27624 55.1552 9.32893 55.1236C9.35177 55.1437 9.37244 55.1556 9.39529 55.1757Z" fill="#222222"/>
<path d="M16.5974 45.3145L16.5186 45.3793C16.4588 45.3516 16.3887 45.318 16.3142 45.2681L16.5974 45.3145Z" fill="#222222"/>
<path d="M13.2641 48.0333C13.3221 47.9566 13.6383 48.2562 13.7938 48.3805C13.6367 48.2828 13.528 48.2683 13.4405 48.3005C13.3801 48.238 13.3235 48.1571 13.2641 48.0333Z" fill="#222222"/>
<path d="M8.81413 53.235L8.68592 53.2781C8.71852 53.2694 8.76523 53.2481 8.81413 53.235Z" fill="#222222"/>
<path d="M18.9418 43.3062C18.9102 43.2535 18.8868 43.1986 18.8759 43.1579C18.9053 43.2024 18.9287 43.2573 18.9418 43.3062Z" fill="#222222"/>
<path d="M132.514 19.0154C132.513 18.9806 132.517 18.9622 132.527 18.9333C132.542 18.9904 132.54 19.017 132.514 19.0154Z" fill="#222222"/>
<path d="M137.676 17.5798L137.614 17.544C137.618 17.4641 137.631 17.3821 137.644 17.3L137.676 17.5798Z" fill="#222222"/>
<path d="M36.4717 30.9135C36.4657 30.9238 36.4657 30.9238 36.4576 30.926C36.3473 30.9381 36.4021 30.9146 36.4717 30.9135Z" fill="#222222"/>
<path d="M70.8577 18.5115C70.5485 18.9874 71.631 18.8546 71.1246 19.4096C71.138 19.2313 70.4114 18.8669 70.8577 18.5115Z" fill="#222222"/>
<path d="M9.4321 55.0523C9.47446 55.0147 9.51679 54.9772 9.55696 54.9315C9.50704 55.006 9.47286 55.0413 9.4321 55.0523Z" fill="#222222"/>
<path d="M71.1164 19.4118L71.0622 19.47C71.0904 19.4449 71.1045 19.4324 71.1164 19.4118Z" fill="#222222"/>
<path d="M44.8751 27.1332C44.8866 27.2087 44.8797 27.2804 44.8705 27.344C44.8514 27.3055 44.8524 27.2441 44.8751 27.1332Z" fill="#222222"/>
<path d="M38.9742 30.636L39.0969 30.5071C39.0551 30.5794 39.0128 30.6169 38.9742 30.636Z" fill="#222222"/>
<path d="M48.3792 26.2903C48.4497 26.2278 48.4567 26.156 48.598 26.1618C48.5964 26.1884 48.5927 26.2069 48.5807 26.2276C48.5106 26.194 48.4492 26.193 48.3792 26.2903Z" fill="#222222"/>
<path d="M51.7967 24.9291C51.7891 24.9661 51.7734 25.0052 51.7637 25.0341C51.7311 25.0428 51.68 25.0477 51.6474 25.0565L51.7967 24.9291Z" fill="#222222"/>
<path d="M121.606 17.8502C121.688 17.7321 121.749 17.6022 121.792 17.4684C121.725 17.7745 122.254 17.9211 121.606 17.8502Z" fill="#222222"/>
<path d="M9.21627 54.9965C9.31146 55.0584 9.3691 55.0779 9.42395 55.0545C9.38757 55.0817 9.35715 55.0986 9.32076 55.1258C9.27506 55.0856 9.22937 55.0454 9.21627 54.9965Z" fill="#222222"/>
<path d="M49.8341 29.4382L50.337 29.1637C50.2056 29.26 50.0231 29.3613 49.8341 29.4382Z" fill="#222222"/>
<path d="M95.6926 18.1899L95.8264 18.2327C95.7775 18.2458 95.7324 18.2404 95.6926 18.1899Z" fill="#222222"/>
<path d="M51.9402 28.5943C51.978 28.4095 52.0415 28.2877 52.13 28.1941C52.1632 28.2201 52.2023 28.2358 52.2295 28.2722L51.9402 28.5943Z" fill="#222222"/>
<path d="M125.499 18.7548C124.959 18.725 125.291 18.1729 125.199 17.8306C124.557 17.6184 124.871 18.2332 124.621 18.5096C124.231 18.3258 123.952 17.7718 123.649 17.783C123.622 17.8776 123.559 17.9033 123.619 18.0271C123.217 17.5406 122.344 17.9319 121.875 17.3237C121.835 17.3694 121.813 17.4189 121.8 17.4662C121.9 17.1862 121.925 16.891 121.922 16.6823C121.68 16.6598 121.485 16.2926 121.375 16.6629C121.522 16.6584 121.529 16.8138 121.597 16.9355L121.348 16.7575C121.087 17.2817 121.691 16.9625 121.667 17.362C121.175 17.1534 120.61 16.6758 120.219 16.8154C120.115 17.3411 121.115 17.0295 120.572 17.4807L121.181 17.3088C120.681 18.1154 121.547 17.272 121.081 18.1394C120.299 18.2528 120.22 17.8285 119.432 17.9522C119.273 17.654 119.509 17.5211 119.348 17.2148C118.26 16.6416 118.42 18.5116 117.636 17.7696C117.436 17.4127 117.375 16.7302 116.785 17.0717L116.965 17.6785C116.209 17.724 116.558 16.8094 115.752 17.1914C115.884 17.4266 116.34 17.4005 116.229 17.474C115.707 17.9371 115.873 17.1238 115.478 17.1162L115.385 17.6478C114.583 17.5569 113.7 17.1297 112.804 17.0465C112.856 17.2074 113.004 17.3686 112.794 17.5297C111.666 17.2642 110.384 17.5989 109.306 17.9138L108.89 17.4665C108.796 17.4742 108.711 17.6803 108.821 17.7644C108.398 17.9475 108.796 17.4742 108.592 17.3016C108.35 17.2791 108.279 17.5688 108.429 17.7034C107.676 17.3375 106.279 16.9168 105.508 17.4292L105.666 17.5616C105.063 17.758 104.938 16.6385 104.387 17.0919L104.47 17.1745C103.15 17.432 101.65 17.0827 100.678 17.8236C100.442 17.1706 99.3852 18.2137 99.2368 17.3014C98.5086 17.811 98.7403 17.9585 97.6907 18.3446C97.4114 18.4107 97.2232 17.806 96.8639 17.7363L96.8965 18.2167L96.3769 17.7445L96.1678 18.3333L95.8264 18.2327C95.9568 18.1977 96.0864 17.997 96.0596 17.8644C95.5224 17.6852 94.827 18.317 94.8414 18.5665L93.5861 18.2826C93.6282 18.4723 93.8419 18.5198 94.0175 18.6213C93.3186 18.1971 93.9464 19.1382 93.3095 18.7498C93.3751 18.6362 93.2353 18.4727 93.2172 18.3728C92.9523 18.6883 92.2742 18.7652 91.7653 18.6919L91.8956 19.0151C91.0039 19.1754 89.9831 19.0821 88.9702 19.2137C89.2982 19.0036 89.1475 18.4412 88.8464 18.4258L88.7938 18.9466C88.5597 18.6599 89.0805 18.7125 88.635 18.3864C88.2622 18.495 88.4569 18.9932 88.6945 19.1304L88.2096 19.0157C88.1978 19.1674 88.3197 19.2308 88.3721 19.4264C88.1462 19.1375 87.6516 20.03 87.3075 19.5282L87.3038 19.6777C86.2991 19.8072 85.8141 19.6925 84.9974 19.8066C84.9164 19.374 84.6079 19.5266 84.314 19.2122C83.7306 19.4472 83.1159 19.8914 82.3866 19.9733C81.844 19.8391 82.1721 19.629 81.9044 19.4124C81.9337 19.8151 81.2022 19.8888 81.6297 20.115C80.7487 20.185 80.5058 20.2239 79.3497 20.1144C79.4408 19.9328 79.5619 19.8305 79.4699 19.7154C79.2628 19.6922 79.0484 19.968 79.1068 20.1533L79.1541 20.1668C77.8036 19.8212 76.5381 21.8461 75.4041 21.2328L75.4639 21.2604L74.3637 21.0661C73.9122 21.2395 74.7053 21.2977 74.416 21.6198C73.1893 21.2148 72.7192 22.1007 71.733 21.8758C71.5229 22.5261 70.9089 22.6469 70.247 22.7194C69.5916 22.8164 68.8906 22.8733 68.5221 23.3563L68.5071 23.0721C68.2009 22.8746 68.2552 23.3056 68.0994 23.4085C68.067 23.19 68.2968 23.1022 68.1108 22.9948C67.0566 23.1026 66.0314 23.4821 65.0319 23.9247C64.033 24.402 63.0662 24.9667 62.0808 25.3967C61.3572 25.6954 61.225 24.1586 60.4771 25.084L60.9016 25.4943C59.1839 25.3431 57.8451 26.5404 56.2059 26.5516C56.3321 26.6314 56.3877 26.7737 56.5322 26.7262C56.3496 27.1857 55.3952 27.1445 55.2839 26.8598C55.0688 26.9699 55.3234 27.1375 55.2367 27.3354C55.0066 27.6504 54.2902 27.161 54.2581 27.5627C54.2489 27.6263 54.3865 27.6506 54.456 27.6494C54.1901 27.5372 53.5396 28.0435 53.5766 27.5619C53.1085 27.9668 52.4692 27.7975 52.1343 28.2104C51.6763 27.8702 51.2948 28.7935 50.9511 28.1955C51.2524 28.831 50.2152 29.1002 49.7498 28.9279C49.9467 29.0761 49.5382 29.2467 49.7814 29.4698C49.393 29.6175 48.9799 29.6408 48.9083 29.2757C48.5166 30.324 47.2159 29.2837 47.2455 30.4375C45.9609 30.5983 44.7964 30.8492 43.7006 31.1603C44.0323 31.7789 44.8637 30.7089 45.1292 31.4064C44.0435 31.5925 43.205 31.2668 42.3356 31.9016C42.1304 32.1138 42.6093 32.1078 42.7392 32.1691C41.6645 32.3959 40.9344 33.1593 39.9187 33.248C39.9524 33.3089 40.0775 33.319 40.184 33.3254C40.0091 33.3898 39.843 33.6177 39.7193 33.3189L39.9198 33.3176C39.9741 32.7702 38.8099 32.7939 38.6695 32.5957C39.3725 33.2634 37.9392 33.2281 38.9206 34.0221C38.7815 34.0244 38.5716 33.9584 38.5007 33.759C38.3639 33.9005 38.3744 34.0374 38.6529 34.1637C37.9758 34.3102 38.0243 33.9041 37.4887 34.1874C37.5606 34.3254 37.6997 34.323 37.839 34.4517C37.4193 34.3195 37.0039 34.2037 36.6234 34.5765C36.6941 34.6449 36.7046 34.7818 36.8322 34.704C36.0468 35.0979 35.1322 34.7489 34.4385 35.4851C35.019 35.9236 34.2623 35.8381 34.5108 36.3742L33.9723 36.4835L34.0094 36.1329C33.6183 36.3687 33.0589 36.2042 32.8131 36.5583L33.2251 36.5964L32.4304 36.9229L32.7342 36.4921C32.1771 36.4667 32.3997 35.8305 31.9508 36.274C32.0877 36.2635 31.5494 36.5038 31.5298 36.9196C31.2406 36.8836 30.9411 36.8415 30.7355 37.1499C30.7553 37.3543 31.135 37.6631 31.1537 37.7978C30.7087 37.5065 30.1851 38.2583 29.6728 37.9762C29.8169 38.025 29.983 38.2862 29.9923 38.3536L29.6241 38.1203C29.5173 38.3411 29.5184 38.4107 29.6812 38.5942C29.1865 38.9975 29.458 37.8591 28.9843 38.5363C29.0517 38.527 29.061 38.5944 29.1958 38.5758C28.6443 39.1254 27.8242 39.1617 27.34 39.7019C27.4913 40.2991 27.93 39.4914 28.0046 40.0305C27.5499 40.2571 27.018 40.3909 26.5008 40.547C25.9961 40.7172 25.5208 40.9319 25.1581 41.2736L25.2824 41.118C24.7034 40.522 24.9268 41.8772 24.306 41.8426C24.4408 41.824 24.6955 42.1226 24.6188 42.0645C24.1585 42.5635 23.3972 42.6888 22.4254 43.0715L22.6521 43.168C22.4477 43.546 21.8757 43.8565 21.5968 44.1845C21.37 44.0881 21.1887 44.2589 21.1258 43.9264C20.836 45.6812 18.7797 44.9831 18.494 46.4922C18.6031 46.4105 18.8695 46.4265 18.7848 46.5016L17.8961 46.9668C17.7289 46.636 17.8551 46.7158 17.8411 46.3701C17.6084 46.284 17.2877 46.3262 17.0939 46.483C17.5916 46.3845 17.4597 46.9353 17.4377 47.2119C17.393 47.1104 17.2653 47.0572 17.2043 46.96C17.2139 47.7785 16.6759 46.4552 16.3964 47.2376L16.552 47.3619C16.2793 47.4525 15.9287 47.4154 15.7441 47.6395C15.9185 48.0295 16.0854 47.6092 16.327 47.8589C15.9952 48.0876 15.1997 47.7592 15.2031 48.3261C15.4052 48.2981 15.5888 48.1354 15.7931 48.1156C15.814 48.7476 15.7025 48.6902 15.5348 48.9447L15.5446 48.9159L15.1866 49.5359L15.226 49.3244C14.1352 48.8393 14.3386 49.8592 13.3651 49.7794C14.2994 49.8435 13.7023 49.9948 14.0598 50.3183C14.0204 50.5297 13.9229 50.8179 14.067 50.8667C13.5766 50.7971 13.872 51.443 13.1702 51.3341C13.2562 51.4595 12.9286 51.5735 13.2354 51.8057C12.8498 51.9964 13.1308 51.5455 12.9774 51.4294C12.1513 51.476 12.2959 52.896 11.133 52.9893C10.3692 53.3337 9.91453 53.0712 9.2122 53.4166C9.2099 53.7666 9.74241 53.6676 9.74241 53.6676C9.61685 54.1118 9.37848 54.298 8.99005 54.4457C9.1401 54.4841 9.15875 54.6189 9.20519 54.8248C8.96681 55.011 8.66682 54.576 8.54942 55.018C8.71636 55.0868 8.97032 55.2197 9.19372 55.2384C8.84226 55.3938 8.39285 55.4443 8.03543 55.6099C8.15639 55.8658 8.47962 55.7355 8.69706 55.7646C8.3261 55.9775 7.77381 56.3614 7.37953 56.1613L7.45855 55.8693C7.33529 55.9635 7.66217 56.1729 7.79475 56.1461C8.27735 56.1216 8.05508 55.6833 7.95275 55.5622L7.69691 55.6832C7.25135 54.8679 8.54346 55.0283 8.87829 54.6154L8.26541 54.3167L9.03283 54.312C8.99672 54.112 8.79906 53.7981 8.54103 53.9109C8.58173 53.4108 8.93877 53.8305 8.92243 53.3457C8.90496 53.2805 8.87614 53.2708 8.83322 53.2736L9.23415 53.1399C9.09007 53.0912 8.95978 52.768 8.86331 52.9947C9.07383 52.2482 9.96338 52.5689 9.80296 52.0354L9.73558 52.0447C10.5562 51.554 10.1251 52.3247 11.0223 52.2503L10.5605 51.0812L10.9522 51.3693C11.0103 51.2926 11.1264 51.1392 10.973 51.0231C11.4621 51.023 11.0683 51.2159 11.432 51.3019C11.4829 50.6768 12.5111 50.6022 12.0788 49.9668C12.4437 50.1224 11.9419 50.4665 12.4717 50.3245C12.0301 49.6218 12.9909 50.0456 13.0511 49.4879C12.6748 49.2568 12.5226 49.6994 12.5887 49.1314C13.2517 49.4866 13.0994 48.4617 13.4552 48.3227C13.8448 48.7337 14.1842 47.9789 14.761 47.7195C14.5951 47.5893 15.4099 46.7508 15.7207 46.2482L15.644 46.1901C16.0923 46.5592 16.4717 46.1168 16.8802 45.9462C16.6467 45.6943 16.5086 45.6353 16.2266 45.6584L16.5355 45.4097C16.7231 45.4904 16.8807 45.4919 17.1225 45.3834L16.77 45.111C17.1924 44.7969 17.9115 44.8401 18.2608 44.1874C18.5399 44.4795 18.5329 45.3986 19.2555 45.1613C19.1438 44.9728 18.932 44.6714 18.7342 44.7157C18.7994 44.6982 19.0147 44.7192 19.0531 44.5691L18.6051 44.462C18.7471 44.1445 18.9205 44.5959 19.0915 44.4191C18.8972 44.1829 19.0928 44.1305 18.9159 43.9595C18.8508 43.977 18.8298 44.1922 18.6819 44.1619C18.8605 43.9481 19.0101 43.5936 18.9587 43.3366C19.0431 43.4887 19.2118 43.6618 19.3965 43.5687C19.8189 43.2546 19.3139 43.1628 19.456 42.8452C19.6887 42.9313 19.8132 42.5486 20.1017 42.908C20.225 42.8138 20.1155 42.6335 20.0947 42.4906C20.4365 42.4951 21.1656 41.7931 21.206 42.3675L21.1702 42.4295C21.1887 42.4333 21.2028 42.4208 21.2191 42.4164C22.2092 42.2647 22.5687 41.1289 23.3976 40.767L23.3035 40.6438C23.8348 40.4752 24.3126 40.0414 24.8067 40.0925C24.9299 39.9983 24.9485 39.6439 24.7892 39.5381C25.1901 39.4045 25.3044 39.5049 25.6516 38.9751C25.1624 38.9752 25.6284 38.6931 25.1984 39.0442C25.5539 38.6432 25.5269 38.3796 26.2357 38.4168C25.8534 38.1961 26.2947 37.7895 26.5724 37.7501L26.418 38.1845C26.6864 38.0777 26.8721 37.9231 27.0638 37.7582L26.6606 37.3945C27.2272 36.2818 28.8746 37.2467 28.9975 35.9123C29.432 36.0667 28.6421 36.4443 29.0778 36.6682C29.4529 36.3406 29.4969 35.4291 29.6305 35.3409C30.0624 34.736 30.5461 35.6284 31.0635 35.1141C31.0833 35.3185 31.261 35.7862 31.8076 35.6747C32.1975 35.3693 31.9407 34.7044 31.5913 34.7369C31.4816 34.7837 31.4583 34.8599 31.498 34.9104C31.3285 34.9296 31.1019 34.9641 31.1711 34.701L31.3186 34.8274C31.4345 34.543 32.0391 34.2238 31.7454 34.0405C32.1644 34.0068 32.0391 34.2238 31.8442 34.442C32.2566 33.8947 32.7056 33.9404 33.1806 33.4637C33.14 33.6056 33.1686 33.8426 33.2576 33.7837C33.977 33.1106 33.7974 33.8749 34.4031 33.6253C34.5841 33.1925 33.9585 33.1068 34.642 32.9848C34.8938 32.6203 34.4806 32.5127 34.2648 32.4569C34.9588 32.4719 35.1258 31.6934 35.3881 31.4659L35.0446 31.488C35.2511 31.4764 35.3869 31.3963 35.5227 31.3163L35.546 31.7293C35.6725 31.5819 35.8083 31.5018 35.7385 31.372C36.0251 31.4961 35.9023 31.9832 36.3976 32.1038C36.5239 31.8254 37.1583 31.9437 37.005 31.4694C36.3952 31.9647 36.8517 30.9951 36.2313 31.2225C36.3704 31.2201 36.5084 31.1482 36.643 30.9986C36.644 30.9372 36.5701 30.9221 36.5168 30.9189C36.9774 30.1927 37.0792 31.2573 37.7609 30.9C37.5487 30.6948 37.676 30.3549 37.8151 30.3526C37.5392 30.4964 37.8988 30.8281 38.2478 30.8918C38.5908 30.4767 38.7967 30.7884 39.0133 30.6517L38.794 30.8765C39.0063 31.0816 39.2104 30.9309 39.5571 30.8554C39.484 30.6479 39.2093 30.8613 39.2765 30.721C39.8355 30.9817 39.819 29.8768 40.4359 29.9299C40.5704 29.6493 40.2294 29.4524 40.365 29.2414C41.0515 29.2933 40.7697 28.6001 41.4675 28.5965C41.4642 29.008 41.3935 28.9396 41.9567 29.0856C41.6057 29.1448 41.2612 29.2283 40.9227 29.3016L41.7425 29.4924C41.4666 29.6362 41.0583 29.5797 40.9216 29.7211C41.3331 29.8554 41.2624 29.787 41.2661 30.1267C41.4016 29.4265 42.1508 30.0382 42.4366 29.5074L42.0318 28.6812C42.5321 28.0056 43.4257 28.5697 44.2076 27.9671L43.9933 28.2429C44.2599 28.5209 44.5529 28.0493 44.8947 28.0538C44.7449 27.7882 44.8708 27.606 44.914 27.3761C44.9893 27.5917 45.5474 27.0666 45.8714 27.5912L46.0995 27.0409C46.7447 26.5798 47.2447 27.4678 47.8894 27.1029C47.5499 26.8794 47.7838 26.546 47.2245 26.5124C47.4521 26.4165 47.6422 26.2782 47.7212 26.4754C47.7807 26.2411 48.5154 26.6032 48.6221 26.2515C48.7667 26.335 48.9231 26.625 49.1767 26.4959C49.1837 26.4242 49.1211 26.3536 49.1211 26.3536C49.1767 26.4959 49.6005 26.3824 49.5092 26.7912C49.8578 25.6146 51.5089 26.0719 51.8213 25.0536C52.362 24.9524 52.9998 24.7902 53.4725 24.6635C53.4078 24.5848 53.4169 24.5212 53.3463 24.5838C53.8865 24.0896 54.0478 25.2781 54.6585 24.7213C54.8573 24.1265 54.1817 24.6045 54.3472 24.3418C54.0993 23.3513 55.2693 24.1646 55.5619 23.4311L55.4266 23.4149C55.6891 22.9603 56.469 23.4588 57.0557 23.1706C57.0557 23.1706 57.0012 23.0978 57.0001 23.0283C57.5831 23.3787 58.42 23.2418 59.0558 23.2024C58.7516 22.8821 58.7181 23.0833 58.7111 22.6659C58.9932 22.6427 58.8385 23.3043 59.4004 23.2498C59.5067 22.9943 59.827 22.6901 59.7482 22.2657L59.2407 22.3929C59.3307 21.7836 59.8987 22.2079 60.1333 22.0402L60.0292 21.8148C60.8247 21.6541 61.0145 22.2321 61.8283 21.9442L61.7949 22.1453C62.4204 22.5891 62.078 21.7026 62.654 21.9937L62.5472 21.3672C62.8941 21.4228 63.7568 21.6109 64.3231 21.5727C63.8955 21.2156 63.2074 21.1903 62.7403 21.0447C63.0375 20.9476 63.7612 20.7799 64.0007 21.0214C63.8631 20.9971 63.6712 20.9001 63.5833 21.0284C64.0783 21.3762 64.6225 21.4837 65.2152 21.3162C64.7932 20.1976 66.6873 20.616 66.879 19.6038C68.0483 19.7622 68.9189 18.8388 70.1926 18.6373C69.9721 19.6398 70.5622 18.5819 70.7089 19.5209C71.0138 19.5179 71.1154 19.4732 71.1246 19.4096L71.8672 18.6603C72.0092 18.3427 71.5415 18.5204 71.5195 18.308C72.1339 18.0909 71.6939 17.8507 72.0566 17.5089C72.0461 17.8611 72.3892 17.9352 72.7172 17.725L72.3048 18.2722C73.3003 18.5645 72.8966 17.3188 73.8981 17.6007L73.5483 17.3713C74.0446 17.4304 75.2447 16.9866 75.8537 17.662C75.9171 17.5402 75.9739 17.2629 75.7564 17.2338C76.8479 16.9064 78.3694 17.5644 79.1366 16.9395L79.0103 16.7288C79.2277 16.7579 79.4482 17.0919 79.6604 16.8079C79.6282 16.7205 79.5341 16.5972 79.6297 16.5629C79.7515 16.6263 80.2485 16.8513 80.4994 16.6792L80.2214 16.4567C81.2551 15.9788 81.9877 16.822 82.9171 16.835C82.8054 16.1574 83.6262 15.7977 84.0347 15.6271L84.0085 15.5293C85.256 15.23 86.2393 15.7701 87.4428 15.8931C88.0696 15.0701 89.8574 15.2549 90.9883 14.716C90.8248 14.8559 91.077 15.2426 91.2906 15.2901C91.5518 15.1241 92.0955 15.6859 91.9909 15.0676L91.8931 15.0938C92.0217 14.4653 92.6007 14.5722 93.0457 14.5054L93.2027 15.3194C94.2386 14.0023 96.2546 15.4625 96.7968 14.3563C97.0905 14.5397 97.434 14.5175 97.7277 14.7009L97.6793 14.2596C98.446 14.0891 98.8252 14.005 99.7878 14.0441L99.576 13.7427C100.117 13.6763 100.339 14.9619 100.831 14.97L100.94 14.303C101.883 14.2687 102.808 13.6453 103.769 14.2002C103.751 14.1002 103.711 13.9187 103.557 13.8988C104.001 13.8586 105.26 13.3728 105.13 14.2898C105.12 13.6985 106.105 14.212 106.616 14.4593L106.527 14.0289C106.97 14.5741 106.985 14.7273 107.589 14.8625C107.729 14.7987 107.704 14.5085 107.518 14.6283C107.986 14.3891 107.897 15.0333 108.46 14.7864L108.238 14.5139C108.725 14.4709 108.686 14.6209 108.962 14.9315C109.267 15.0942 109.883 14.8157 109.952 14.4216C110.015 14.6579 110.284 14.9788 110.569 14.8676C110.608 14.7175 110.504 14.6231 110.45 14.5851C111.261 14.289 111.66 15.0908 112.217 14.6618C112.231 14.5183 112.265 14.4482 112.313 14.4003C111.669 14.407 111.143 14.4343 111.195 14.4641C111.192 14.063 111.715 13.9928 111.296 13.4411C111.717 13.739 112.434 14.3942 112.942 14.2055C112.966 14.1642 112.992 14.131 113.01 14.0652L112.954 14.0191C113.074 13.9782 113.181 14.0193 113.276 14.0812C113.441 14.0109 113.542 13.9662 113.7 13.9676C113.76 13.6371 114.301 13.7979 114.56 13.7894C114.529 14.2259 114.87 14.1608 114.546 14.5183C114.591 14.4889 114.496 14.4618 114.326 14.4462C114.287 14.4305 114.242 14.4251 114.217 14.3969L114.236 14.4355C114.066 14.4199 113.844 14.4093 113.586 14.3911C113.786 14.617 114.005 14.8119 114.289 14.5697C114.419 14.8581 114.557 15.1444 114.639 15.2883C115.001 14.6846 115.694 14.368 115.802 13.9896C116.588 14.2506 117.672 14.1873 118.145 15.039C118.368 15.1539 118.415 14.8093 118.505 14.6891C118.377 14.6012 118.221 14.6079 118.154 14.4862C118.6 14.7161 119.493 14.6254 119.568 15.1992C120.143 14.9665 119.274 14.6577 120.05 14.7818L119.949 14.5993C121.543 13.7354 122.362 16.2063 124.133 15.1204C124.011 15.1879 123.948 15.2136 123.921 15.3082C125.898 14.927 127.862 16.0953 129.842 15.4685C130.399 15.3629 130.42 15.733 130.722 16.0452L130.888 15.59L131.39 16.1895C132.139 16.6701 132.916 15.2039 133.842 16.0827L133.669 16.3824C134.039 16.3619 134.792 16.7278 134.78 16.3555C134.805 16.4185 134.855 16.7022 135.016 16.5542L135.078 16.328L135.906 16.8749C136.621 16.8055 135.949 15.8938 136.974 16.0034C137.339 16.159 137.938 16.898 137.765 17.0319C137.603 17.0141 137.351 17.1166 137.293 17.3591L137.614 17.544C137.546 18.2697 137.647 19.0375 136.767 19.4044L136.275 18.8723L136.037 19.1895L136.509 19.29C136.185 19.5779 136.065 19.2606 135.897 19.026C135.822 19.2033 135.722 19.3176 135.598 19.377L135.139 18.609C135.029 18.8831 135.306 19.2018 134.907 19.3088C134.69 18.9563 135.255 18.7176 134.841 18.4441C134.517 18.732 134.564 19.0075 134.276 18.6829C134.202 18.8601 134.255 18.9943 134.375 19.0844C134.121 18.8206 133.631 18.882 133.532 18.4805C133.194 18.8505 132.57 18.249 132.51 18.9377C132.438 18.765 132.07 18.3393 131.809 18.2782C132.201 19.1517 130.806 18.2153 130.835 19.1071C130.558 18.334 129.58 18.6309 128.985 18.1701C129.019 18.231 129.07 18.357 129.131 18.3232C128.763 18.3519 128.636 18.5608 128.396 18.6774C128.406 18.0632 127.865 17.8677 127.592 17.4691C127.1 18.0115 127.799 18.2085 127.605 18.7582C127.675 18.2679 126.886 18.1911 127.07 17.8012C126.697 18.137 126.761 17.9538 126.544 18.4486C126.548 17.679 126.241 18.2941 125.997 17.809C125.477 18.1493 125.819 18.512 125.3 18.2403C125.05 18.4472 125.499 18.7548 125.499 18.7548ZM112.783 16.9036C112.894 16.9263 112.99 16.9267 113.046 16.9381C113.001 16.9327 112.918 16.9198 112.783 16.9036ZM111.706 16.8951C111.841 16.8765 111.999 16.8779 112.173 16.875C112.213 16.7331 112.172 16.5783 112.067 16.58C112.122 16.6876 111.874 16.7716 111.706 16.8951ZM114.032 13.8699C113.857 13.8033 113.801 13.8881 113.774 13.9827C113.856 13.9957 113.946 14.0065 114.078 14.0411C114.082 14.0574 114.088 14.0818 114.101 14.0959C114.077 14.0063 114.065 13.9308 114.032 13.8699Z" fill="#222222"/>
<path d="M114.336 14.4522C114.365 14.462 114.378 14.4761 114.406 14.4858C114.372 14.5212 114.338 14.5566 114.302 14.5838C114.28 14.5371 114.259 14.4903 114.238 14.4436C114.273 14.443 114.301 14.4528 114.336 14.4522Z" fill="#222222"/>
<path d="M21.181 42.3393L21.1929 42.3186C21.1913 42.3453 21.1794 42.3659 21.1881 42.3985C21.1897 42.3719 21.1794 42.3659 21.181 42.3393Z" fill="#222222"/>
<path d="M96.8983 18.3211L96.8943 18.2086L96.9961 18.2949L96.8983 18.3211Z" fill="#222222"/>
<path d="M17.4214 47.2163C17.4405 47.2549 17.4433 47.2978 17.4319 47.3532C17.4172 47.331 17.4123 47.2799 17.4214 47.2163Z" fill="#222222"/>
<path d="M15.5142 48.9328L15.3483 49.2917C15.4068 49.1188 15.4561 49.0095 15.5142 48.9328Z" fill="#222222"/>
<path d="M14.1985 50.4121C14.1262 50.3704 14.0804 50.3302 14.0451 50.296L14.0429 50.2879L14.1985 50.4121Z" fill="#222222"/>
<path d="M40.1818 33.3173C40.2062 33.3107 40.2307 33.3042 40.2552 33.2976C40.4557 33.2963 40.3313 33.3209 40.1818 33.3173Z" fill="#222222"/>
<path d="M31.5379 36.9175C31.6651 36.9358 31.7923 36.9541 31.9026 36.942C31.7756 37.0547 31.6724 37.126 31.5379 36.9175Z" fill="#222222"/>
<path d="M32.2796 36.7187C32.1819 36.8759 32.0477 36.9293 31.9108 36.9398C32.0096 36.8522 32.1263 36.7336 32.2796 36.7187Z" fill="#222222"/>
<path d="M8.19078 56.4506L8.13273 56.5273C8.10987 56.5072 8.08921 56.4952 8.07887 56.4893L8.19078 56.4506Z" fill="#222222"/>
<path d="M8.07887 56.4893L7.96696 56.528C8.00115 56.4926 8.03753 56.4654 8.07887 56.4893Z" fill="#222222"/>
<path d="M7.73498 56.6076L7.96696 56.528C7.92083 56.584 7.86277 56.6607 7.73498 56.6076Z" fill="#222222"/>
<path d="M9.87434 54.4533L10.0049 54.5494C9.97389 54.5315 9.93257 54.5076 9.87434 54.4533Z" fill="#222222"/>
<path d="M10.4672 53.9276C10.3614 54.087 10.3684 54.5044 10.1207 54.6232L10.013 54.5472C10.2621 54.629 10.153 53.8633 10.4672 53.9276Z" fill="#222222"/>
<path d="M11.5367 50.2256L11.1243 50.7729C11.0964 50.5707 11.0591 50.3012 10.8001 50.4754C11.0892 49.5332 10.9315 50.8682 11.5367 50.2256Z" fill="#222222"/>
<path d="M12.9284 48.6386C12.6101 48.8199 12.7657 48.4551 12.6889 48.397C12.9585 48.3597 13.0259 48.3504 12.9284 48.6386Z" fill="#222222"/>
<path d="M24.8057 39.3066L24.5488 38.9998C24.8047 38.8789 24.6349 39.1253 24.8057 39.3066Z" fill="#222222"/>
<path d="M28.3446 39.4415L28.2565 39.797L27.9475 39.5566L28.3446 39.4415Z" fill="#222222"/>
<path d="M28.2358 36.1339L28.101 36.1525L28.5737 36.0259L28.2358 36.1339Z" fill="#222222"/>
<path d="M51.0498 24.8148L51.146 25.3044C50.9411 25.2894 50.7036 24.794 51.0498 24.8148Z" fill="#222222"/>
<path d="M61.5911 21.7107C61.6315 21.4379 61.8812 21.1962 62.138 21.372C61.9044 21.4783 61.7264 21.7269 61.5911 21.7107Z" fill="#222222"/>
<path d="M93.6867 14.6481L93.449 14.5109L93.8763 14.606L93.6867 14.6481Z" fill="#222222"/>
</svg>
