<svg width="144" height="62" viewBox="0 0 144 62" fill="none" xmlns="http://www.w3.org/2000/svg">
<path d="M27.813 49.5463C27.7969 49.6816 27.6994 49.9698 27.6531 49.8948L27.7449 49.3898L27.813 49.5463Z" fill="#222222"/>
<path d="M27.0998 50.3401C27.0913 50.0803 27.1185 49.6275 27.2973 49.1865C27.2381 49.6828 27.3167 49.4871 27.2326 50.0861C27.2789 50.1611 27.3923 49.9647 27.4361 49.7695C27.4199 49.9049 27.5719 49.6895 27.5179 50.0097C27.3254 50.367 27.2085 50.3546 27.1842 50.003C27.1327 50.1042 27.1187 50.2477 27.0998 50.3401Z" fill="#222222"/>
<path d="M20.389 49.2557L20.4454 49.2056C20.4275 49.2366 20.4053 49.2513 20.389 49.2557Z" fill="#222222"/>
<path d="M16.2932 48.379C16.316 48.3991 16.321 48.4502 16.3075 48.4975C16.2884 48.4589 16.2693 48.4204 16.2932 48.379Z" fill="#222222"/>
<path d="M15.4539 48.7349C15.4762 48.7202 15.4843 48.718 15.5006 48.7137C15.4664 48.749 15.4464 48.7719 15.4539 48.7349Z" fill="#222222"/>
<path d="M20.389 49.2557L20.2397 49.383C20.2737 49.2167 20.326 49.2813 20.389 49.2557Z" fill="#222222"/>
<path d="M26.5513 48.8798C26.5682 48.9102 26.5731 48.9613 26.5721 49.0227C26.5574 49.0005 26.5509 48.976 26.5362 48.9537C26.5399 48.9353 26.5415 48.9086 26.5513 48.8798Z" fill="#222222"/>
<path d="M22.0477 50.1651L22.0766 50.1749C22.0674 50.2385 22.0582 50.3021 22.0453 50.3842L22.0477 50.1651Z" fill="#222222"/>
<path d="M23.3859 50.6277C23.3533 50.6364 23.4587 50.2151 23.5047 50.0281C23.4729 50.2026 23.4724 50.2988 23.4915 50.3373C23.4601 50.4156 23.433 50.5102 23.3859 50.6277Z" fill="#222222"/>
<path d="M25.7559 50.508L25.7756 50.5813C25.7772 50.5547 25.7625 50.5325 25.7559 50.508Z" fill="#222222"/>
<path d="M21.0459 49.9794C21.0264 50.037 21.0069 50.0946 20.989 50.1256C21.0106 50.0762 21.0323 50.0267 21.0459 49.9794Z" fill="#222222"/>
<path d="M25.9324 34.4756C25.9155 34.4452 25.903 34.4311 25.8964 34.4066C25.9237 34.443 25.9384 34.4653 25.9324 34.4756Z" fill="#222222"/>
<path d="M26.2552 31.7686L26.2264 31.7588L26.0919 31.5503L26.2552 31.7686Z" fill="#222222"/>
<path d="M14.0427 48.9122C14.0508 48.91 14.0486 48.9018 14.0486 48.9018C14.0661 48.967 14.0536 48.9529 14.0427 48.9122Z" fill="#222222"/>
<path d="M3.95669 42.8273C4.46885 42.9783 5.13379 42.7215 5.63679 42.9361C5.36987 42.8853 4.16832 42.9977 3.95669 42.8273Z" fill="#222222"/>
<path d="M26.4948 48.9299C26.4742 48.9179 26.4638 48.912 26.4372 48.9104C26.4698 48.9016 26.4883 48.9054 26.4948 48.9299Z" fill="#222222"/>
<path d="M5.6346 42.928L5.69224 42.9475C5.6656 42.9459 5.65527 42.9399 5.6346 42.928Z" fill="#222222"/>
<path d="M11.2206 47.834C11.2461 47.766 11.2737 47.7062 11.3035 47.6545C11.2819 47.704 11.2602 47.7535 11.2206 47.834Z" fill="#222222"/>
<path d="M13.5479 47.848L13.4811 47.8921C13.5071 47.859 13.5316 47.8524 13.5479 47.848Z" fill="#222222"/>
<path d="M10.1156 46.8722C10.0585 46.8875 10.0206 46.9414 9.98461 46.8724C9.99654 46.8517 10.0107 46.8392 10.0248 46.8267C10.0156 46.8903 10.0347 46.9288 10.1156 46.8722Z" fill="#222222"/>
<path d="M8.3758 46.3775C8.41437 46.3585 8.44478 46.3416 8.48116 46.3144L8.51653 46.3486L8.3758 46.3775Z" fill="#222222"/>
<path d="M22.643 36.1519C22.602 36.0318 22.5508 35.9058 22.4914 35.782C22.6352 36.0579 22.8461 36.0625 22.643 36.1519Z" fill="#222222"/>
<path d="M26.4755 49.1185C26.4982 49.0076 26.5014 48.9543 26.4948 48.9299C26.5052 48.9358 26.5177 48.95 26.5302 48.9641C26.5129 49.0299 26.5015 49.0853 26.4755 49.1185Z" fill="#222222"/>
<path d="M11.4759 43.6688L11.4195 43.7189C11.4537 43.6835 11.4678 43.671 11.4759 43.6688Z" fill="#222222"/>
<path d="M15.1022 40.4785L15.1701 40.504C15.1582 40.5246 15.1397 40.5208 15.1022 40.4785Z" fill="#222222"/>
<path d="M11.3813 43.6418C11.2668 43.7685 11.1903 43.8415 11.142 43.8893C11.168 43.8562 11.1881 43.8333 11.2223 43.7979L11.3813 43.6418Z" fill="#222222"/>
<path d="M24.1146 36.0371C23.9588 36.14 23.7592 35.5908 23.5583 35.3301C23.2876 35.2978 23.6882 35.7495 23.7668 36.0429C23.5754 35.9807 23.2146 35.5794 23.1358 35.6442C23.1762 35.7295 23.1789 35.7724 23.2562 35.8653C22.8988 35.5418 22.8727 36.0641 22.438 35.6478C22.4511 35.6967 22.4723 35.7434 22.4914 35.782C22.3683 35.518 22.2207 35.2605 22.1134 35.0884C22.0341 35.1183 21.7963 34.8501 21.9575 35.1913C21.9917 35.1559 22.0778 35.2813 22.155 35.3742L21.9979 35.2765C22.2028 35.7807 22.192 35.3818 22.3984 35.7283C22.1619 35.6606 21.7702 35.3725 21.7368 35.5736C21.9759 36.0424 22.0868 35.5759 22.1749 36.0677L22.242 35.7964C22.5337 36.5917 22.3179 35.6887 22.6472 36.5264C22.5002 36.7929 22.2569 36.4388 22.1099 36.7053C21.9096 36.4794 21.9111 36.3218 21.7108 36.0959C21.1229 35.8254 22.1276 37.3906 21.5384 36.9196C21.3006 36.6513 20.939 36.0844 20.952 36.4914L21.308 36.9725C21.1207 37.1538 20.7523 36.3004 20.7235 36.7798C20.8841 36.9551 20.9948 36.8468 21.0003 36.9327C21.0884 37.4245 20.7202 36.702 20.6067 36.7674L20.8458 37.2362C20.5665 37.3023 20.1152 37.1175 19.8115 37.1901C19.9078 37.3215 20.0346 37.436 20.056 37.6137C19.6011 37.5784 19.3946 38.0792 19.2364 38.5322L18.8871 38.2065C18.8589 38.2315 18.9439 38.4184 19.0124 38.4786C18.9752 38.6982 18.8589 38.2315 18.7136 38.1132C18.6299 38.1269 18.7531 38.3909 18.8673 38.4913C18.4524 38.2793 17.8277 38.1322 17.8452 38.6865L17.9573 38.7788C17.8718 39.0463 17.2825 38.0861 17.3375 38.5518L17.4136 38.5751C17.1276 38.9749 16.4932 38.8566 16.5431 39.6294C16.1554 39.0957 16.3116 40.102 15.8236 39.3243C15.8324 39.8461 15.9836 39.954 15.8233 40.3988C15.7593 40.4859 15.413 39.9759 15.2592 39.956L15.5015 40.3715L15.1087 40.0138L15.3224 40.5505L15.1598 40.498C15.1815 40.4485 15.1313 40.2611 15.0578 40.1497C14.7962 40.0538 14.8594 40.6484 14.9798 40.8694L14.4166 40.7233C14.5217 40.8874 14.6141 40.9063 14.724 40.9904C14.291 40.6784 14.9425 41.4472 14.5426 41.1613C14.5142 41.0553 14.3831 40.9245 14.3346 40.8414C14.397 41.1391 14.2025 41.2611 13.9954 41.238L14.1903 41.509C13.971 41.7337 13.559 41.6956 13.2652 41.8704C13.2927 41.6796 12.9796 41.1957 12.8671 41.1997L13.0856 41.6565C12.8728 41.4165 13.0799 41.4396 12.7725 41.1726C12.6905 41.2906 12.9883 41.7175 13.1374 41.8173L12.9172 41.7453C12.9891 41.8833 13.0555 41.9353 13.1584 42.0912C12.9456 41.8512 13.1824 42.67 12.8314 42.24L12.9033 42.3779C12.6094 42.5528 12.3892 42.4807 12.1334 42.6017C11.9101 42.2248 11.8614 42.3689 11.6154 42.1028C11.5167 42.3214 11.4749 42.7519 11.2755 42.8228C11.1193 42.6638 11.0615 42.5133 10.8944 42.3135C11.1068 42.6497 11.0209 42.6552 11.2272 42.8707C11.1103 42.8584 11.1163 42.848 10.7188 42.7012C10.592 42.5867 10.5582 42.5259 10.4299 42.438C10.3374 42.4191 10.5061 42.5922 10.678 42.7121L10.7194 42.736C10.3752 42.5924 10.5206 42.8417 10.7648 43.0034C10.9868 43.1797 11.289 43.2647 10.7095 43.123L10.765 43.1343C10.5535 43.0949 10.3176 43.062 10.0675 43.0417C10.1154 43.09 10.5253 43.1199 10.8482 43.2168C10.3291 43.1376 10.2971 43.1811 10.3487 43.2109C10.3922 43.2429 10.5053 43.2738 10.0754 43.2667C11.0718 43.3666 11.0511 43.3547 10.8734 43.3761C10.7098 43.385 10.3729 43.4316 11.1686 43.4018L10.5735 43.4302C9.97239 43.469 10.8947 43.4228 11.0338 43.4204C10.586 43.4443 10.5267 43.4515 10.1648 43.4698C9.75452 43.5361 9.80241 43.5844 10.1073 43.5813C10.641 43.5519 11.3311 43.4543 11.6022 43.3904C11.7305 43.3473 8.74425 44.0689 10.1412 43.7731L11.1029 43.5155C10.5428 43.6743 10.6455 43.6992 10.7173 43.7062C10.8075 43.7169 10.8749 43.7076 10.6017 43.8943C10.7457 43.8121 10.9548 43.7124 10.9444 43.7064C11.4561 43.4645 11.0243 43.7112 10.68 43.9258C10.7452 43.9083 11.0124 43.7319 11.2031 43.6284C11.4502 43.4748 10.7323 43.9904 11.139 43.7154C11.1895 43.6757 11.2482 43.6338 11.2927 43.6044C11.1108 43.7405 11.3824 43.5804 10.9561 43.9129C11.1869 43.7637 10.8998 44.094 11.1441 43.8975C10.8359 44.312 11.3766 43.7217 10.9588 44.314C11.3988 43.707 11.3457 43.8348 11.2548 44.1474C11.3415 43.9494 11.3763 43.9489 11.4863 43.6748C11.4988 43.6889 11.4723 43.8183 11.3553 44.1641C11.3927 44.0755 11.4204 44.0157 11.4421 43.9662C11.4763 43.9308 11.5192 43.928 11.548 43.9378C11.6078 43.9654 11.6482 44.0507 11.6803 44.1382C11.7506 44.3028 11.8225 44.4407 12.0372 43.9377C12.3399 44.4157 12.6366 44.7729 12.9603 45.0356C13.1372 44.3593 12.5785 44.8496 12.7918 44.1461C13.058 44.5202 13.0892 45.1583 13.475 45.0986C13.5885 45.0332 13.5067 44.7931 13.5088 44.6702C13.775 45.0444 14.1905 44.802 14.3905 45.2551C14.4078 45.1893 14.3963 45.1138 14.3788 45.0486C14.4327 45.0865 14.5456 44.9864 14.4525 45.2909L14.4159 45.1871C14.1958 45.6042 14.3878 46.1905 14.3283 46.4248C14.4766 45.5115 14.6944 46.2917 14.8469 45.1328C14.8747 45.204 14.8814 45.3594 14.8131 45.5611C14.8881 45.5148 14.9456 45.4033 14.9474 45.1495C15.1129 45.376 14.9421 45.6838 15.1476 45.7335C15.186 45.5835 15.1685 45.5183 15.1982 45.3356C15.2138 45.6547 15.2294 45.9737 15.4348 45.8924C15.4537 45.8 15.503 45.6907 15.4557 45.6772C15.726 45.8057 15.7166 46.5856 16.1126 46.4009C16.2036 45.7301 16.2814 46.2159 16.4563 45.6624L16.5745 45.8753L16.4313 46.1233C16.5791 46.1536 16.5949 46.6036 16.7724 46.4512L16.7292 46.192L16.9718 46.3803L16.7557 46.5518C16.8186 46.8843 16.5343 47.2575 16.7782 47.1572C16.7504 47.086 16.9282 47.1956 17.0991 46.8878C17.1167 47.084 17.1387 47.2964 17.2924 47.1854C17.3693 47.0163 17.4476 46.5585 17.4969 46.4492C17.4355 46.9374 17.8037 46.6815 17.7511 47.2022C17.7531 47.0794 17.8403 46.7853 17.8679 46.7254L17.8173 47.1233C17.9199 47.0172 17.9497 46.9656 17.9989 46.7253C18.2239 46.7174 17.7301 47.4175 18.0598 47.1807C18.051 47.1481 18.0787 47.0882 18.0509 47.0171C18.3421 46.9303 18.4562 47.3889 18.7306 47.2717C18.9609 46.7296 18.5738 47.0779 18.7852 46.6281C19.0811 46.8196 19.2624 47.4961 19.6096 47.4554L19.5347 47.5017C19.3498 48.3112 19.8832 47.1725 19.9353 47.5953C19.9157 47.5219 20.0136 47.1376 19.9947 47.23C20.2473 47.1623 20.3766 47.5469 20.6259 47.8907L20.6469 47.6754C20.8266 47.5312 21.011 47.6652 21.1718 47.6134C21.1509 47.8286 21.2449 47.8209 21.1105 48.1015C21.8625 47.0614 21.7327 48.9568 22.3833 48.0924C22.336 48.0788 22.3265 47.8805 22.3657 47.8962L22.6323 48.1741C22.505 48.514 22.5293 48.3764 22.3861 48.6245C22.3652 48.8397 22.4154 49.0272 22.4915 49.0504C22.4113 48.7837 22.6479 48.4932 22.7679 48.3213C22.7267 48.4284 22.7143 48.5453 22.6813 48.6502C23.0257 48.0775 22.5109 49.351 22.8551 49.0054L22.8929 48.8206C22.9501 48.9363 22.9608 49.2042 23.0667 49.1758C23.2157 48.7865 23.0284 48.9677 23.121 48.6285C23.2428 48.6919 23.1594 49.4567 23.3846 49.0907C23.36 48.9662 23.2838 48.943 23.257 48.8104C23.5158 48.3742 23.4974 48.5014 23.6153 48.4523L23.6012 48.4648L23.875 48.3129L23.7827 48.4249C23.6476 49.5181 24.0597 48.7089 24.0763 49.4556C24.0521 48.7458 24.1476 49.0696 24.2607 48.6113C24.3529 48.4993 24.48 48.3866 24.488 48.2534C24.4884 48.6464 24.7377 48.0118 24.7351 48.589C24.7838 48.4449 24.8438 48.6036 24.9276 48.2317C25.0305 48.3876 24.8274 48.477 24.7814 48.664C24.844 49.2237 25.4347 48.2007 25.5356 48.9685C25.7094 49.3238 25.6176 49.8288 25.7805 50.1433C25.9243 49.9301 25.8695 49.5953 25.8695 49.5953C26.0568 49.4141 26.146 49.4863 26.2169 49.6857C26.2531 49.5275 26.3128 49.4241 26.3941 49.2713C26.4812 49.3353 26.3051 49.8193 26.4946 49.6462C26.5183 49.4739 26.5691 49.207 26.5661 49.0331C26.6446 49.1955 26.6765 49.5101 26.755 49.6725C26.8552 49.4273 26.7952 49.2687 26.7983 49.0844C26.9012 49.2403 27.078 49.4113 27.0073 49.832L26.8825 49.9528C26.926 49.9848 27.0098 49.613 26.988 49.5315C26.9636 49.1799 26.7848 49.6209 26.736 49.7649L26.7933 49.8806C26.4573 50.7131 26.4946 49.6462 26.3103 49.6432L26.2024 50.2835L26.1724 49.7151C26.091 49.8679 25.9637 50.2077 26.0209 50.3234C25.8147 50.5971 25.9799 50.0724 25.7742 50.3808C25.7444 50.4325 25.7428 50.4591 25.7516 50.4917L25.6844 50.2738C25.6683 50.4092 25.5382 50.7061 25.6332 50.637C25.3211 50.939 25.4211 50.0736 25.2097 50.5233L25.225 50.5804C24.9888 50.2855 25.3277 50.1161 25.2623 49.5134L24.7935 50.5999L24.8962 50.1356C24.8636 50.1444 24.7903 50.164 24.7524 50.3489C24.7303 50.0054 24.831 50.1531 24.8442 49.8438C24.5784 50.2208 24.4911 49.5366 24.2556 50.2549C24.2986 49.894 24.4749 50.0302 24.3881 49.739C24.1227 50.5089 24.2417 49.5511 24.0056 49.8764C23.9328 50.289 24.1222 50.1159 23.884 50.4331C24.0011 49.7291 23.5803 50.5057 23.5018 50.3433C23.6523 49.7964 23.3167 50.0435 23.1838 49.8083C23.146 49.9932 22.7389 50.0062 22.5081 50.1554L22.4892 50.2478C22.6108 49.6911 22.3967 49.7397 22.3041 49.5898C22.2176 49.9187 22.2014 50.0541 22.231 50.2296L22.1076 50.1928C22.1269 50.0042 22.117 49.902 22.05 49.8151L21.9609 50.2321C21.7814 50.1492 21.7422 49.6443 21.449 49.8539C21.5469 49.4695 21.9271 48.8348 21.7702 48.51C21.702 48.7117 21.5953 49.0635 21.6237 49.1694C21.615 49.1368 21.6061 48.9732 21.5399 49.0521L21.5382 49.4369C21.397 49.5621 21.5699 49.1314 21.484 49.137C21.3968 49.4311 21.3706 49.3333 21.3111 49.5676C21.3199 49.6002 21.4137 49.4615 21.4139 49.5925C21.3079 49.6209 21.1548 49.7667 21.054 49.9772C21.1065 49.8146 21.166 49.5803 21.116 49.5238C20.9572 49.4528 20.9539 49.8643 20.8209 49.9873C20.8418 49.772 20.673 49.957 20.7985 49.5128C20.7512 49.4993 20.683 49.701 20.6277 49.8206C20.5954 49.6022 20.2422 49.6532 20.4721 49.2072L20.5003 49.1822C20.4981 49.174 20.4959 49.1659 20.4938 49.1577C20.3377 48.6405 19.834 49.2384 19.6065 48.9762L19.5681 49.1262C19.4499 48.9133 19.2249 48.9212 19.2006 48.5696C19.1533 48.556 19.0101 48.804 18.9804 48.9867C18.8879 48.8368 18.9219 48.6705 18.6672 48.861C18.7192 49.1528 18.5583 49.0736 18.7447 49.0848C18.5393 49.166 18.4347 49.395 18.3738 48.9396C18.3232 49.3375 18.1173 49.3839 18.0639 49.2498L18.2544 49.0153C18.1814 48.9387 18.0956 48.9443 18.0037 48.9602L17.9038 49.4674C17.3946 49.9794 17.5888 48.259 17.0377 49.2015C17.0497 48.8227 17.2924 49.011 17.3239 48.5745C17.1462 48.5959 16.785 49.2692 16.7296 49.2579C16.4385 49.4756 16.7368 48.4698 16.4565 48.5973C16.5335 48.4282 16.6976 47.9649 16.5772 47.7439C16.3995 47.7653 16.1694 48.4384 16.2315 48.6052C16.2647 48.6312 16.3027 48.5774 16.314 48.5219C16.344 48.6013 16.3865 48.6947 16.2769 48.8725L16.3066 48.6899C16.1742 48.8477 15.9703 48.7713 15.9386 49.0768C15.8677 48.8774 15.9703 48.7713 16.0838 48.7059C15.8069 48.9111 15.7652 48.6253 15.5153 48.7359C15.5794 48.6489 15.6661 48.451 15.6373 48.4412C15.2711 48.5743 15.5982 48.0673 15.422 47.9311C15.2233 48.1678 15.2755 48.5906 15.1376 48.3043C14.9579 48.4486 14.9735 48.7676 14.9824 48.9312C14.8939 48.5356 14.5711 49.0588 14.4385 49.0856L14.4925 49.2546C14.456 49.1508 14.4087 49.1373 14.3614 49.1238L14.5235 48.7833C14.4486 48.8296 14.4013 48.8161 14.3547 48.9683C14.3587 48.7227 14.566 48.3876 14.5416 48.036C14.4092 48.1938 14.3592 47.7791 14.2033 48.2402C14.4945 48.1534 14.0391 48.7035 14.2257 48.8456C14.2001 48.7826 14.1528 48.7691 14.0779 48.8154C14.0562 48.8649 14.0611 48.916 14.0699 48.9486C13.7197 49.3044 14.1116 48.3871 13.8691 48.3297C13.8205 48.6048 13.6686 48.8202 13.6408 48.7491C13.7436 48.7739 13.8137 48.3184 13.7873 48.0896C13.569 48.2529 13.6632 47.887 13.5751 47.8844L13.6968 47.8169C13.7454 47.5418 13.6535 47.5577 13.5697 47.4404C13.5014 47.6421 13.6237 47.6094 13.5597 47.6964C13.5737 47.1947 13.1531 48.1023 13.0733 47.7394C12.9409 47.8971 12.926 48.233 12.8234 48.3392C12.7349 47.9436 12.5135 48.6493 12.4033 48.3032C12.5654 47.9628 12.5465 48.0552 12.5112 47.6629L12.7605 48.0066L12.7017 47.4284C12.8044 47.4533 12.8477 47.7125 12.9226 47.6662C12.907 47.3472 12.8881 47.4396 13.0204 47.1508C12.734 47.6468 12.846 46.7608 12.5833 47.0845L12.3322 47.9729C11.9837 48.3021 12.0484 47.4025 11.6822 47.5356L11.8234 47.4104C11.8827 47.0451 11.6477 47.309 11.5937 47.14C11.5169 47.4401 11.4262 47.5256 11.3329 47.6991C11.3968 47.481 11.103 47.6559 11.2485 47.0578L11.0027 47.4119C10.7033 47.5009 10.9831 46.4913 10.6848 46.5188C10.6721 46.8629 10.5011 47.0397 10.602 47.3184C10.5466 47.3071 10.3748 47.3181 10.4512 47.1142C10.3106 47.2742 10.2691 46.6302 10.0564 46.8794C10.0622 46.738 10.1923 46.4411 10.0672 46.431C10.0293 46.4848 10 46.5713 10 46.5713C10.0672 46.431 9.9182 46.3311 10.1858 46.0585C9.80149 46.4498 9.55843 46.3577 9.36865 46.2687C9.16852 46.1739 9.02167 46.0822 8.5209 46.3649C8.35658 46.208 8.1678 46.0577 7.9802 45.9769C7.8955 46.052 7.81837 46.0902 7.8939 46.0787C7.26956 46.1935 8.68658 45.3858 8.03619 45.5339C7.27782 45.8332 7.88049 45.7678 7.55886 45.8714C6.94457 46.2195 6.85972 46.1636 6.83352 46.0658C6.79916 45.9702 6.83975 45.8283 6.31438 45.9865L6.29488 46.0442C5.61407 46.2091 6.34986 45.6625 5.96448 45.6261C5.96448 45.6261 5.84063 45.6854 5.72653 45.716C6.30763 45.3419 6.27588 45.1583 6.29799 45.0126C5.66944 45.2422 6.04055 45.1602 5.28043 45.3551C5.26296 45.2899 6.44746 45.0162 6.45167 44.9015C5.99688 44.9972 5.47789 45.0489 4.6319 45.2494L4.82766 45.3279C3.66324 45.5788 4.5373 45.2223 4.22644 45.2357L3.77004 45.358C3.50952 45.2007 4.77174 44.9236 4.32217 44.8432L4.75906 44.7785C5.90005 44.4728 3.84175 44.8758 4.66052 44.639L3.20095 44.8641C3.38344 44.7628 4.1098 44.507 4.19828 44.4134C3.18215 44.5984 2.91278 44.7666 2.49175 44.9231C2.33137 44.8787 2.07143 44.7562 2.755 44.6342C2.65939 44.6686 2.37414 44.745 2.65837 44.73C3.30062 44.5841 3.70215 44.4852 3.82978 44.4074C4.04167 44.3506 4.16989 44.3075 4.23669 44.2634C2.73956 44.4462 2.72806 44.3706 2.82032 44.2586C2.92291 44.1525 3.11516 44.0223 2.1923 44.0338C2.93831 43.8513 3.06914 43.7202 3.14233 43.5696C3.21552 43.4189 3.23108 43.2488 3.61892 43.0663C5.12249 43.2661 3.84435 42.9622 5.53696 43.0852C5.75701 43.0262 5.76894 43.0055 5.67652 42.9866C5.41818 42.8375 5.21806 42.7426 5.03802 42.6249C4.67591 42.5122 4.5576 42.6575 4.207 42.6204C4.40622 42.4185 3.66821 42.4678 3.49515 42.2783C4.00235 42.3783 4.39632 42.3164 4.38364 42.1713C4.52235 42.2651 4.65887 42.3508 4.81169 42.4322C6.01324 42.3199 3.97743 41.9919 5.19906 41.8567L4.62783 41.8438C5.12177 41.7639 5.5924 41.2709 6.72805 41.4994C6.63068 41.4294 6.3783 41.2699 6.19463 41.3017C6.41234 41.1036 6.96552 41.0165 7.40242 40.9519C7.84528 40.8769 8.17783 40.814 8.19163 40.5395L7.95614 40.4104C8.11754 40.3934 8.4814 40.6103 8.41807 40.374C8.33919 40.3078 8.1967 40.2324 8.23905 40.1948C8.3581 40.2154 8.80229 40.3409 8.83415 40.1664L8.54539 40.0341C8.71681 39.7611 9.04616 39.7515 9.34626 39.8283C9.51043 39.8542 9.63444 39.9258 9.73996 39.9936C9.85144 40.0511 9.95041 40.0944 10.0363 40.0889C9.68665 39.5012 9.82211 39.1592 9.89094 38.9923L9.83432 38.9114C10.1508 38.6256 10.7351 39.0456 11.2085 39.0847C11.038 38.318 11.7517 38.4063 11.8815 37.8475C11.892 37.9844 12.1614 38.3053 12.256 38.3324C12.2634 38.1644 12.7172 38.6193 12.3807 38.0806L12.3606 38.1034C12.1116 37.5325 12.3518 37.5817 12.4691 37.4978L12.9004 38.1946C12.624 36.9672 13.9851 38.0699 13.6219 37.0404C13.8063 37.1745 13.9035 37.1135 14.0879 37.2475L13.8646 36.8706C14.0307 36.6427 14.1066 36.535 14.437 36.4639L14.2242 36.2239C14.3594 36.1091 15.0575 37.2148 15.2139 37.1467L14.9235 36.5519C15.1995 36.4081 15.1802 35.7494 15.7388 36.1064C15.6822 36.0254 15.5793 35.8696 15.526 35.8664C15.6411 35.7744 15.791 35.1927 16.1996 36.0004C15.9066 35.4936 16.4477 35.7854 16.7223 35.9302L16.4768 35.5679C16.8746 35.9767 16.9606 36.1022 17.2068 36.141C17.222 36.0671 17.0684 35.82 17.0686 35.9509C17.0905 35.6743 17.3825 36.2424 17.4267 35.9511L17.2227 35.7437C17.3416 35.6332 17.4053 35.7734 17.6507 36.0046C17.8264 36.106 17.8553 35.7576 17.6815 35.4024C17.822 35.6006 18.0592 35.834 18.0813 35.6883C18.0198 35.5563 17.9409 35.4901 17.9077 35.4641C17.9871 35.0759 18.5031 35.6976 18.4504 35.24C18.3807 35.1102 18.355 35.0472 18.3419 34.9983C18.1638 35.1159 18.0264 35.2226 18.0574 35.2405C17.851 34.894 17.9693 34.7487 17.5716 34.34C17.8408 34.5299 18.3805 34.9792 18.4275 34.7308C18.4166 34.69 18.3997 34.6596 18.3741 34.5966L18.3387 34.5624C18.35 34.507 18.3973 34.5205 18.4615 34.5644C18.4745 34.4824 18.4755 34.4209 18.52 34.3915C18.3697 34.0912 18.5996 34.1344 18.6642 34.0821C18.8794 34.4612 18.945 34.3475 19.0329 34.7083C19.0323 34.6735 18.9954 34.666 18.9302 34.6835C18.9117 34.6797 18.8954 34.684 18.8725 34.664L18.9117 34.6797C18.8546 34.695 18.7835 34.7228 18.7145 34.7587C18.887 34.9134 19.0447 35.0458 19.0015 34.7866C19.1833 35.0087 19.3732 35.2286 19.463 35.3356C19.2525 34.7456 19.2869 34.352 19.1256 34.0109C19.4789 34.0909 19.7428 33.8368 20.2957 34.466C20.4154 34.5213 20.2465 34.2172 20.2138 34.0949C20.1311 34.0472 20.0969 34.0826 20.0196 33.9897C20.2589 34.1003 20.4428 33.8414 20.7619 34.3149C20.7892 33.9932 20.4011 33.9137 20.6744 33.858L20.5595 33.7228C20.5316 32.6733 22.0106 34.5743 21.8987 33.2766C21.9021 33.3543 21.9048 33.3972 21.9452 33.4825C22.235 32.706 23.3308 33.2423 23.4627 32.2024C23.5304 31.9659 23.7362 32.2776 23.9685 32.4599L23.7669 32.0335L24.1989 32.4069C24.6301 32.6146 24.0186 31.1799 24.6877 31.6558L24.8114 31.9546C24.8852 31.8387 25.2385 31.9187 25.0349 31.6151C25.0725 31.6575 25.238 31.8839 25.1921 31.7128L25.0739 31.4999L25.5421 31.7151C25.6521 31.441 25.0145 30.8869 25.2811 30.6757C25.4349 30.6956 25.9496 31.1168 25.9932 31.2797C25.959 31.3151 25.9598 31.4809 26.078 31.6938L26.2405 31.7463C26.6234 32.36 27.0736 32.9644 27.0873 33.5372L26.6956 33.2491L26.8199 33.5827L26.9682 33.5167C27.0578 33.8509 26.8575 33.625 26.6975 33.4844C26.7782 33.655 26.8213 33.7832 26.8246 33.8609L26.2969 33.3909C26.4178 33.6467 26.6523 33.8372 26.627 34.0362C26.3898 33.8027 26.3795 33.4386 26.1424 33.3362C26.232 33.6703 26.3871 33.8908 26.1527 33.7003C26.2333 33.8709 26.3106 33.9637 26.3933 34.0114C26.1963 33.8633 26.1178 34.0591 25.8875 33.7539C26.013 34.157 25.549 33.8271 25.9068 34.4126C25.7941 34.2855 25.4829 34.037 25.3911 34.0529C25.944 34.6821 25.1245 34.2641 25.6118 35.007C25.1334 34.4276 25.0704 34.9424 24.6734 34.6994C24.7109 34.7418 24.7964 34.8324 24.7936 34.7895C24.7198 34.9053 24.801 35.1107 24.8099 35.2743C24.4881 34.7578 24.2544 34.7331 23.9796 34.4573C24.145 35.0419 24.421 35.0291 24.663 35.5408C24.4162 35.109 24.1914 35.2478 24.0273 34.8638C24.1093 35.2349 24.0287 35.0643 24.2412 35.5315C23.8393 34.8792 24.0846 35.4686 23.7635 35.1179C23.8113 35.5244 24.0915 35.755 23.8174 35.645C23.8378 35.8841 24.1146 36.0371 24.1146 36.0371ZM19.7499 37.0581C19.7928 37.0553 19.8254 37.0466 19.8417 37.0422C19.8254 37.0466 19.7906 37.0472 19.7499 37.0581ZM19.4294 37.2313C19.4555 37.1981 19.5082 37.1666 19.5527 37.1372C19.4889 36.997 19.3948 36.8737 19.3665 36.8988C19.4476 36.9731 19.4189 37.0944 19.4294 37.2313ZM18.5622 34.223C18.4861 34.1997 18.5079 34.2812 18.5483 34.3665C18.5727 34.36 18.6075 34.3594 18.6608 34.3626C18.6733 34.3767 18.6858 34.3908 18.6902 34.4071C18.6439 34.3322 18.5998 34.2654 18.5622 34.223Z" fill="#222222"/>
<path d="M18.9361 34.6731C18.9465 34.6791 18.959 34.6932 18.9753 34.6888C18.9862 34.7296 18.9868 34.7644 18.9933 34.7888L18.9117 34.6797L18.9361 34.6731Z" fill="#222222"/>
<path d="M20.4617 49.2012L20.4558 49.2116C20.4699 49.1991 20.4737 49.1806 20.4856 49.1599C20.4715 49.1724 20.4677 49.1909 20.4617 49.2012Z" fill="#222222"/>
<path d="M15.5603 40.4606L15.5097 40.3693L15.5804 40.4377L15.5603 40.4606Z" fill="#222222"/>
<path d="M22.7798 48.3006C22.7955 48.2615 22.8134 48.2305 22.8313 48.1994C22.8297 48.2261 22.8036 48.2593 22.7798 48.3006Z" fill="#222222"/>
<path d="M23.6294 48.4398L23.7913 48.3266C23.7147 48.3995 23.6702 48.4289 23.6294 48.4398Z" fill="#222222"/>
<path d="M24.3207 48.4118C24.3056 48.4857 24.2943 48.5412 24.2829 48.5966L24.3207 48.4118Z" fill="#222222"/>
<path d="M14.3951 45.0442C14.3848 45.0382 14.3826 45.0301 14.3782 45.0138C14.3439 44.9182 14.3733 44.9627 14.3951 45.0442Z" fill="#222222"/>
<path d="M17.1072 46.8856C17.0935 46.8019 17.088 46.716 17.0645 46.6612C17.1297 46.6437 17.1727 46.6409 17.1072 46.8856Z" fill="#222222"/>
<path d="M16.933 46.6266C17.0095 46.5536 17.053 46.5856 17.0727 46.659C17.0156 46.6743 16.9526 46.6999 16.933 46.6266Z" fill="#222222"/>
<path d="M27.1265 49.0052L27.1591 48.9965C27.1493 49.0253 27.1477 49.0519 27.1439 49.0704L27.1265 49.0052Z" fill="#222222"/>
<path d="M27.1439 49.0704L27.1592 49.1275C27.1489 49.1215 27.1385 49.1155 27.1439 49.0704Z" fill="#222222"/>
<path d="M27.2023 49.2557L27.1592 49.1275C27.1858 49.1291 27.2206 49.1285 27.2023 49.2557Z" fill="#222222"/>
<path d="M26.2334 48.965L26.2697 48.8068C26.2599 48.8356 26.2486 48.891 26.2334 48.965Z" fill="#222222"/>
<path d="M25.992 48.8462C26.0653 48.8266 26.2389 48.5617 26.2983 48.6855L26.2697 48.8068C26.2922 48.5649 25.97 49.1229 25.992 48.8462Z" fill="#222222"/>
<path d="M24.3813 50.4308L24.628 50.3735C24.5467 50.5263 24.4355 50.7308 24.5144 50.797C24.1159 51.2008 24.6824 50.4462 24.3813 50.4308Z" fill="#222222"/>
<path d="M23.6514 50.4779C23.7413 50.5849 23.5838 50.7144 23.5649 50.8068C23.5375 50.6395 23.5266 50.5987 23.6514 50.4779Z" fill="#222222"/>
<path d="M18.8659 49.1135L18.768 49.4978C18.6951 49.4213 18.8168 49.3538 18.8659 49.1135Z" fill="#222222"/>
<path d="M18.517 46.866L18.6793 46.6565L18.6177 47.0137L18.517 46.866Z" fill="#222222"/>
<path d="M17.1994 49.4465L17.225 49.5095L17.1156 49.3292L17.1994 49.4465Z" fill="#222222"/>
<path d="M8.37845 46.7786L8.79757 46.3868C8.81562 46.4868 8.43465 46.9558 8.37845 46.7786Z" fill="#222222"/>
<path d="M3.7342 44.9309C3.15657 45.0245 2.64516 45.0392 3.09122 44.911C3.28202 44.9385 3.81133 44.8927 3.7342 44.9309Z" fill="#222222"/>
<path d="M12.7524 37.5442L12.6011 37.4362L12.7903 37.4904L12.7524 37.5442Z" fill="#222222"/>
<path d="M137.926 3.57615C138.076 3.61456 138.27 3.85074 138.079 3.95424L137.602 3.70643L137.926 3.57615Z" fill="#222222"/>
<path d="M137.642 5.22438C137.292 5.22208 136.777 5.12432 136.544 4.68002C137.071 4.85331 136.959 4.66485 137.571 4.89402C137.762 4.79052 137.708 4.52536 137.541 4.42175C137.691 4.46016 137.685 4.11233 137.994 4.25653C138.092 4.71948 137.865 4.98117 137.375 5.00785C137.407 5.13009 137.56 5.17665 137.642 5.22438Z" fill="#222222"/>
<path d="M122.918 19.3198L122.99 19.1958C122.984 19.2409 122.952 19.2844 122.918 19.3198Z" fill="#222222"/>
<path d="M112.523 26.5863C112.608 26.546 112.676 26.5714 112.703 26.6078C112.605 26.634 112.528 26.6374 112.523 26.5863Z" fill="#222222"/>
<path d="M110.926 28.1584C110.96 28.123 110.989 28.098 111.023 28.0626C110.997 28.1306 110.968 28.1823 110.926 28.1584Z" fill="#222222"/>
<path d="M122.918 19.3198L122.744 19.6461C122.625 19.5294 122.804 19.4465 122.918 19.3198Z" fill="#222222"/>
<path d="M134.787 6.33871C134.856 6.30276 134.926 6.30159 135.014 6.3042C134.959 6.32764 134.906 6.35923 134.854 6.39081C134.831 6.37073 134.81 6.3588 134.787 6.33871Z" fill="#222222"/>
<path d="M127.585 16.1999L127.664 16.1351C127.724 16.1628 127.794 16.1964 127.869 16.2463L127.585 16.1999Z" fill="#222222"/>
<path d="M130.919 13.4811C130.861 13.5578 130.544 13.2582 130.389 13.1339C130.546 13.2316 130.655 13.2461 130.742 13.214C130.803 13.2764 130.859 13.3573 130.919 13.4811Z" fill="#222222"/>
<path d="M135.369 8.2794L135.497 8.23631C135.464 8.24505 135.418 8.2663 135.369 8.2794Z" fill="#222222"/>
<path d="M125.241 18.2082C125.273 18.2609 125.296 18.3158 125.307 18.3565C125.277 18.312 125.254 18.2571 125.241 18.2082Z" fill="#222222"/>
<path d="M11.6691 42.499C11.6697 42.5338 11.6659 42.5523 11.6562 42.5811C11.6409 42.524 11.6425 42.4974 11.6691 42.499Z" fill="#222222"/>
<path d="M6.50704 43.9346L6.56904 43.9704C6.56424 44.0503 6.5513 44.1324 6.53835 44.2144L6.50704 43.9346Z" fill="#222222"/>
<path d="M107.711 30.6009C107.717 30.5906 107.717 30.5906 107.725 30.5884C107.835 30.5763 107.781 30.5998 107.711 30.6009Z" fill="#222222"/>
<path d="M73.325 43.0029C73.6342 42.527 72.5517 42.6598 73.0581 42.1048C73.0448 42.2831 73.7713 42.6475 73.325 43.0029Z" fill="#222222"/>
<path d="M134.751 6.46213C134.708 6.49969 134.666 6.53724 134.626 6.58294C134.676 6.50842 134.71 6.47305 134.751 6.46213Z" fill="#222222"/>
<path d="M73.0663 42.1027L73.1206 42.0444C73.0923 42.0695 73.0782 42.082 73.0663 42.1027Z" fill="#222222"/>
<path d="M99.3076 34.3813C99.2961 34.3057 99.3031 34.234 99.3122 34.1704C99.3313 34.2089 99.3303 34.2703 99.3076 34.3813Z" fill="#222222"/>
<path d="M105.209 30.8784L105.086 31.0073C105.128 30.935 105.17 30.8975 105.209 30.8784Z" fill="#222222"/>
<path d="M95.8036 35.2241C95.733 35.2867 95.726 35.3584 95.5847 35.3526C95.5863 35.326 95.5901 35.3075 95.602 35.2868C95.6722 35.3204 95.7336 35.3214 95.8036 35.2241Z" fill="#222222"/>
<path d="M92.386 36.5853C92.3936 36.5483 92.4093 36.5092 92.4191 36.4803C92.4517 36.4716 92.5027 36.4667 92.5353 36.4579L92.386 36.5853Z" fill="#222222"/>
<path d="M22.5769 43.6642C22.495 43.7823 22.4338 43.9122 22.391 44.046C22.4575 43.7399 21.929 43.5933 22.5769 43.6642Z" fill="#222222"/>
<path d="M134.966 6.51786C134.871 6.45601 134.814 6.43652 134.759 6.45995C134.795 6.43273 134.826 6.41585 134.862 6.38863C134.908 6.42879 134.953 6.46896 134.966 6.51786Z" fill="#222222"/>
<path d="M94.3487 32.0762L93.8457 32.3507C93.9771 32.2544 94.1596 32.1531 94.3487 32.0762Z" fill="#222222"/>
<path d="M48.4901 43.3245L48.3564 43.2817C48.4053 43.2686 48.4504 43.274 48.4901 43.3245Z" fill="#222222"/>
<path d="M92.2425 32.9201C92.2047 33.1049 92.1412 33.2267 92.0528 33.3203C92.0196 33.2943 91.9804 33.2786 91.9532 33.2422L92.2425 32.9201Z" fill="#222222"/>
<path d="M18.6833 42.7596C19.2241 42.7894 18.8916 43.3415 18.9833 43.6838C19.6255 43.896 19.3122 43.2812 19.5614 43.0048C19.9513 43.1886 20.2307 43.7426 20.5335 43.7314C20.5605 43.6368 20.6235 43.6111 20.5642 43.4873C20.9653 43.9738 21.8388 43.5825 22.3075 44.1907C22.3476 44.145 22.3693 44.0955 22.3828 44.0482C22.2832 44.3282 22.2574 44.6234 22.2609 44.8321C22.5028 44.8546 22.6973 45.2218 22.8077 44.8515C22.6604 44.856 22.6537 44.7006 22.5862 44.5789L22.8348 44.7569C23.0961 44.2327 22.4916 44.5519 22.5156 44.1524C23.0082 44.361 23.573 44.8386 23.9636 44.699C24.0673 44.1733 23.0676 44.4849 23.6106 44.0337L23.0015 44.2056C23.5017 43.399 22.6358 44.2425 23.1022 43.375C23.8841 43.2616 23.9629 43.686 24.7508 43.5622C24.9093 43.8604 24.6742 43.9933 24.8349 44.2996C25.9231 44.8728 25.7627 43.0028 26.5468 43.7448C26.7472 44.1017 26.8078 44.7842 27.3976 44.4427L27.2176 43.8359C27.9741 43.7904 27.6251 44.705 28.4312 44.323C28.2983 44.0878 27.8424 44.1139 27.9537 44.0404C28.476 43.5773 28.3096 44.3906 28.7047 44.3982L28.7981 43.8666C29.5999 43.9575 30.483 44.3847 31.3788 44.4679C31.327 44.3071 31.179 44.1458 31.3891 43.9847C32.5172 44.2502 33.7989 43.9155 34.8763 43.6006L35.2931 44.0479C35.3872 44.0402 35.4717 43.8341 35.3618 43.75C35.7844 43.5669 35.3872 44.0402 35.5906 44.2128C35.8325 44.2354 35.9034 43.9456 35.7538 43.811C36.5069 44.1769 37.9037 44.5976 38.6749 44.0852L38.5171 43.9528C39.1196 43.7564 39.2448 44.8759 39.796 44.4225L39.7127 44.34C41.0326 44.0824 42.5325 44.4317 43.5045 43.6908C43.7406 44.3438 44.7975 43.3007 44.9459 44.213C45.6741 43.7034 45.4424 43.5559 46.492 43.1698C46.7713 43.1037 46.9595 43.7084 47.3189 43.7781L47.2862 43.2977L47.8058 43.7699L48.0149 43.1811L48.3564 43.2817C48.226 43.3167 48.0963 43.5174 48.1231 43.65C48.6603 43.8292 49.3558 43.1974 49.3413 42.9479L50.5966 43.2318C50.5545 43.0421 50.3409 42.9946 50.1652 42.8931C50.8641 43.3173 50.2363 42.3762 50.8732 42.7646C50.8076 42.8782 50.9475 43.0417 50.9655 43.1417C51.2304 42.8261 51.9086 42.7492 52.4174 42.8225L52.2871 42.4993C53.1788 42.339 54.1996 42.4323 55.2125 42.3007C54.8845 42.5108 55.0352 43.0732 55.3363 43.0886L55.3889 42.5679C55.623 42.8545 55.1023 42.8019 55.5478 43.128C55.9205 43.0194 55.7259 42.5213 55.4882 42.384L55.9731 42.4987C55.9849 42.347 55.8631 42.2836 55.8107 42.088C56.0366 42.3769 56.5312 41.4844 56.8753 41.9862L56.8789 41.8367C57.8837 41.7072 58.3686 41.8219 59.1854 41.7078C59.2663 42.1404 59.5748 41.9878 59.8687 42.3022C60.4521 42.0672 61.0669 41.623 61.7961 41.5411C62.3387 41.6753 62.0107 41.8854 62.2783 42.102C62.2491 41.6993 62.9805 41.6256 62.5531 41.3994C63.434 41.3294 63.6769 41.2905 64.833 41.4C64.742 41.5816 64.6209 41.6839 64.7129 41.7991C64.92 41.8222 65.1343 41.5464 65.0759 41.3611L65.0286 41.3476C66.3791 41.6933 67.6447 39.6683 68.7786 40.2816L68.7188 40.254L69.8191 40.4483C70.2705 40.2749 69.4775 40.2167 69.7668 39.8946C70.9934 40.2996 71.4636 39.4137 72.4497 39.6386C72.6598 38.9883 73.2738 38.8675 73.9357 38.795C74.5911 38.698 75.2921 38.6412 75.6606 38.1581L75.6756 38.4423C75.9818 38.6398 75.9275 38.2089 76.0834 38.1059C76.1157 38.3244 75.8859 38.4122 76.0719 38.5196C77.1262 38.4118 78.1513 38.0323 79.1508 37.5898C80.1497 37.1124 81.1165 36.5477 82.1019 36.1177C82.8255 35.819 82.9578 37.3558 83.7056 36.4304L83.2812 36.0201C84.9988 36.1713 86.3377 34.974 87.9768 34.9628C87.8507 34.883 87.795 34.7407 87.6505 34.7882C87.8331 34.3287 88.7876 34.3699 88.8988 34.6546C89.1139 34.5445 88.8593 34.3769 88.9461 34.179C89.1761 33.864 89.8925 34.3534 89.9246 33.9517C89.9338 33.8881 89.7963 33.8638 89.7267 33.865C89.9926 33.9772 90.6431 33.4709 90.6062 33.9525C91.0742 33.5476 91.7136 33.7169 92.0484 33.304C92.5064 33.6443 92.888 32.7209 93.2316 33.3189C92.9303 32.6834 93.9675 32.4142 94.433 32.5865C94.236 32.4383 94.6445 32.2677 94.4013 32.0446C94.7898 31.8969 95.2028 31.8736 95.2744 32.2387C95.6661 31.1904 96.9669 32.2307 96.9372 31.0769C98.2219 30.9161 99.3863 30.6652 100.482 30.3541C100.15 29.7355 99.3191 30.8055 99.0536 30.108C100.139 29.9219 100.978 30.2476 101.847 29.6128C102.052 29.4006 101.573 29.4066 101.443 29.3453C102.518 29.1185 103.248 28.3551 104.264 28.2664C104.23 28.2055 104.105 28.1954 103.999 28.189C104.174 28.1246 104.34 27.8967 104.463 28.1955L104.263 28.1968C104.209 28.7442 105.373 28.7205 105.513 28.9187C104.81 28.251 106.244 28.2863 105.262 27.4923C105.401 27.49 105.611 27.556 105.682 27.7554C105.819 27.6139 105.808 27.477 105.53 27.3507C106.207 27.2042 106.158 27.6103 106.694 27.327C106.622 27.189 106.483 27.1914 106.344 27.0627C106.763 27.1949 107.179 27.3107 107.559 26.9379C107.489 26.8695 107.478 26.7326 107.35 26.8104C108.136 26.4166 109.051 26.7655 109.744 26.0293C109.164 25.5908 109.92 25.6763 109.672 25.1402L110.21 25.0309L110.173 25.3815C110.564 25.1457 111.124 25.3102 111.37 24.9561L110.958 24.918L111.752 24.5915L111.449 25.0223C112.006 25.0477 111.783 25.6839 112.232 25.2404C112.095 25.2509 112.633 25.0106 112.653 24.5948C112.942 24.6308 113.242 24.6729 113.447 24.3645C113.427 24.1601 113.048 23.8513 113.029 23.7166C113.474 24.0079 113.998 23.2561 114.51 23.5382C114.366 23.4894 114.2 23.2282 114.19 23.1608L114.559 23.3941C114.665 23.1733 114.664 23.1037 114.502 22.9202C114.996 22.5169 114.725 23.6553 115.198 22.9781C115.131 22.9874 115.122 22.92 114.987 22.9386C115.538 22.389 116.359 22.3527 116.843 21.8125C116.691 21.2153 116.253 22.023 116.178 21.4839C116.633 21.2573 117.165 21.1235 117.682 20.9674C118.187 20.7972 118.662 20.5825 119.025 20.2408L118.9 20.3964C119.479 20.9924 119.256 19.6372 119.877 19.6718C119.742 19.6904 119.487 19.3918 119.564 19.4499C120.024 18.9509 120.786 18.8256 121.757 18.4429L121.531 18.3464C121.735 17.9684 122.307 17.6579 122.586 17.3299C122.813 17.4263 122.994 17.2555 123.057 17.588C123.347 15.8332 125.403 16.5313 125.689 15.0222C125.58 15.1039 125.313 15.0879 125.398 15.0128L126.287 14.5476C126.454 14.8784 126.328 14.7986 126.342 15.1443C126.574 15.2304 126.895 15.1882 127.089 15.0314C126.591 15.1299 126.723 14.5791 126.745 14.3025C126.79 14.4041 126.917 14.4572 126.978 14.5544C126.969 13.7359 127.507 15.0592 127.786 14.2768L127.631 14.1525C127.903 14.0619 128.254 14.099 128.439 13.8749C128.264 13.4849 128.097 13.9052 127.856 13.6555C128.188 13.4268 128.983 13.7552 128.98 13.1883C128.777 13.2163 128.594 13.379 128.39 13.3988C128.369 12.7668 128.48 12.8243 128.648 12.5697L128.638 12.5985L128.996 11.9785L128.957 12.19C130.048 12.6751 129.844 11.6552 130.818 11.735C129.883 11.6709 130.48 11.5196 130.123 11.1961C130.162 10.9847 130.26 10.6965 130.116 10.6477C130.606 10.7173 130.311 10.0714 131.013 10.1803C130.927 10.0549 131.254 9.94092 130.947 9.70867C131.333 9.51798 131.052 9.96888 131.205 10.085C132.031 10.0384 131.887 8.61837 133.05 8.52513C133.814 8.18072 134.268 8.44323 134.971 8.09781C134.973 7.74779 134.44 7.8468 134.44 7.8468C134.566 7.40261 134.804 7.21645 135.193 7.06869C135.043 7.03028 135.024 6.89552 134.978 6.68959C135.216 6.50343 135.516 6.93841 135.633 6.49641C135.466 6.42758 135.212 6.29472 134.989 6.27597C135.34 6.12065 135.79 6.07011 136.147 5.90446C136.026 5.64862 135.703 5.7789 135.486 5.74981C135.857 5.53686 136.409 5.15303 136.803 5.35311L136.724 5.64506C136.847 5.55089 136.521 5.34149 136.388 5.36828C135.905 5.39277 136.128 5.83111 136.23 5.95219L136.486 5.83123C136.931 6.64649 135.639 6.48607 135.304 6.89899L135.917 7.19772L135.15 7.20245C135.186 7.40241 135.384 7.71632 135.642 7.60351C135.601 8.10358 135.244 7.68388 135.26 8.16866C135.278 8.23386 135.307 8.24361 135.35 8.24084L134.949 8.37447C135.093 8.42322 135.223 8.74645 135.319 8.51969C135.109 9.26617 134.219 8.94548 134.38 9.47901L134.447 9.46969C133.627 9.96036 134.058 9.18971 133.16 9.26415L133.622 10.4332L133.231 10.1451C133.172 10.2218 133.056 10.3752 133.21 10.4913C132.721 10.4914 133.114 10.2985 132.751 10.2125C132.7 10.8376 131.672 10.9122 132.104 11.5476C131.739 11.392 132.241 11.0479 131.711 11.1899C132.153 11.8926 131.192 11.4688 131.132 12.0265C131.508 12.2576 131.66 11.815 131.594 12.383C130.931 12.0278 131.083 13.0527 130.728 13.1917C130.338 12.7807 129.999 13.5355 129.422 13.7949C129.588 13.9251 128.773 14.7637 128.462 15.2662L128.539 15.3243C128.09 14.9552 127.711 15.3976 127.303 15.5682C127.536 15.8201 127.674 15.8791 127.956 15.856L127.647 16.1047C127.46 16.024 127.302 16.0225 127.06 16.131L127.413 16.4034C126.99 16.7175 126.271 16.6743 125.922 17.327C125.643 17.0349 125.65 16.1158 124.927 16.3531C125.039 16.5416 125.251 16.843 125.448 16.7987C125.383 16.8162 125.168 16.7952 125.13 16.9453L125.578 17.0524C125.436 17.3699 125.262 16.9185 125.091 17.0953C125.286 17.3315 125.09 17.3839 125.267 17.5549C125.332 17.5375 125.353 17.3222 125.501 17.3525C125.322 17.5663 125.173 17.9208 125.224 18.1778C125.14 18.0257 124.971 17.8526 124.786 17.9457C124.364 18.2598 124.869 18.3516 124.727 18.6692C124.494 18.5831 124.37 18.9658 124.081 18.6064C123.958 18.7006 124.067 18.8809 124.088 19.0238C123.746 19.0193 123.017 19.7213 122.977 19.1469L123.013 19.0849C122.994 19.0811 122.98 19.0936 122.964 19.098C121.974 19.2497 121.614 20.3855 120.785 20.7474L120.879 20.8706C120.348 21.0392 119.87 21.473 119.376 21.4219C119.253 21.5161 119.234 21.8705 119.394 21.9763C118.993 22.1099 118.878 22.0095 118.531 22.5393C119.02 22.5392 118.554 22.8213 118.984 22.4703C118.629 22.8712 118.656 23.1348 117.947 23.0976C118.329 23.3184 117.888 23.7249 117.61 23.7643L117.765 23.3299C117.496 23.4367 117.311 23.5913 117.119 23.7562L117.522 24.1199C116.956 25.2326 115.308 24.2677 115.185 25.6021C114.751 25.4477 115.541 25.0701 115.105 24.8462C114.73 25.1738 114.686 26.0853 114.552 26.1735C114.12 26.7784 113.637 25.886 113.119 26.4003C113.099 26.1959 112.922 25.7282 112.375 25.8397C111.985 26.1451 112.242 26.81 112.591 26.7775C112.701 26.7307 112.724 26.6545 112.685 26.604C112.854 26.5848 113.081 26.5503 113.012 26.8134L112.864 26.687C112.748 26.9714 112.144 27.2906 112.437 27.4739C112.018 27.5076 112.144 27.2906 112.339 27.0724C111.926 27.6197 111.477 27.574 111.002 28.0507C111.043 27.9088 111.014 27.6719 110.925 27.7307C110.206 28.4038 110.385 27.6395 109.78 27.8891C109.599 28.3219 110.224 28.4076 109.541 28.5296C109.289 28.8941 109.702 29.0017 109.918 29.0575C109.224 29.0425 109.057 29.821 108.795 30.0485L109.138 30.0264C108.932 30.038 108.796 30.1181 108.66 30.1981L108.637 29.7851C108.51 29.9326 108.374 30.0126 108.444 30.1424C108.158 30.0183 108.28 29.5312 107.785 29.4106C107.659 29.689 107.024 29.5707 107.178 30.045C107.787 29.5497 107.331 30.5193 107.951 30.2919C107.812 30.2943 107.674 30.3662 107.54 30.5158C107.539 30.5772 107.613 30.5924 107.666 30.5955C107.205 31.3217 107.104 30.2571 106.422 30.6144C106.634 30.8196 106.507 31.1595 106.368 31.1618C106.644 31.018 106.284 30.6863 105.935 30.6226C105.592 31.0377 105.386 30.726 105.169 30.8627L105.389 30.6379C105.176 30.4328 104.972 30.5836 104.626 30.659C104.699 30.8665 104.973 30.6531 104.906 30.7934C104.347 30.5327 104.364 31.6376 103.747 31.5845C103.612 31.8651 103.953 32.062 103.818 32.2731C103.131 32.2212 103.413 32.9143 102.715 32.9179C102.719 32.5064 102.789 32.5748 102.226 32.4288C102.577 32.3696 102.922 32.2861 103.26 32.2128L102.44 32.022C102.716 31.8782 103.124 31.9347 103.261 31.7933C102.85 31.659 102.92 31.7274 102.917 31.3877C102.781 32.0879 102.032 31.4762 101.746 32.007L102.151 32.8332C101.651 33.5088 100.757 32.9447 99.9751 33.5473L100.189 33.2715C99.9228 32.9935 99.6299 33.4651 99.288 33.4606C99.4378 33.7262 99.3119 33.9084 99.2687 34.1384C99.1935 33.9227 98.6354 34.4478 98.3114 33.9232L98.0832 34.4735C97.4381 34.9346 96.9381 34.0466 96.2934 34.4115C96.6328 34.635 96.3989 34.9685 96.9582 35.002C96.7306 35.098 96.5406 35.2362 96.4615 35.039C96.402 35.2734 95.6673 34.9112 95.5607 35.2629C95.416 35.1794 95.2597 34.8894 95.006 35.0185C94.999 35.0902 95.0616 35.1608 95.0616 35.1608C95.006 35.0185 94.5822 35.132 94.6736 34.7232C94.325 35.8998 92.6738 35.4425 92.3614 36.4608C91.8208 36.562 91.1829 36.7242 90.7102 36.8509C90.775 36.9296 90.7658 36.9932 90.8364 36.9306C90.2962 37.4248 90.135 36.2363 89.5242 36.7931C89.3255 37.3879 90.001 36.9099 89.8355 37.1726C90.0835 38.1631 88.9134 37.3498 88.6208 38.0833L88.7562 38.0995C88.4937 38.5542 87.7137 38.0556 87.1271 38.3438C87.1271 38.3438 87.1815 38.4166 87.1827 38.4862C86.5996 38.1357 85.7628 38.2726 85.1269 38.312C85.4311 38.6323 85.4646 38.4311 85.4716 38.8485C85.1896 38.8717 85.3442 38.2101 84.7823 38.2646C84.6761 38.5201 84.3558 38.8243 84.4345 39.2487L84.942 39.1215C84.852 39.7308 84.2841 39.3065 84.0495 39.4742L84.1536 39.6996C83.3581 39.8604 83.1682 39.2823 82.3544 39.5702L82.3879 39.3691C81.7623 38.9253 82.1047 39.8118 81.5288 39.5207L81.6355 40.1472C81.2887 40.0916 80.4259 39.9035 79.8596 39.9417C80.2873 40.2988 80.9754 40.3241 81.4424 40.4697C81.1452 40.5668 80.4215 40.7346 80.1821 40.493C80.3196 40.5173 80.5116 40.6143 80.5995 40.486C80.1045 40.1382 79.5603 40.0307 78.9675 40.1982C79.3895 41.3168 77.4955 40.8984 77.3037 41.9106C76.1345 41.7522 75.2638 42.6756 73.9901 42.8771C74.2106 41.8746 73.6206 42.9325 73.4738 41.9935C73.1689 41.9965 73.0673 42.0412 73.0581 42.1048L72.3155 42.8541C72.1735 43.1717 72.6413 42.994 72.6633 43.2064C72.0488 43.4235 72.4888 43.6637 72.1261 44.0055C72.1366 43.6533 71.7936 43.5792 71.4655 43.7894L71.8779 43.2422C70.8824 42.9499 71.2861 44.1956 70.2846 43.9137L70.6344 44.1432C70.1381 44.084 68.9381 44.5278 68.3291 43.8524C68.2656 43.9742 68.2089 44.2515 68.4263 44.2806C67.3348 44.608 65.8133 43.95 65.0461 44.5749L65.1724 44.7856C64.955 44.7565 64.7345 44.4225 64.5223 44.7065C64.5545 44.7939 64.6487 44.9172 64.553 44.9515C64.4312 44.8881 63.9342 44.6631 63.6833 44.8352L63.9613 45.0577C62.9276 45.5356 62.195 44.6924 61.2656 44.6794C61.3773 45.357 60.5565 45.7167 60.148 45.8873L60.1742 45.9851C58.9267 46.2844 57.9434 45.7443 56.7399 45.6213C56.1132 46.4443 54.3254 46.2595 53.1945 46.7984C53.3579 46.6585 53.1058 46.2718 52.8921 46.2243C52.6309 46.3903 52.0873 45.8285 52.1918 46.4468L52.2896 46.4206C52.161 47.0491 51.5821 46.9422 51.137 47.009L50.9801 46.195C49.9441 47.5121 47.9281 46.0519 47.386 47.1581C47.0922 46.9747 46.7488 46.9969 46.4551 46.8135L46.5034 47.2548C45.7368 47.4253 45.3575 47.5094 44.3949 47.4703L44.6067 47.7717C44.0654 47.8381 43.8432 46.5525 43.3519 46.5444L43.2424 47.2114C42.2994 47.2457 41.3746 47.8691 40.4136 47.3142C40.4316 47.4142 40.4715 47.5957 40.6254 47.6156C40.1819 47.6558 38.9232 48.1416 39.0531 47.2246C39.063 47.8159 38.0781 47.3024 37.5664 47.0551L37.6555 47.4855C37.2125 46.9403 37.1976 46.7871 36.5936 46.6519C36.4535 46.7157 36.4788 47.0059 36.6651 46.8861C36.1963 47.1253 36.2858 46.4811 35.723 46.728L35.9445 47.0006C35.4582 47.0435 35.4966 46.8935 35.2212 46.5829C34.9155 46.4202 34.3001 46.6987 34.231 47.0928C34.1677 46.8565 33.8982 46.5356 33.6136 46.6468C33.5752 46.7969 33.6791 46.8913 33.7329 46.9293C32.9213 47.2254 32.5231 46.4236 31.9654 46.8526C31.9514 46.9961 31.9178 47.0662 31.8695 47.1141C32.5141 47.1074 33.0396 47.0801 32.988 47.0503C32.9906 47.4514 32.4678 47.5216 32.8865 48.0733C32.466 47.7754 31.7489 47.1203 31.2404 47.3089C31.2165 47.3502 31.1905 47.3834 31.1731 47.4492L31.2292 47.4953C31.1091 47.5363 31.002 47.4951 30.9068 47.4332C30.7422 47.5035 30.6406 47.5482 30.483 47.5468C30.4231 47.8773 29.8821 47.7165 29.6223 47.725C29.6539 47.2885 29.3132 47.3536 29.6367 46.9961C29.5921 47.0255 29.6867 47.0526 29.8569 47.0682C29.896 47.0839 29.9411 47.0893 29.9662 47.1175L29.9471 47.0789C30.1172 47.0945 30.3385 47.1051 30.5966 47.1233C30.3964 46.8974 30.1782 46.7025 29.8937 46.9447C29.764 46.6563 29.6261 46.37 29.5439 46.2261C29.1816 46.8298 28.489 47.1464 28.3807 47.5248C27.5945 47.2638 26.5108 47.3271 26.0381 46.4754C25.8151 46.3605 25.7677 46.7051 25.6776 46.8253C25.806 46.9132 25.9614 46.9065 26.0289 47.0282C25.583 46.7983 24.6901 46.889 24.615 46.3152C24.0397 46.5479 24.9086 46.8567 24.1329 46.7326L24.2342 46.9151C22.64 47.779 21.8207 45.3081 20.0502 46.394C20.1719 46.3265 20.2349 46.3008 20.262 46.2062C18.2852 46.5874 16.3212 45.4191 14.3403 46.0459C13.7834 46.1515 13.7628 45.7814 13.4608 45.4692L13.2945 45.9244L12.7932 45.3249C12.0442 44.8443 11.2666 46.3105 10.3411 45.4317L10.5141 45.132C10.144 45.1526 9.39079 44.7866 9.40319 45.1589C9.37757 45.0959 9.32777 44.8122 9.16653 44.9602L9.10484 45.1864L8.27698 44.6395C7.56181 44.7089 8.23413 45.6206 7.20895 45.511C6.84408 45.3554 6.24426 44.6164 6.41802 44.4825C6.58 44.5003 6.83206 44.3978 6.88938 44.1553L6.56904 43.9704C6.63665 43.2447 6.53573 42.4769 7.41576 42.11L7.90772 42.6421L8.14594 42.3249L7.67352 42.2244C7.99819 41.9365 8.11814 42.2538 8.28582 42.4884C8.36061 42.3111 8.46102 42.1968 8.58486 42.1374L9.04395 42.9054C9.15396 42.6314 8.87639 42.3126 9.27574 42.2056C9.49247 42.5581 8.92752 42.7968 9.34145 43.0703C9.66612 42.7824 9.6185 42.5069 9.9064 42.8315C9.98119 42.6543 9.92777 42.5201 9.80755 42.43C10.0617 42.6939 10.5518 42.6324 10.6507 43.0339C10.9883 42.6639 11.6124 43.2654 11.6725 42.5767C11.745 42.7494 12.1123 43.1751 12.3733 43.2362C11.982 42.3627 13.3772 43.2991 13.3479 42.4073C13.6249 43.1804 14.6023 42.8835 15.1975 43.3443C15.1637 43.2834 15.1124 43.1574 15.0516 43.1912C15.4195 43.1625 15.547 42.9536 15.7865 42.837C15.7764 43.4512 16.318 43.6467 16.5907 44.0453C17.083 43.5029 16.3839 43.3059 16.5772 42.7562C16.5077 43.2465 17.297 43.3233 17.1132 43.7132C17.4862 43.3774 17.4217 43.5606 17.6385 43.0658C17.6351 43.8354 17.942 43.2203 18.1855 43.7054C18.7058 43.3651 18.364 43.0024 18.8823 43.2741C19.1326 43.0673 18.6833 42.7596 18.6833 42.7596ZM31.3996 44.6108C31.2887 44.5881 31.1925 44.5877 31.1371 44.5763C31.1822 44.5817 31.2643 44.5946 31.3996 44.6108ZM32.4763 44.6193C32.3416 44.6379 32.1839 44.6365 32.01 44.6394C31.9694 44.7813 32.0109 44.9362 32.1153 44.9344C32.0602 44.8268 32.3085 44.7429 32.4763 44.6193ZM30.151 47.6445C30.3261 47.7111 30.382 47.6263 30.4091 47.5317C30.327 47.5187 30.2368 47.5079 30.1052 47.4733C30.1008 47.457 30.0943 47.4326 30.0818 47.4185C30.1058 47.5081 30.1173 47.5836 30.151 47.6445Z" fill="#222222"/>
<path d="M29.8465 47.0622C29.8177 47.0525 29.8052 47.0383 29.7764 47.0286C29.8106 46.9932 29.8448 46.9579 29.8812 46.9306C29.9024 46.9773 29.9237 47.0241 29.9449 47.0708C29.9101 47.0714 29.8813 47.0616 29.8465 47.0622Z" fill="#222222"/>
<path d="M123.002 19.1751L122.99 19.1958C122.991 19.1691 123.003 19.1485 122.995 19.1159C122.993 19.1425 123.003 19.1485 123.002 19.1751Z" fill="#222222"/>
<path d="M47.2845 43.1933L47.2884 43.3058L47.1867 43.2195L47.2845 43.1933Z" fill="#222222"/>
<path d="M126.761 14.2981C126.742 14.2595 126.739 14.2166 126.751 14.1612C126.766 14.1834 126.77 14.2345 126.761 14.2981Z" fill="#222222"/>
<path d="M128.669 12.5816L128.834 12.2227C128.776 12.3956 128.727 12.5049 128.669 12.5816Z" fill="#222222"/>
<path d="M129.984 11.1023C130.057 11.144 130.102 11.1842 130.138 11.2184L130.14 11.2265L129.984 11.1023Z" fill="#222222"/>
<path d="M104.001 28.1971C103.976 28.2037 103.952 28.2102 103.928 28.2168C103.727 28.2181 103.851 28.1935 104.001 28.1971Z" fill="#222222"/>
<path d="M112.645 24.5969C112.518 24.5786 112.39 24.5603 112.28 24.5724C112.407 24.4597 112.51 24.3884 112.645 24.5969Z" fill="#222222"/>
<path d="M111.903 24.7957C112.001 24.6385 112.135 24.5851 112.272 24.5746C112.173 24.6622 112.056 24.7808 111.903 24.7957Z" fill="#222222"/>
<path d="M135.992 5.06385L136.05 4.98715C136.073 5.00723 136.094 5.01916 136.104 5.02513L135.992 5.06385Z" fill="#222222"/>
<path d="M136.104 5.02513L136.216 4.98641C136.182 5.02177 136.145 5.04899 136.104 5.02513Z" fill="#222222"/>
<path d="M136.448 4.90678L136.216 4.98641C136.262 4.93037 136.32 4.85367 136.448 4.90678Z" fill="#222222"/>
<path d="M134.308 7.06106L134.178 6.96501C134.209 6.98291 134.25 7.00678 134.308 7.06106Z" fill="#222222"/>
<path d="M133.716 7.58679C133.821 7.42742 133.814 7.01002 134.062 6.89124L134.17 6.9672C133.921 6.88542 134.03 7.65109 133.716 7.58679Z" fill="#222222"/>
<path d="M132.646 11.2888L133.058 10.7415C133.086 10.9437 133.124 11.2132 133.383 11.039C133.094 11.9812 133.251 10.6462 132.646 11.2888Z" fill="#222222"/>
<path d="M131.254 12.8758C131.573 12.6945 131.417 13.0593 131.494 13.1174C131.224 13.1547 131.157 13.164 131.254 12.8758Z" fill="#222222"/>
<path d="M119.377 22.2078L119.634 22.5146C119.378 22.6356 119.548 22.3891 119.377 22.2078Z" fill="#222222"/>
<path d="M115.838 22.0729L115.926 21.7174L116.235 21.9578L115.838 22.0729Z" fill="#222222"/>
<path d="M115.947 25.3805L116.082 25.3619L115.609 25.4885L115.947 25.3805Z" fill="#222222"/>
<path d="M93.1329 36.6996L93.0367 36.21C93.2416 36.225 93.4792 36.7204 93.1329 36.6996Z" fill="#222222"/>
<path d="M82.5917 39.8037C82.5512 40.0765 82.3015 40.3182 82.0448 40.1424C82.2783 40.0361 82.4563 39.7875 82.5917 39.8037Z" fill="#222222"/>
<path d="M50.4961 46.8663L50.7337 47.0035L50.3064 46.9084L50.4961 46.8663Z" fill="#222222"/>
</svg>
