<svg width="171" height="192" viewBox="0 0 171 192" fill="none" xmlns="http://www.w3.org/2000/svg">
<g filter="url(#filter0_dd)">
<path d="M85.1493 17C55.2435 17 31 41.7656 31 72.3156C31 100.619 51.8092 123.958 78.6514 127.237C83.8498 127.237 85.1493 132.662 85.1493 135.375V144.226C85.1493 148.651 88.0373 146.807 89.4813 145.332C96.3402 138.694 113.09 122.321 125.22 109.93C137.349 97.5394 139.66 79.691 139.299 72.3156C139.299 41.7656 115.055 17 85.1493 17Z" fill="white"/>
</g>
<path d="M85 98C98.8071 98 110 86.8071 110 73C110 59.1929 98.8071 48 85 48C71.1929 48 60 59.1929 60 73C60 86.8071 71.1929 98 85 98Z" fill="#49CF97"/>
<path d="M85 73.9292C90.3566 73.9292 94.699 69.5869 94.699 64.2303C94.699 58.8737 90.3566 54.5314 85 54.5314C79.6434 54.5314 75.3011 58.8737 75.3011 64.2303C75.3011 69.5869 79.6434 73.9292 85 73.9292Z" fill="white"/>
<path d="M98.5985 86.4296C95.1354 89.9399 90.3214 92.1133 85.0004 92.1133C79.6795 92.1133 74.8655 89.9397 71.4023 86.4296C72.7864 80.194 78.3476 75.5331 85.0004 75.5331C88.8479 75.5331 92.33 77.0937 94.85 79.6141C96.6888 81.4504 98.0163 83.801 98.5985 86.4296Z" fill="white"/>
<defs>
<filter id="filter0_dd" x="0" y="0" width="170.333" height="192" filterUnits="userSpaceOnUse" color-interpolation-filters="sRGB">
<feFlood flood-opacity="0" result="BackgroundImageFix"/>
<feColorMatrix in="SourceAlpha" type="matrix" values="0 0 0 0 0 0 0 0 0 0 0 0 0 0 0 0 0 0 127 0"/>
<feOffset dy="14"/>
<feGaussianBlur stdDeviation="15.5"/>
<feColorMatrix type="matrix" values="0 0 0 0 0 0 0 0 0 0 0 0 0 0 0 0 0 0 0.0664912 0"/>
<feBlend mode="normal" in2="BackgroundImageFix" result="effect1_dropShadow"/>
<feColorMatrix in="SourceAlpha" type="matrix" values="0 0 0 0 0 0 0 0 0 0 0 0 0 0 0 0 0 0 127 0"/>
<feOffset dy="1"/>
<feGaussianBlur stdDeviation="1"/>
<feColorMatrix type="matrix" values="0 0 0 0 0 0 0 0 0 0 0 0 0 0 0 0 0 0 0.0626415 0"/>
<feBlend mode="normal" in2="effect1_dropShadow" result="effect2_dropShadow"/>
<feBlend mode="normal" in="SourceGraphic" in2="effect2_dropShadow" result="shape"/>
</filter>
</defs>
</svg>
