<svg width="171" height="192" viewBox="0 0 171 192" fill="none" xmlns="http://www.w3.org/2000/svg">
<g filter="url(#filter0_dd)">
<path d="M85.184 17C115.09 17 139.333 41.7656 139.333 72.3156C139.333 100.619 118.524 123.958 91.6819 127.237C86.4836 127.237 85.184 132.662 85.184 135.375V144.226C85.184 148.651 82.2961 146.807 80.8521 145.332C73.9932 138.694 57.243 122.321 45.1135 109.93C32.9841 97.5394 30.6737 79.691 31.0347 72.3156C31.0347 41.7656 55.2782 17 85.184 17Z" fill="white"/>
</g>
<path d="M62.5458 75.9825C62.5458 75.9008 62.5438 75.8192 62.5397 75.7376C62.5192 75.3306 62.5778 74.2049 62.9836 72.8697C63.381 71.5622 64.0302 70.319 64.9823 69.3735C66.5106 67.8556 68.3151 66.1055 69.9977 64.4894C70.9801 65.3838 72.3123 66.0545 73.9734 66.1465C78.877 66.8187 82.6108 70.9935 82.6108 75.9825C82.6108 81.4355 78.1507 85.913 72.5783 85.913H71.9276C71.116 85.913 69.4928 86.4 69.4928 88.3478C69.4928 89.1594 69.9798 90.7826 71.9276 90.7826H72.5783C80.8085 90.7826 87.4804 84.1563 87.4804 75.9825C87.4804 68.4096 81.7536 62.1652 74.3666 61.2878C74.0457 61.2878 73.7788 61.2148 73.5579 61.0933C73.3973 61.005 73.261 60.8912 73.1458 60.7612C72.7126 60.2723 72.5783 59.555 72.5783 59.1103V56.7423C72.5783 55.5583 71.7836 56.0516 71.3862 56.4463C71.2885 56.5381 71.1836 56.637 71.072 56.7423C70.4299 57.3478 69.5654 58.1669 68.5833 59.1031L68.5758 59.1103C68.3089 59.3647 68.0333 59.6278 67.7513 59.8976C65.7635 61.7984 63.4511 64.031 61.5508 65.9184C58.2128 69.2336 57.5769 74.0091 57.6763 75.9825C57.6763 77.3525 57.8637 78.6792 58.2146 79.9384C58.3798 80.5386 59.058 81.7391 60.4494 81.7391C61.2863 81.7391 62.8841 81.3913 62.9836 79.25C62.9746 79.1104 62.942 78.7742 62.8841 78.546C62.6634 77.7272 62.5458 76.8677 62.5458 75.9825Z" fill="#E53654"/>
<path d="M64.832 88.1391C66.1767 88.1391 67.2667 87.049 67.2667 85.7043C67.2667 84.3596 66.1767 83.2696 64.832 83.2696C63.4873 83.2696 62.3972 84.3596 62.3972 85.7043C62.3972 87.049 63.4873 88.1391 64.832 88.1391Z" fill="#E53654"/>
<path d="M107.645 76.0175C107.645 76.0992 107.647 76.1808 107.651 76.2624C107.671 76.6694 107.613 77.7951 107.207 79.1303C106.81 80.4378 106.16 81.681 105.208 82.6265C103.68 84.1444 101.875 85.8945 100.193 87.5106C99.2105 86.6162 97.8783 85.9455 96.2172 85.8535C91.3136 85.1813 87.5798 81.0065 87.5798 76.0175C87.5798 70.5645 92.0399 66.087 97.6123 66.087H98.263C99.0746 66.087 100.698 65.6 100.698 63.6522C100.698 62.8406 100.211 61.2174 98.263 61.2174H97.6123C89.3821 61.2174 82.7102 67.8437 82.7102 76.0175C82.7102 83.5904 88.437 89.8348 95.824 90.7122C96.1449 90.7122 96.4118 90.7852 96.6327 90.9067C96.7933 90.995 96.9296 91.1088 97.0448 91.2388C97.478 91.7277 97.6123 92.445 97.6123 92.8897V95.2577C97.6123 96.4417 98.407 95.9484 98.8044 95.5537C98.9021 95.4619 99.007 95.363 99.1186 95.2577C99.7607 94.6522 100.625 93.8331 101.607 92.8969L101.615 92.8897C101.882 92.6353 102.157 92.3722 102.439 92.1024C104.427 90.2016 106.739 87.969 108.64 86.0816C111.978 82.7664 112.614 77.9909 112.514 76.0175C112.514 74.6475 112.327 73.3208 111.976 72.0616C111.811 71.4614 111.133 70.2609 109.741 70.2609C108.904 70.2609 107.306 70.6087 107.207 72.75C107.216 72.8896 107.249 73.2258 107.306 73.454C107.527 74.2728 107.645 75.1323 107.645 76.0175Z" fill="#5AD5A1"/>
<path d="M105.359 63.8609C104.014 63.8609 102.924 64.951 102.924 66.2957C102.924 67.6403 104.014 68.7304 105.359 68.7304C106.703 68.7304 107.793 67.6403 107.793 66.2957C107.793 64.951 106.703 63.8609 105.359 63.8609Z" fill="#5AD5A1"/>
<path d="M79.9275 75.7674L72.3685 81.582C71.3027 82.4019 69.774 82.2025 68.9541 81.1367C68.1343 80.0708 68.3337 78.5422 69.3995 77.7223L78.4015 70.7977C78.5533 70.6754 78.7175 70.5734 78.8899 70.4924C79.5388 70.1875 80.3042 70.1788 80.9694 70.4945C81.1401 70.5752 81.3027 70.6763 81.4532 70.7975L88.9709 76.5804L96.5299 70.7658C97.5957 69.9459 99.1244 70.1453 99.9443 71.2111C100.764 72.277 100.565 73.8056 99.4989 74.6255L90.4972 81.5499C90.3451 81.6724 90.1807 81.7745 90.0081 81.8556C89.6781 82.0113 89.3236 82.0873 88.9709 82.0871C88.6183 82.0873 88.2638 82.0113 87.9338 81.8556C87.7611 81.7745 87.5968 81.6724 87.4447 81.5499L79.9275 75.7674Z" fill="#554B60"/>
<defs>
<filter id="filter0_dd" x="6.10352e-05" y="0" width="170.333" height="192" filterUnits="userSpaceOnUse" color-interpolation-filters="sRGB">
<feFlood flood-opacity="0" result="BackgroundImageFix"/>
<feColorMatrix in="SourceAlpha" type="matrix" values="0 0 0 0 0 0 0 0 0 0 0 0 0 0 0 0 0 0 127 0"/>
<feOffset dy="14"/>
<feGaussianBlur stdDeviation="15.5"/>
<feColorMatrix type="matrix" values="0 0 0 0 0 0 0 0 0 0 0 0 0 0 0 0 0 0 0.0664912 0"/>
<feBlend mode="normal" in2="BackgroundImageFix" result="effect1_dropShadow"/>
<feColorMatrix in="SourceAlpha" type="matrix" values="0 0 0 0 0 0 0 0 0 0 0 0 0 0 0 0 0 0 127 0"/>
<feOffset dy="1"/>
<feGaussianBlur stdDeviation="1"/>
<feColorMatrix type="matrix" values="0 0 0 0 0 0 0 0 0 0 0 0 0 0 0 0 0 0 0.0626415 0"/>
<feBlend mode="normal" in2="effect1_dropShadow" result="effect2_dropShadow"/>
<feBlend mode="normal" in="SourceGraphic" in2="effect2_dropShadow" result="shape"/>
</filter>
</defs>
</svg>
