<svg width="361" height="395" viewBox="0 0 361 395" fill="none" xmlns="http://www.w3.org/2000/svg">
<path d="M135.78 394.954H89.7572L88.1895 391.206V391.188L79.63 370.411V310.855H123.977C123.959 310.855 132.609 358.032 135.78 394.954Z" fill="#554B60"/>
<path d="M88.1894 391.17L79.648 378.304L79.6119 357.437L86.892 344.967C86.892 344.985 88.2435 374.574 88.1894 391.17Z" fill="#453D4F"/>
<path d="M27.5705 306.278C27.5705 306.278 21.6779 317.901 19.7498 333.254C18.2902 344.913 21.0653 394.95 21.0653 394.95H68C68 394.95 82.9816 369.33 93.271 319.109C97.9382 296.368 53.2308 306.927 53.2308 306.927" fill="#554B60"/>
<path d="M118.823 44.9359C118.823 44.9359 119.94 54.7928 116.643 61.8385C113.345 68.8843 109.165 46.9361 109.165 46.9361L111.399 39.0073" fill="#554B60"/>
<path d="M93.4151 93.1211C93.4151 93.1211 92.9466 94.5087 92.2258 96.7612C91.4509 99.2119 90.4238 102.672 89.5048 106.456C88.0992 112.222 86.9099 118.709 87.2523 123.395C87.2523 123.395 69.3405 125.269 60.5288 119.682C60.5288 119.682 66.0249 98.2028 58.1682 77.1555L93.4151 93.1211Z" fill="#F8D1AE"/>
<path d="M92.2259 96.7611C91.451 99.2118 90.4239 102.672 89.5049 106.456C73.9537 101.428 65.0879 87.4808 65.0879 87.4808L92.2259 96.7611Z" fill="#E8C3A1"/>
<path d="M61.0515 87.4988C68.1333 95.7159 107.957 112.366 113.471 92.6525C118.985 72.9388 116.319 49.567 113.489 35.3493C111.723 26.5195 107.02 9.72496 83.4683 12.3198C60.0604 14.8967 29.9852 51.441 61.0515 87.4988Z" fill="#F8D1AE"/>
<path d="M174.379 168.985C174.379 168.985 176.505 165.345 176.541 164.372C176.571 163.725 176.598 162.919 176.629 161.999L176.629 161.997C176.816 156.35 177.147 146.39 179.316 142.423C179.316 142.423 181.082 141.901 181.839 143.991C182.219 145.042 181.985 146.527 181.754 147.988C181.525 149.432 181.3 150.853 181.677 151.812C182.433 153.74 183.569 152.893 184.956 151.794C185.803 151.127 189.029 146.874 191.137 142.802C191.912 140.351 193.119 137.612 193.66 137.612C195.013 137.629 194.852 139.485 194.709 141.139C194.702 141.225 194.694 141.311 194.687 141.396C194.651 141.775 194.273 143.216 193.786 144.748C192.975 147.325 191.678 149.505 191.678 149.505C191.678 149.505 192.723 147.937 194.723 145.595C194.971 145.051 195.22 144.555 195.475 144.044C195.906 143.183 196.358 142.28 196.867 141.036C197.534 138.585 198.778 138.225 199.318 138.729C199.805 139.18 199.39 141.09 198.543 144.009C198.129 145.451 197.3 147.217 196.489 148.46C195.29 150.299 194.261 151.655 194.044 151.938C194.286 151.625 195.541 150.009 197.03 148.262C197.967 147.163 198.868 145.397 199.642 143.793C199.931 140.657 201.607 139.558 202.021 140.117C202.327 140.531 202.273 142.874 201.787 145.144C201.426 146.856 200.796 148.478 200.075 149.523C199.344 150.582 198.591 151.6 197.988 152.394C198.514 151.739 199.151 150.974 199.779 150.286L199.769 150.28C199.769 150.28 201.643 146.91 201.931 146.568C202.273 146.19 203.066 145.343 203.679 145.937C204.401 146.626 202.106 150.63 201.689 151.343C200.837 152.987 199.514 154.979 198.51 156.491C198.062 157.166 197.677 157.745 197.426 158.155C196.147 160.245 192.561 164.318 190.741 165.11C188.921 165.903 184.884 172.625 184.362 174.102L184.36 174.102C182.259 179.516 177.645 190.064 167.621 209.403C166.781 211.025 165.782 213.028 164.667 215.263C158.582 227.46 149.058 246.551 143.24 248.074C129.959 251.029 120.643 219.459 120.643 219.459C115.309 204.556 108.786 184.662 108.786 184.662L135.167 178.121C135.167 178.121 139.958 195.025 143.673 208.867C150.761 199.426 167.463 177.888 174.379 168.985Z" fill="#F8D1AE"/>
<path d="M49.3746 33.205C49.3746 33.205 30.2555 34.9889 26.7056 22.8075C23.1556 10.626 36.7607 -4.90713 48.7619 1.48993C60.7632 7.90502 59.4837 23.6364 59.4837 23.6364" fill="#554B60"/>
<path d="M41.1394 34.7727C41.1394 34.7727 43.1576 16.6267 60.4207 13.347L53.9516 24.0689L41.1394 34.7727Z" fill="#E53654"/>
<path d="M110.552 30.2317C110.552 30.2317 103.993 58.4869 64.7636 59.6762C64.7636 59.6762 60.8893 58.5589 59.4116 62.0007C58.5827 63.9289 58.2584 67.0823 59.2314 70.1457C61.6461 77.7141 63.1778 85.4987 61.9344 93.3554L62.0245 94.2563C62.0245 94.2563 42.563 91.8056 37.2652 63.8027C31.1384 31.385 60.673 5.20205 80.8373 8.31949C89.3427 9.5989 108.75 16.7528 110.552 30.2317Z" fill="#554B60"/>
<path d="M97.9923 29.6009C97.9923 29.6009 110.21 46.4135 119.706 46.882C119.706 46.882 122.734 23.9787 109.759 14.6804C92.0457 1.99441 71.9716 8.64375 71.9716 8.64375" fill="#554B60"/>
<path d="M61.556 114.655C61.556 114.655 61.3938 117.52 58.1682 119.574C53.411 122.602 45.32 125.809 41.1394 127.485C41.1394 127.485 78.5667 154.371 106.209 125.737C106.209 125.737 96.2082 122.674 93.4151 120.674C86.7117 115.826 88.0272 113.43 88.0272 113.43" fill="#F8D1AE"/>
<path d="M123.959 310.855C81.8105 320.208 42.9776 314.333 25.4082 311.27C23.3539 305.468 26.2191 295.971 28.4896 287.105C35.3732 259.931 32.1657 228.45 29.769 209.836C28.814 202.358 27.967 196.952 27.967 194.699C27.949 192.915 27.8229 190.591 27.6427 187.96C26.3993 171.814 22.2007 142.874 21.8583 139.018C21.4438 134.531 47.4646 124.62 47.4646 124.62C47.4646 124.62 93.5775 152.425 96.5147 121.953C96.5147 121.953 109.327 125.917 119.31 131.053C121.256 144.352 122.229 173.292 122.608 188.266C122.77 193.996 117.814 204.736 117.814 204.736C117.814 204.736 118.553 249.786 120.842 282.636C121.67 294.565 124.59 306.26 123.959 310.855Z" fill="white"/>
<path d="M40.7791 173.364C40.7791 173.364 40.1844 196.483 37.3013 208.647C37.3013 208.647 34.4541 209.854 29.7689 209.836C28.8139 202.358 27.9669 196.952 27.9669 194.699C27.9489 192.915 27.8228 190.591 27.6426 187.96L40.7791 173.364Z" fill="#E9EDF2"/>
<path d="M89.9014 299.143L19.8761 291.628L31.571 189.546L101.578 197.042L89.9014 299.143Z" fill="#4BBA8B"/>
<path d="M84.8198 298.584L14.8125 291.07L26.4894 188.987L96.5147 196.501L84.8198 298.584Z" fill="#49CF97"/>
<path d="M4.82947 219.206C6.217 203.439 8.61364 182.644 8.61364 182.644L35.3191 187.726C35.3191 187.726 30.052 221.333 27.6652 233.084C37.8062 235.757 66.0074 243.817 77.5999 247.14C78.6434 247.411 81.9942 248.112 85.2704 246.975C86.3424 246.598 87.5129 245.969 88.5349 245.42C89.3681 244.973 90.1025 244.578 90.6043 244.416C91.7215 244.056 97.7041 245.263 98.5691 245.605C99.434 245.966 98.515 247.444 97.6501 247.714C97.3204 247.811 96.7845 247.875 96.2326 247.918C96.9237 248.296 97.6726 248.802 97.7762 249.263C97.9744 250.146 97.0374 259.769 95.5057 260.922C94.5955 261.605 89.6896 261.897 89.4095 261.913C88.7614 261.983 87.956 262.026 86.9823 262.004C85.6305 261.973 84.3682 261.392 82.8674 260.702C80.867 259.782 78.4429 258.667 74.8188 258.4C68.5114 258.366 57.2543 257.88 37.8239 255.985C37.0214 255.907 36.2205 255.831 35.4231 255.755L35.4173 255.754C24.5608 254.717 14.3571 253.743 9.64077 250.705C1.85618 243.335 4.73937 219.981 4.73937 219.981L4.76252 219.996C4.78351 219.734 4.80581 219.471 4.82947 219.206Z" fill="#F8D1AE"/>
<path d="M68.7099 60.7394C68.7099 60.7394 67.5206 52.0358 59.6999 54.9009C53.5551 57.1534 57.6817 68.6681 59.9882 72.5965C62.2948 76.5068 66.9619 75.4797 67.6467 72.5604" fill="#F8D1AE"/>
<path d="M143.294 201.457C143.294 201.457 131.041 136.026 119.31 131.071C120.409 138.513 109.759 156.749 110.57 170.138C111.76 189.906 116.697 206.682 116.697 206.682C133.798 205.926 143.294 201.457 143.294 201.457Z" fill="white"/>
<path d="M29.2103 132.783C29.2103 132.783 10.866 140.279 5.67626 167.471C0.828911 192.879 0 203.349 0 203.349C0 203.349 21.4257 210.088 34.4 206.538C36.8327 198.159 41.1214 171.165 41.1214 171.165" fill="white"/>
<path d="M111.922 154.245C111.922 154.245 118.012 167.471 121.094 176.553C124.175 185.635 117.814 204.736 117.814 204.736C117.814 204.736 124.77 192.483 123.905 179.49C123.022 166.516 111.922 154.245 111.922 154.245Z" fill="#E9EDF2"/>
<path d="M108.444 32.6464C108.444 32.6464 108.426 33.4753 108.156 34.8988C108.011 35.6016 107.813 36.4666 107.543 37.4397C107.255 38.4127 106.912 39.4939 106.39 40.6292C105.939 41.8005 105.236 42.9537 104.57 44.2332C103.759 45.4225 103.002 46.7559 101.921 47.8912C100.948 49.1346 99.7583 50.2338 98.5149 51.333C97.9202 51.9277 97.1994 52.3421 96.5327 52.8467C95.8479 53.3152 95.1632 53.8378 94.4604 54.2702C92.9467 54.991 91.5232 55.892 89.9735 56.4506C89.1986 56.7209 88.4237 57.0093 87.6669 57.2796C86.9101 57.5499 86.1532 57.8382 85.3784 57.9643C83.8467 58.3067 82.3691 58.613 80.9815 58.8653C79.558 58.9915 78.2245 59.0996 76.9811 59.2077C76.3684 59.2618 75.7738 59.3158 75.2152 59.3519C74.6565 59.3338 74.116 59.2978 73.6114 59.2798C72.6023 59.2437 71.7373 59.2077 71.0165 59.1717C69.5749 59.0996 68.764 59.0455 68.764 59.0455C68.764 59.0455 69.5749 58.9734 71.0165 58.8653C71.7373 58.8113 72.6023 58.7572 73.5934 58.6851C74.0799 58.6491 74.6205 58.613 75.1791 58.577C75.7377 58.4869 76.3144 58.4148 76.909 58.3067C78.1164 58.1265 79.4138 57.9283 80.8013 57.712C82.1528 57.3697 83.5584 56.9912 85.036 56.6128C86.5136 56.2705 87.9012 55.5497 89.4148 55.0451C90.8925 54.5045 92.244 53.6035 93.6856 52.9188C94.3703 52.5043 95.019 52.0178 95.6678 51.5853C96.3165 51.1168 97.0192 50.7203 97.5779 50.1617C98.1725 49.6391 98.7672 49.1346 99.3438 48.63C99.9385 48.1435 100.407 47.5128 100.93 46.9902C101.993 45.927 102.804 44.7017 103.651 43.6205C104.371 42.4492 105.146 41.368 105.633 40.2688C106.209 39.1876 106.66 38.1785 107.038 37.2595C107.417 36.3404 107.705 35.5295 107.903 34.8448C108.282 33.4573 108.444 32.6464 108.444 32.6464Z" fill="#554B60"/>
<path d="M62.5291 74.1461C63.5542 74.1461 64.3852 73.3151 64.3852 72.29C64.3852 71.2649 63.5542 70.434 62.5291 70.434C61.5041 70.434 60.6731 71.2649 60.6731 72.29C60.6731 73.3151 61.5041 74.1461 62.5291 74.1461Z" fill="white"/>
<path d="M60.4568 60.1987C60.4568 60.1987 62.6192 59.2076 64.241 61.5502C66.3133 64.5775 65.8087 67.767 63.4661 67.3165C62.1687 67.0643 62.0245 65.2262 62.6012 64.1811C63.2499 63.0098 64.4933 63.4062 64.4933 63.4062C64.4933 63.4062 63.6283 59.7662 60.4568 60.1987Z" fill="#E8C3A1"/>
<path d="M354.873 288H295.832C292.619 288 290 290.603 290 293.832V309.399C290 312.612 292.603 315.231 295.832 315.231H341.635L350.085 323.682V315.231H354.857C358.07 315.231 360.688 312.628 360.688 309.399V293.832C360.688 290.619 358.086 288 354.873 288Z" fill="#9DBEED"/>
<path d="M298.82 295.422H344.077" stroke="white" stroke-width="0.9689" stroke-miterlimit="10" stroke-linecap="round"/>
<path d="M298.82 301.608H351.097" stroke="white" stroke-width="0.9689" stroke-miterlimit="10" stroke-linecap="round"/>
<path d="M298.82 307.809H317.568" stroke="white" stroke-width="0.9689" stroke-miterlimit="10" stroke-linecap="round"/>
<path d="M167.82 267.171H163.259V288H167.82V267.171Z" fill="#9DBEED"/>
<path d="M175.157 270.509H170.596V287.993H175.157V270.509Z" fill="#9DBEED"/>
<path d="M160.561 273.355H156V287.993H160.561V273.355Z" fill="#9DBEED"/>
<path d="M182.486 264.395H177.926V287.993H182.486V264.395Z" fill="#9DBEED"/>
<path d="M158.298 271.612C158.923 271.612 159.429 271.106 159.429 270.481C159.429 270.305 159.387 270.136 159.31 269.982L164.932 264.557C165.107 264.669 165.311 264.732 165.536 264.732C165.859 264.732 166.148 264.599 166.351 264.381L171.748 267.606C171.741 267.663 171.734 267.719 171.734 267.775C171.734 268.401 172.24 268.907 172.866 268.907C173.491 268.907 173.997 268.401 173.997 267.775C173.997 267.578 173.941 267.389 173.85 267.227L179.76 260.179C179.893 260.235 180.041 260.263 180.195 260.263C180.821 260.263 181.327 259.757 181.327 259.131C181.327 258.506 180.821 258 180.195 258C179.57 258 179.064 258.506 179.064 259.131C179.064 259.356 179.134 259.567 179.247 259.743L173.365 266.756C173.217 266.686 173.048 266.637 172.873 266.637C172.549 266.637 172.261 266.77 172.058 266.988L166.661 263.762C166.668 263.706 166.675 263.65 166.675 263.594C166.675 262.968 166.169 262.462 165.543 262.462C164.918 262.462 164.412 262.968 164.412 263.594C164.412 263.748 164.44 263.896 164.496 264.03L158.846 269.483C158.684 269.391 158.502 269.335 158.298 269.335C157.672 269.335 157.167 269.841 157.167 270.467C157.167 271.099 157.672 271.612 158.298 271.612Z" fill="#9DBEED"/>
</svg>
