<svg width="372" height="394" viewBox="0 0 372 394" fill="none" xmlns="http://www.w3.org/2000/svg">
<g clip-path="url(#clip0)">
<path d="M295.358 366.323C295.043 371.4 294.578 375.829 293.981 379.263C292.737 386.745 289.601 398.606 285.802 411.861C279.249 434.639 270.656 461.464 265.845 476.975C284.409 514.981 257.932 640.862 254.598 651.297C245.307 652.906 238.307 651.48 234.939 650.285C230.974 592.272 224.172 474.337 224.239 471.517C225.782 411.845 233.098 356.851 233.695 348.075C234.342 339.299 235.221 290.261 239.418 288.585C248.708 285.118 272.763 277.138 283.613 292.931C294.943 309.521 296.751 344.077 295.358 366.323Z" fill="#554B60"/>
<path d="M290.358 366.323C290.043 371.4 289.578 375.829 288.981 379.263C287.737 386.745 284.601 398.606 280.802 411.861C279.641 393.065 277.484 340.875 277.484 340.875L290.358 366.323Z" fill="#453D4F"/>
<path d="M332.485 658.862C323.377 663.341 315.232 661.201 311.997 660.272C313.092 662.893 287.113 529.414 284.077 502.838C283.895 501.146 283.165 494.046 282.999 491.69C281.837 477.871 283.546 409.157 283.082 382.034L283.944 295.453C283.944 295.453 258.347 293.081 276.346 296.15C299.24 300.032 330.013 295.287 330.013 295.287C360.206 336.114 355.13 373.838 349.323 391.937C346.968 399.27 345.01 406.702 343.65 414.267C338.623 442.154 325.418 478.004 322.233 496.683C350.087 562.361 334.907 638.009 332.485 658.862Z" fill="#554B60"/>
<path d="M141.374 218.644L128.07 215.459C128.07 215.459 125.332 213.949 120.77 208.773C116.208 203.597 109.672 204.178 108.295 204.244C106.918 204.31 106.802 206.052 109.224 207.711C110.85 208.823 113.687 208.308 114.649 212.107C115.08 213.8 110.286 213.866 107.814 213.036C105.342 212.207 96.9478 208.209 94.7912 207.313C92.6345 206.417 90.8263 207.794 96.4335 211.908C101.659 215.741 103.401 216.487 105.375 217.665C105.392 217.698 106.586 220.203 107.349 221.165C107.565 221.431 107.93 221.646 108.345 221.829C108.66 222.476 109.572 224.284 110.203 225.08C110.302 225.213 110.452 225.329 110.618 225.445C111.132 226.524 111.613 227.569 112.061 228.465C113.786 231.948 120.521 230.97 123.474 230.588C126.427 230.207 139.102 233.06 139.102 233.06L141.374 218.644Z" fill="#F8D1AE"/>
<path d="M109.025 217.532C109.025 217.532 105.525 217.416 100.548 215.757C95.5709 214.098 89.2171 210.548 87.9231 210.415C86.6291 210.266 86.4798 211.925 87.9231 213.236C89.3664 214.529 93.464 216.902 95.7865 218.063C98.5404 219.44 110.584 222.542 110.584 222.542" fill="#F8D1AE"/>
<path d="M110.767 221.033C110.767 221.033 107.283 221.315 102.14 220.22C96.9975 219.141 90.2954 216.338 88.9848 216.338C87.6743 216.338 87.724 218.013 89.3 219.141C90.876 220.269 95.2059 222.161 97.6611 223.057C100.564 224.118 112.857 227.154 112.857 227.154" fill="#F8D1AE"/>
<path d="M114.947 226.159C114.947 226.159 111.464 226.441 106.321 225.346C101.178 224.267 94.476 221.464 93.1654 221.464C91.8548 221.464 91.9046 223.139 93.4806 224.267C95.0566 225.396 99.3865 227.287 101.842 228.183C104.745 229.244 117.038 230.953 117.038 230.953" fill="#F8D1AE"/>
<path d="M261.466 177.402C253.37 197.492 233.496 229.941 233.496 229.941C220.622 231.053 203.286 224.915 203.286 224.915C205.526 200.545 227.507 134.601 227.507 134.601C227.507 134.601 228.834 124.2 257.053 116.834" fill="#E53654"/>
<path d="M215.562 223.687L136.912 216.769L134.025 233.06C134.025 233.06 193.482 255.871 215.712 255.871C233.894 255.871 248.31 204.211 248.31 204.211L215.562 223.687Z" fill="#E53654"/>
<path d="M233.114 152.054C233.114 152.054 229.166 211.759 227.391 249.086C227.391 249.086 232.699 242.748 235.951 235.98L233.114 152.054Z" fill="#C52D47"/>
<path d="M339.204 217.582C337.893 224.566 335.654 236.162 333.58 247.692C332.8 252.055 332.037 256.401 331.357 260.499C329.847 269.673 329.682 276.989 330.362 281.103C331.871 290.294 333.763 294.325 331.407 297.029C326.181 303.101 290.447 305.639 273.675 305.639C258.728 305.639 233.313 301.657 232.036 296.863C230.112 289.763 232.484 289.763 233.131 282.298C233.778 274.849 229.514 135.829 235.387 129.077C242.305 123.321 253.353 117.73 264.402 114.08C272.249 112.786 285.554 113.35 299.572 117C315.846 121.214 334.758 124.781 337.578 130.952C340.266 136.808 343.119 196.862 339.204 217.582Z" fill="#E53654"/>
<path d="M333.597 247.692C332.817 252.055 332.054 256.401 331.374 260.499C303.437 249.152 256.389 224.848 254.963 224.085L333.597 247.692Z" fill="#C52D47"/>
<path d="M336.301 234.337L328.753 192.913L320.358 177.817C320.358 177.817 321.304 193.743 322.664 212.522C302.889 209.735 262.959 206.085 262.959 206.085C262.959 206.085 299.937 217.648 301.43 217.98C302.641 218.246 317.621 220.037 323.278 220.701C323.626 225.246 323.991 229.858 324.373 234.354H336.301V234.337Z" fill="#C52D47"/>
<path d="M233.114 201.175C233.114 201.175 220.589 204.062 220.091 204.808C219.594 205.555 220.025 207.595 224.189 207.778C228.336 207.96 232.384 205.787 232.384 205.787" fill="#F8D1AE"/>
<path d="M231.14 208.259L223.442 213.65C223.442 213.65 218.665 219.855 218.914 220.22C219.162 220.585 220.622 221.149 222.049 219.855C223.476 218.544 226.296 215.857 226.296 215.857L233.711 213.07" fill="#F8D1AE"/>
<path d="M234.309 210.299L226.611 215.691C226.611 215.691 221.833 221.895 222.082 222.26C222.331 222.625 223.791 223.189 225.218 221.895C226.644 220.601 229.464 217.897 229.464 217.897L236.88 215.11" fill="#F8D1AE"/>
<path d="M237.627 212.307L229.929 217.698C229.929 217.698 225.151 223.903 225.4 224.268C225.649 224.633 227.109 225.197 228.535 223.903C229.962 222.592 232.782 219.905 232.782 219.905L240.198 217.117" fill="#F8D1AE"/>
<path d="M262.079 209.453L249.057 202.751C249.057 202.751 235.403 201.092 233.463 201.109C231.522 201.125 222.016 207.993 220.655 208.574C219.295 209.155 213.655 219.506 213.655 219.506C213.655 219.506 213.97 220.502 215.397 220.502C216.823 220.502 223.028 212.987 223.028 212.987L230.228 209.072C230.228 209.072 231.306 214.115 234.325 217.814C236.847 220.916 243.366 219.722 248.343 219.258C251.445 218.975 254.233 219.672 254.233 219.672" fill="#F8D1AE"/>
<path d="M371.62 245.071C371.736 244.092 371.819 243.213 371.819 242.45C371.819 221.663 369.38 166.138 347.565 137.554C339.104 126.456 319.695 122.093 319.695 122.093L320.109 173.653C320.624 192.913 333.597 245.071 333.597 245.071H371.62Z" fill="#E53654"/>
<path d="M253.917 212.39C252.109 217.267 252.375 223.372 252.375 223.372C252.375 223.372 335.388 258.442 358.896 260.847L358 222.824L258.114 205.19C258.114 205.206 255.759 207.446 253.917 212.39Z" fill="#E53654"/>
<path d="M358.895 260.864C358.895 260.864 372.88 263.601 371.819 240.11C370.89 219.407 352.376 224.898 352.376 224.898L348.162 242.018L358.895 260.864Z" fill="#E53654"/>
<path d="M299.638 116.95L299.621 116.983C299.621 116.983 283.828 128.895 264.452 114.08C264.452 114.08 266.907 109.402 267.322 108.556C268.433 106.681 270.507 102.617 271.834 96.8936C271.967 96.512 272.033 96.0641 272.149 95.6162C272.514 93.9075 272.78 92.0329 272.962 90.0421C273.31 86.5915 273.261 82.7594 272.68 78.6286L274.555 77.1189L305.477 52.7988L308.994 50.0449C308.994 50.0449 307.966 55.9508 306.572 64.6105C305.793 69.521 304.864 75.2775 303.951 81.3493C302.126 93.7084 300.351 107.196 299.638 116.95Z" fill="#F8D1AE"/>
<path d="M294.794 82.0792C294.794 82.0792 294.794 82.0792 294.777 82.1123C290.348 88.5325 280.361 101.373 267.305 108.556C268.417 106.681 270.49 102.617 271.817 96.8936C269.76 97.5074 267.902 97.8226 266.127 97.9885C266.21 96.5784 266.277 95.1019 266.243 93.5591L268.317 92.3149L272.962 90.0421L297.382 78.1475C297.365 78.1641 296.486 79.6737 294.794 82.0792Z" fill="#E8C3A1"/>
<path d="M246.004 31.5808C246.004 31.5808 240.629 46.3123 250.234 54.69L254.83 32.2444L246.004 31.5808Z" fill="#554B60"/>
<path d="M299.854 75.825C298.294 78.0148 296.602 80.0884 294.81 82.0792C294.81 82.0792 294.81 82.0792 294.794 82.1123C291.808 85.3473 288.423 88.2836 284.757 90.7887C280.013 93.9904 275.716 95.8816 271.834 96.9102C269.777 97.524 267.919 97.8392 266.144 98.0051C257.932 98.7018 253.121 95.5332 253.121 95.5332C245.407 84.1031 245.689 65.5395 247.464 51.4716C248.144 45.7814 249.106 40.8212 249.836 37.354C250.516 34.2185 251.031 32.3439 251.031 32.3439C251.064 32.2112 251.064 32.1117 251.097 31.9624C254.448 13.7803 278.735 13.1499 295.441 23.3856C296.42 23.9994 297.349 24.6132 298.261 25.3432C302.906 28.6777 306.738 32.9743 309.044 37.9844C312.959 46.5611 310.554 56.3323 306.556 64.627C306.34 65.075 306.124 65.5063 305.892 65.9542C304.018 69.6537 301.828 73.0213 299.854 75.825Z" fill="#F8D1AE"/>
<path d="M300.849 22.0087C300.849 22.0087 281.041 52.5167 247.862 36.4747C238.157 31.7799 236.001 -1.23317 244.511 5.36944C261.98 18.8899 275.716 -6.85699 292.488 1.83589C297.879 4.60633 303.171 11.408 300.849 22.0087Z" fill="#554B60"/>
<path d="M294.263 25.8906C294.263 25.8906 282.75 85.7952 294.91 58.2898C294.91 58.2898 297.996 50.6255 303.57 51.3223C309.16 52.019 304.665 72.6397 303.901 81.3658C303.901 81.3658 316.675 72.2416 321.37 45.0515C326.065 17.8779 307.8 6.69659 297.68 18.4751L294.263 25.8906Z" fill="#554B60"/>
<path d="M302.491 55.5858C302.491 55.5858 299.356 56.0171 298.692 61.7571C298.029 67.4971 301.728 68.6583 302.475 65.6225C303.205 62.5866 300.418 60.7617 299.804 62.0225C299.787 62.0391 299.041 58.688 302.491 55.5858Z" fill="#E8C3A1"/>
<path d="M209.242 224.898H80.856C79.3629 224.898 78.0855 223.836 77.8035 222.36L60.6168 130.072C60.1191 127.435 62.143 125.013 64.8305 125.013H187.095C189.152 125.013 190.927 126.489 191.309 128.513L209.242 224.898Z" fill="#554B60"/>
<path d="M248.675 224.898H187.676V219.689H246.104C247.464 219.689 248.708 220.402 249.388 221.58L249.986 222.625C250.583 223.637 249.853 224.898 248.675 224.898Z" fill="#554B60"/>
<path d="M185.021 129.309C186.232 129.309 187.277 130.172 187.51 131.35L204.232 216.454" stroke="#CBC2D5" stroke-width="0.2991" stroke-miterlimit="10" stroke-linecap="round"/>
<path d="M80.8727 242H21.8318C18.6187 242 16 244.603 16 247.832V263.399C16 266.612 18.6026 269.231 21.8318 269.231H67.6347L76.0852 277.682V269.231H80.8566C84.0697 269.231 86.6884 266.628 86.6884 263.399V247.832C86.6884 244.603 84.0858 242 80.8727 242Z" fill="#9DBEED"/>
<path d="M24.82 249.422H70.0766" stroke="white" stroke-width="0.9689" stroke-miterlimit="10" stroke-linecap="round"/>
<path d="M24.82 255.608H52.3724" stroke="white" stroke-width="0.9689" stroke-miterlimit="10" stroke-linecap="round"/>
<path d="M56.2924 255.608H77.0812" stroke="white" stroke-width="0.9689" stroke-miterlimit="10" stroke-linecap="round"/>
<path d="M24.82 261.793H43.5524" stroke="white" stroke-width="0.9689" stroke-miterlimit="10" stroke-linecap="round"/>
<g clip-path="url(#clip1)">
<path d="M20.98 332.24V328.74H19.52C19.28 327.5 18.8 326.35 18.12 325.34L19.15 324.31L16.68 321.84L15.65 322.87C14.64 322.19 13.49 321.7 12.25 321.46V320H8.75V321.46C7.5 321.7 6.35 322.18 5.34 322.87L4.31 321.84L1.84 324.31L2.87 325.34C2.19 326.35 1.7 327.5 1.46 328.74H0V332.24H1.46C1.7 333.48 2.18 334.63 2.86 335.64L1.83 336.67L4.3 339.14L5.33 338.11C6.34 338.79 7.49 339.27 8.73 339.51V340.98H12.23V339.51C13.47 339.27 14.62 338.79 15.63 338.11L16.66 339.14L19.13 336.67L18.1 335.64C18.78 334.63 19.27 333.48 19.5 332.24H20.98V332.24ZM10.49 336.33C7.26 336.33 4.65 333.71 4.65 330.49C4.65 327.27 7.26 324.65 10.49 324.65C13.72 324.65 16.33 327.27 16.33 330.49C16.33 333.72 13.72 336.33 10.49 336.33Z" fill="#9DBEED"/>
<path d="M31.9 341.26V338.92H30.92C30.76 338.09 30.44 337.32 29.98 336.64L30.67 335.95L29.01 334.29L28.32 334.98C27.65 334.52 26.87 334.2 26.04 334.04V333.06H23.7V334.04C22.87 334.2 22.1 334.52 21.42 334.98L20.73 334.29L19.07 335.95L19.76 336.64C19.3 337.32 18.98 338.09 18.82 338.92H17.84V341.26H18.82C18.98 342.09 19.3 342.86 19.76 343.54L19.07 344.23L20.73 345.89L21.42 345.2C22.09 345.66 22.87 345.98 23.7 346.14V347.12H26.04V346.14C26.87 345.98 27.64 345.66 28.32 345.2L29.01 345.89L30.67 344.23L29.98 343.54C30.44 342.87 30.76 342.09 30.92 341.26H31.9ZM24.88 344C22.72 344 20.97 342.25 20.97 340.09C20.97 337.93 22.72 336.18 24.88 336.18C27.04 336.18 28.79 337.93 28.79 340.09C28.78 342.25 27.04 344 24.88 344Z" fill="#9DBEED"/>
</g>
</g>
<defs>
<clipPath id="clip0">
<rect width="372" height="394" fill="white"/>
</clipPath>
<clipPath id="clip1">
<rect width="31.9" height="27.12" fill="white" transform="translate(0 320)"/>
</clipPath>
</defs>
</svg>
