<svg width="76" height="56" viewBox="0 0 76 56" fill="none" xmlns="http://www.w3.org/2000/svg">
<path d="M71.7487 3.43803C71.7487 5.33377 70.2064 6.87607 68.3106 6.87607C66.4149 6.87607 64.8726 5.33377 64.8726 3.43803C64.8726 1.5423 66.4149 0 68.3106 0C70.2064 0 71.7487 1.5423 71.7487 3.43803Z" fill="#CFECFF"/>
<path d="M6.87604 26.8937C6.87604 28.7894 5.33372 30.3317 3.43799 30.3317C1.54226 30.3317 0 28.7894 0 26.8937C0 24.998 1.54226 23.4557 3.43799 23.4557C5.33372 23.4718 6.87604 24.998 6.87604 26.8937Z" fill="#CFECFF"/>
<path d="M71.54 24.3072C68.0698 19.8571 62.6396 16.9813 56.5508 16.9813C46.06 16.9813 37.5452 25.4961 37.5452 35.9869C37.5452 39.9229 38.7501 43.5859 40.7905 46.6223C44.2124 51.6829 49.996 55.0085 56.5508 55.0085C64.4229 55.0085 71.1865 50.237 74.0783 43.4091V43.3931C75.0422 41.1278 75.5724 38.6216 75.5724 35.9869C75.5563 31.5849 74.0623 27.5203 71.54 24.3072ZM56.5508 47.2488C52.6147 47.2488 49.1446 45.2245 47.1364 42.1721C45.9636 40.3888 45.2728 38.2682 45.2728 35.9708C45.2728 29.7534 50.3173 24.7088 56.5508 24.7088C60.1173 24.7088 63.2983 26.3636 65.3547 28.9502C66.897 30.878 67.8127 33.32 67.8127 35.9708C67.8127 37.481 67.5075 38.9108 66.9774 40.2282C65.3065 44.357 61.258 47.2488 56.5508 47.2488Z" fill="#CFECFF"/>
<path d="M71.5399 24.3072L65.3547 28.9662C63.2983 26.3797 60.1173 24.7249 56.5507 24.7249V16.9813C62.6396 16.9813 68.0698 19.8571 71.5399 24.3072Z" fill="#9DBEED"/>
<path opacity="0.63" d="M74.0782 43.3769C71.1865 50.2208 64.4229 54.9923 56.5507 54.9923C49.996 54.9923 44.2124 51.6668 40.7905 46.6061L47.1364 42.172C49.1606 45.2245 52.6308 47.2487 56.5507 47.2487C61.274 47.2487 65.3225 44.3569 66.9933 40.2441L74.0782 43.3769Z" fill="#A1A1E5"/>
</svg>
