<svg width="1500" height="1165" viewBox="0 0 1500 1165" fill="none" xmlns="http://www.w3.org/2000/svg">
<g clip-path="url(#clip0)">
<path opacity="0.48" d="M1099.91 699.819C1099.91 697.107 1097.65 694.846 1094.94 694.846C1092.22 694.846 1089.96 697.107 1089.96 699.819C1089.96 702.532 1092.22 704.792 1094.94 704.792C1097.65 704.792 1099.91 702.532 1099.91 699.819Z" fill="#B6B6B6"/>
<path opacity="0.48" d="M1428.12 710.669C1428.12 707.957 1425.86 705.696 1423.15 705.696C1420.43 705.696 1418.17 707.957 1418.17 710.669C1418.17 713.382 1420.43 715.642 1423.15 715.642C1425.86 715.19 1428.12 712.929 1428.12 710.669Z" fill="#B6B6B6"/>
<path opacity="0.48" d="M868.897 646.926C868.897 644.213 866.637 641.953 863.924 641.953C861.212 641.953 858.951 644.213 858.951 646.926C858.951 649.638 861.212 651.899 863.924 651.899C866.637 651.899 868.897 649.638 868.897 646.926Z" fill="#B6B6B6"/>
<path opacity="0.48" d="M872.062 933.544C872.062 932.188 871.157 931.284 869.801 931.284C868.445 931.284 867.541 932.188 867.541 933.544C867.541 934.901 868.445 935.805 869.801 935.805C870.705 935.805 872.062 934.901 872.062 933.544Z" fill="#B6B6B6"/>
<path opacity="0.48" d="M748.644 965.642C748.644 964.286 747.74 963.382 746.383 963.382C745.027 963.382 744.123 964.286 744.123 965.642C744.123 966.998 745.027 967.902 746.383 967.902C747.74 967.902 748.644 966.998 748.644 965.642Z" fill="#B6B6B6"/>
<path opacity="0.48" d="M905.063 1083.63C905.063 1082.28 904.159 1080.92 902.803 1080.92C901.447 1080.92 900.09 1081.83 900.09 1083.18C900.09 1084.54 900.995 1085.9 902.351 1085.9C903.707 1085.9 905.063 1084.99 905.063 1083.63Z" fill="#B6B6B6"/>
<path opacity="0.48" d="M961.573 420.886C962.929 420.434 963.382 419.078 963.382 417.722C962.93 416.365 961.573 415.913 960.217 415.913C958.861 416.365 958.409 417.722 958.409 419.078C958.409 420.434 960.217 421.338 961.573 420.886Z" fill="#B6B6B6"/>
<path opacity="0.48" d="M1005.42 359.403C1006.78 358.951 1007.23 357.595 1007.23 356.239C1006.78 354.883 1005.42 354.43 1004.07 354.43C1002.71 354.882 1002.26 356.239 1002.26 357.595C1002.71 358.951 1004.07 359.855 1005.42 359.403Z" fill="#B6B6B6"/>
<path opacity="0.48" d="M1016.27 1004.07C1017.63 1003.62 1018.08 1002.26 1018.08 1000.9C1017.63 999.548 1016.27 999.096 1014.92 999.096C1013.56 999.548 1013.11 1000.9 1013.11 1002.26C1013.56 1003.62 1014.92 1004.52 1016.27 1004.07Z" fill="#B6B6B6"/>
<path opacity="0.48" d="M1060.13 942.134C1061.48 941.682 1061.94 940.326 1061.94 938.969C1061.48 937.613 1060.13 937.161 1058.77 937.161C1057.41 937.613 1056.96 938.969 1056.96 940.326C1057.41 941.682 1058.77 942.586 1060.13 942.134Z" fill="#B6B6B6"/>
<path opacity="0.48" d="M985.986 995.931C987.342 995.479 987.794 994.123 987.794 992.767C987.342 991.411 985.986 990.958 984.629 990.958C983.273 991.411 982.821 992.767 982.821 994.123C983.273 995.479 984.629 996.384 985.986 995.931Z" fill="#B6B6B6"/>
<path opacity="0.48" d="M972.423 949.367C973.78 948.915 974.232 947.559 974.232 946.203C973.78 944.846 972.423 944.394 971.067 944.394C969.711 944.846 969.259 946.203 969.259 947.559C969.711 948.915 971.067 949.819 972.423 949.367Z" fill="#B6B6B6"/>
<path opacity="0.48" d="M520.344 1091.77C520.344 1090.42 519.439 1089.51 518.083 1089.51C516.727 1089.51 515.823 1090.42 515.823 1091.77C515.823 1093.13 516.727 1094.03 518.083 1094.03C519.439 1094.03 520.344 1093.13 520.344 1091.77Z" fill="#B6B6B6"/>
<path opacity="0.48" d="M473.327 1032.55C473.327 1031.19 472.423 1030.29 471.067 1030.29C469.711 1030.29 468.806 1031.19 468.806 1032.55C468.806 1033.91 469.711 1034.81 471.067 1034.81C472.423 1034.81 473.327 1033.91 473.327 1032.55Z" fill="#B6B6B6"/>
<path opacity="0.48" d="M553.797 1152.35C553.797 1150.99 552.893 1150.09 551.537 1150.09C550.181 1150.09 549.277 1150.99 549.277 1152.35C549.277 1153.71 550.181 1154.61 551.537 1154.61C552.441 1155.06 553.797 1153.71 553.797 1152.35Z" fill="#B6B6B6"/>
<path opacity="0.48" d="M455.696 1118.44C455.696 1117.09 454.792 1116.18 453.436 1116.18C452.08 1116.18 451.176 1117.09 451.176 1118.44C451.176 1119.8 452.08 1120.71 453.436 1120.71C454.34 1121.16 455.696 1119.8 455.696 1118.44Z" fill="#B6B6B6"/>
<path opacity="0.48" d="M347.649 1066.91C348.898 1066.91 349.91 1065.9 349.91 1064.65C349.91 1063.4 348.898 1062.39 347.649 1062.39C346.401 1062.39 345.389 1063.4 345.389 1064.65C345.389 1065.9 346.401 1066.91 347.649 1066.91Z" fill="#B6B6B6"/>
<path opacity="0.48" d="M490.958 1155.06C490.958 1153.71 490.054 1152.8 488.698 1152.8C487.342 1152.8 486.438 1153.71 486.438 1155.06C486.438 1156.42 487.342 1157.32 488.698 1157.32C490.054 1157.32 490.958 1156.42 490.958 1155.06Z" fill="#B6B6B6"/>
<path opacity="0.48" d="M443.49 1168.63C444.738 1168.63 445.75 1167.61 445.75 1166.37C445.75 1165.12 444.738 1164.1 443.49 1164.1C442.242 1164.1 441.23 1165.12 441.23 1166.37C441.23 1167.61 442.242 1168.63 443.49 1168.63Z" fill="#B6B6B6"/>
<path opacity="0.48" d="M290.687 1123.42C291.936 1123.42 292.948 1122.41 292.948 1121.16C292.948 1119.91 291.936 1118.9 290.687 1118.9C289.439 1118.9 288.427 1119.91 288.427 1121.16C288.427 1122.41 289.439 1123.42 290.687 1123.42Z" fill="#B6B6B6"/>
<path opacity="0.48" d="M590.416 554.702C591.772 554.702 592.676 553.798 593.128 552.441C593.128 551.085 592.224 550.181 590.868 549.729C589.512 549.729 588.607 550.633 588.155 551.989C587.703 553.798 589.059 554.702 590.416 554.702Z" fill="#B6B6B6"/>
<path opacity="0.48" d="M509.042 609.855C510.398 609.855 511.302 608.951 511.754 607.595C511.754 606.239 510.85 605.335 509.494 604.883C508.137 604.883 507.233 605.787 506.781 607.143C506.781 608.499 507.685 609.855 509.042 609.855Z" fill="#B6B6B6"/>
<path opacity="0.48" d="M474.232 687.161C475.588 687.613 476.944 686.709 476.944 685.353C477.396 683.996 476.492 682.64 475.136 682.64C473.779 682.188 472.423 683.092 472.423 684.448C471.971 685.805 472.875 687.161 474.232 687.161Z" fill="#B6B6B6"/>
<path opacity="0.48" d="M432.64 646.926C433.996 646.926 434.9 646.022 435.352 644.666C435.352 643.309 434.448 642.405 433.092 641.953C431.736 641.953 430.832 642.857 430.38 644.213C430.38 646.022 431.284 646.926 432.64 646.926Z" fill="#B6B6B6"/>
<path opacity="0.48" d="M502.712 672.242C504.069 672.242 504.973 671.338 505.425 669.982C505.425 668.626 504.521 667.722 503.164 667.27C501.808 667.27 500.904 668.174 500.452 669.53C500.452 671.338 501.356 672.242 502.712 672.242Z" fill="#B6B6B6"/>
<path opacity="0.48" d="M492.315 627.034C493.671 627.034 494.575 626.13 495.027 624.774C495.027 623.418 494.123 622.514 492.767 622.062C491.411 622.062 490.506 622.966 490.054 624.322C490.054 625.678 490.959 627.034 492.315 627.034Z" fill="#B6B6B6"/>
<path opacity="0.48" d="M455.696 587.703C457.053 587.703 457.957 586.799 458.409 585.443C458.409 584.087 457.505 583.183 456.148 582.731C454.792 582.731 453.888 583.635 453.436 584.991C452.984 586.799 454.34 587.703 455.696 587.703Z" fill="#B6B6B6"/>
<path opacity="0.48" d="M632.143 733.711C633.389 733.633 634.335 732.559 634.257 731.313C634.178 730.067 633.104 729.121 631.858 729.2C630.612 729.278 629.666 730.352 629.745 731.598C629.824 732.844 630.897 733.79 632.143 733.711Z" fill="#B6B6B6"/>
<path opacity="0.48" d="M627.034 769.892C628.39 769.892 629.295 768.987 629.747 767.631C629.747 766.275 628.843 765.371 627.486 764.919C626.13 764.919 625.226 765.823 624.774 767.179C624.774 768.535 625.678 769.439 627.034 769.892Z" fill="#B6B6B6"/>
<path opacity="0.48" d="M602.17 732.369C603.526 732.369 604.43 731.465 604.883 730.108C604.883 728.752 603.978 727.848 602.622 727.396C601.266 727.396 600.362 728.3 599.91 729.656C599.458 731.013 600.814 732.369 602.17 732.369Z" fill="#B6B6B6"/>
<path opacity="0.48" d="M623.418 657.776C624.774 658.228 626.13 657.324 626.13 655.967C626.582 654.611 625.678 653.255 624.322 653.255C622.966 652.803 621.609 653.707 621.609 655.063C621.609 656.42 622.061 657.776 623.418 657.776Z" fill="#B6B6B6"/>
<path opacity="0.48" d="M21.7 694.846C23.0562 694.846 23.9604 693.942 24.4125 692.586C24.4125 691.23 23.5083 690.326 22.1521 689.873C20.7958 689.421 19.8917 690.778 19.4396 692.134C19.4396 693.942 20.3438 694.846 21.7 694.846Z" fill="#B6B6B6"/>
<path opacity="0.48" d="M41.1392 631.555C42.4954 631.555 43.3996 630.651 43.8516 629.295C43.8516 627.939 42.9475 627.034 41.5912 626.582C40.235 626.13 39.3308 627.486 38.8788 628.843C38.8788 630.199 39.7829 631.555 41.1392 631.555Z" fill="#B6B6B6"/>
<path opacity="0.48" d="M23.9604 600.362C25.3166 600.362 26.2208 599.458 26.6729 598.101C26.6729 596.745 25.7687 595.841 24.4125 595.389C23.0562 595.389 22.1521 596.293 21.7 597.649C21.7 599.458 22.6042 600.362 23.9604 600.362Z" fill="#B6B6B6"/>
<path opacity="0.48" d="M155.063 631.555C156.42 632.007 157.776 631.103 157.776 629.747C158.228 628.391 157.324 627.034 155.968 627.034C154.611 626.582 153.255 627.486 153.255 628.843C152.803 630.199 153.707 631.103 155.063 631.555Z" fill="#B6B6B6"/>
<path opacity="0.48" d="M526.221 769.892C527.577 769.892 528.481 768.987 528.933 767.631C528.933 766.275 528.029 765.371 526.673 764.919C525.316 764.919 524.412 765.823 523.96 767.179C523.508 768.535 524.864 769.439 526.221 769.892Z" fill="#B6B6B6"/>
<path opacity="0.48" d="M536.166 839.512C537.523 839.512 538.427 838.608 538.879 837.251C538.879 835.895 537.975 834.991 536.618 834.539C535.262 834.539 534.358 835.443 533.906 836.799C533.906 838.156 534.81 839.512 536.166 839.512Z" fill="#B6B6B6"/>
<path opacity="0.48" d="M548.825 710.669C550.181 710.669 551.085 709.765 551.537 708.409C551.537 707.052 550.633 706.148 549.277 705.696C547.921 705.696 547.016 706.6 546.564 707.957C546.564 709.313 547.468 710.217 548.825 710.669Z" fill="#B6B6B6"/>
<path opacity="0.48" d="M1270.34 378.843C1271.7 378.843 1272.6 377.939 1273.06 376.582C1273.06 375.226 1272.15 374.322 1270.8 373.87C1269.44 373.87 1268.54 374.774 1268.08 376.13C1267.63 377.486 1268.99 378.843 1270.34 378.843Z" fill="#B6B6B6"/>
<path opacity="0.48" d="M1265.37 414.557C1266.73 414.557 1267.63 413.653 1268.08 412.297C1268.08 410.94 1267.18 410.036 1265.82 409.584C1264.47 409.584 1263.56 410.488 1263.11 411.845C1263.11 413.201 1264.01 414.557 1265.37 414.557Z" fill="#B6B6B6"/>
<path opacity="0.48" d="M1240.51 377.034C1241.86 377.034 1242.77 376.13 1243.22 374.774C1243.22 373.418 1242.31 372.514 1240.96 372.062C1239.6 372.062 1238.7 372.966 1238.25 374.322C1238.25 376.13 1239.15 377.034 1240.51 377.034Z" fill="#B6B6B6"/>
<path opacity="0.48" d="M1164.56 414.557C1165.91 414.557 1166.82 413.653 1167.27 412.297C1167.27 410.94 1166.37 410.036 1165.01 409.584C1163.65 409.584 1162.75 410.488 1162.3 411.845C1161.84 413.201 1163.2 414.557 1164.56 414.557Z" fill="#B6B6B6"/>
<path opacity="0.48" d="M1187.16 355.335C1188.52 355.335 1189.42 354.43 1189.87 353.074C1189.87 351.718 1188.97 350.814 1187.61 350.362C1186.26 350.362 1185.35 351.266 1184.9 352.622C1184.45 353.978 1185.8 355.335 1187.16 355.335Z" fill="#B6B6B6"/>
<path opacity="0.48" d="M216.546 931.736C217.902 931.736 218.807 930.832 219.259 929.476C219.259 928.119 218.355 927.215 216.998 926.763C215.642 926.763 214.738 927.667 214.286 929.024C214.286 930.38 215.19 931.736 216.546 931.736Z" fill="#B6B6B6"/>
<path opacity="0.48" d="M157.324 971.971C158.68 972.423 160.036 971.519 160.036 970.163C160.488 968.807 159.584 967.45 158.228 967.45C156.872 966.998 155.516 967.902 155.516 969.259C155.063 970.615 155.968 971.519 157.324 971.971Z" fill="#B6B6B6"/>
<path opacity="0.48" d="M185.804 957.052C187.161 957.052 188.065 956.148 188.517 954.792C188.517 953.436 187.613 952.532 186.257 952.08C184.9 952.08 183.996 952.984 183.544 954.34C183.092 955.696 184.448 957.052 185.804 957.052Z" fill="#B6B6B6"/>
<path opacity="0.48" d="M175.407 911.392C176.763 911.392 177.667 910.488 178.12 909.132C178.12 907.776 177.215 906.872 175.859 906.42C174.503 906.42 173.599 907.324 173.147 908.68C173.147 910.488 174.051 911.392 175.407 911.392Z" fill="#B6B6B6"/>
<path opacity="0.48" d="M306.058 942.586C307.414 943.038 308.77 942.134 308.77 940.778C309.222 939.421 308.318 938.065 306.962 938.065C305.606 937.613 304.249 938.517 304.249 939.873C303.797 941.23 304.701 942.134 306.058 942.586Z" fill="#B6B6B6"/>
<path opacity="0.48" d="M231.465 995.027C232.821 995.027 233.725 994.123 234.177 992.767C234.177 991.411 233.273 990.506 231.917 990.054C230.56 990.054 229.656 990.958 229.204 992.315C229.204 994.123 230.108 995.027 231.465 995.027Z" fill="#B6B6B6"/>
<path opacity="0.48" d="M693.942 343.58C695.298 343.58 696.203 342.676 696.655 341.32C696.655 339.964 695.751 339.06 694.394 338.608C693.038 338.608 692.134 339.512 691.682 340.868C691.682 342.224 692.586 343.58 693.942 343.58Z" fill="#B6B6B6"/>
<path opacity="0.48" d="M688.969 379.295C690.326 379.295 691.23 378.391 691.682 377.034C691.682 375.678 690.778 374.774 689.421 374.322C688.065 374.322 687.161 375.226 686.709 376.582C686.709 378.391 687.613 379.295 688.969 379.295Z" fill="#B6B6B6"/>
<path opacity="0.48" d="M59.2223 419.982C60.5786 419.982 61.4827 419.078 61.9348 417.722C61.9348 416.365 61.0307 415.461 59.6744 415.009C58.3182 415.009 57.414 415.913 56.9619 417.269C56.9619 418.626 57.8661 419.982 59.2223 419.982Z" fill="#B6B6B6"/>
<path opacity="0.48" d="M9.04155 329.114C10.3978 329.566 11.754 328.662 11.754 327.306C12.2061 325.949 11.3019 324.593 9.94571 324.593C8.58947 324.593 7.23323 325.045 7.23323 326.401C6.78115 327.758 7.68531 329.114 9.04155 329.114Z" fill="#B6B6B6"/>
<path opacity="0.48" d="M610.759 320.072C612.116 320.072 613.02 319.168 613.472 317.812C613.472 316.456 612.568 315.552 611.211 315.099C609.855 315.099 608.951 316.004 608.499 317.36C608.499 319.168 609.403 320.072 610.759 320.072Z" fill="#B6B6B6"/>
<path opacity="0.48" d="M1265.82 1029.84C1265.82 1028.48 1264.92 1027.58 1263.56 1027.58C1262.21 1027.58 1261.3 1028.48 1261.3 1029.84C1261.3 1031.19 1262.21 1032.1 1263.56 1032.1C1264.47 1032.55 1265.82 1031.19 1265.82 1029.84Z" fill="#B6B6B6"/>
<path opacity="0.48" d="M1282.1 1139.69C1283 1140.6 1284.81 1140.14 1285.71 1139.24C1286.62 1138.34 1286.17 1136.53 1285.26 1136.08C1284.36 1135.17 1282.55 1135.62 1281.65 1136.53C1280.74 1137.43 1280.74 1138.79 1282.1 1139.69Z" fill="#B6B6B6"/>
<path opacity="0.48" d="M1187.61 1141.95C1188.52 1142.86 1189.87 1142.86 1191.23 1141.95C1192.13 1141.05 1192.13 1139.69 1191.23 1138.34C1190.33 1137.43 1188.97 1137.43 1187.61 1138.34C1186.71 1139.24 1186.71 1141.05 1187.61 1141.95Z" fill="#B6B6B6"/>
<path opacity="0.48" d="M1213.38 1165.91C1214.29 1166.82 1216.09 1166.37 1217 1165.46C1217.9 1164.56 1217.45 1162.75 1216.55 1162.3C1215.64 1161.39 1213.83 1161.84 1212.93 1162.75C1212.03 1163.65 1212.48 1165.01 1213.38 1165.91Z" fill="#B6B6B6"/>
<path opacity="0.48" d="M1277.13 1048.82C1278.03 1049.73 1279.84 1049.28 1280.74 1048.37C1281.65 1047.47 1281.19 1045.66 1280.29 1045.21C1279.39 1044.3 1277.58 1044.76 1276.67 1045.66C1275.77 1046.56 1276.22 1047.92 1277.13 1048.82Z" fill="#B6B6B6"/>
<path opacity="0.48" d="M1353.98 736.89C1355.23 736.89 1356.24 735.878 1356.24 734.629C1356.24 733.381 1355.23 732.369 1353.98 732.369C1352.73 732.369 1351.72 733.381 1351.72 734.629C1351.72 735.878 1352.73 736.89 1353.98 736.89Z" fill="#B6B6B6"/>
<path opacity="0.48" d="M1424.05 824.593C1424.95 825.497 1426.76 825.045 1427.67 824.141C1428.57 823.237 1428.12 821.429 1427.22 820.977C1426.31 820.072 1424.5 820.524 1423.6 821.429C1422.69 822.333 1423.15 823.689 1424.05 824.593Z" fill="#B6B6B6"/>
<path opacity="0.48" d="M1330.02 826.854C1330.92 827.758 1332.28 827.758 1333.63 826.854C1334.54 825.949 1334.54 824.593 1333.63 823.237C1332.73 822.333 1331.37 822.333 1330.02 823.237C1329.11 824.141 1329.11 825.949 1330.02 826.854Z" fill="#B6B6B6"/>
<path opacity="0.48" d="M1352.62 784.358C1353.53 785.262 1355.33 784.81 1356.24 783.906C1357.14 783.002 1356.69 781.194 1355.79 780.741C1354.88 779.837 1353.07 780.289 1352.17 781.194C1351.27 782.098 1351.72 783.906 1352.62 784.358Z" fill="#B6B6B6"/>
<path opacity="0.48" d="M1264.47 871.157C1265.37 872.062 1267.18 871.609 1268.08 870.705C1268.99 869.801 1268.54 867.993 1267.63 867.541C1266.73 866.637 1264.92 867.089 1264.01 867.993C1263.11 868.897 1263.11 870.705 1264.47 871.157Z" fill="#B6B6B6"/>
<path opacity="0.48" d="M1353.98 675.407C1353.53 676.763 1354.43 678.119 1355.79 678.119C1357.14 678.571 1358.5 677.667 1358.5 676.311C1358.95 674.955 1358.05 673.599 1356.69 673.599C1355.33 673.146 1353.98 674.051 1353.98 675.407Z" fill="#B6B6B6"/>
<path opacity="0.48" d="M1284.81 625.678C1284.36 627.034 1284.81 628.391 1286.17 628.843C1287.52 629.295 1288.88 628.843 1289.33 627.486C1289.78 626.13 1289.33 624.774 1287.97 624.322C1287.07 623.87 1285.26 624.322 1284.81 625.678Z" fill="#B6B6B6"/>
<path opacity="0.48" d="M1340.42 655.515C1339.96 656.872 1340.87 658.228 1342.22 658.228C1343.58 658.68 1344.94 657.776 1344.94 656.42C1345.39 655.063 1344.48 653.707 1343.13 653.707C1342.22 653.707 1340.87 654.611 1340.42 655.515Z" fill="#B6B6B6"/>
<path opacity="0.48" d="M1415.91 444.846C1417.16 444.846 1418.17 443.834 1418.17 442.586C1418.17 441.338 1417.16 440.326 1415.91 440.326C1414.66 440.326 1413.65 441.338 1413.65 442.586C1413.65 443.834 1414.66 444.846 1415.91 444.846Z" fill="#B6B6B6"/>
<path opacity="0.48" d="M1359.86 453.436C1359.4 454.792 1360.31 456.148 1361.66 456.148C1363.02 456.6 1364.38 455.696 1364.38 454.34C1364.83 452.984 1363.92 451.628 1362.57 451.628C1361.66 451.175 1360.31 452.08 1359.86 453.436Z" fill="#B6B6B6"/>
<path opacity="0.48" d="M1377.03 398.734C1376.58 400.09 1377.49 401.447 1378.84 401.447C1380.2 401.899 1381.56 400.995 1381.56 399.638C1382.01 398.282 1381.1 396.926 1379.75 396.926C1378.39 396.474 1377.03 397.378 1377.03 398.734Z" fill="#B6B6B6"/>
<path opacity="0.48" d="M844.937 551.537C844.485 552.893 845.389 554.25 846.745 554.25C848.101 554.702 849.458 553.797 849.458 552.441C849.458 551.085 849.006 549.729 847.649 549.729C846.745 549.729 845.389 550.633 844.937 551.537Z" fill="#B6B6B6"/>
<path opacity="0.48" d="M886.528 534.81C886.076 536.166 886.98 537.523 888.336 537.523C889.693 537.975 891.049 537.071 891.049 535.714C891.501 534.358 890.597 533.002 889.24 533.002C888.336 533.002 886.98 533.906 886.528 534.81Z" fill="#B6B6B6"/>
<path opacity="0.48" d="M826.401 516.275C825.949 517.631 826.853 518.987 828.21 518.987C829.566 519.439 830.922 518.535 830.922 517.179C831.374 515.823 830.47 514.467 829.114 514.467C828.21 514.015 826.853 514.919 826.401 516.275Z" fill="#B6B6B6"/>
<path opacity="0.48" d="M872.966 515.371C872.514 516.727 873.418 518.083 874.774 518.083C876.13 518.535 877.486 517.631 877.486 516.275C877.939 514.919 877.034 513.562 875.678 513.562C874.774 513.11 873.418 514.015 872.966 515.371Z" fill="#B6B6B6"/>
<path opacity="0.48" d="M1228.75 1095.84C1228.3 1097.2 1229.2 1098.55 1230.56 1098.55C1231.92 1099.01 1233.27 1098.1 1233.27 1096.75C1233.72 1095.39 1232.82 1094.03 1231.46 1094.03C1230.56 1093.58 1229.2 1094.48 1228.75 1095.84Z" fill="#B6B6B6"/>
<path opacity="0.48" d="M1270.34 1079.11C1269.89 1080.47 1270.8 1081.83 1272.15 1081.83C1273.51 1082.28 1274.86 1081.37 1274.86 1080.02C1275.32 1078.66 1274.41 1077.31 1273.06 1077.31C1272.15 1076.85 1270.8 1077.76 1270.34 1079.11Z" fill="#B6B6B6"/>
<path opacity="0.48" d="M1256.78 1059.22C1256.33 1060.58 1257.23 1061.93 1258.59 1061.93C1259.95 1062.39 1261.3 1061.48 1261.3 1060.13C1261.75 1058.77 1260.85 1057.41 1259.49 1057.41C1258.59 1057.41 1257.23 1057.87 1256.78 1059.22Z" fill="#B6B6B6"/>
<path opacity="0.48" d="M1386.08 627.486C1385.62 628.843 1386.53 630.199 1387.88 630.199C1389.24 630.651 1390.6 629.747 1390.6 628.391C1390.6 627.034 1390.14 625.678 1388.79 625.678C1387.88 625.226 1386.53 626.13 1386.08 627.486Z" fill="#B6B6B6"/>
<path opacity="0.48" d="M1205.24 636.98C1204.79 638.336 1205.7 639.693 1207.05 639.693C1208.41 640.145 1209.76 639.241 1209.76 637.884C1210.22 636.528 1209.31 635.172 1207.96 635.172C1206.6 634.72 1205.7 635.624 1205.24 636.98Z" fill="#B6B6B6"/>
<path opacity="0.48" d="M1173.6 758.59C1173.15 759.946 1174.05 761.302 1175.41 761.302C1176.76 761.754 1178.12 760.85 1178.12 759.494C1178.57 758.137 1177.67 756.781 1176.31 756.781C1174.95 756.781 1173.6 757.685 1173.6 758.59Z" fill="#B6B6B6"/>
<path opacity="0.48" d="M1217.45 716.094C1217 717.45 1217.9 718.807 1219.26 718.807C1220.61 719.259 1221.97 718.354 1221.97 716.998C1222.42 715.642 1221.52 714.286 1220.16 714.286C1219.26 714.286 1217.9 714.738 1217.45 716.094Z" fill="#B6B6B6"/>
<path opacity="0.48" d="M1283.91 777.577C1283.45 778.933 1283.91 780.289 1285.26 780.741C1286.62 781.194 1287.97 780.741 1288.43 779.385C1288.88 778.029 1288.43 776.673 1287.07 776.221C1285.71 775.769 1284.36 776.221 1283.91 777.577Z" fill="#B6B6B6"/>
<path opacity="0.48" d="M712.929 751.808C712.929 750.452 712.025 749.548 710.669 749.548C709.313 749.548 708.409 750.452 708.409 751.808C708.409 753.165 709.313 754.069 710.669 754.069C712.025 754.069 712.929 753.165 712.929 751.808Z" fill="#B6B6B6"/>
<path opacity="0.48" d="M915.913 744.123C916.817 745.027 918.173 745.027 919.53 744.123C920.434 743.219 920.434 741.863 919.53 740.506C918.625 739.602 917.269 739.602 915.913 740.506C915.009 741.411 915.009 743.219 915.913 744.123Z" fill="#B6B6B6"/>
<path opacity="0.48" d="M938.517 701.628C939.421 702.532 941.23 702.08 942.134 701.176C943.038 700.271 942.586 698.463 941.682 698.011C940.778 697.107 938.969 697.559 938.065 698.463C937.161 699.367 937.161 701.175 938.517 701.628Z" fill="#B6B6B6"/>
<path opacity="0.48" d="M869.349 694.846C868.897 696.203 869.349 697.559 870.705 698.011C872.061 698.463 873.418 698.011 873.87 696.655C874.322 695.298 873.87 693.942 872.513 693.49C871.157 693.038 869.801 693.49 869.349 694.846Z" fill="#B6B6B6"/>
<path opacity="0.48" d="M1193.94 660.036C1193.49 661.392 1194.39 662.749 1195.75 662.749C1197.11 663.201 1198.46 662.297 1198.46 660.94C1198.91 659.584 1198.01 658.228 1196.65 658.228C1195.3 657.776 1193.94 658.68 1193.94 660.036Z" fill="#B6B6B6"/>
<path opacity="0.48" d="M1226.49 589.512C1226.04 590.868 1226.94 592.224 1228.3 592.224C1229.66 592.676 1231.01 591.772 1231.01 590.416C1231.46 589.06 1230.56 587.703 1229.2 587.703C1227.85 587.251 1226.49 588.156 1226.49 589.512Z" fill="#B6B6B6"/>
<path opacity="0.48" d="M644.665 1091.32C644.213 1092.68 645.118 1094.03 646.474 1094.03C647.83 1094.48 649.186 1093.58 649.186 1092.22C649.638 1090.87 648.734 1089.51 647.378 1089.51C646.474 1089.06 645.118 1089.96 644.665 1091.32Z" fill="#B6B6B6"/>
<path opacity="0.48" d="M617.541 1024.86C617.089 1026.22 617.541 1027.58 618.897 1028.03C620.253 1028.48 621.609 1028.03 622.062 1026.67C622.514 1025.32 622.062 1023.96 620.705 1023.51C619.349 1023.06 617.993 1023.96 617.541 1024.86Z" fill="#B6B6B6"/>
<path opacity="0.48" d="M626.582 1056.06C626.13 1057.41 627.034 1058.77 628.391 1058.77C629.747 1059.22 631.103 1058.32 631.103 1056.96C631.555 1055.61 630.651 1054.25 629.295 1054.25C627.938 1053.8 626.582 1054.7 626.582 1056.06Z" fill="#B6B6B6"/>
<path opacity="0.48" d="M579.566 1093.13C579.114 1094.48 580.018 1095.84 581.374 1095.84C582.73 1096.29 584.087 1095.39 584.087 1094.03C584.539 1092.68 583.635 1091.32 582.278 1091.32C581.374 1091.32 580.018 1091.77 579.566 1093.13Z" fill="#B6B6B6"/>
<path opacity="0.48" d="M127.939 773.96C128.391 776.221 131.103 777.577 132.911 776.673C135.172 776.221 136.528 773.508 135.624 771.7C135.172 769.439 132.459 768.083 130.651 768.987C128.843 769.439 127.487 772.152 127.939 773.96Z" fill="#B6B6B6"/>
<path opacity="0.48" d="M78.2099 758.137C78.6619 760.398 81.3744 761.754 83.1827 760.85C85.4431 760.398 86.7994 757.685 85.8952 755.877C85.4431 753.617 82.7307 752.26 80.9223 753.165C78.6619 753.617 77.7578 755.877 78.2099 758.137Z" fill="#B6B6B6"/>
<path opacity="0.48" d="M204.34 793.4C204.792 795.66 207.505 797.016 209.313 796.112C211.573 795.66 212.93 792.948 212.025 791.139C211.573 788.879 208.861 787.523 207.053 788.427C205.244 788.879 203.888 791.139 204.34 793.4Z" fill="#B6B6B6"/>
<path opacity="0.48" d="M1142.4 1122.06C1142.4 1120.71 1141.5 1119.8 1140.14 1119.8C1138.79 1119.8 1137.88 1120.71 1137.88 1122.06C1137.88 1123.42 1138.79 1124.32 1140.14 1124.32C1141.05 1124.32 1142.4 1123.42 1142.4 1122.06Z" fill="#B6B6B6"/>
<path opacity="0.48" d="M1135.62 1168.17C1136.53 1169.08 1137.88 1169.08 1139.24 1168.17C1140.14 1167.27 1140.14 1165.91 1139.24 1164.56C1138.34 1163.65 1136.98 1163.65 1135.62 1164.56C1134.72 1165.46 1134.72 1166.82 1135.62 1168.17Z" fill="#B6B6B6"/>
<path opacity="0.48" d="M1109.86 580.018C1110.76 580.922 1112.57 580.47 1113.47 579.566C1114.38 578.662 1113.92 576.854 1113.02 576.401C1112.12 575.497 1110.31 575.949 1109.4 576.854C1108.5 577.758 1108.95 579.114 1109.86 580.018Z" fill="#B6B6B6"/>
<path opacity="0.48" d="M1015.82 582.279C1016.73 583.183 1018.08 583.183 1019.44 582.279C1020.8 581.374 1020.34 580.018 1019.44 578.662C1018.54 577.758 1017.18 577.758 1015.82 578.662C1014.92 580.018 1014.92 581.374 1015.82 582.279Z" fill="#B6B6B6"/>
<path opacity="0.48" d="M1041.59 606.239C1042.5 607.143 1044.3 606.691 1045.21 605.787C1046.11 604.882 1045.66 603.074 1044.76 602.622C1043.85 601.718 1042.04 602.17 1041.14 603.074C1040.24 603.978 1040.24 605.787 1041.59 606.239Z" fill="#B6B6B6"/>
<path opacity="0.48" d="M963.834 608.499C964.738 609.403 966.094 609.403 967.45 608.499C968.354 607.595 968.354 606.239 967.45 604.883C966.546 603.978 965.19 603.978 963.834 604.883C962.477 605.787 962.477 607.595 963.834 608.499Z" fill="#B6B6B6"/>
<path opacity="0.48" d="M1067.36 1165.91C1068.26 1166.82 1070.07 1166.37 1070.98 1165.46C1071.88 1164.56 1071.43 1162.75 1070.52 1162.3C1069.62 1161.39 1067.81 1161.84 1066.91 1162.75C1066 1163.65 1066.46 1165.01 1067.36 1165.91Z" fill="#B6B6B6"/>
<path opacity="0.48" d="M1071.43 1109.4C1070.98 1110.76 1071.88 1112.12 1073.24 1112.12C1074.59 1112.57 1075.95 1111.66 1075.95 1110.31C1076.4 1108.95 1075.5 1107.6 1074.14 1107.6C1072.78 1107.14 1071.88 1108.05 1071.43 1109.4Z" fill="#B6B6B6"/>
<path opacity="0.48" d="M1159.58 1016.27C1159.13 1017.63 1160.04 1018.99 1161.39 1018.99C1162.75 1019.44 1164.1 1018.54 1164.1 1017.18C1164.56 1015.82 1163.65 1014.47 1162.3 1014.47C1160.94 1014.47 1159.58 1015.37 1159.58 1016.27Z" fill="#B6B6B6"/>
<path opacity="0.48" d="M1090.42 966.998C1089.96 968.354 1090.42 969.711 1091.77 970.163C1093.13 970.615 1094.48 970.163 1094.94 968.806C1095.39 967.45 1094.94 966.094 1093.58 965.642C1092.22 965.19 1090.87 965.642 1090.42 966.998Z" fill="#B6B6B6"/>
<path opacity="0.48" d="M1099.46 997.74C1099.01 999.096 1099.91 1000.45 1101.27 1000.45C1102.62 1000.9 1103.98 1000 1103.98 998.644C1104.43 997.288 1103.53 995.931 1102.17 995.931C1101.27 995.479 1099.91 996.383 1099.46 997.74Z" fill="#B6B6B6"/>
<path opacity="0.48" d="M1101.72 1048.82C1101.27 1050.18 1102.17 1051.54 1103.53 1051.54C1104.88 1051.99 1106.24 1051.09 1106.24 1049.73C1106.69 1048.37 1105.79 1047.02 1104.43 1047.02C1103.53 1047.02 1102.17 1047.92 1101.72 1048.82Z" fill="#B6B6B6"/>
<path opacity="0.48" d="M1013.11 1111.66C1012.66 1113.02 1013.56 1114.38 1014.92 1114.38C1016.27 1114.83 1017.63 1113.92 1017.63 1112.57C1018.08 1111.21 1017.18 1109.86 1015.82 1109.86C1014.92 1109.86 1013.56 1110.76 1013.11 1111.66Z" fill="#B6B6B6"/>
<path opacity="0.48" d="M1020.34 1083.18C1019.89 1084.54 1020.8 1085.9 1022.15 1085.9C1023.51 1086.35 1024.86 1085.44 1024.86 1084.09C1025.32 1082.73 1024.41 1081.37 1023.06 1081.37C1022.15 1080.92 1020.8 1081.83 1020.34 1083.18Z" fill="#B6B6B6"/>
<path opacity="0.48" d="M1089.06 1118.9C1088.61 1120.25 1089.06 1121.61 1090.42 1122.06C1091.77 1122.51 1093.13 1122.06 1093.58 1120.71C1094.03 1119.35 1093.58 1117.99 1092.22 1117.54C1091.32 1116.64 1089.96 1117.54 1089.06 1118.9Z" fill="#B6B6B6"/>
<path opacity="0.48" d="M1052.89 1035.26C1052.44 1036.62 1053.35 1037.97 1054.7 1037.97C1056.06 1038.43 1057.41 1037.52 1057.41 1036.17C1057.87 1034.81 1056.96 1033.45 1055.61 1033.45C1054.25 1033 1052.89 1033.91 1052.89 1035.26Z" fill="#B6B6B6"/>
<path opacity="0.48" d="M772.152 1143.31C772.152 1141.95 771.248 1141.05 769.892 1141.05C768.535 1141.05 767.631 1141.95 767.631 1143.31C767.631 1144.67 768.535 1145.57 769.892 1145.57C770.796 1145.57 772.152 1144.67 772.152 1143.31Z" fill="#B6B6B6"/>
<path opacity="0.48" d="M869.349 1154.61C870.705 1154.16 871.157 1152.8 871.157 1151.45C870.705 1150.09 869.349 1149.64 867.993 1149.64C866.636 1150.09 866.184 1151.45 866.184 1152.8C866.636 1154.16 867.993 1155.06 869.349 1154.61Z" fill="#B6B6B6"/>
<path opacity="0.48" d="M931.284 1134.72C930.832 1136.08 931.736 1137.43 933.092 1137.43C934.449 1137.88 935.805 1136.98 935.805 1135.62C936.257 1134.27 935.353 1132.91 933.997 1132.91C932.64 1132.46 931.736 1133.36 931.284 1134.72Z" fill="#B6B6B6"/>
<path opacity="0.48" d="M1434 1157.32C1434 1155.97 1433.09 1155.06 1431.74 1155.06C1430.38 1155.06 1429.48 1155.97 1429.48 1157.32C1429.48 1158.68 1430.38 1159.58 1431.74 1159.58C1432.64 1159.58 1434 1158.68 1434 1157.32Z" fill="#B6B6B6"/>
<path opacity="0.48" d="M73.6891 1132.46C73.6891 1131.1 72.785 1130.2 71.4287 1130.2C70.0725 1130.2 69.1684 1131.1 69.1684 1132.46C69.1684 1133.82 70.0725 1134.72 71.4287 1134.72C72.785 1134.72 73.6891 1133.82 73.6891 1132.46Z" fill="#B6B6B6"/>
<path opacity="0.48" d="M4.97288 1142.86C4.97288 1141.5 4.06872 1140.6 2.71248 1140.6C1.35624 1140.6 0 1141.5 0 1142.86C0 1144.21 0.904159 1145.12 2.2604 1145.12C3.61664 1145.12 4.97288 1144.21 4.97288 1142.86Z" fill="#B6B6B6"/>
<path opacity="0.48" d="M174.051 1148.28C175.407 1147.83 175.859 1146.47 175.859 1145.12C175.407 1143.76 174.051 1143.31 172.695 1143.31C171.338 1143.76 170.886 1145.12 170.886 1146.47C171.338 1147.83 172.695 1148.73 174.051 1148.28Z" fill="#B6B6B6"/>
<path opacity="0.48" d="M104.882 1066.91C106.131 1066.91 107.143 1065.9 107.143 1064.65C107.143 1063.4 106.131 1062.39 104.882 1062.39C103.634 1062.39 102.622 1063.4 102.622 1064.65C102.622 1065.9 103.634 1066.91 104.882 1066.91Z" fill="#B6B6B6"/>
<path opacity="0.48" d="M219.711 1105.79C221.067 1105.33 221.519 1103.98 221.519 1102.62C221.067 1101.27 219.711 1100.81 218.355 1100.81C216.998 1101.27 216.546 1102.62 216.546 1103.98C216.998 1105.33 218.355 1105.79 219.711 1105.79Z" fill="#B6B6B6"/>
<path opacity="0.48" d="M160.488 1021.25C161.845 1020.8 162.297 1019.44 162.297 1018.08C161.845 1016.73 160.488 1016.27 159.132 1016.27C157.776 1016.73 157.324 1018.08 157.324 1019.44C157.776 1020.8 159.132 1021.7 160.488 1021.25Z" fill="#B6B6B6"/>
<path opacity="0.48" d="M748.644 641.049C749.548 641.953 750.904 642.405 752.26 641.501C753.164 640.597 753.617 639.24 752.712 638.336C751.808 637.432 750.452 636.98 749.096 637.884C748.192 638.336 747.74 639.693 748.644 641.049Z" fill="#B6B6B6"/>
<path opacity="0.48" d="M746.383 609.403C747.287 610.307 748.644 610.76 750 609.855C750.904 608.951 751.356 607.595 750.452 606.691C749.548 605.787 748.192 605.335 746.835 606.239C745.931 606.691 745.931 608.499 746.383 609.403Z" fill="#B6B6B6"/>
<path opacity="0.48" d="M734.177 556.058C735.081 556.962 736.438 557.414 737.794 556.51C738.698 555.606 739.15 554.25 738.246 553.345C737.342 552.441 735.986 551.989 734.629 552.893C733.725 553.798 733.725 555.154 734.177 556.058Z" fill="#B6B6B6"/>
<path opacity="0.48" d="M767.179 798.373C767.631 799.729 769.439 800.181 770.344 799.277C771.7 798.825 772.152 797.016 771.248 796.112C770.796 794.756 768.987 794.304 768.083 795.208C766.727 795.66 766.275 797.016 767.179 798.373Z" fill="#B6B6B6"/>
<path opacity="0.48" d="M774.412 740.958C775.316 741.863 776.673 742.315 778.029 741.411C778.933 740.506 779.385 739.15 778.481 738.246C777.577 737.342 776.22 736.89 774.864 737.794C773.96 738.246 773.508 740.054 774.412 740.958Z" fill="#B6B6B6"/>
<path opacity="0.48" d="M715.642 627.939C716.546 628.843 717.903 629.295 719.259 628.391C720.615 627.486 720.615 626.13 719.711 625.226C718.807 624.322 717.451 623.87 716.094 624.774C715.19 625.226 715.19 627.034 715.642 627.939Z" fill="#B6B6B6"/>
<path opacity="0.48" d="M826.401 776.673C827.305 777.577 828.662 778.029 830.018 777.125C830.922 776.221 831.374 774.864 830.47 773.96C829.566 773.056 828.21 772.604 826.853 773.508C825.949 773.96 825.497 775.769 826.401 776.673Z" fill="#B6B6B6"/>
<path opacity="0.48" d="M773.056 593.58C773.96 594.485 775.316 594.937 776.673 594.033C777.577 593.128 778.029 591.772 777.125 590.868C776.221 589.964 774.864 589.512 773.508 590.416C772.604 591.32 772.604 592.676 773.056 593.58Z" fill="#B6B6B6"/>
<path opacity="0.48" d="M721.519 927.215C720.615 928.119 721.067 929.928 721.971 930.832C722.875 931.736 724.683 931.284 725.588 930.38C726.492 929.476 726.04 927.667 725.136 926.763C724.231 926.311 722.423 926.311 721.519 927.215Z" fill="#B6B6B6"/>
<path opacity="0.48" d="M751.356 916.365C750.452 917.269 750.904 919.078 751.808 919.982C752.712 920.886 754.521 920.434 755.425 919.53C756.329 918.626 755.877 916.817 754.973 915.913C753.617 915.461 752.26 915.461 751.356 916.365Z" fill="#B6B6B6"/>
<path opacity="0.48" d="M789.331 947.107C788.427 948.011 788.879 949.819 789.783 950.723C790.687 951.628 792.495 951.175 793.4 950.271C794.304 949.367 793.852 947.559 792.947 946.655C791.591 945.75 790.235 945.75 789.331 947.107Z" fill="#B6B6B6"/>
<path opacity="0.48" d="M586.799 824.141C585.443 824.141 584.539 825.045 584.539 826.402C584.539 827.758 585.443 828.662 586.799 828.662C588.156 828.662 589.06 827.758 589.06 826.402C589.512 825.045 588.156 824.141 586.799 824.141Z" fill="#B6B6B6"/>
<path opacity="0.48" d="M626.582 897.378C626.13 896.022 624.774 895.57 623.418 896.022C622.061 896.474 621.609 897.83 622.062 899.186C622.514 900.542 623.87 900.995 625.226 900.542C626.13 900.09 627.034 898.282 626.582 897.378Z" fill="#B6B6B6"/>
<path opacity="0.48" d="M682.188 1000C681.736 998.644 680.38 997.74 679.476 998.192C678.12 998.644 677.215 1000 677.667 1000.9C678.119 1002.26 679.476 1003.16 680.38 1002.71C681.736 1002.71 682.64 1001.36 682.188 1000Z" fill="#B6B6B6"/>
<path opacity="0.48" d="M657.324 980.109C656.872 978.752 655.516 978.3 654.159 978.752C652.803 979.204 652.351 980.561 652.803 981.917C653.255 983.273 654.611 983.725 655.968 983.273C657.324 982.821 657.776 981.465 657.324 980.109Z" fill="#B6B6B6"/>
<path opacity="0.48" d="M231.465 287.071C231.917 285.714 231.013 284.358 229.656 284.358C228.3 284.358 226.944 284.81 226.944 286.166C226.492 287.523 227.396 288.879 228.752 288.879C230.108 289.331 231.465 288.427 231.465 287.071Z" fill="#B6B6B6"/>
<path opacity="0.48" d="M140.145 521.248C140.145 519.892 139.241 518.987 137.884 518.987C136.528 518.987 135.624 519.892 135.624 521.248C135.624 522.604 136.528 523.508 137.884 523.508C138.788 523.96 140.145 522.604 140.145 521.248Z" fill="#B6B6B6"/>
<path opacity="0.48" d="M134.72 438.065C134.72 436.709 133.816 435.805 132.459 435.805C131.103 435.805 130.199 436.709 130.199 438.065C130.199 439.421 131.103 440.326 132.459 440.326C133.364 440.326 134.72 439.421 134.72 438.065Z" fill="#B6B6B6"/>
<path opacity="0.48" d="M117.993 462.477C117.993 461.121 117.089 460.217 115.732 460.217C114.376 460.217 113.472 461.121 113.472 462.477C113.472 463.834 114.376 464.738 115.732 464.738C117.089 464.738 117.993 463.834 117.993 462.477Z" fill="#B6B6B6"/>
<path opacity="0.48" d="M118.445 547.468C117.993 546.112 116.636 545.208 115.732 545.66C114.376 546.112 113.472 547.468 113.924 548.373C114.376 549.729 115.732 550.633 116.636 550.181C117.993 550.181 118.445 548.825 118.445 547.468Z" fill="#B6B6B6"/>
<path opacity="0.48" d="M93.1284 527.577C92.6763 526.221 91.3201 525.769 89.9638 526.221C88.6076 526.673 88.1555 528.029 88.6076 529.385C89.0597 530.741 90.4159 531.194 91.7722 530.741C93.1284 529.837 93.5805 528.481 93.1284 527.577Z" fill="#B6B6B6"/>
<path opacity="0.48" d="M625.678 939.421C625.226 938.065 623.87 937.613 622.514 938.065C621.158 938.517 620.705 939.873 621.158 941.23C621.61 942.586 622.966 943.038 624.322 942.586C625.678 942.134 626.13 940.778 625.678 939.421Z" fill="#B6B6B6"/>
<path opacity="0.48" d="M662.297 837.251C661.845 835.895 660.488 835.443 659.132 835.895C657.776 836.347 657.324 837.703 657.776 839.06C658.228 840.416 659.584 840.868 660.94 840.416C662.297 839.964 662.749 838.156 662.297 837.251Z" fill="#B6B6B6"/>
<path opacity="0.48" d="M672.694 864.828C672.242 863.472 670.886 863.02 669.53 863.472C668.174 863.924 667.721 865.28 668.173 866.637C668.626 867.993 669.982 868.445 671.338 867.993C672.694 867.541 673.146 866.185 672.694 864.828Z" fill="#B6B6B6"/>
<path opacity="0.48" d="M596.293 875.226C595.841 873.87 594.485 872.966 593.581 873.418C592.224 873.87 591.32 875.226 591.772 876.13C592.224 877.486 593.581 878.391 594.485 877.939C595.841 877.939 596.293 876.582 596.293 875.226Z" fill="#B6B6B6"/>
<path opacity="0.48" d="M674.051 922.694C673.599 921.338 672.242 920.886 670.886 921.338C669.53 921.79 669.078 923.146 669.53 924.503C669.982 925.859 671.338 926.311 672.694 925.859C674.051 925.407 674.503 924.051 674.051 922.694Z" fill="#B6B6B6"/>
<path opacity="0.48" d="M1191.68 505.877C1191.23 504.521 1189.87 504.069 1188.52 504.521C1187.16 504.973 1186.71 506.329 1187.16 507.685C1187.61 509.042 1188.97 509.494 1190.33 509.042C1191.68 508.59 1192.13 507.233 1191.68 505.877Z" fill="#B6B6B6"/>
<path opacity="0.48" d="M1088.61 514.467C1088.16 513.11 1086.8 512.206 1085.89 512.658C1084.54 513.11 1083.63 514.467 1084.09 515.371C1084.54 516.727 1085.89 517.631 1086.8 517.179C1088.16 517.179 1089.06 515.823 1088.61 514.467Z" fill="#B6B6B6"/>
<path opacity="0.48" d="M1063.74 494.123C1063.29 492.767 1061.93 492.315 1060.58 492.767C1059.22 493.219 1058.77 494.575 1059.22 495.931C1059.67 497.288 1061.03 497.74 1062.39 497.288C1063.29 496.835 1064.2 495.479 1063.74 494.123Z" fill="#B6B6B6"/>
<path opacity="0.48" d="M1495.93 707.505C1496.84 708.409 1498.64 707.957 1499.55 707.052C1500.45 706.148 1500 704.34 1499.1 703.888C1498.19 702.984 1496.38 703.436 1495.48 704.34C1494.58 705.244 1495.03 706.6 1495.93 707.505Z" fill="#B6B6B6"/>
<path opacity="0.48" d="M1089.51 51.5371C1090.42 52.4412 1092.22 51.9892 1093.13 51.085C1094.03 50.1808 1093.58 48.3725 1092.68 47.9204C1091.77 47.0163 1089.96 47.4684 1089.06 48.3725C1088.16 49.2767 1088.61 50.6329 1089.51 51.5371Z" fill="#B6B6B6"/>
<path opacity="0.48" d="M1490.05 518.987C1489.6 517.631 1488.25 516.727 1487.34 517.179C1485.99 517.631 1485.08 518.987 1485.53 519.892C1485.99 521.248 1487.34 522.152 1488.25 521.7C1489.6 521.7 1490.51 520.344 1490.05 518.987Z" fill="#B6B6B6"/>
<path opacity="0.48" d="M1497.29 503.617C1496.84 502.26 1495.48 501.808 1494.12 502.26C1492.77 502.713 1492.31 504.069 1492.77 505.425C1493.22 506.781 1494.57 507.233 1495.93 506.781C1497.29 505.877 1497.74 504.521 1497.29 503.617Z" fill="#B6B6B6"/>
<path opacity="0.48" d="M1032.1 453.888C1031.65 452.532 1030.29 452.08 1028.93 452.532C1027.58 452.984 1027.12 454.34 1027.58 455.696C1028.03 457.052 1029.38 457.505 1030.74 457.052C1032.1 456.148 1032.55 454.792 1032.1 453.888Z" fill="#B6B6B6"/>
<path opacity="0.48" d="M1079.11 379.295C1078.66 377.939 1077.31 377.486 1075.95 377.939C1074.59 378.391 1074.14 379.747 1074.59 381.103C1075.05 382.459 1076.4 382.911 1077.76 382.459C1079.11 382.007 1079.57 380.199 1079.11 379.295Z" fill="#B6B6B6"/>
<path opacity="0.48" d="M1002.71 389.24C1002.26 387.884 1000.9 386.98 1000 387.432C998.644 387.884 997.739 389.241 998.192 390.145C998.644 391.501 1000 392.405 1000.9 391.953C1001.81 391.953 1002.71 390.597 1002.71 389.24Z" fill="#B6B6B6"/>
<path opacity="0.48" d="M1157.32 520.344C1156.87 518.987 1155.52 518.535 1154.16 518.987C1152.8 519.439 1152.35 520.796 1152.8 522.152C1153.26 523.508 1154.61 523.96 1155.97 523.508C1157.32 523.056 1157.78 521.7 1157.32 520.344Z" fill="#B6B6B6"/>
<path opacity="0.48" d="M1110.76 146.022C1112.12 145.57 1112.57 144.213 1112.57 142.857C1112.12 141.501 1110.76 141.049 1109.4 141.049C1108.05 141.501 1107.59 142.857 1107.59 144.213C1108.05 145.57 1109.4 146.022 1110.76 146.022Z" fill="#B6B6B6"/>
<path opacity="0.48" d="M359.855 198.915C361.211 198.915 362.116 198.011 362.568 196.655C362.568 195.298 361.663 194.394 360.307 193.942C358.951 193.942 358.047 194.846 357.595 196.203C357.143 198.011 358.499 198.915 359.855 198.915Z" fill="#B6B6B6"/>
<path opacity="0.48" d="M1010.4 103.526C1011.75 103.526 1012.66 102.622 1013.11 101.266C1013.11 99.9096 1012.21 99.0054 1010.85 98.5534C1009.49 98.5534 1008.59 99.4575 1008.14 100.814C1007.69 102.622 1009.04 103.526 1010.4 103.526Z" fill="#B6B6B6"/>
<path opacity="0.48" d="M671.79 66.9078C673.146 66.9078 674.05 66.0036 674.503 64.6474C674.503 63.2911 673.598 62.387 672.242 61.9349C670.886 61.9349 669.982 62.8391 669.53 64.1953C669.53 66.0036 670.434 66.9078 671.79 66.9078Z" fill="#B6B6B6"/>
<path opacity="0.48" d="M1138.34 198.011C1137.88 196.655 1136.53 196.203 1135.17 196.655C1133.82 197.107 1133.36 198.463 1133.82 199.819C1134.27 201.175 1135.62 201.628 1136.98 201.175C1138.34 200.723 1138.79 199.367 1138.34 198.011Z" fill="#B6B6B6"/>
<path opacity="0.48" d="M1137.43 240.054C1136.98 238.698 1135.62 238.246 1134.27 238.698C1132.91 239.15 1132.46 240.506 1132.91 241.863C1133.36 243.219 1134.72 243.671 1136.08 243.219C1137.43 242.767 1138.34 241.41 1137.43 240.054Z" fill="#B6B6B6"/>
<path opacity="0.48" d="M1184.45 165.461C1184 164.105 1182.64 163.653 1181.28 164.105C1179.93 164.557 1179.48 165.913 1179.93 167.269C1180.38 168.626 1181.74 169.078 1183.09 168.626C1184.45 168.174 1185.35 166.817 1184.45 165.461Z" fill="#B6B6B6"/>
<path opacity="0.48" d="M1108.05 175.859C1107.59 174.503 1106.24 173.599 1105.33 174.051C1103.98 174.503 1103.07 175.859 1103.53 176.763C1103.98 178.119 1105.33 179.024 1106.24 178.571C1107.59 178.571 1108.5 177.215 1108.05 175.859Z" fill="#B6B6B6"/>
<path opacity="0.48" d="M1185.8 223.327C1185.35 221.971 1184 221.519 1182.64 221.971C1181.28 222.423 1180.83 223.779 1181.28 225.136C1181.74 226.492 1183.09 226.944 1184.45 226.492C1185.8 226.04 1186.26 224.684 1185.8 223.327Z" fill="#B6B6B6"/>
<path opacity="0.48" d="M1434.45 522.152C1435.8 522.152 1436.71 521.248 1437.16 519.892C1437.16 518.535 1436.26 517.631 1434.9 517.179C1433.54 517.179 1432.64 518.083 1432.19 519.439C1432.19 520.796 1433.09 522.152 1434.45 522.152Z" fill="#B6B6B6"/>
<path opacity="0.48" d="M1418.17 501.808C1419.53 501.808 1420.43 500.904 1420.89 499.548C1421.34 498.192 1419.98 497.288 1418.63 496.835C1417.27 496.835 1416.37 497.74 1415.91 499.096C1415.91 500.904 1416.82 501.808 1418.17 501.808Z" fill="#B6B6B6"/>
<path opacity="0.48" d="M1487.34 316.004C1488.7 316.004 1489.6 315.099 1490.05 313.743C1490.05 312.387 1489.15 311.483 1487.79 311.031C1486.44 311.031 1485.53 311.935 1485.08 313.291C1485.08 314.647 1485.99 316.004 1487.34 316.004Z" fill="#B6B6B6"/>
<path opacity="0.48" d="M1436.71 305.154C1438.07 305.154 1438.97 304.25 1439.42 302.893C1439.42 301.537 1438.52 300.633 1437.16 300.181C1435.8 300.181 1434.9 301.085 1434.45 302.441C1434.45 303.797 1435.35 305.154 1436.71 305.154Z" fill="#B6B6B6"/>
<path opacity="0.48" d="M1455.7 330.922C1455.24 329.566 1453.89 329.114 1452.53 329.566C1451.18 330.018 1450.72 331.374 1451.18 332.731C1451.63 334.087 1452.98 334.539 1454.34 334.087C1455.7 333.635 1456.15 332.279 1455.7 330.922Z" fill="#B6B6B6"/>
<path opacity="0.48" d="M457.219 306.508C458.465 306.429 459.41 305.354 459.33 304.108C459.251 302.862 458.176 301.917 456.93 301.997C455.684 302.076 454.739 303.151 454.819 304.397C454.898 305.643 455.973 306.588 457.219 306.508Z" fill="#B6B6B6"/>
<path opacity="0.48" d="M432.188 269.439C433.544 269.439 434.448 268.535 434.9 267.179C434.9 265.823 433.996 264.919 432.64 264.467C431.284 264.467 430.38 265.371 429.928 266.727C429.928 268.083 430.832 269.439 432.188 269.439Z" fill="#B6B6B6"/>
<path opacity="0.48" d="M397.378 346.745C398.734 347.197 400.09 346.293 400.09 344.937C400.543 343.581 399.638 342.224 398.282 342.224C396.926 342.224 395.57 342.676 395.57 344.033C395.118 345.389 396.022 346.293 397.378 346.745Z" fill="#B6B6B6"/>
<path opacity="0.48" d="M355.786 306.51C357.143 306.51 358.047 305.606 358.499 304.25C358.499 302.893 357.595 301.989 356.239 301.537C354.882 301.537 353.978 302.441 353.526 303.797C353.526 305.606 354.43 306.51 355.786 306.51Z" fill="#B6B6B6"/>
<path opacity="0.48" d="M353.526 351.718C354.882 351.718 355.787 350.814 356.239 349.458C356.239 348.101 355.334 347.197 353.978 346.745C352.622 346.745 351.718 347.649 351.266 349.005C351.266 350.362 352.17 351.718 353.526 351.718Z" fill="#B6B6B6"/>
<path opacity="0.48" d="M290.687 609.855C292.043 609.855 292.948 608.951 293.4 607.595C293.4 606.239 292.496 605.335 291.139 604.883C289.783 604.883 288.879 605.787 288.427 607.143C287.975 608.499 289.331 609.855 290.687 609.855Z" fill="#B6B6B6"/>
<path opacity="0.48" d="M311.935 687.161C313.291 687.613 314.647 686.709 314.647 685.353C315.099 683.996 314.195 682.64 312.839 682.64C311.483 682.188 310.127 683.092 310.127 684.448C309.674 685.805 310.579 687.161 311.935 687.161Z" fill="#B6B6B6"/>
<path opacity="0.48" d="M214.286 646.926C215.642 646.926 216.546 646.022 216.998 644.666C216.998 643.309 216.094 642.405 214.738 641.953C213.382 641.953 212.477 642.857 212.025 644.213C212.025 646.022 212.93 646.926 214.286 646.926Z" fill="#B6B6B6"/>
<path opacity="0.48" d="M361.212 644.666C362.568 644.666 363.472 643.761 363.924 642.405C363.924 641.049 363.02 640.145 361.664 639.693C360.307 639.693 359.403 640.597 358.951 641.953C358.499 643.761 359.855 644.666 361.212 644.666Z" fill="#B6B6B6"/>
<path opacity="0.48" d="M273.96 627.034C275.316 627.034 276.221 626.13 276.673 624.774C276.673 623.418 275.768 622.514 274.412 622.062C273.056 622.062 272.152 622.966 271.7 624.322C271.7 625.678 272.604 627.034 273.96 627.034Z" fill="#B6B6B6"/>
<path opacity="0.48" d="M383.816 732.369C385.172 732.369 386.076 731.465 386.528 730.108C386.528 728.752 385.624 727.848 384.268 727.396C382.911 727.396 382.007 728.3 381.555 729.656C381.555 731.013 382.459 732.369 383.816 732.369Z" fill="#B6B6B6"/>
<path opacity="0.48" d="M307.414 769.892C308.77 769.892 309.675 768.987 310.127 767.631C310.127 766.275 309.222 765.371 307.866 764.919C306.51 764.919 305.606 765.823 305.154 767.179C305.154 768.535 306.058 769.439 307.414 769.892Z" fill="#B6B6B6"/>
<path opacity="0.48" d="M231.917 751.808C233.273 751.808 234.177 750.904 234.63 749.548C234.63 748.192 233.725 747.288 232.369 746.835C231.013 746.835 230.109 747.74 229.657 749.096C229.657 750.904 230.561 751.808 231.917 751.808Z" fill="#B6B6B6"/>
<path opacity="0.48" d="M327.758 642.405C329.114 642.405 330.018 641.501 330.47 640.145C330.47 638.789 329.566 637.884 328.21 637.432C326.854 637.432 325.949 638.336 325.497 639.693C325.497 641.049 326.401 642.405 327.758 642.405Z" fill="#B6B6B6"/>
<path opacity="0.48" d="M982.369 145.57C983.725 145.57 984.629 144.665 985.081 143.309C985.081 141.953 984.177 141.049 982.821 140.597C981.465 140.597 980.561 141.501 980.109 142.857C979.656 144.665 981.013 145.57 982.369 145.57Z" fill="#B6B6B6"/>
<path opacity="0.48" d="M926.763 162.749C928.119 162.749 929.023 161.844 929.476 160.488C929.476 159.132 928.571 158.228 927.215 157.776C925.859 157.776 924.955 158.68 924.503 160.036C924.051 161.392 925.407 162.749 926.763 162.749Z" fill="#B6B6B6"/>
<path opacity="0.48" d="M867.993 307.866C869.349 308.318 870.705 307.414 870.705 306.058C871.157 304.702 870.253 303.345 868.897 303.345C867.541 302.893 866.184 303.797 866.184 305.154C865.732 306.51 866.636 307.866 867.993 307.866Z" fill="#B6B6B6"/>
<path opacity="0.48" d="M340.416 462.025C341.772 461.573 342.224 460.217 342.224 458.861C341.772 457.505 340.416 457.052 339.06 457.052C337.703 457.505 337.251 458.861 337.251 460.217C337.703 461.573 339.06 462.025 340.416 462.025Z" fill="#B6B6B6"/>
<path opacity="0.48" d="M557.866 156.42C559.222 155.967 559.674 154.611 559.674 153.255C559.222 151.899 557.866 151.447 556.51 151.447C555.154 151.899 554.701 153.255 554.701 154.611C555.154 155.967 556.51 156.872 557.866 156.42Z" fill="#B6B6B6"/>
<path opacity="0.48" d="M560.126 115.732C561.483 115.28 561.935 113.924 561.935 112.568C561.483 111.212 560.126 110.759 558.77 110.759C557.414 111.212 556.962 112.568 556.962 113.924C557.414 115.732 558.77 116.184 560.126 115.732Z" fill="#B6B6B6"/>
<path opacity="0.48" d="M509.042 160.488C510.398 160.036 510.85 158.68 510.85 157.324C510.398 155.967 509.042 155.515 507.685 155.515C506.329 155.967 505.877 157.324 505.877 158.68C506.329 160.036 507.685 160.94 509.042 160.488Z" fill="#B6B6B6"/>
<path opacity="0.48" d="M251.356 459.313C252.713 458.861 253.165 457.505 253.165 456.148C252.713 454.792 251.356 454.34 250 454.34C248.644 454.792 248.192 456.148 248.192 457.505C248.644 458.861 250 459.765 251.356 459.313Z" fill="#B6B6B6"/>
<path opacity="0.48" d="M411.392 452.08C410.94 450.723 409.584 450.271 408.228 450.723C406.872 451.175 406.42 452.532 406.872 453.888C407.324 455.244 408.68 455.696 410.036 455.244C411.392 454.792 411.845 453.436 411.392 452.08Z" fill="#B6B6B6"/>
<path opacity="0.48" d="M457.504 419.982C457.052 418.626 455.696 418.174 454.34 418.626C452.984 419.078 452.532 420.434 452.984 421.79C453.436 423.146 454.792 423.599 456.148 423.146C457.504 422.694 458.409 420.886 457.504 419.982Z" fill="#B6B6B6"/>
<path opacity="0.48" d="M381.103 429.928C380.651 428.571 379.295 427.667 378.39 428.119C377.034 428.571 376.13 429.928 376.582 430.832C377.034 432.188 378.39 433.092 379.295 432.64C380.651 432.64 381.555 431.284 381.103 429.928Z" fill="#B6B6B6"/>
<path opacity="0.48" d="M920.434 225.136C921.79 225.136 922.694 224.231 923.146 222.875C923.146 221.519 922.242 220.615 920.886 220.163C919.53 220.163 918.626 221.067 918.174 222.423C918.174 224.231 919.078 225.136 920.434 225.136Z" fill="#B6B6B6"/>
<path opacity="0.48" d="M872.966 140.597C874.322 140.597 875.226 139.693 875.678 138.336C875.678 136.98 874.774 136.076 873.418 135.624C872.061 135.624 871.157 136.528 870.705 137.884C870.705 139.693 871.609 140.597 872.966 140.597Z" fill="#B6B6B6"/>
<path opacity="0.48" d="M1049.73 286.618C1051.09 286.618 1051.99 285.714 1052.44 284.358C1052.44 283.002 1051.54 282.098 1050.18 281.646C1048.82 281.646 1047.92 282.55 1047.47 283.906C1047.02 285.714 1048.37 286.618 1049.73 286.618Z" fill="#B6B6B6"/>
<path opacity="0.48" d="M1041.14 210.669C1042.5 211.121 1043.85 210.217 1043.85 208.861C1044.3 207.505 1043.4 206.148 1042.04 206.148C1040.69 205.696 1039.33 206.6 1039.33 207.957C1038.88 209.313 1039.78 210.669 1041.14 210.669Z" fill="#B6B6B6"/>
<path opacity="0.48" d="M822.333 125.678C823.689 125.678 824.593 124.774 825.045 123.418C825.045 122.061 824.141 121.157 822.785 120.705C821.429 120.705 820.524 121.609 820.072 122.966C820.072 124.322 820.977 125.678 822.333 125.678Z" fill="#B6B6B6"/>
<path opacity="0.48" d="M481.465 75.9494C482.821 75.9494 483.725 75.0452 484.177 73.689C484.177 72.3327 483.273 71.4286 481.917 70.9765C480.561 70.9765 479.656 71.8807 479.204 73.2369C479.204 75.0452 480.109 75.9494 481.465 75.9494Z" fill="#B6B6B6"/>
<path opacity="0.48" d="M341.772 148.282C343.128 148.282 344.032 147.378 344.485 146.022C344.485 144.665 343.58 143.761 342.224 143.309C340.868 143.309 339.964 144.213 339.512 145.57C339.512 146.926 340.416 147.83 341.772 148.282Z" fill="#B6B6B6"/>
<path opacity="0.48" d="M380.651 44.3038C382.007 44.3038 382.911 43.3996 383.363 42.0434C383.363 40.6872 382.459 39.783 381.103 39.3309C379.747 39.3309 378.843 40.2351 378.39 41.5913C378.39 43.3996 379.295 44.3038 380.651 44.3038Z" fill="#B6B6B6"/>
<path opacity="0.48" d="M966.546 263.11C967.902 263.11 968.807 262.206 969.259 260.85C969.259 259.494 968.354 258.59 966.998 258.137C965.642 258.137 964.738 259.042 964.286 260.398C963.834 262.206 965.19 263.11 966.546 263.11Z" fill="#B6B6B6"/>
<path opacity="0.48" d="M848.101 245.027C849.457 245.027 850.361 244.123 850.813 242.767C850.813 241.41 849.909 240.506 848.553 240.054C847.197 240.054 846.293 240.958 845.841 242.315C845.389 243.671 846.745 245.027 848.101 245.027Z" fill="#B6B6B6"/>
<path opacity="0.48" d="M778.481 197.559C779.837 197.559 780.741 196.655 781.193 195.298C781.193 193.942 780.289 193.038 778.933 192.586C777.577 192.586 776.673 193.49 776.22 194.846C776.22 196.203 777.125 197.559 778.481 197.559Z" fill="#B6B6B6"/>
<path opacity="0.48" d="M691.682 179.928C693.038 179.928 693.942 179.024 694.394 177.667C694.394 176.311 693.49 175.407 692.134 174.955C690.777 174.955 689.873 175.859 689.421 177.215C688.969 178.571 690.325 179.928 691.682 179.928Z" fill="#B6B6B6"/>
<path opacity="0.48" d="M801.537 285.262C802.893 285.262 803.797 284.358 804.25 283.002C804.25 281.646 803.345 280.741 801.989 280.289C800.633 280.289 799.729 281.194 799.277 282.55C798.825 283.906 800.181 285.262 801.537 285.262Z" fill="#B6B6B6"/>
<path opacity="0.48" d="M1165.01 900.09C1165.01 897.378 1162.75 895.118 1160.04 895.118C1157.32 895.118 1155.06 897.378 1155.06 900.09C1155.06 902.803 1157.32 905.063 1160.04 905.063C1162.75 905.063 1165.01 902.803 1165.01 900.09Z" fill="#B6B6B6"/>
<path opacity="0.48" d="M928.119 787.523C928.119 784.81 925.859 782.55 923.146 782.55C920.434 782.55 918.174 784.81 918.174 787.523C918.174 790.235 920.434 792.495 923.146 792.495C925.859 792.043 928.119 790.235 928.119 787.523Z" fill="#B6B6B6"/>
<path opacity="0.48" d="M923.147 484.629C923.147 481.917 920.886 479.656 918.174 479.656C915.461 479.656 913.201 481.917 913.201 484.629C913.201 487.342 915.461 489.602 918.174 489.602C920.886 489.602 923.147 487.342 923.147 484.629Z" fill="#B6B6B6"/>
<path opacity="0.48" d="M741.411 452.532C744.157 452.532 746.384 450.305 746.384 447.559C746.384 444.812 744.157 442.586 741.411 442.586C738.664 442.586 736.438 444.812 736.438 447.559C736.438 450.305 738.664 452.532 741.411 452.532Z" fill="#B6B6B6"/>
<path opacity="0.48" d="M594.937 238.246C594.937 235.533 592.676 233.273 589.964 233.273C587.252 233.273 584.991 235.533 584.991 238.246C584.991 240.958 587.252 243.219 589.964 243.219C593.129 243.219 594.937 240.958 594.937 238.246Z" fill="#B6B6B6"/>
<path opacity="0.48" d="M170.886 325.949C172.242 325.949 173.147 325.045 173.599 323.689C173.599 322.333 172.695 321.429 171.338 320.977C169.982 320.977 169.078 321.881 168.626 323.237C168.626 324.593 169.53 325.949 170.886 325.949Z" fill="#B6B6B6"/>
<path opacity="0.48" d="M231.917 229.204C233.273 229.204 234.177 228.3 234.63 226.944C234.63 225.588 233.725 224.684 232.369 224.231C231.013 224.231 230.109 225.136 229.657 226.492C229.657 227.848 230.561 229.204 231.917 229.204Z" fill="#B6B6B6"/>
<path opacity="0.48" d="M241.863 68.264C243.219 68.264 244.123 67.3599 244.575 66.0036C244.575 64.6474 243.671 63.7432 242.315 63.2911C240.958 63.2911 240.054 64.1953 239.602 65.5515C239.602 66.9078 240.506 67.8119 241.863 68.264Z" fill="#B6B6B6"/>
<path opacity="0.48" d="M78.2098 215.642C79.566 215.642 80.4702 214.738 80.9223 213.382C80.9223 212.025 80.0181 211.121 78.6619 210.669C77.3056 210.669 76.4015 211.573 75.9494 212.929C75.4973 214.286 76.8536 215.642 78.2098 215.642Z" fill="#B6B6B6"/>
<path opacity="0.48" d="M34.8103 128.843C36.1665 128.843 37.0707 127.939 37.5227 126.582C37.5227 125.226 36.6186 124.322 35.2623 123.87C33.9061 123.87 33.0019 124.774 32.5499 126.13C32.0978 127.486 33.454 128.843 34.8103 128.843Z" fill="#B6B6B6"/>
<path opacity="0.48" d="M47.0164 240.958C48.3726 240.958 49.2768 240.054 49.7288 238.698C49.7288 237.342 48.8247 236.438 47.4684 235.986C46.1122 235.986 45.208 236.89 44.756 238.246C44.756 239.602 45.6601 240.958 47.0164 240.958Z" fill="#B6B6B6"/>
<path opacity="0.48" d="M179.024 65.5515C180.38 65.0995 180.832 63.7432 180.832 62.387C180.38 61.0307 179.024 60.5787 177.667 60.5787C176.311 61.0307 175.859 62.387 175.859 63.7432C176.311 65.0995 177.667 66.0036 179.024 65.5515Z" fill="#B6B6B6"/>
<path opacity="0.48" d="M130.199 69.6203C131.555 69.1682 132.007 67.8119 132.007 66.4557C131.555 65.0995 130.199 64.6474 128.843 64.6474C127.486 65.0995 127.034 66.4557 127.034 67.8119C127.486 69.1682 128.843 70.0723 130.199 69.6203Z" fill="#B6B6B6"/>
<path opacity="0.48" d="M216.546 147.378C216.546 144.665 214.286 142.405 211.573 142.405C208.861 142.405 206.6 144.665 206.6 147.378C206.6 150.09 208.861 152.351 211.573 152.351C214.286 152.351 216.546 150.09 216.546 147.378Z" fill="#B6B6B6"/>
<path opacity="0.48" d="M1334.54 307.866C1334.54 305.154 1332.28 302.893 1329.57 302.893C1326.85 302.893 1324.59 305.154 1324.59 307.866C1324.59 310.579 1326.85 312.839 1329.57 312.839C1332.28 312.839 1334.54 310.579 1334.54 307.866Z" fill="#B6B6B6"/>
<path opacity="0.48" d="M262.658 269.439C262.658 266.727 260.398 264.467 257.685 264.467C254.973 264.467 252.713 266.727 252.713 269.439C252.713 272.152 254.973 274.412 257.685 274.412C260.398 273.96 262.658 272.152 262.658 269.439Z" fill="#B6B6B6"/>
<path opacity="0.48" d="M1126.13 672.242C1128.88 672.242 1131.1 670.016 1131.1 667.27C1131.1 664.523 1128.88 662.297 1126.13 662.297C1123.38 662.297 1121.16 664.523 1121.16 667.27C1121.16 670.016 1123.38 672.242 1126.13 672.242Z" fill="#B6B6B6"/>
<path opacity="0.48" d="M1112.57 803.798C1117.56 803.798 1121.61 799.749 1121.61 794.756C1121.61 789.762 1117.56 785.714 1112.57 785.714C1107.57 785.714 1103.53 789.762 1103.53 794.756C1103.53 799.749 1107.57 803.798 1112.57 803.798Z" fill="#B6B6B6"/>
<path opacity="0.48" d="M292.495 320.977C292.495 316.004 288.427 311.935 283.454 311.935C278.481 311.935 274.412 316.004 274.412 320.977C274.412 325.949 278.481 330.018 283.454 330.018C288.427 330.018 292.495 325.949 292.495 320.977Z" fill="#B6B6B6"/>
<path opacity="0.48" d="M1318.26 489.602C1318.26 484.629 1314.2 480.561 1309.22 480.561C1304.25 480.561 1300.18 484.629 1300.18 489.602C1300.18 494.575 1304.25 498.644 1309.22 498.644C1314.2 498.644 1318.26 494.575 1318.26 489.602Z" fill="#B6B6B6"/>
<path opacity="0.48" d="M811.031 407.776C811.031 405.063 808.77 402.803 806.058 402.803C803.345 402.803 801.085 405.063 801.085 407.776C801.085 410.488 803.345 412.749 806.058 412.749C808.77 412.749 811.031 410.488 811.031 407.776Z" fill="#B6B6B6"/>
<path opacity="0.48" d="M1047.92 878.843C1047.92 876.13 1045.66 873.87 1042.95 873.87C1040.23 873.87 1037.97 876.13 1037.97 878.843C1037.97 881.555 1040.23 883.816 1042.95 883.816C1045.66 883.816 1047.92 881.555 1047.92 878.843Z" fill="#B6B6B6"/>
<path opacity="0.48" d="M455.696 828.21C458.443 828.21 460.669 825.983 460.669 823.237C460.669 820.49 458.443 818.264 455.696 818.264C452.95 818.264 450.723 820.49 450.723 823.237C450.723 825.983 452.95 828.21 455.696 828.21Z" fill="#B6B6B6"/>
<path opacity="0.48" d="M465.19 905.063C467.937 905.063 470.163 902.837 470.163 900.09C470.163 897.344 467.937 895.118 465.19 895.118C462.444 895.118 460.217 897.344 460.217 900.09C460.217 902.837 462.444 905.063 465.19 905.063Z" fill="#B6B6B6"/>
<path opacity="0.48" d="M509.042 417.722C509.042 415.009 506.781 412.749 504.069 412.749C501.356 412.749 499.096 415.009 499.096 417.722C499.096 420.434 501.356 422.694 504.069 422.694C506.781 422.694 509.042 419.982 509.042 417.722Z" fill="#B6B6B6"/>
<path opacity="0.48" d="M987.342 225.136C987.342 222.423 985.081 220.163 982.369 220.163C979.656 220.163 977.396 222.423 977.396 225.136C977.396 227.848 979.656 230.109 982.369 230.109C985.081 230.109 987.342 227.848 987.342 225.136Z" fill="#B6B6B6"/>
<path opacity="0.48" d="M861.212 4.97288C862.568 4.5208 863.02 3.16456 863.02 1.80832C862.568 0.45208 861.212 0 859.855 0C858.499 0.45208 858.047 1.80832 858.047 3.16456C858.499 4.5208 859.855 4.97288 861.212 4.97288Z" fill="#B6B6B6"/>
<path opacity="0.48" d="M917.269 56.5099C918.626 56.5099 919.53 55.6058 919.982 54.2496C919.982 52.8933 919.078 51.9892 917.722 51.5371C916.365 51.5371 915.461 52.4412 915.009 53.7975C914.557 55.1537 915.913 56.5099 917.269 56.5099Z" fill="#B6B6B6"/>
<path opacity="0.48" d="M1037.97 107.143C1037.52 105.787 1036.17 105.335 1034.81 105.787C1033.45 106.239 1033 107.595 1033.45 108.951C1033.91 110.307 1035.26 110.759 1036.62 110.307C1037.97 109.403 1038.43 108.047 1037.97 107.143Z" fill="#B6B6B6"/>
<path opacity="0.48" d="M858.047 34.8101C857.595 33.4539 856.238 32.5497 855.334 33.0018C853.978 33.4539 853.074 34.8101 853.526 35.7143C853.978 37.0705 855.334 37.9747 856.238 37.5226C857.595 37.5226 858.499 36.1664 858.047 34.8101Z" fill="#B6B6B6"/>
<path opacity="0.48" d="M791.139 69.6203C792.495 70.0723 793.852 69.1682 793.852 67.8119C794.304 66.4557 793.4 65.0995 792.043 65.0995C790.687 64.6474 789.331 65.5515 789.331 66.9078C788.879 68.264 789.783 69.6203 791.139 69.6203Z" fill="#B6B6B6"/>
<path opacity="0.48" d="M732.369 89.0597C735.115 89.0597 737.342 86.8333 737.342 84.0868C737.342 81.3404 735.115 79.1139 732.369 79.1139C729.623 79.1139 727.396 81.3404 727.396 84.0868C727.396 86.8333 729.623 89.0597 732.369 89.0597Z" fill="#B6B6B6"/>
<path opacity="0.48" d="M1363.92 346.745C1365.28 346.293 1365.73 344.937 1365.73 343.58C1365.28 342.224 1363.92 341.772 1362.57 341.772C1361.21 342.224 1360.76 343.58 1360.76 344.937C1361.21 346.293 1362.57 347.197 1363.92 346.745Z" fill="#B6B6B6"/>
<path opacity="0.48" d="M1265.82 291.591C1267.18 291.139 1267.63 289.783 1267.63 288.427C1267.18 287.071 1265.82 286.618 1264.47 286.618C1263.11 287.071 1262.66 288.427 1262.66 289.783C1263.11 291.139 1264.47 292.043 1265.82 291.591Z" fill="#B6B6B6"/>
<path opacity="0.48" d="M1337.25 231.917C1338.61 231.465 1339.06 230.108 1339.06 228.752C1338.61 227.396 1337.25 226.944 1335.9 226.944C1334.54 227.396 1334.09 228.752 1334.09 230.109C1334.09 231.465 1335.9 232.369 1337.25 231.917Z" fill="#B6B6B6"/>
<path opacity="0.48" d="M1286.17 276.673C1287.52 276.221 1287.97 274.864 1287.97 273.508C1287.52 272.152 1286.17 271.7 1284.81 271.7C1283.45 271.7 1283 273.508 1283 274.864C1283.45 276.221 1284.81 277.125 1286.17 276.673Z" fill="#B6B6B6"/>
<path opacity="0.48" d="M1427.22 9.49367C1428.57 9.49367 1429.48 8.58951 1429.93 7.23327C1429.93 5.87703 1429.02 4.97288 1427.67 4.5208C1426.31 4.5208 1425.41 5.42496 1424.95 6.78119C1424.95 8.58951 1425.86 9.49367 1427.22 9.49367Z" fill="#B6B6B6"/>
<path opacity="0.48" d="M1399.19 51.9892C1400.54 51.9892 1401.45 51.085 1401.9 49.7288C1401.9 48.3725 1400.99 47.4684 1399.64 47.0163C1398.28 47.0163 1397.38 47.9204 1396.93 49.2767C1396.93 50.6329 1397.83 51.5371 1399.19 51.9892Z" fill="#B6B6B6"/>
<path opacity="0.48" d="M1344.03 68.7161C1345.39 68.7161 1346.29 67.8119 1346.75 66.4557C1346.75 65.0995 1345.84 64.1953 1344.48 63.7432C1343.13 63.2911 1342.22 64.6474 1341.77 66.0036C1341.32 67.8119 1342.68 68.7161 1344.03 68.7161Z" fill="#B6B6B6"/>
<path opacity="0.48" d="M1284.81 214.286C1286.17 214.738 1287.52 213.834 1287.52 212.477C1287.97 211.121 1287.07 209.765 1285.71 209.765C1284.36 209.313 1283 210.217 1283 211.573C1282.55 212.477 1283.45 213.834 1284.81 214.286Z" fill="#B6B6B6"/>
<path opacity="0.48" d="M1337.7 131.103C1339.06 131.103 1339.96 130.199 1340.42 128.843C1340.42 127.486 1339.51 126.582 1338.16 126.13C1336.8 126.13 1335.9 127.034 1335.44 128.391C1334.99 130.199 1336.35 131.103 1337.7 131.103Z" fill="#B6B6B6"/>
<path opacity="0.48" d="M1196.65 63.2911C1198.01 63.2911 1198.91 62.387 1199.37 61.0307C1199.37 59.6745 1198.46 58.7703 1197.11 58.3183C1195.75 58.3183 1194.85 59.2224 1194.39 60.5787C1194.39 61.9349 1195.3 63.2911 1196.65 63.2911Z" fill="#B6B6B6"/>
<path opacity="0.48" d="M1466.55 193.038C1467.9 193.038 1468.81 192.134 1469.26 190.778C1469.26 189.421 1468.35 188.517 1467 188.065C1465.64 188.065 1464.74 188.969 1464.29 190.325C1464.29 191.682 1465.19 192.586 1466.55 193.038Z" fill="#B6B6B6"/>
<path opacity="0.48" d="M1437.16 191.23C1438.52 191.23 1439.42 190.326 1439.87 188.969C1439.87 187.613 1438.97 186.709 1437.61 186.257C1436.26 186.257 1435.35 187.161 1434.9 188.517C1434.9 190.326 1435.8 191.23 1437.16 191.23Z" fill="#B6B6B6"/>
<path opacity="0.48" d="M1457.96 117.089C1459.31 117.541 1460.67 116.637 1460.67 115.28C1461.12 113.924 1460.22 112.568 1458.86 112.568C1457.5 112.116 1456.15 113.02 1456.15 114.376C1455.7 115.28 1456.6 116.637 1457.96 117.089Z" fill="#B6B6B6"/>
<path opacity="0.48" d="M1265.37 150.995C1266.73 150.995 1267.63 150.09 1268.08 148.734C1268.08 147.378 1267.18 146.474 1265.82 146.022C1264.47 146.022 1263.56 146.926 1263.11 148.282C1262.66 150.09 1264.01 150.995 1265.37 150.995Z" fill="#B6B6B6"/>
<path opacity="0.48" d="M1404.16 131.103C1404.16 128.391 1401.9 126.13 1399.19 126.13C1396.47 126.13 1394.21 128.391 1394.21 131.103C1394.21 133.816 1396.47 136.076 1399.19 136.076C1402.35 136.076 1404.16 133.816 1404.16 131.103Z" fill="#B6B6B6"/>
<path opacity="0.48" d="M460.217 504.521C460.217 501.808 457.957 499.548 455.244 499.548C452.532 499.548 450.271 501.808 450.271 504.521C450.271 507.233 452.532 509.494 455.244 509.494C458.409 509.042 460.217 506.781 460.217 504.521Z" fill="#B6B6B6"/>
<path opacity="0.48" d="M289.783 874.322C289.783 871.609 287.523 869.349 284.81 869.349C282.098 869.349 279.837 871.609 279.837 874.322C279.837 877.034 282.098 879.295 284.81 879.295C287.975 878.843 289.783 877.034 289.783 874.322Z" fill="#B6B6B6"/>
<path opacity="0.48" d="M410.036 965.642C410.036 962.93 407.776 960.669 405.063 960.669C402.351 960.669 400.09 962.93 400.09 965.642C400.09 968.355 402.351 970.615 405.063 970.615C407.776 970.615 410.036 968.355 410.036 965.642Z" fill="#B6B6B6"/>
</g>
<defs>
<clipPath id="clip0">
<rect width="1500" height="1165" fill="white"/>
</clipPath>
</defs>
</svg>
