<svg width="323" height="40" viewBox="0 0 323 40" fill="none" xmlns="http://www.w3.org/2000/svg">
<path d="M84.1434 9.23988C84.9647 9.23988 85.6439 9.50839 86.1809 10.0454C86.7179 10.5824 86.9864 11.2774 86.9864 12.1303V32.1737C86.9864 32.9951 86.7179 33.69 86.1809 34.2586C85.6439 34.7957 84.9647 35.0642 84.1434 35.0642C83.3221 35.0642 82.6429 34.7957 82.1059 34.2586C81.6004 33.7216 81.3319 33.0425 81.3003 32.2211C80.5106 33.1372 79.4366 33.927 78.0782 34.5903C76.7515 35.2221 75.3458 35.538 73.8611 35.538C71.6814 35.538 69.7071 34.9852 67.9381 33.8796C66.1691 32.7424 64.7633 31.1787 63.7209 29.1886C62.71 27.1984 62.2046 24.9398 62.2046 22.4126C62.2046 19.8855 62.71 17.6269 63.7209 15.6367C64.7317 13.615 66.1059 12.0513 67.8433 10.9457C69.6123 9.80849 71.555 9.23988 73.6715 9.23988C75.1878 9.23988 76.6093 9.52419 77.9361 10.0928C79.2628 10.6298 80.3843 11.3248 81.3003 12.1777V12.1303C81.3003 11.309 81.5689 10.6298 82.1059 10.0928C82.6429 9.52419 83.3221 9.23988 84.1434 9.23988ZM74.5718 30.3258C76.6251 30.3258 78.2994 29.5834 79.5945 28.0987C80.8897 26.5824 81.5373 24.6871 81.5373 22.4126C81.5373 20.1382 80.8897 18.2428 79.5945 16.7266C78.2994 15.2103 76.6251 14.4521 74.5718 14.4521C72.5501 14.4521 70.8917 15.2103 69.5965 16.7266C68.3013 18.2428 67.6538 20.1382 67.6538 22.4126C67.6538 24.6871 68.2855 26.5824 69.5491 28.0987C70.8443 29.5834 72.5185 30.3258 74.5718 30.3258Z" fill="#222222"/>
<path d="M106.274 9.23988C108.454 9.23988 110.428 9.80849 112.197 10.9457C113.966 12.0513 115.356 13.5992 116.367 15.5893C117.409 17.5795 117.93 19.8381 117.93 22.3653C117.93 24.8924 117.425 27.1668 116.414 29.1886C115.403 31.1787 114.013 32.7424 112.244 33.8796C110.507 34.9852 108.58 35.538 106.463 35.538C104.947 35.538 103.51 35.2379 102.152 34.6377C100.825 34.0059 99.7192 33.2478 98.8347 32.3633V32.6476C98.8347 33.4689 98.5661 34.1639 98.0291 34.7325C97.4921 35.2695 96.8129 35.538 95.9916 35.538C95.1703 35.538 94.4911 35.2695 93.9541 34.7325C93.4171 34.1955 93.1486 33.5005 93.1486 32.6476V2.89043C93.1486 2.0691 93.4171 1.38993 93.9541 0.852909C94.4911 0.284303 95.1703 0 95.9916 0C96.8129 0 97.4921 0.284303 98.0291 0.852909C98.5661 1.38993 98.8347 2.0691 98.8347 2.89043V12.7937C99.5928 11.846 100.651 11.0247 102.009 10.3297C103.368 9.60316 104.789 9.23988 106.274 9.23988ZM105.563 30.3258C107.585 30.3258 109.243 29.5676 110.539 28.0513C111.834 26.535 112.481 24.6397 112.481 22.3653C112.481 20.0908 111.834 18.2113 110.539 16.7266C109.275 15.2103 107.616 14.4521 105.563 14.4521C103.51 14.4521 101.836 15.2103 100.54 16.7266C99.2453 18.2113 98.5977 20.0908 98.5977 22.3653C98.5977 24.6397 99.2453 26.535 100.54 28.0513C101.836 29.5676 103.51 30.3258 105.563 30.3258Z" fill="#222222"/>
<path d="M147.026 22.4126C147.026 24.9398 146.458 27.2142 145.321 29.2359C144.183 31.2261 142.62 32.7739 140.63 33.8796C138.671 34.9852 136.507 35.538 134.138 35.538C131.737 35.538 129.558 34.9852 127.599 33.8796C125.64 32.7739 124.093 31.2261 122.955 29.2359C121.818 27.2142 121.25 24.9398 121.25 22.4126C121.25 19.8855 121.818 17.6269 122.955 15.6367C124.093 13.615 125.64 12.0513 127.599 10.9457C129.558 9.80849 131.737 9.23988 134.138 9.23988C136.507 9.23988 138.671 9.80849 140.63 10.9457C142.62 12.0513 144.183 13.615 145.321 15.6367C146.458 17.6269 147.026 19.8855 147.026 22.4126ZM141.34 22.4126C141.34 20.8648 141.009 19.4906 140.345 18.2902C139.713 17.0582 138.845 16.1106 137.739 15.4472C136.665 14.7838 135.465 14.4521 134.138 14.4521C132.811 14.4521 131.595 14.7838 130.489 15.4472C129.415 16.1106 128.547 17.0582 127.883 18.2902C127.251 19.4906 126.936 20.8648 126.936 22.4126C126.936 23.9605 127.251 25.3347 127.883 26.535C128.547 27.7354 129.415 28.6673 130.489 29.3307C131.595 29.9941 132.811 30.3258 134.138 30.3258C135.465 30.3258 136.665 29.9941 137.739 29.3307C138.845 28.6673 139.713 27.7354 140.345 26.535C141.009 25.3347 141.34 23.9605 141.34 22.4126Z" fill="#222222"/>
<path d="M170.588 9.71372C171.41 9.71372 172.089 9.99803 172.626 10.5666C173.163 11.1037 173.432 11.7828 173.432 12.6041V24.6397C173.432 28.0513 172.484 30.7206 170.588 32.6476C168.725 34.5745 166.055 35.538 162.581 35.538C159.106 35.538 156.436 34.5745 154.573 32.6476C152.709 30.7206 151.777 28.0513 151.777 24.6397V12.6041C151.777 11.7828 152.046 11.1037 152.583 10.5666C153.12 9.99803 153.799 9.71372 154.62 9.71372C155.441 9.71372 156.121 9.99803 156.658 10.5666C157.195 11.1037 157.463 11.7828 157.463 12.6041V24.6397C157.463 26.5666 157.89 28.004 158.742 28.9516C159.595 29.8677 160.875 30.3258 162.581 30.3258C164.318 30.3258 165.613 29.8677 166.466 28.9516C167.319 28.004 167.745 26.5666 167.745 24.6397V12.6041C167.745 11.7828 168.014 11.1037 168.551 10.5666C169.088 9.99803 169.767 9.71372 170.588 9.71372Z" fill="#222222"/>
<path d="M191.812 29.7098C192.255 29.7098 192.65 29.9309 192.997 30.3732C193.376 30.7838 193.566 31.3366 193.566 32.0316C193.566 32.8845 193.092 33.6111 192.144 34.2113C191.228 34.7799 190.186 35.0642 189.017 35.0642C187.058 35.0642 185.4 34.6535 184.041 33.8322C182.715 32.9793 182.051 31.1945 182.051 28.4778V15.3998H179.872C179.114 15.3998 178.482 15.1471 177.976 14.6417C177.471 14.1362 177.218 13.5044 177.218 12.7463C177.218 12.0197 177.471 11.4195 177.976 10.9457C178.482 10.4403 179.114 10.1876 179.872 10.1876H182.051V7.15498C182.051 6.33366 182.32 5.65449 182.857 5.11747C183.425 4.54886 184.12 4.26456 184.942 4.26456C185.732 4.26456 186.395 4.54886 186.932 5.11747C187.469 5.65449 187.737 6.33366 187.737 7.15498V10.1876H191.102C191.86 10.1876 192.492 10.4403 192.997 10.9457C193.502 11.4511 193.755 12.0829 193.755 12.8411C193.755 13.5676 193.502 14.1836 192.997 14.689C192.492 15.1629 191.86 15.3998 191.102 15.3998H187.737V28.2409C187.737 28.9043 187.911 29.3939 188.259 29.7098C188.606 29.9941 189.08 30.1362 189.68 30.1362C189.933 30.1362 190.28 30.0731 190.723 29.9467C191.102 29.7887 191.465 29.7098 191.812 29.7098Z" fill="#222222"/>
<path d="M211.154 10.2823C213.239 10.2823 215.134 10.8194 216.84 11.8934C218.546 12.9674 219.872 14.4679 220.82 16.3949C221.799 18.2902 222.289 20.4383 222.289 22.8391C222.289 25.2083 221.799 27.3722 220.82 29.3307C219.872 31.2577 218.546 32.7739 216.84 33.8796C215.165 34.9852 213.286 35.538 211.201 35.538C209.4 35.538 207.726 35.0958 206.178 34.2113C204.662 33.2952 203.43 32.0948 202.482 30.6101V33.7374C202.482 34.1481 202.34 34.4956 202.056 34.7799C201.803 35.0642 201.472 35.2063 201.061 35.2063C200.65 35.2063 200.303 35.0642 200.018 34.7799C199.766 34.4956 199.639 34.1481 199.639 33.7374V1.4689C199.639 1.05824 199.766 0.726553 200.018 0.47384C200.303 0.189536 200.65 0.0473831 201.061 0.0473831C201.472 0.0473831 201.803 0.189536 202.056 0.47384C202.34 0.726553 202.482 1.05824 202.482 1.4689V15.4472C203.335 13.8993 204.536 12.6515 206.084 11.7039C207.631 10.7562 209.321 10.2823 211.154 10.2823ZM210.917 32.8845C212.559 32.8845 214.028 32.4423 215.323 31.5578C216.65 30.6733 217.677 29.4729 218.403 27.9566C219.162 26.4087 219.541 24.7029 219.541 22.8391C219.541 20.9437 219.162 19.2537 218.403 17.769C217.677 16.2527 216.65 15.0681 215.323 14.2152C214.028 13.3623 212.559 12.9358 210.917 12.9358C209.242 12.9358 207.742 13.3623 206.415 14.2152C205.089 15.0365 204.062 16.2053 203.335 17.7216C202.609 19.2379 202.245 20.9437 202.245 22.8391C202.245 24.7345 202.609 26.4561 203.335 28.004C204.093 29.5202 205.12 30.7206 206.415 31.6051C207.742 32.4581 209.242 32.8845 210.917 32.8845Z" fill="#222222"/>
<path d="M239.469 10.2823C240.1 10.2823 240.669 10.4087 241.174 10.6614C241.68 10.9141 241.933 11.2932 241.933 11.7986C241.933 12.2409 241.806 12.6041 241.553 12.8885C241.301 13.1412 241.001 13.2675 240.653 13.2675C240.495 13.2675 240.179 13.1885 239.706 13.0306C239.263 12.8727 238.837 12.7937 238.426 12.7937C237.257 12.7937 236.089 13.2517 234.92 14.1678C233.783 15.0523 232.835 16.2053 232.077 17.6269C231.35 19.0484 230.987 20.4857 230.987 21.9388V33.6426C230.987 34.0533 230.845 34.4008 230.56 34.6851C230.308 34.9378 229.976 35.0642 229.565 35.0642C229.155 35.0642 228.807 34.9378 228.523 34.6851C228.27 34.4008 228.144 34.0533 228.144 33.6426V12.4146C228.144 12.004 228.27 11.6723 228.523 11.4195C228.807 11.1352 229.155 10.9931 229.565 10.9931C229.976 10.9931 230.308 11.1352 230.56 11.4195C230.845 11.6723 230.987 12.004 230.987 12.4146V16.5844C231.713 14.7838 232.803 13.2991 234.256 12.1303C235.741 10.9299 237.478 10.3139 239.469 10.2823Z" fill="#222222"/>
<path d="M265.485 10.8509C265.895 10.8509 266.227 10.9931 266.48 11.2774C266.764 11.5617 266.906 11.9092 266.906 12.3198V33.6426C266.906 34.0533 266.764 34.4008 266.48 34.6851C266.227 34.9378 265.895 35.0642 265.485 35.0642C265.074 35.0642 264.726 34.9378 264.442 34.6851C264.189 34.4008 264.063 34.0533 264.063 33.6426V30.4679C263.273 31.8894 262.089 33.0898 260.509 34.0691C258.93 35.0484 257.208 35.538 255.344 35.538C253.228 35.538 251.317 34.9852 249.611 33.8796C247.937 32.7739 246.61 31.2577 245.631 29.3307C244.683 27.4038 244.209 25.2399 244.209 22.8391C244.209 20.4383 244.699 18.2902 245.678 16.3949C246.657 14.4679 247.984 12.9674 249.658 11.8934C251.364 10.8194 253.244 10.2823 255.297 10.2823C257.192 10.2823 258.93 10.7404 260.509 11.6565C262.089 12.5726 263.273 13.773 264.063 15.2577V12.3198C264.063 11.9092 264.189 11.5617 264.442 11.2774C264.726 10.9931 265.074 10.8509 265.485 10.8509ZM255.629 32.8845C257.271 32.8845 258.74 32.4581 260.035 31.6051C261.362 30.7206 262.389 29.5202 263.115 28.004C263.874 26.4561 264.253 24.7345 264.253 22.8391C264.253 21.0069 263.874 19.3327 263.115 17.8164C262.389 16.3001 261.362 15.1155 260.035 14.2626C258.74 13.3781 257.271 12.9358 255.629 12.9358C253.986 12.9358 252.501 13.3623 251.175 14.2152C249.879 15.0681 248.853 16.2527 248.095 17.769C247.368 19.2537 247.005 20.9437 247.005 22.8391C247.005 24.7345 247.368 26.4561 248.095 28.004C248.821 29.5202 249.832 30.7206 251.127 31.6051C252.454 32.4581 253.955 32.8845 255.629 32.8845Z" fill="#222222"/>
<path d="M285.744 10.2823C288.682 10.2823 290.83 11.151 292.188 12.8885C293.578 14.5943 294.273 16.8687 294.273 19.7118V33.6426C294.273 34.0533 294.131 34.4008 293.847 34.6851C293.563 34.9378 293.231 35.0642 292.852 35.0642C292.441 35.0642 292.094 34.9378 291.809 34.6851C291.557 34.4008 291.43 34.0533 291.43 33.6426V19.8539C291.43 17.8006 290.909 16.1422 289.867 14.8786C288.856 13.5834 287.276 12.9358 285.128 12.9358C283.77 12.9358 282.475 13.2517 281.243 13.8835C280.042 14.5153 279.063 15.3682 278.305 16.4423C277.547 17.4847 277.168 18.6219 277.168 19.8539V33.6426C277.168 34.0533 277.026 34.4008 276.741 34.6851C276.489 34.9378 276.157 35.0642 275.746 35.0642C275.336 35.0642 274.988 34.9378 274.704 34.6851C274.451 34.4008 274.325 34.0533 274.325 33.6426V12.4146C274.325 12.004 274.451 11.6723 274.704 11.4195C274.988 11.1352 275.336 10.9931 275.746 10.9931C276.157 10.9931 276.489 11.1352 276.741 11.4195C277.026 11.6723 277.168 12.004 277.168 12.4146V15.0207C278.021 13.6624 279.237 12.541 280.816 11.6565C282.427 10.7404 284.07 10.2823 285.744 10.2823Z" fill="#222222"/>
<path d="M321.383 0C321.794 0 322.125 0.142152 322.378 0.426457C322.662 0.67917 322.804 1.01086 322.804 1.42152V33.6426C322.804 34.0533 322.662 34.4008 322.378 34.6851C322.125 34.9378 321.794 35.0642 321.383 35.0642C320.972 35.0642 320.625 34.9378 320.341 34.6851C320.088 34.4008 319.961 34.0533 319.961 33.6426V30.3258C319.172 31.7789 317.987 33.0109 316.408 34.0217C314.86 35.0326 313.138 35.538 311.243 35.538C309.158 35.538 307.263 35.001 305.557 33.927C303.882 32.8213 302.556 31.305 301.576 29.3781C300.597 27.4511 300.108 25.2873 300.108 22.8865C300.108 20.5173 300.597 18.3692 301.576 16.4423C302.556 14.5153 303.882 13.0148 305.557 11.9408C307.263 10.8351 309.142 10.2823 311.195 10.2823C313.059 10.2823 314.781 10.7562 316.36 11.7039C317.94 12.6199 319.14 13.8203 319.961 15.305V1.42152C319.961 1.01086 320.088 0.67917 320.341 0.426457C320.625 0.142152 320.972 0 321.383 0ZM311.527 32.8845C313.17 32.8845 314.639 32.4581 315.934 31.6051C317.261 30.7522 318.287 29.5676 319.014 28.0513C319.772 26.5035 320.151 24.7818 320.151 22.8865C320.151 21.0227 319.772 19.3327 319.014 17.8164C318.287 16.3001 317.261 15.1155 315.934 14.2626C314.639 13.3781 313.17 12.9358 311.527 12.9358C309.884 12.9358 308.4 13.3781 307.073 14.2626C305.778 15.1155 304.751 16.3001 303.993 17.8164C303.266 19.3327 302.903 21.0227 302.903 22.8865C302.903 24.7818 303.266 26.4877 303.993 28.004C304.751 29.5202 305.778 30.7206 307.073 31.6051C308.4 32.4581 309.884 32.8845 311.527 32.8845Z" fill="#222222"/>
<path d="M4.6158 21.0627C4.6158 20.9855 4.61385 20.9082 4.60997 20.8311C4.59059 20.4461 4.64605 19.3811 5.02996 18.1179C5.40592 16.881 6.02008 15.7049 6.92075 14.8104C8.3666 13.3744 10.0737 11.7188 11.6655 10.1899C12.5949 11.036 13.8552 11.6705 15.4267 11.7576C20.0657 12.3935 23.598 16.343 23.598 21.0627C23.598 26.2215 19.3785 30.4574 14.1069 30.4574H13.4913C12.7235 30.4574 11.1879 30.9181 11.1879 32.7608C11.1879 33.5286 11.6486 35.0642 13.4913 35.0642H14.1069C21.8929 35.0642 28.2048 28.7955 28.2048 21.0627C28.2048 13.8985 22.7871 7.99107 15.7986 7.16102C15.4951 7.16102 15.2426 7.09194 15.0336 6.97702C14.8817 6.89352 14.7527 6.78581 14.6437 6.66282C14.2339 6.20037 14.1069 5.5218 14.1069 5.10104V2.86081C14.1069 1.7407 13.355 2.20741 12.9791 2.58078C12.8867 2.66769 12.7874 2.76119 12.6818 2.86081C12.0744 3.43362 11.2565 4.20856 10.3275 5.09424L10.3203 5.10104C10.0678 5.34177 9.80716 5.59064 9.5403 5.84584C7.65986 7.64409 5.47222 9.75626 3.67447 11.5417C0.516541 14.678 -0.08497 19.1958 0.0090181 21.0627C0.0090181 22.3589 0.186356 23.6139 0.51825 24.8052C0.674555 25.373 1.31622 26.5087 2.63244 26.5087C3.42423 26.5087 4.93583 26.1797 5.02996 24.1539C5.02138 24.0219 4.99055 23.7038 4.93583 23.4879C4.72699 22.7133 4.6158 21.9002 4.6158 21.0627Z" fill="#E53654"/>
<path d="M6.77854 32.5634C8.05067 32.5634 9.08193 31.5321 9.08193 30.26C9.08193 28.9878 8.05067 27.9566 6.77854 27.9566C5.50642 27.9566 4.47515 28.9878 4.47515 30.26C4.47515 31.5321 5.50642 32.5634 6.77854 32.5634Z" fill="#E53654"/>
<path d="M47.2811 21.0959C47.2811 21.1732 47.283 21.2504 47.2869 21.3275C47.3063 21.7126 47.2508 22.7776 46.8669 24.0407C46.4909 25.2776 45.8768 26.4537 44.9761 27.3483C43.5303 28.7842 41.8231 30.4398 40.2313 31.9688C39.3019 31.1226 38.0416 30.4881 36.4702 30.401C31.8312 29.7651 28.2989 25.8156 28.2989 21.0959C28.2989 15.9371 32.5183 11.7012 37.79 11.7012H38.4056C39.1734 11.7012 40.709 11.2406 40.709 9.39784C40.709 8.63004 40.2483 7.09445 38.4056 7.09445H37.79C30.0039 7.09445 23.6921 13.3631 23.6921 21.0959C23.6921 28.2601 29.1098 34.1676 36.0982 34.9976C36.4018 34.9976 36.6542 35.0667 36.8633 35.1816C37.0152 35.2651 37.1442 35.3728 37.2531 35.4958C37.6629 35.9583 37.79 36.6368 37.79 37.0576V39.2978C37.79 40.4179 38.5418 39.9512 38.9178 39.5778C39.0102 39.4909 39.1094 39.3974 39.215 39.2978C39.8224 38.725 40.6403 37.9501 41.5694 37.0644L41.5765 37.0576C41.829 36.8169 42.0897 36.568 42.3565 36.3128C44.237 34.5145 46.4246 32.4024 48.2224 30.6169C51.3803 27.4806 51.9818 22.9628 51.8878 21.0959C51.8878 19.7997 51.7105 18.5447 51.3786 17.3535C51.2223 16.7856 50.5806 15.6499 49.2644 15.6499C48.4726 15.6499 46.961 15.979 46.8669 18.0047C46.8755 18.1368 46.9063 18.4549 46.961 18.6707C47.1699 19.4453 47.2811 20.2585 47.2811 21.0959Z" fill="#5AD5A1"/>
<path d="M45.1183 9.59527C43.8462 9.59527 42.8149 10.6265 42.8149 11.8987C42.8149 13.1708 43.8462 14.202 45.1183 14.202C46.3904 14.202 47.4217 13.1708 47.4217 11.8987C47.4217 10.6265 46.3904 9.59527 45.1183 9.59527Z" fill="#5AD5A1"/>
<path d="M21.0595 20.8593L13.9084 26.3601C12.9001 27.1358 11.4539 26.9471 10.6783 25.9388C9.90265 24.9305 10.0913 23.4843 11.0996 22.7087L19.6158 16.1578C19.7595 16.0421 19.9148 15.9456 20.0779 15.869C20.6917 15.5805 21.4158 15.5723 22.0452 15.871C22.2067 15.9472 22.3605 16.043 22.5029 16.1576L29.6149 21.6284L36.7659 16.1276C37.7743 15.3519 39.2204 15.5406 39.9961 16.5489C40.7717 17.5572 40.5831 19.0034 39.5747 19.779L31.0588 26.3298C30.9149 26.4456 30.7594 26.5422 30.5961 26.6189C30.2839 26.7662 29.9485 26.8382 29.6149 26.8379C29.2813 26.8382 28.9459 26.7662 28.6337 26.6189C28.4704 26.5422 28.3149 26.4456 28.171 26.3298L21.0595 20.8593Z" fill="#222222"/>
</svg>
