<svg width="1000" height="490" viewBox="0 0 1000 490" fill="none" xmlns="http://www.w3.org/2000/svg">
<g clip-path="url(#clip0)">
<path d="M505.759 911.78C749.516 911.78 947.12 714.176 947.12 470.419C947.12 226.662 749.516 29.0576 505.759 29.0576C262.002 29.0576 64.3979 226.662 64.3979 470.419C64.3979 714.176 262.002 911.78 505.759 911.78Z" fill="url(#paint0_linear)"/>
<path opacity="0.48" d="M710.995 434.555C710.995 432.984 709.686 431.675 708.115 431.675C706.544 431.675 705.235 432.984 705.235 434.555C705.235 436.126 706.544 437.434 708.115 437.434C709.686 437.434 710.995 436.126 710.995 434.555Z" fill="#EFEFEF"/>
<path opacity="0.48" d="M900.785 440.838C900.785 439.267 899.477 437.958 897.906 437.958C896.335 437.958 895.026 439.267 895.026 440.838C895.026 442.408 896.335 443.717 897.906 443.717C899.477 443.717 900.785 442.408 900.785 440.838Z" fill="#EFEFEF"/>
<path opacity="0.48" d="M576.963 404.188C576.963 402.618 575.654 401.309 574.084 401.309C572.513 401.309 571.204 402.618 571.204 404.188C571.204 405.759 572.513 407.068 574.084 407.068C575.654 407.068 576.963 405.759 576.963 404.188Z" fill="#EFEFEF"/>
<path opacity="0.48" d="M630.89 273.298C631.675 273.037 631.937 272.251 631.937 271.466C631.675 270.681 630.89 270.419 630.105 270.419C629.319 270.681 629.058 271.466 629.058 272.251C629.319 273.037 630.105 273.56 630.89 273.298Z" fill="#EFEFEF"/>
<path opacity="0.48" d="M656.021 237.434C656.806 237.173 657.068 236.387 657.068 235.602C656.806 234.817 656.021 234.555 655.236 234.555C654.45 234.817 654.188 235.602 654.188 236.387C654.45 237.435 655.236 237.696 656.021 237.434Z" fill="#EFEFEF"/>
<path opacity="0.48" d="M415.707 350.785C416.492 350.785 417.016 350.262 417.277 349.476C417.277 348.691 416.754 348.167 415.968 347.906C415.183 347.906 414.66 348.429 414.398 349.215C414.398 350 414.921 350.785 415.707 350.785Z" fill="#EFEFEF"/>
<path opacity="0.48" d="M368.586 382.722C369.372 382.722 369.895 382.199 370.157 381.414C370.157 380.628 369.633 380.105 368.848 379.843C368.063 379.843 367.539 380.366 367.277 381.152C367.277 381.937 367.801 382.461 368.586 382.722Z" fill="#EFEFEF"/>
<path opacity="0.48" d="M348.691 427.487C349.476 427.749 350.262 427.225 350.262 426.44C350.524 425.654 350 424.869 349.215 424.869C348.429 424.607 347.644 425.131 347.644 425.916C347.382 426.701 347.906 427.225 348.691 427.487Z" fill="#EFEFEF"/>
<path opacity="0.48" d="M324.607 404.188C325.393 404.188 325.916 403.665 326.178 402.879C326.178 402.094 325.654 401.571 324.869 401.309C324.084 401.309 323.56 401.832 323.298 402.618C323.037 403.665 323.822 404.188 324.607 404.188Z" fill="#EFEFEF"/>
<path opacity="0.48" d="M364.921 418.848C365.707 418.848 366.23 418.325 366.492 417.539C366.492 416.754 365.969 416.23 365.183 415.969C364.398 415.969 363.874 416.492 363.612 417.277C363.612 418.063 364.136 418.848 364.921 418.848Z" fill="#EFEFEF"/>
<path opacity="0.48" d="M359.162 392.408C359.948 392.408 360.471 391.885 360.733 391.099C360.733 390.314 360.209 389.79 359.424 389.529C358.639 389.529 358.115 390.052 357.853 390.838C357.592 391.885 358.377 392.408 359.162 392.408Z" fill="#EFEFEF"/>
<path opacity="0.48" d="M337.696 369.895C338.482 369.895 339.005 369.372 339.267 368.586C339.267 367.801 338.744 367.277 337.958 367.016C337.173 367.016 336.649 367.539 336.387 368.325C336.387 369.372 336.911 369.895 337.696 369.895Z" fill="#EFEFEF"/>
<path opacity="0.48" d="M439.875 454.448C440.596 454.402 441.144 453.781 441.099 453.059C441.053 452.338 440.431 451.79 439.71 451.835C438.989 451.881 438.441 452.503 438.486 453.224C438.532 453.946 439.153 454.494 439.875 454.448Z" fill="#EFEFEF"/>
<path opacity="0.48" d="M436.911 475.131C437.696 475.131 438.22 474.607 438.482 473.822C438.482 473.037 437.958 472.513 437.173 472.251C436.387 472.251 435.864 472.775 435.602 473.56C435.602 474.607 436.387 475.131 436.911 475.131Z" fill="#EFEFEF"/>
<path opacity="0.48" d="M422.775 453.665C423.56 453.665 424.084 453.141 424.345 452.356C424.345 451.571 423.822 451.047 423.037 450.785C422.251 450.785 421.728 451.309 421.466 452.094C421.204 452.88 421.989 453.665 422.775 453.665Z" fill="#EFEFEF"/>
<path opacity="0.48" d="M434.817 410.471C435.602 410.733 436.387 410.209 436.387 409.424C436.649 408.639 436.126 407.853 435.34 407.853C434.555 407.591 433.77 408.115 433.77 408.9C433.508 409.686 434.031 410.209 434.817 410.471Z" fill="#EFEFEF"/>
<path opacity="0.48" d="M86.3874 431.937C87.1728 431.937 87.6963 431.414 87.9581 430.628C87.9581 429.843 87.4345 429.319 86.6492 429.057C85.8639 429.057 85.3403 429.581 85.0785 430.366C85.0785 431.414 85.6021 431.937 86.3874 431.937Z" fill="#EFEFEF"/>
<path opacity="0.48" d="M97.9057 395.288C98.6911 395.288 99.2146 394.764 99.4764 393.979C99.4764 393.194 98.9528 392.67 98.1675 392.408C97.3822 392.408 96.8586 392.932 96.5968 393.717C96.335 394.503 97.1204 395.026 97.9057 395.288Z" fill="#EFEFEF"/>
<path opacity="0.48" d="M87.9581 377.225C88.7434 377.225 89.267 376.701 89.5288 375.916C89.5288 375.131 89.0052 374.607 88.2199 374.345C87.4345 374.345 86.911 374.869 86.6492 375.654C86.3874 376.44 87.1727 377.225 87.9581 377.225Z" fill="#EFEFEF"/>
<path opacity="0.48" d="M163.613 395.288C164.398 395.55 165.183 395.026 165.183 394.241C165.445 393.455 164.921 392.67 164.136 392.67C163.351 392.408 162.565 392.932 162.565 393.717C162.304 394.241 162.827 395.026 163.613 395.288Z" fill="#EFEFEF"/>
<path opacity="0.48" d="M378.534 475.131C379.319 475.131 379.843 474.607 380.105 473.822C380.105 473.037 379.581 472.513 378.796 472.251C378.01 472.251 377.487 472.775 377.225 473.56C377.225 474.607 377.749 475.131 378.534 475.131Z" fill="#EFEFEF"/>
<path opacity="0.48" d="M391.623 440.838C392.408 440.838 392.932 440.314 393.194 439.529C393.194 438.743 392.67 438.22 391.885 437.958C391.099 437.958 390.576 438.482 390.314 439.267C390.314 440.314 390.838 440.838 391.623 440.838Z" fill="#EFEFEF"/>
<path opacity="0.48" d="M809.424 248.691C810.209 248.691 810.733 248.167 810.995 247.382C810.995 246.597 810.471 246.073 809.686 245.811C808.901 245.811 808.377 246.335 808.115 247.12C808.115 248.167 808.639 248.691 809.424 248.691Z" fill="#EFEFEF"/>
<path opacity="0.48" d="M806.544 269.372C807.33 269.372 807.853 268.848 808.115 268.063C808.115 267.277 807.592 266.754 806.806 266.492C806.021 266.492 805.497 267.016 805.236 267.801C805.236 268.848 805.759 269.372 806.544 269.372Z" fill="#EFEFEF"/>
<path opacity="0.48" d="M792.408 247.906C793.194 247.906 793.717 247.382 793.979 246.597C793.979 245.811 793.456 245.288 792.67 245.026C791.885 245.026 791.361 245.55 791.1 246.335C790.838 247.12 791.623 247.906 792.408 247.906Z" fill="#EFEFEF"/>
<path opacity="0.48" d="M748.168 269.372C748.953 269.372 749.476 268.848 749.738 268.063C749.738 267.277 749.215 266.754 748.429 266.492C747.644 266.492 747.12 267.016 746.859 267.801C746.859 268.848 747.382 269.372 748.168 269.372Z" fill="#EFEFEF"/>
<path opacity="0.48" d="M761.256 235.34C762.042 235.34 762.565 234.817 762.827 234.031C762.827 233.246 762.304 232.722 761.518 232.461C760.733 232.461 760.209 232.984 759.948 233.77C759.948 234.555 760.471 235.078 761.256 235.34Z" fill="#EFEFEF"/>
<path opacity="0.48" d="M475.916 228.534C476.702 228.534 477.225 228.01 477.487 227.225C477.487 226.44 476.963 225.916 476.178 225.654C475.393 225.654 474.869 226.178 474.607 226.963C474.346 227.749 475.131 228.272 475.916 228.534Z" fill="#EFEFEF"/>
<path opacity="0.48" d="M473.037 249.215C473.822 249.215 474.346 248.691 474.607 247.906C474.607 247.12 474.084 246.597 473.298 246.335C472.513 246.335 471.989 246.859 471.728 247.644C471.728 248.429 472.251 249.215 473.037 249.215Z" fill="#EFEFEF"/>
<path opacity="0.48" d="M108.377 272.513C109.162 272.513 109.686 271.989 109.948 271.204C109.948 270.419 109.424 269.895 108.639 269.633C107.853 269.633 107.33 270.157 107.068 270.942C106.806 271.989 107.592 272.513 108.377 272.513Z" fill="#EFEFEF"/>
<path opacity="0.48" d="M79.3193 220.157C80.1047 220.419 80.89 219.895 80.89 219.11C81.1518 218.325 80.6282 217.539 79.8429 217.539C79.0575 217.539 78.2722 217.801 78.2722 218.586C78.0104 219.372 78.534 220.157 79.3193 220.157Z" fill="#EFEFEF"/>
<path opacity="0.48" d="M427.749 214.921C428.534 214.921 429.058 214.398 429.319 213.612C429.319 212.827 428.796 212.304 428.01 212.042C427.225 212.042 426.702 212.565 426.44 213.351C426.178 214.136 426.963 214.921 427.749 214.921Z" fill="#EFEFEF"/>
<path opacity="0.48" d="M858.115 456.021C858.838 456.021 859.424 455.435 859.424 454.712C859.424 453.989 858.838 453.403 858.115 453.403C857.392 453.403 856.806 453.989 856.806 454.712C856.806 455.435 857.392 456.021 858.115 456.021Z" fill="#EFEFEF"/>
<path opacity="0.48" d="M857.33 483.77C857.853 484.293 858.901 484.031 859.424 483.508C859.948 482.984 859.686 481.937 859.162 481.675C858.639 481.152 857.592 481.414 857.068 481.937C856.545 482.461 856.545 483.246 857.33 483.77Z" fill="#EFEFEF"/>
<path opacity="0.48" d="M857.853 420.419C857.592 421.204 858.115 421.989 858.901 421.989C859.686 422.251 860.471 421.728 860.471 420.942C860.733 420.157 860.209 419.372 859.424 419.372C858.901 419.372 858.115 419.895 857.853 420.419Z" fill="#EFEFEF"/>
<path opacity="0.48" d="M818.063 391.885C817.801 392.67 818.063 393.455 818.848 393.717C819.634 393.979 820.419 393.717 820.681 392.932C820.942 392.147 820.681 391.361 819.895 391.099C819.11 390.838 818.325 391.099 818.063 391.885Z" fill="#EFEFEF"/>
<path opacity="0.48" d="M850 409.162C849.738 409.947 850.262 410.733 851.047 410.733C851.832 410.733 852.618 410.471 852.618 409.686C852.88 408.9 852.356 408.115 851.571 408.115C851.047 407.853 850.262 408.377 850 409.162Z" fill="#EFEFEF"/>
<path opacity="0.48" d="M893.717 287.173C894.44 287.173 895.026 286.587 895.026 285.864C895.026 285.141 894.44 284.555 893.717 284.555C892.994 284.555 892.408 285.141 892.408 285.864C892.408 286.587 892.994 287.173 893.717 287.173Z" fill="#EFEFEF"/>
<path opacity="0.48" d="M861.518 291.885C861.257 292.67 861.78 293.455 862.565 293.455C863.351 293.717 864.136 293.194 864.136 292.408C864.398 291.623 863.874 290.838 863.089 290.838C862.304 290.838 861.518 291.361 861.518 291.885Z" fill="#EFEFEF"/>
<path opacity="0.48" d="M871.204 260.209C870.942 260.995 871.466 261.78 872.251 261.78C873.037 262.042 873.822 261.518 873.822 260.733C874.084 259.948 873.56 259.162 872.775 259.162C872.251 259.162 871.466 259.686 871.204 260.209Z" fill="#EFEFEF"/>
<path opacity="0.48" d="M563.351 348.953C563.089 349.738 563.612 350.523 564.398 350.523C565.183 350.785 565.969 350.262 565.969 349.476C566.23 348.691 565.707 347.906 564.921 347.906C564.136 347.644 563.351 348.167 563.351 348.953Z" fill="#EFEFEF"/>
<path opacity="0.48" d="M587.173 339.267C586.911 340.052 587.435 340.838 588.22 340.838C589.005 341.099 589.791 340.576 589.791 339.791C590.052 339.005 589.529 338.22 588.743 338.22C588.22 337.958 587.435 338.482 587.173 339.267Z" fill="#EFEFEF"/>
<path opacity="0.48" d="M552.618 328.534C552.356 329.319 552.88 330.105 553.665 330.105C554.45 330.366 555.236 329.843 555.236 329.057C555.497 328.272 554.974 327.487 554.188 327.487C553.403 327.225 552.618 327.749 552.618 328.534Z" fill="#EFEFEF"/>
<path opacity="0.48" d="M579.581 328.01C579.319 328.796 579.843 329.581 580.628 329.581C581.414 329.843 582.199 329.319 582.199 328.534C582.461 327.749 581.937 326.963 581.152 326.963C580.366 326.702 579.581 327.225 579.581 328.01Z" fill="#EFEFEF"/>
<path opacity="0.48" d="M876.44 392.67C876.178 393.456 876.702 394.241 877.487 394.241C878.272 394.503 879.058 393.979 879.058 393.194C879.319 392.408 878.796 391.623 878.011 391.623C877.487 391.623 876.702 391.885 876.44 392.67Z" fill="#EFEFEF"/>
<path opacity="0.48" d="M771.728 398.168C771.466 398.953 771.99 399.738 772.775 399.738C773.56 400 774.346 399.476 774.346 398.691C774.607 397.906 774.084 397.12 773.298 397.12C772.775 397.12 771.99 397.382 771.728 398.168Z" fill="#EFEFEF"/>
<path opacity="0.48" d="M753.403 468.848C753.141 469.633 753.665 470.419 754.45 470.419C755.236 470.681 756.021 470.157 756.021 469.372C756.283 468.586 755.759 467.801 754.974 467.801C754.45 467.539 753.665 468.063 753.403 468.848Z" fill="#EFEFEF"/>
<path opacity="0.48" d="M778.796 444.241C778.534 445.026 779.058 445.811 779.843 445.811C780.628 446.073 781.414 445.55 781.414 444.764C781.675 443.979 781.152 443.194 780.367 443.194C779.843 442.932 779.058 443.455 778.796 444.241Z" fill="#EFEFEF"/>
<path opacity="0.48" d="M817.277 479.843C817.016 480.628 817.277 481.413 818.063 481.675C818.848 481.937 819.633 481.675 819.895 480.89C820.157 480.105 819.895 479.319 819.11 479.057C818.325 478.534 817.539 479.057 817.277 479.843Z" fill="#EFEFEF"/>
<path opacity="0.48" d="M486.911 464.921C486.911 464.136 486.387 463.613 485.602 463.613C484.817 463.613 484.293 464.136 484.293 464.921C484.293 465.707 484.817 466.23 485.602 466.23C486.387 466.23 486.911 465.707 486.911 464.921Z" fill="#EFEFEF"/>
<path opacity="0.48" d="M604.189 460.209C604.712 460.733 605.497 460.733 606.283 460.209C606.806 459.686 606.806 458.9 606.283 458.115C605.759 457.592 604.974 457.592 604.189 458.115C603.665 458.9 603.665 459.686 604.189 460.209Z" fill="#EFEFEF"/>
<path opacity="0.48" d="M617.277 435.864C617.801 436.387 618.848 436.126 619.372 435.602C619.895 435.078 619.633 434.031 619.11 433.77C618.586 433.246 617.539 433.508 617.016 434.031C616.492 434.555 616.754 435.34 617.277 435.864Z" fill="#EFEFEF"/>
<path opacity="0.48" d="M577.487 431.675C577.225 432.461 577.487 433.246 578.272 433.508C579.058 433.769 579.843 433.508 580.105 432.722C580.366 431.937 580.105 431.152 579.319 430.89C578.534 430.628 577.749 431.152 577.487 431.675Z" fill="#EFEFEF"/>
<path opacity="0.48" d="M765.183 411.518C764.921 412.304 765.445 413.089 766.23 413.089C767.016 413.351 767.801 412.827 767.801 412.042C768.063 411.256 767.539 410.471 766.754 410.471C766.23 410.471 765.445 410.995 765.183 411.518Z" fill="#EFEFEF"/>
<path opacity="0.48" d="M784.031 370.942C783.77 371.728 784.293 372.513 785.079 372.513C785.864 372.775 786.649 372.251 786.649 371.466C786.911 370.681 786.388 369.895 785.602 369.895C785.079 369.633 784.293 370.157 784.031 370.942Z" fill="#EFEFEF"/>
<path opacity="0.48" d="M148.168 477.749C148.429 479.057 150 479.843 151.047 479.319C152.356 479.057 153.141 477.487 152.618 476.44C152.356 475.131 150.785 474.345 149.738 474.869C148.429 475.131 147.644 476.44 148.168 477.749Z" fill="#EFEFEF"/>
<path opacity="0.48" d="M119.11 468.586C119.372 469.895 120.942 470.681 121.989 470.157C123.298 469.895 124.084 468.325 123.56 467.277C123.298 465.969 121.728 465.183 120.681 465.707C119.633 465.968 118.848 467.277 119.11 468.586Z" fill="#EFEFEF"/>
<path opacity="0.48" d="M192.408 488.743C192.67 490.052 194.241 490.838 195.288 490.314C196.597 490.052 197.382 488.481 196.859 487.434C196.597 486.125 195.026 485.34 193.979 485.864C192.932 486.387 191.885 487.696 192.408 488.743Z" fill="#EFEFEF"/>
<path opacity="0.48" d="M716.492 365.445C717.016 365.968 718.063 365.707 718.586 365.183C719.11 364.66 718.848 363.612 718.325 363.351C717.801 362.827 716.754 363.089 716.23 363.612C715.707 364.136 715.969 364.921 716.492 365.445Z" fill="#EFEFEF"/>
<path opacity="0.48" d="M662.042 366.754C662.565 367.277 663.351 367.277 664.136 366.754C664.66 366.23 664.66 365.445 664.136 364.66C663.613 364.136 662.827 364.136 662.042 364.66C661.518 365.183 661.518 366.23 662.042 366.754Z" fill="#EFEFEF"/>
<path opacity="0.48" d="M676.963 380.628C677.487 381.152 678.534 380.89 679.058 380.366C679.581 379.843 679.319 378.796 678.796 378.534C678.272 378.01 677.225 378.272 676.702 378.796C676.178 379.319 676.44 380.105 676.963 380.628Z" fill="#EFEFEF"/>
<path opacity="0.48" d="M631.937 381.937C632.461 382.461 633.246 382.461 634.031 381.937C634.555 381.414 634.555 380.628 634.031 379.843C633.508 379.319 632.723 379.319 631.937 379.843C631.414 380.366 631.414 381.152 631.937 381.937Z" fill="#EFEFEF"/>
<path opacity="0.48" d="M507.33 400.523C507.853 401.047 508.639 401.309 509.424 400.785C509.948 400.262 510.209 399.476 509.686 398.953C509.162 398.429 508.377 398.167 507.592 398.691C507.068 398.953 507.068 400 507.33 400.523Z" fill="#EFEFEF"/>
<path opacity="0.48" d="M506.283 382.461C506.806 382.984 507.592 383.246 508.377 382.722C508.9 382.199 509.162 381.414 508.639 380.89C508.115 380.366 507.33 380.105 506.544 380.628C506.021 380.89 505.759 381.675 506.283 382.461Z" fill="#EFEFEF"/>
<path opacity="0.48" d="M499.215 351.571C499.738 352.094 500.523 352.356 501.309 351.832C501.832 351.309 502.094 350.524 501.571 350C501.047 349.476 500.262 349.215 499.476 349.738C498.953 350 498.691 350.785 499.215 351.571Z" fill="#EFEFEF"/>
<path opacity="0.48" d="M518.063 491.623C518.325 492.408 519.372 492.67 519.895 492.146C520.681 491.885 520.942 490.838 520.419 490.314C520.157 489.529 519.11 489.267 518.586 489.79C518.063 490.052 517.801 491.099 518.063 491.623Z" fill="#EFEFEF"/>
<path opacity="0.48" d="M522.251 458.639C522.775 459.162 523.56 459.424 524.346 458.9C524.869 458.377 525.131 457.591 524.607 457.068C524.084 456.544 523.298 456.283 522.513 456.806C521.99 457.068 521.99 457.853 522.251 458.639Z" fill="#EFEFEF"/>
<path opacity="0.48" d="M488.482 393.194C489.005 393.717 489.79 393.979 490.576 393.455C491.361 392.932 491.361 392.147 490.838 391.623C490.314 391.099 489.529 390.838 488.743 391.361C488.22 391.623 487.958 392.408 488.482 393.194Z" fill="#EFEFEF"/>
<path opacity="0.48" d="M552.356 479.319C552.88 479.843 553.665 480.105 554.45 479.581C554.974 479.057 555.236 478.272 554.712 477.749C554.188 477.225 553.403 476.963 552.618 477.487C552.094 477.749 551.832 478.534 552.356 479.319Z" fill="#EFEFEF"/>
<path opacity="0.48" d="M521.728 373.298C522.251 373.822 523.037 374.084 523.822 373.56C524.346 373.037 524.607 372.251 524.084 371.728C523.56 371.204 522.775 370.942 521.99 371.466C521.466 371.728 521.204 372.775 521.728 373.298Z" fill="#EFEFEF"/>
<path opacity="0.48" d="M208.115 195.811C208.377 195.026 207.853 194.241 207.068 194.241C206.283 193.979 205.497 194.503 205.497 195.288C205.236 196.073 205.759 196.859 206.545 196.859C207.068 197.12 207.853 196.597 208.115 195.811Z" fill="#EFEFEF"/>
<path opacity="0.48" d="M154.974 331.414C154.974 330.628 154.45 330.105 153.665 330.105C152.88 330.105 152.356 330.628 152.356 331.414C152.356 332.199 152.88 332.722 153.665 332.722C154.45 332.722 154.974 332.199 154.974 331.414Z" fill="#EFEFEF"/>
<path opacity="0.48" d="M151.832 282.984C151.832 282.199 151.309 281.675 150.524 281.675C149.738 281.675 149.215 282.199 149.215 282.984C149.215 283.77 149.738 284.293 150.524 284.293C151.309 284.555 151.832 283.77 151.832 282.984Z" fill="#EFEFEF"/>
<path opacity="0.48" d="M142.408 297.12C142.408 296.335 141.885 295.811 141.099 295.811C140.314 295.811 139.791 296.335 139.791 297.12C139.791 297.906 140.314 298.429 141.099 298.429C141.623 298.691 142.408 297.906 142.408 297.12Z" fill="#EFEFEF"/>
<path opacity="0.48" d="M142.408 346.597C142.147 345.811 141.361 345.288 140.838 345.55C140.052 345.811 139.529 346.597 139.791 347.12C140.052 347.906 140.838 348.429 141.361 348.167C142.147 348.167 142.67 347.382 142.408 346.597Z" fill="#EFEFEF"/>
<path opacity="0.48" d="M128.01 334.817C127.749 334.031 126.963 333.769 126.178 334.031C125.393 334.293 125.131 335.078 125.393 335.864C125.654 336.649 126.44 336.911 127.225 336.649C127.749 336.387 128.272 335.602 128.01 334.817Z" fill="#EFEFEF"/>
<path opacity="0.48" d="M764.136 322.513C763.874 321.728 763.089 321.466 762.304 321.728C761.518 321.989 761.256 322.775 761.518 323.56C761.78 324.345 762.565 324.607 763.351 324.345C764.136 324.084 764.398 323.037 764.136 322.513Z" fill="#EFEFEF"/>
<path opacity="0.48" d="M704.188 327.487C703.927 326.701 703.141 326.178 702.618 326.44C701.832 326.701 701.309 327.487 701.571 328.01C701.832 328.796 702.618 329.319 703.141 329.057C703.927 328.796 704.45 328.272 704.188 327.487Z" fill="#EFEFEF"/>
<path opacity="0.48" d="M689.79 315.707C689.529 314.921 688.743 314.66 687.958 314.921C687.173 315.183 686.911 315.969 687.173 316.754C687.434 317.539 688.22 317.801 689.005 317.539C689.791 317.277 690.052 316.492 689.79 315.707Z" fill="#EFEFEF"/>
<path opacity="0.48" d="M940.052 439.267C940.576 439.79 941.623 439.529 942.147 439.005C942.67 438.482 942.408 437.434 941.885 437.173C941.361 436.649 940.314 436.911 939.791 437.434C939.267 437.958 939.529 438.743 940.052 439.267Z" fill="#EFEFEF"/>
<path opacity="0.48" d="M704.974 59.1622C705.497 59.6857 706.544 59.4239 707.068 58.9004C707.592 58.3768 707.33 57.3297 706.806 57.0679C706.283 56.5444 705.236 56.8061 704.712 57.3297C704.188 57.8533 704.188 58.6386 704.974 59.1622Z" fill="#EFEFEF"/>
<path opacity="0.48" d="M936.649 330.105C936.388 329.319 935.602 328.796 935.079 329.057C934.293 329.319 933.77 330.105 934.031 330.628C934.293 331.414 935.079 331.937 935.602 331.675C936.388 331.413 936.911 330.89 936.649 330.105Z" fill="#EFEFEF"/>
<path opacity="0.48" d="M940.838 320.942C940.576 320.157 939.791 319.895 939.005 320.157C938.22 320.419 937.958 321.204 938.22 321.989C938.482 322.775 939.267 323.037 940.052 322.775C940.838 322.513 941.099 321.728 940.838 320.942Z" fill="#EFEFEF"/>
<path opacity="0.48" d="M671.728 292.146C671.466 291.361 670.681 291.099 669.895 291.361C669.11 291.623 668.848 292.408 669.11 293.194C669.372 293.979 670.157 294.241 670.942 293.979C671.466 293.717 671.99 292.932 671.728 292.146Z" fill="#EFEFEF"/>
<path opacity="0.48" d="M698.953 248.953C698.691 248.167 697.906 247.906 697.12 248.167C696.335 248.429 696.073 249.215 696.335 250C696.597 250.785 697.382 251.047 698.168 250.785C698.691 250.523 699.215 249.738 698.953 248.953Z" fill="#EFEFEF"/>
<path opacity="0.48" d="M654.45 254.974C654.188 254.188 653.403 253.665 652.88 253.927C652.094 254.188 651.571 254.974 651.833 255.497C652.094 256.283 652.88 256.806 653.403 256.544C654.189 256.544 654.712 255.759 654.45 254.974Z" fill="#EFEFEF"/>
<path opacity="0.48" d="M744.241 330.89C743.979 330.105 743.194 329.843 742.408 330.105C741.623 330.366 741.361 331.152 741.623 331.937C741.885 332.722 742.67 332.984 743.455 332.722C743.979 332.461 744.503 331.675 744.241 330.89Z" fill="#EFEFEF"/>
<path opacity="0.48" d="M717.277 113.874C718.063 113.612 718.325 112.827 718.325 112.042C718.063 111.256 717.278 110.995 716.492 110.995C715.707 111.256 715.445 112.042 715.445 112.827C715.707 113.612 716.492 114.136 717.277 113.874Z" fill="#EFEFEF"/>
<path opacity="0.48" d="M282.199 144.764C282.984 144.764 283.508 144.241 283.77 143.455C283.77 142.67 283.246 142.146 282.461 141.885C281.675 141.885 281.152 142.408 280.89 143.194C280.89 143.979 281.414 144.764 282.199 144.764Z" fill="#EFEFEF"/>
<path opacity="0.48" d="M658.9 89.5288C659.686 89.5288 660.209 89.0052 660.471 88.2199C660.471 87.4345 659.948 86.911 659.162 86.6492C658.377 86.6492 657.853 87.1727 657.591 87.9581C657.591 88.7434 658.115 89.5288 658.9 89.5288Z" fill="#EFEFEF"/>
<path opacity="0.48" d="M463.089 68.3245C463.874 68.3245 464.398 67.8009 464.66 67.0156C464.66 66.2302 464.136 65.7067 463.351 65.4449C462.565 65.4449 462.042 65.9684 461.78 66.7538C461.518 67.5391 462.304 68.3245 463.089 68.3245Z" fill="#EFEFEF"/>
<path opacity="0.48" d="M732.984 144.241C732.722 143.455 731.937 143.194 731.152 143.455C730.366 143.717 730.105 144.503 730.366 145.288C730.628 146.073 731.414 146.335 732.199 146.073C732.984 145.811 733.246 145.026 732.984 144.241Z" fill="#EFEFEF"/>
<path opacity="0.48" d="M732.722 168.586C732.461 167.801 731.675 167.539 730.89 167.801C730.105 168.063 729.843 168.848 730.105 169.633C730.366 170.419 731.152 170.681 731.937 170.419C732.722 170.157 732.984 169.372 732.722 168.586Z" fill="#EFEFEF"/>
<path opacity="0.48" d="M759.948 125.393C759.686 124.607 758.9 124.345 758.115 124.607C757.33 124.869 757.068 125.654 757.33 126.44C757.592 127.225 758.377 127.487 759.162 127.225C759.948 126.963 760.209 126.178 759.948 125.393Z" fill="#EFEFEF"/>
<path opacity="0.48" d="M715.445 131.414C715.183 130.628 714.398 130.105 713.874 130.366C713.089 130.628 712.565 131.414 712.827 131.937C713.089 132.722 713.874 133.246 714.398 132.984C715.183 132.984 715.707 132.199 715.445 131.414Z" fill="#EFEFEF"/>
<path opacity="0.48" d="M760.471 158.9C760.21 158.115 759.424 157.853 758.639 158.115C757.853 158.377 757.592 159.162 757.853 159.948C758.115 160.733 758.901 160.995 759.686 160.733C760.471 160.471 760.995 159.686 760.471 158.9Z" fill="#EFEFEF"/>
<path opacity="0.48" d="M904.45 331.675C905.236 331.675 905.759 331.152 906.021 330.366C906.021 329.581 905.497 329.058 904.712 328.796C903.927 328.796 903.403 329.319 903.141 330.105C903.141 331.152 903.665 331.675 904.45 331.675Z" fill="#EFEFEF"/>
<path opacity="0.48" d="M895.288 320.157C896.073 320.157 896.597 319.633 896.859 318.848C896.859 318.063 896.335 317.539 895.55 317.277C894.764 317.277 894.241 317.801 893.979 318.586C893.717 319.372 894.503 320.157 895.288 320.157Z" fill="#EFEFEF"/>
<path opacity="0.48" d="M935.079 212.304C935.864 212.304 936.387 211.78 936.649 210.995C936.649 210.209 936.126 209.686 935.34 209.424C934.555 209.424 934.031 209.948 933.77 210.733C933.77 211.78 934.293 212.304 935.079 212.304Z" fill="#EFEFEF"/>
<path opacity="0.48" d="M906.021 206.021C906.806 206.021 907.33 205.497 907.592 204.712C907.592 203.927 907.068 203.403 906.283 203.141C905.497 203.141 904.974 203.665 904.712 204.45C904.45 205.497 905.236 206.021 906.021 206.021Z" fill="#EFEFEF"/>
<path opacity="0.48" d="M917.016 221.204C916.754 220.419 915.969 220.157 915.183 220.419C914.398 220.681 914.136 221.466 914.398 222.251C914.66 223.037 915.445 223.298 916.23 223.037C916.754 222.775 917.277 221.728 917.016 221.204Z" fill="#EFEFEF"/>
<path opacity="0.48" d="M338.57 206.813C339.292 206.767 339.839 206.145 339.793 205.423C339.747 204.702 339.125 204.154 338.403 204.201C337.682 204.247 337.135 204.869 337.181 205.59C337.227 206.312 337.849 206.859 338.57 206.813Z" fill="#EFEFEF"/>
<path opacity="0.48" d="M324.084 185.34C324.869 185.34 325.393 184.817 325.654 184.031C325.654 183.246 325.131 182.722 324.346 182.461C323.56 182.461 323.037 182.984 322.775 183.77C322.775 184.817 323.298 185.34 324.084 185.34Z" fill="#EFEFEF"/>
<path opacity="0.48" d="M303.927 230.366C304.712 230.628 305.497 230.105 305.497 229.319C305.759 228.534 305.236 227.749 304.45 227.749C303.665 227.749 302.879 228.01 302.879 228.796C302.879 229.319 303.141 230.105 303.927 230.366Z" fill="#EFEFEF"/>
<path opacity="0.48" d="M280.105 207.068C280.89 207.068 281.414 206.544 281.675 205.759C281.675 204.974 281.152 204.45 280.366 204.188C279.581 204.188 279.058 204.712 278.796 205.497C278.534 206.283 279.319 207.068 280.105 207.068Z" fill="#EFEFEF"/>
<path opacity="0.48" d="M278.534 232.984C279.319 232.984 279.843 232.461 280.105 231.675C280.105 230.89 279.581 230.366 278.796 230.105C278.011 230.105 277.487 230.628 277.225 231.414C277.225 232.461 277.749 232.984 278.534 232.984Z" fill="#EFEFEF"/>
<path opacity="0.48" d="M242.147 382.722C242.932 382.722 243.455 382.199 243.717 381.414C243.717 380.628 243.194 380.105 242.408 379.843C241.623 379.581 241.099 380.366 240.838 381.152C240.838 381.937 241.361 382.461 242.147 382.722Z" fill="#EFEFEF"/>
<path opacity="0.48" d="M254.712 427.487C255.497 427.749 256.283 427.225 256.283 426.44C256.544 425.654 256.021 424.869 255.236 424.869C254.45 424.869 253.665 425.131 253.665 425.916C253.403 426.701 253.927 427.225 254.712 427.487Z" fill="#EFEFEF"/>
<path opacity="0.48" d="M197.906 404.188C198.691 404.188 199.215 403.665 199.476 402.879C199.476 402.094 198.953 401.571 198.167 401.309C197.382 401.309 196.859 401.832 196.597 402.618C196.597 403.665 197.12 404.188 197.906 404.188Z" fill="#EFEFEF"/>
<path opacity="0.48" d="M282.984 402.879C283.77 402.879 284.293 402.356 284.555 401.571C284.555 400.785 284.031 400.262 283.246 400C282.461 400 281.937 400.523 281.675 401.309C281.675 402.094 282.199 402.879 282.984 402.879Z" fill="#EFEFEF"/>
<path opacity="0.48" d="M232.461 392.408C233.246 392.408 233.77 391.885 234.031 391.099C234.031 390.314 233.508 389.79 232.722 389.529C231.937 389.267 231.414 390.052 231.152 390.838C231.152 391.885 231.675 392.408 232.461 392.408Z" fill="#EFEFEF"/>
<path opacity="0.48" d="M296.073 453.665C296.859 453.665 297.382 453.141 297.644 452.356C297.644 451.571 297.12 451.047 296.335 450.785C295.55 450.785 295.026 451.309 294.764 452.094C294.764 452.88 295.288 453.665 296.073 453.665Z" fill="#EFEFEF"/>
<path opacity="0.48" d="M252.094 475.131C252.88 475.131 253.403 474.607 253.665 473.822C253.665 473.037 253.141 472.513 252.356 472.251C251.571 472.251 251.047 472.775 250.785 473.56C250.524 474.607 251.309 475.131 252.094 475.131Z" fill="#EFEFEF"/>
<path opacity="0.48" d="M208.377 464.921C209.162 464.921 209.686 464.398 209.948 463.612C209.948 462.827 209.424 462.304 208.639 462.042C207.853 462.042 207.33 462.565 207.068 463.351C206.806 464.136 207.592 464.921 208.377 464.921Z" fill="#EFEFEF"/>
<path opacity="0.48" d="M263.612 401.309C264.398 401.309 264.921 400.785 265.183 400C265.183 399.215 264.66 398.691 263.874 398.429C263.089 398.429 262.565 398.953 262.304 399.738C262.304 400.785 262.827 401.309 263.612 401.309Z" fill="#EFEFEF"/>
<path opacity="0.48" d="M642.67 113.874C643.455 113.874 643.979 113.351 644.241 112.565C644.241 111.78 643.717 111.256 642.932 110.995C642.147 110.995 641.623 111.518 641.361 112.304C641.361 113.089 641.885 113.874 642.67 113.874Z" fill="#EFEFEF"/>
<path opacity="0.48" d="M610.471 123.56C611.256 123.56 611.78 123.037 612.042 122.251C612.042 121.466 611.518 120.942 610.733 120.681C609.948 120.681 609.424 121.204 609.162 121.99C609.162 123.037 609.686 123.56 610.471 123.56Z" fill="#EFEFEF"/>
<path opacity="0.48" d="M576.44 207.853C577.225 208.115 578.01 207.592 578.01 206.806C578.272 206.021 577.749 205.236 576.963 205.236C576.178 204.974 575.393 205.497 575.393 206.283C575.131 207.068 575.654 207.592 576.44 207.853Z" fill="#EFEFEF"/>
<path opacity="0.48" d="M270.942 296.859C271.728 296.597 271.99 295.811 271.99 295.026C271.728 294.241 270.942 293.979 270.157 293.979C269.372 294.241 269.11 295.026 269.11 295.811C269.372 296.597 270.157 297.12 270.942 296.859Z" fill="#EFEFEF"/>
<path opacity="0.48" d="M396.859 120.157C397.644 119.895 397.906 119.11 397.906 118.324C397.644 117.539 396.859 117.277 396.073 117.277C395.288 117.539 395.026 118.324 395.026 119.11C395.026 119.895 396.073 120.419 396.859 120.157Z" fill="#EFEFEF"/>
<path opacity="0.48" d="M398.167 96.5967C398.953 96.335 399.215 95.5496 399.215 94.7643C398.953 93.9789 398.167 93.7172 397.382 93.7172C396.597 93.9789 396.335 94.7643 396.335 95.5496C396.597 96.335 397.382 96.8585 398.167 96.5967Z" fill="#EFEFEF"/>
<path opacity="0.48" d="M368.586 122.513C369.372 122.251 369.633 121.466 369.633 120.681C369.633 119.895 368.586 119.633 367.801 119.633C367.016 119.895 366.754 120.681 366.754 121.466C367.016 122.251 367.801 122.775 368.586 122.513Z" fill="#EFEFEF"/>
<path opacity="0.48" d="M219.372 295.55C220.157 295.288 220.419 294.503 220.419 293.717C220.157 292.932 219.372 292.67 218.586 292.67C217.801 292.932 217.539 293.717 217.539 294.503C217.801 295.288 218.586 295.811 219.372 295.55Z" fill="#EFEFEF"/>
<path opacity="0.48" d="M312.042 291.361C311.78 290.576 310.995 290.314 310.209 290.576C309.424 290.838 309.162 291.623 309.424 292.408C309.686 293.194 310.471 293.455 311.257 293.194C312.042 292.932 312.304 292.147 312.042 291.361Z" fill="#EFEFEF"/>
<path opacity="0.48" d="M339.005 272.513C338.743 271.728 337.958 271.466 337.173 271.728C336.387 271.989 336.126 272.775 336.387 273.56C336.649 274.345 337.434 274.607 338.22 274.345C339.005 274.084 339.267 273.298 339.005 272.513Z" fill="#EFEFEF"/>
<path opacity="0.48" d="M294.503 278.534C294.241 277.749 293.455 277.225 292.932 277.487C292.147 277.749 291.623 278.534 291.885 279.058C292.147 279.843 292.932 280.366 293.455 280.105C294.241 280.105 294.764 279.319 294.503 278.534Z" fill="#EFEFEF"/>
<path opacity="0.48" d="M606.806 159.948C607.592 159.948 608.115 159.424 608.377 158.639C608.377 157.853 607.853 157.33 607.068 157.068C606.283 157.068 605.759 157.592 605.497 158.377C605.497 159.162 606.021 159.948 606.806 159.948Z" fill="#EFEFEF"/>
<path opacity="0.48" d="M579.581 110.995C580.366 110.995 580.89 110.471 581.152 109.686C581.152 108.9 580.628 108.377 579.843 108.115C579.058 108.115 578.534 108.639 578.272 109.424C578.01 110.209 578.796 110.995 579.581 110.995Z" fill="#EFEFEF"/>
<path opacity="0.48" d="M681.675 195.55C682.461 195.55 682.984 195.026 683.246 194.241C683.246 193.455 682.722 192.932 681.937 192.67C681.152 192.67 680.628 193.194 680.366 193.979C680.366 194.764 680.89 195.55 681.675 195.55Z" fill="#EFEFEF"/>
<path opacity="0.48" d="M676.702 151.571C677.487 151.832 678.272 151.309 678.272 150.523C678.534 149.738 678.01 148.953 677.225 148.953C676.44 148.691 675.654 149.215 675.654 150C675.393 150.785 675.916 151.309 676.702 151.571Z" fill="#EFEFEF"/>
<path opacity="0.48" d="M550 102.094C550.785 102.094 551.309 101.571 551.571 100.785C551.571 99.9999 551.047 99.4764 550.262 99.2146C549.476 99.2146 548.953 99.7382 548.691 100.524C548.691 101.571 549.215 102.094 550 102.094Z" fill="#EFEFEF"/>
<path opacity="0.48" d="M352.618 73.5601C353.403 73.5601 353.927 73.0365 354.188 72.2512C354.188 71.4658 353.665 70.9423 352.879 70.6805C352.094 70.6805 351.571 71.204 351.309 71.9894C351.309 72.7747 352.094 73.5601 352.618 73.5601Z" fill="#EFEFEF"/>
<path opacity="0.48" d="M271.989 115.183C272.775 115.183 273.298 114.66 273.56 113.874C273.56 113.089 273.037 112.565 272.251 112.304C271.466 112.304 270.942 112.827 270.681 113.612C270.419 114.66 271.204 115.183 271.989 115.183Z" fill="#EFEFEF"/>
<path opacity="0.48" d="M294.503 55.2355C295.288 55.2355 295.811 54.7119 296.073 53.9266C296.073 53.1412 295.55 52.6177 294.764 52.3559C293.979 52.3559 293.455 52.8795 293.194 53.6648C292.932 54.4501 293.717 55.2355 294.503 55.2355Z" fill="#EFEFEF"/>
<path opacity="0.48" d="M633.508 181.937C634.293 181.937 634.817 181.414 635.079 180.628C635.079 179.843 634.555 179.319 633.77 179.057C632.984 179.057 632.461 179.581 632.199 180.366C632.199 181.414 632.722 181.937 633.508 181.937Z" fill="#EFEFEF"/>
<path opacity="0.48" d="M564.921 171.466C565.707 171.466 566.23 170.942 566.492 170.157C566.492 169.372 565.969 168.848 565.183 168.586C564.398 168.586 563.874 169.11 563.613 169.895C563.613 170.681 564.136 171.466 564.921 171.466Z" fill="#EFEFEF"/>
<path opacity="0.48" d="M524.869 143.979C525.654 143.979 526.178 143.455 526.44 142.67C526.44 141.885 525.916 141.361 525.131 141.099C524.345 141.099 523.822 141.623 523.56 142.408C523.298 143.194 524.084 143.979 524.869 143.979Z" fill="#EFEFEF"/>
<path opacity="0.48" d="M474.345 133.508C475.131 133.508 475.654 132.984 475.916 132.199C475.916 131.414 475.393 130.89 474.607 130.628C473.822 130.628 473.298 131.152 473.037 131.937C473.037 132.984 473.56 133.508 474.345 133.508Z" fill="#EFEFEF"/>
<path opacity="0.48" d="M537.958 194.764C538.743 194.764 539.267 194.241 539.529 193.455C539.529 192.67 539.005 192.146 538.22 191.885C537.435 191.885 536.911 192.408 536.649 193.194C536.649 193.979 537.173 194.503 537.958 194.764Z" fill="#EFEFEF"/>
<path opacity="0.48" d="M611.256 485.34C611.256 483.769 609.948 482.461 608.377 482.461C606.806 482.461 605.497 483.769 605.497 485.34C605.497 486.911 606.806 488.22 608.377 488.22C609.948 488.22 611.256 486.911 611.256 485.34Z" fill="#EFEFEF"/>
<path opacity="0.48" d="M608.377 310.209C608.377 308.639 607.068 307.33 605.497 307.33C603.927 307.33 602.618 308.639 602.618 310.209C602.618 311.78 603.927 313.089 605.497 313.089C607.068 313.089 608.377 311.78 608.377 310.209Z" fill="#EFEFEF"/>
<path opacity="0.48" d="M503.141 291.623C504.732 291.623 506.021 290.334 506.021 288.743C506.021 287.153 504.732 285.864 503.141 285.864C501.551 285.864 500.262 287.153 500.262 288.743C500.262 290.334 501.551 291.623 503.141 291.623Z" fill="#EFEFEF"/>
<path opacity="0.48" d="M418.586 167.539C418.586 165.969 417.277 164.66 415.707 164.66C414.136 164.66 412.827 165.969 412.827 167.539C412.827 169.11 414.136 170.419 415.707 170.419C417.277 170.157 418.586 169.11 418.586 167.539Z" fill="#EFEFEF"/>
<path opacity="0.48" d="M173.037 218.324C173.822 218.324 174.346 217.801 174.607 217.016C174.607 216.23 174.084 215.707 173.298 215.445C172.513 215.445 171.99 215.968 171.728 216.754C171.466 217.539 172.251 218.324 173.037 218.324Z" fill="#EFEFEF"/>
<path opacity="0.48" d="M208.377 162.304C209.162 162.304 209.686 161.78 209.948 160.995C209.948 160.209 209.424 159.686 208.639 159.424C207.853 159.424 207.33 159.948 207.068 160.733C206.806 161.518 207.592 162.304 208.377 162.304Z" fill="#EFEFEF"/>
<path opacity="0.48" d="M214.136 68.8481C214.921 68.8481 215.445 68.3245 215.707 67.5392C215.707 66.7538 215.183 66.2303 214.398 65.9685C213.613 65.9685 213.089 66.4921 212.827 67.2774C212.565 68.3245 213.351 68.8481 214.136 68.8481Z" fill="#EFEFEF"/>
<path opacity="0.48" d="M119.11 154.45C119.895 154.45 120.419 153.927 120.681 153.141C120.681 152.356 120.157 151.832 119.372 151.571C118.586 151.571 118.063 152.094 117.801 152.88C117.801 153.665 118.325 154.45 119.11 154.45Z" fill="#EFEFEF"/>
<path opacity="0.48" d="M93.979 104.188C94.7643 104.188 95.2879 103.665 95.5497 102.879C95.5497 102.094 95.0261 101.571 94.2408 101.309C93.4554 101.309 92.9319 101.832 92.6701 102.618C92.6701 103.403 93.1936 104.188 93.979 104.188Z" fill="#EFEFEF"/>
<path opacity="0.48" d="M101.047 168.848C101.832 168.848 102.356 168.325 102.618 167.539C102.618 166.754 102.094 166.23 101.309 165.969C100.524 165.969 99.9999 166.492 99.7382 167.277C99.7382 168.325 100.262 168.848 101.047 168.848Z" fill="#EFEFEF"/>
<path opacity="0.48" d="M177.487 67.5392C178.272 67.2774 178.534 66.4921 178.534 65.7067C178.272 64.9214 177.487 64.6596 176.702 64.6596C175.916 64.9214 175.654 65.7067 175.654 66.4921C175.916 67.2774 176.702 67.5392 177.487 67.5392Z" fill="#EFEFEF"/>
<path opacity="0.48" d="M149.215 69.8952C150 69.6334 150.262 68.8481 150.262 68.0627C150 67.2774 149.215 67.0156 148.429 67.0156C147.644 67.2774 147.382 68.0627 147.382 68.8481C147.644 69.6334 148.429 69.8952 149.215 69.8952Z" fill="#EFEFEF"/>
<path opacity="0.48" d="M199.215 114.66C199.215 113.089 197.906 111.78 196.335 111.78C194.764 111.78 193.455 113.089 193.455 114.66C193.455 116.23 194.764 117.539 196.335 117.539C197.906 117.539 199.215 116.23 199.215 114.66Z" fill="#EFEFEF"/>
<path opacity="0.48" d="M846.597 207.853C846.597 206.283 845.288 204.974 843.717 204.974C842.146 204.974 840.838 206.283 840.838 207.853C840.838 209.424 842.146 210.733 843.717 210.733C845.288 210.733 846.597 209.424 846.597 207.853Z" fill="#EFEFEF"/>
<path opacity="0.48" d="M225.916 185.34C225.916 183.77 224.607 182.461 223.037 182.461C221.466 182.461 220.157 183.77 220.157 185.34C220.157 186.911 221.466 188.22 223.037 188.22C224.869 188.22 225.916 186.911 225.916 185.34Z" fill="#EFEFEF"/>
<path opacity="0.48" d="M726.178 418.848C727.768 418.848 729.058 417.559 729.058 415.968C729.058 414.378 727.768 413.089 726.178 413.089C724.588 413.089 723.298 414.378 723.298 415.968C723.298 417.559 724.588 418.848 726.178 418.848Z" fill="#EFEFEF"/>
<path opacity="0.48" d="M718.063 494.764C720.954 494.764 723.298 492.42 723.298 489.529C723.298 486.637 720.954 484.293 718.063 484.293C715.171 484.293 712.827 486.637 712.827 489.529C712.827 492.42 715.171 494.764 718.063 494.764Z" fill="#EFEFEF"/>
<path opacity="0.48" d="M243.455 215.445C243.455 212.565 241.099 210.209 238.22 210.209C235.34 210.209 232.984 212.565 232.984 215.445C232.984 218.324 235.34 220.68 238.22 220.68C240.838 220.68 243.455 218.324 243.455 215.445Z" fill="#EFEFEF"/>
<path opacity="0.48" d="M837.435 313.089C837.435 310.209 835.079 307.853 832.199 307.853C829.319 307.853 826.963 310.209 826.963 313.089C826.963 315.969 829.319 318.325 832.199 318.325C835.079 318.325 837.435 315.969 837.435 313.089Z" fill="#EFEFEF"/>
<path opacity="0.48" d="M408.9 277.487C408.9 274.607 406.544 272.251 403.665 272.251C400.785 272.251 398.429 274.607 398.429 277.487C398.429 280.366 400.785 282.722 403.665 282.722C406.544 282.722 408.9 280.366 408.9 277.487Z" fill="#EFEFEF"/>
<path opacity="0.48" d="M543.455 265.707C543.455 264.136 542.147 262.827 540.576 262.827C539.005 262.827 537.696 264.136 537.696 265.707C537.696 267.277 539.005 268.586 540.576 268.586C542.408 268.325 543.455 267.277 543.455 265.707Z" fill="#EFEFEF"/>
<path opacity="0.48" d="M368.848 271.204C368.848 269.633 367.539 268.325 365.968 268.325C364.398 268.325 363.089 269.633 363.089 271.204C363.089 272.775 364.398 274.084 365.968 274.084C367.539 274.084 368.848 272.775 368.848 271.204Z" fill="#EFEFEF"/>
<path opacity="0.48" d="M645.55 159.948C645.55 158.377 644.241 157.068 642.67 157.068C641.099 157.068 639.79 158.377 639.79 159.948C639.79 161.518 641.099 162.827 642.67 162.827C644.241 162.565 645.55 161.518 645.55 159.948Z" fill="#EFEFEF"/>
<path opacity="0.48" d="M572.513 32.1989C573.298 31.9371 573.56 31.1517 573.56 30.3664C573.298 29.5811 572.513 29.3193 571.728 29.3193C570.942 29.5811 570.681 30.3664 570.681 31.1517C570.681 31.9371 571.728 32.4606 572.513 32.1989Z" fill="#EFEFEF"/>
<path opacity="0.48" d="M604.974 62.3036C605.759 62.3036 606.283 61.78 606.544 60.9947C606.544 60.2093 606.021 59.6858 605.236 59.424C604.45 59.424 603.927 59.9476 603.665 60.7329C603.665 61.5183 604.188 62.0418 604.974 62.3036Z" fill="#EFEFEF"/>
<path opacity="0.48" d="M675.131 91.3612C674.869 90.5758 674.084 90.314 673.298 90.5758C672.513 90.8376 672.251 91.623 672.513 92.4083C672.775 93.1936 673.56 93.4554 674.346 93.1936C674.869 92.9319 675.393 92.1465 675.131 91.3612Z" fill="#EFEFEF"/>
<path opacity="0.48" d="M570.942 49.7381C570.681 48.9527 569.895 48.4292 569.372 48.691C568.586 48.9527 568.063 49.7381 568.325 50.2616C568.586 51.047 569.372 51.5705 569.895 51.3088C570.681 51.047 570.942 50.5234 570.942 49.7381Z" fill="#EFEFEF"/>
<path opacity="0.48" d="M532.199 69.8952C532.984 70.157 533.77 69.6334 533.77 68.8481C534.031 68.0627 533.508 67.2774 532.722 67.2774C531.937 67.0156 531.152 67.5392 531.152 68.3245C530.89 68.8481 531.414 69.6334 532.199 69.8952Z" fill="#EFEFEF"/>
<path opacity="0.48" d="M498.167 81.1517C499.758 81.1517 501.047 79.8624 501.047 78.2721C501.047 76.6818 499.758 75.3925 498.167 75.3925C496.577 75.3925 495.288 76.6818 495.288 78.2721C495.288 79.8624 496.577 81.1517 498.167 81.1517Z" fill="#EFEFEF"/>
<path opacity="0.48" d="M863.874 230.105C864.66 229.843 864.921 229.057 864.921 228.272C864.66 227.487 863.874 227.225 863.089 227.225C862.304 227.487 862.042 228.272 862.042 229.057C862.304 230.105 863.089 230.366 863.874 230.105Z" fill="#EFEFEF"/>
<path opacity="0.48" d="M807.068 198.167C807.853 197.906 808.115 197.12 808.115 196.335C807.853 195.55 807.068 195.288 806.283 195.288C805.497 195.55 805.236 196.335 805.236 197.12C805.497 198.167 806.283 198.429 807.068 198.167Z" fill="#EFEFEF"/>
<path opacity="0.48" d="M848.168 163.874C848.953 163.612 849.215 162.827 849.215 162.042C848.953 161.256 848.168 160.995 847.382 160.995C846.597 161.256 846.335 162.042 846.335 162.827C846.597 163.612 847.382 164.136 848.168 163.874Z" fill="#EFEFEF"/>
<path opacity="0.48" d="M818.586 189.529C819.372 189.267 819.634 188.482 819.634 187.696C819.372 186.911 818.586 186.649 817.801 186.649C817.016 186.911 816.754 187.696 816.754 188.482C817.016 189.529 817.801 189.79 818.586 189.529Z" fill="#EFEFEF"/>
<path opacity="0.48" d="M900.524 35.0784C901.309 35.0784 901.833 34.5548 902.094 33.7695C902.094 32.9841 901.571 32.4606 900.785 32.1988C900 32.1988 899.476 32.7224 899.215 33.5077C898.953 34.5548 899.738 35.0784 900.524 35.0784Z" fill="#EFEFEF"/>
<path opacity="0.48" d="M884.293 59.424C885.078 59.424 885.602 58.9005 885.864 58.1151C885.864 57.3298 885.34 56.8062 884.555 56.5444C883.77 56.5444 883.246 57.068 882.984 57.8533C882.984 58.9005 883.508 59.424 884.293 59.424Z" fill="#EFEFEF"/>
<path opacity="0.48" d="M852.094 69.3717C852.88 69.3717 853.403 68.8481 853.665 68.0627C853.665 67.2774 853.141 66.7538 852.356 66.4921C851.571 66.4921 851.047 67.0156 850.785 67.801C850.785 68.5863 851.309 69.3717 852.094 69.3717Z" fill="#EFEFEF"/>
<path opacity="0.48" d="M818.063 153.403C818.848 153.665 819.634 153.141 819.634 152.356C819.895 151.571 819.372 150.785 818.586 150.785C817.801 150.785 817.016 151.047 817.016 151.832C816.754 152.618 817.277 153.403 818.063 153.403Z" fill="#EFEFEF"/>
<path opacity="0.48" d="M848.429 105.497C849.215 105.497 849.738 104.974 850 104.188C850 103.403 849.476 102.879 848.691 102.618C847.906 102.618 847.382 103.141 847.12 103.927C847.12 104.712 847.644 105.497 848.429 105.497Z" fill="#EFEFEF"/>
<path opacity="0.48" d="M767.016 65.9685C767.801 65.9685 768.325 65.4449 768.586 64.6596C768.586 63.8743 768.063 63.3507 767.277 63.0889C766.492 63.0889 765.969 63.6125 765.707 64.3978C765.445 65.4449 766.23 65.9685 767.016 65.9685Z" fill="#EFEFEF"/>
<path opacity="0.48" d="M923.298 141.099C924.084 141.099 924.607 140.576 924.869 139.79C924.869 139.005 924.346 138.482 923.56 138.22C922.775 138.22 922.251 138.743 921.99 139.529C921.728 140.576 922.513 141.099 923.298 141.099Z" fill="#EFEFEF"/>
<path opacity="0.48" d="M906.021 140.314C906.806 140.314 907.33 139.79 907.592 139.005C907.592 138.22 907.068 137.696 906.283 137.434C905.497 137.434 904.974 137.958 904.712 138.743C904.712 139.529 905.236 140.314 906.021 140.314Z" fill="#EFEFEF"/>
<path opacity="0.48" d="M918.325 97.1203C919.11 97.3821 919.895 96.8585 919.895 96.0732C920.157 95.2878 919.634 94.5025 918.848 94.5025C918.063 94.2407 917.278 94.7643 917.278 95.5496C917.016 96.335 917.539 97.1203 918.325 97.1203Z" fill="#EFEFEF"/>
<path opacity="0.48" d="M806.544 117.016C807.33 117.016 807.853 116.492 808.115 115.707C808.115 114.921 807.592 114.398 806.806 114.136C806.021 114.136 805.497 114.66 805.236 115.445C805.236 116.23 805.759 117.016 806.544 117.016Z" fill="#EFEFEF"/>
<path opacity="0.48" d="M887.173 105.497C887.173 103.927 885.864 102.618 884.293 102.618C882.722 102.618 881.414 103.927 881.414 105.497C881.414 107.068 882.722 108.377 884.293 108.377C885.864 108.377 887.173 107.068 887.173 105.497Z" fill="#EFEFEF"/>
<path opacity="0.48" d="M340.576 321.466C340.576 319.895 339.267 318.586 337.696 318.586C336.126 318.586 334.817 319.895 334.817 321.466C334.817 323.037 336.126 324.346 337.696 324.346C339.267 324.346 340.576 323.037 340.576 321.466Z" fill="#EFEFEF"/>
<path d="M601.832 458.639C619.905 458.639 634.555 443.871 634.555 425.654C634.555 407.438 619.905 392.67 601.832 392.67C583.76 392.67 569.11 407.438 569.11 425.654C569.11 443.871 583.76 458.639 601.832 458.639Z" fill="#EFEFEF"/>
<path d="M806.021 383.246C824.093 383.246 838.744 368.478 838.744 350.262C838.744 332.045 824.093 317.277 806.021 317.277C787.949 317.277 773.299 332.045 773.299 350.262C773.299 368.478 787.949 383.246 806.021 383.246Z" fill="#EFEFEF"/>
<path d="M645.811 452.879C670.1 452.879 689.79 432.955 689.79 408.377C689.79 383.799 670.1 363.874 645.811 363.874C621.522 363.874 601.832 383.799 601.832 408.377C601.832 432.955 621.522 452.879 645.811 452.879Z" fill="#EFEFEF"/>
<path d="M211.78 383.246C229.852 383.246 244.503 368.478 244.503 350.262C244.503 332.045 229.852 317.277 211.78 317.277C193.708 317.277 179.058 332.045 179.058 350.262C179.058 368.478 193.708 383.246 211.78 383.246Z" fill="#EFEFEF"/>
<path d="M348.168 442.147C366.24 442.147 380.89 427.379 380.89 409.162C380.89 390.946 366.24 376.178 348.168 376.178C330.095 376.178 315.445 390.946 315.445 409.162C315.445 427.379 330.095 442.147 348.168 442.147Z" fill="#EFEFEF"/>
<path d="M410.995 465.183C435.284 465.183 454.974 445.259 454.974 420.681C454.974 396.102 435.284 376.178 410.995 376.178C386.706 376.178 367.016 396.102 367.016 420.681C367.016 445.259 386.706 465.183 410.995 465.183Z" fill="#EFEFEF"/>
<path d="M282.461 430.366C309.641 430.366 331.675 408.098 331.675 380.628C331.675 353.159 309.641 330.89 282.461 330.89C255.28 330.89 233.246 353.159 233.246 380.628C233.246 408.098 255.28 430.366 282.461 430.366Z" fill="#EFEFEF"/>
<path d="M127.749 422.251C160.568 422.251 187.173 395.412 187.173 362.304C187.173 329.195 160.568 302.356 127.749 302.356C94.9297 302.356 68.3246 329.195 68.3246 362.304C68.3246 395.412 94.9297 422.251 127.749 422.251Z" fill="#EFEFEF"/>
<path d="M730.89 430.366C760.528 430.366 784.555 406.105 784.555 376.178C784.555 346.25 760.528 321.989 730.89 321.989C701.252 321.989 677.225 346.25 677.225 376.178C677.225 406.105 701.252 430.366 730.89 430.366Z" fill="#EFEFEF"/>
<path d="M886.126 421.204C916.632 421.204 941.361 396.24 941.361 365.445C941.361 334.65 916.632 309.686 886.126 309.686C855.62 309.686 830.89 334.65 830.89 365.445C830.89 396.24 855.62 421.204 886.126 421.204Z" fill="#EFEFEF"/>
<path d="M85.8639 342.67C85.8639 342.67 47.3822 432.984 67.0157 541.361H943.194C943.194 541.361 962.042 443.717 925.393 345.288L757.068 360.471L560.209 430.366L380.105 414.66L124.346 328.272L85.8639 342.67Z" fill="#EFEFEF"/>
<path d="M342.408 485.602C360.481 485.602 375.131 470.834 375.131 452.618C375.131 434.401 360.481 419.633 342.408 419.633C324.336 419.633 309.686 434.401 309.686 452.618C309.686 470.834 324.336 485.602 342.408 485.602Z" fill="white"/>
<path d="M659.424 492.408C677.641 492.408 692.408 477.406 692.408 458.9C692.408 440.395 677.641 425.393 659.424 425.393C641.207 425.393 626.44 440.395 626.44 458.9C626.44 477.406 641.207 492.408 659.424 492.408Z" fill="white"/>
<path d="M607.592 485.34C621.76 485.34 633.246 473.737 633.246 459.424C633.246 445.111 621.76 433.508 607.592 433.508C593.423 433.508 581.937 445.111 581.937 459.424C581.937 473.737 593.423 485.34 607.592 485.34Z" fill="white"/>
<path d="M437.173 495.026C449.751 495.026 459.948 484.829 459.948 472.251C459.948 459.673 449.751 449.476 437.173 449.476C424.594 449.476 414.398 459.673 414.398 472.251C414.398 484.829 424.594 495.026 437.173 495.026Z" fill="white"/>
<path d="M394.503 484.293C407.081 484.293 417.277 474.096 417.277 461.518C417.277 448.94 407.081 438.743 394.503 438.743C381.924 438.743 371.728 448.94 371.728 461.518C371.728 474.096 381.924 484.293 394.503 484.293Z" fill="white"/>
<path d="M814.398 473.298C838.687 473.298 858.377 453.374 858.377 428.796C858.377 404.218 838.687 384.293 814.398 384.293C790.109 384.293 770.419 404.218 770.419 428.796C770.419 453.374 790.109 473.298 814.398 473.298Z" fill="white"/>
<path d="M732.461 477.749C759.063 477.749 780.628 455.949 780.628 429.057C780.628 402.166 759.063 380.366 732.461 380.366C705.858 380.366 684.293 402.166 684.293 429.057C684.293 455.949 705.858 477.749 732.461 477.749Z" fill="white"/>
<path d="M112.827 485.864C142.465 485.864 166.492 461.603 166.492 431.675C166.492 401.748 142.465 377.487 112.827 377.487C83.1889 377.487 59.1623 401.748 59.1623 431.675C59.1623 461.603 83.1889 485.864 112.827 485.864Z" fill="white"/>
<path d="M206.283 460.995C233.174 460.995 254.974 438.96 254.974 411.78C254.974 384.599 233.174 362.565 206.283 362.565C179.391 362.565 157.592 384.599 157.592 411.78C157.592 438.96 179.391 460.995 206.283 460.995Z" fill="white"/>
<path d="M287.173 474.345C308.859 474.345 326.44 456.531 326.44 434.555C326.44 412.579 308.859 394.764 287.173 394.764C265.486 394.764 247.906 412.579 247.906 434.555C247.906 456.531 265.486 474.345 287.173 474.345Z" fill="white"/>
<path d="M898.691 479.843C930.064 479.843 955.497 454.175 955.497 422.513C955.497 390.851 930.064 365.183 898.691 365.183C867.318 365.183 841.885 390.851 841.885 422.513C841.885 454.175 867.318 479.843 898.691 479.843Z" fill="white"/>
<path d="M949.738 415.183L763.613 428.534L637.696 460.733L437.173 471.989L199.738 412.304L59.424 431.414C59.424 431.414 62.8272 525.131 64.6596 541.099H946.335C946.073 541.623 958.639 476.178 949.738 415.183Z" fill="white"/>
<path d="M590.576 466.23C554.188 419.633 552.618 302.094 552.618 302.094L457.853 302.618C457.853 302.618 451.309 424.345 429.057 472.513L590.576 466.23Z" fill="white"/>
<path d="M451.309 142.932C451.309 142.932 394.241 176.963 389.529 274.346C389.005 286.126 404.974 290.576 410.471 279.843C411.518 277.749 412.565 275.654 413.613 273.298C424.869 247.12 445.55 243.455 445.55 243.455C445.55 243.455 445.55 179.581 451.309 142.932Z" fill="#B3B2B2"/>
<path opacity="0.42" d="M403.927 224.345C401.832 230.628 400.262 237.173 400 243.979C400 244.503 400 244.764 400.262 245.288C400.785 246.073 402.094 246.073 402.88 245.288C403.665 244.503 403.927 243.455 403.927 242.67C407.853 224.084 416.492 206.544 428.534 191.885C433.246 186.126 439.005 180.89 442.408 174.084C444.764 169.372 445.288 162.304 437.958 165.183C431.937 167.801 428.01 175.654 424.607 180.628C420.419 186.911 416.492 193.717 413.351 200.523C409.686 208.377 406.545 216.23 403.927 224.345Z" fill="#B3B2B2"/>
<path d="M559.424 142.67C559.424 142.67 616.754 176.44 621.728 273.822C622.251 285.602 606.283 290.052 600.785 279.581C599.738 277.487 598.691 275.393 597.644 273.037C586.126 247.12 565.445 243.456 565.445 243.456C565.445 243.456 565.445 179.319 559.424 142.67Z" fill="#B3B2B2"/>
<path opacity="0.42" d="M608.639 223.822C610.733 230.105 612.304 236.649 612.565 243.456C612.565 243.979 612.565 244.241 612.304 244.764C611.78 245.55 610.471 245.55 609.686 244.764C608.9 243.979 608.639 242.932 608.639 242.147C604.712 223.56 596.073 206.021 583.77 191.361C579.058 185.602 573.298 180.367 569.895 173.56C567.539 168.848 567.016 161.78 574.084 164.66C580.105 167.278 584.031 175.131 587.434 180.105C591.623 186.387 595.55 192.932 598.953 200C602.88 207.853 606.021 215.707 608.639 223.822Z" fill="#B3B2B2"/>
<path d="M559.686 302.094L451.832 302.356C448.953 302.356 446.597 299.738 446.859 296.859L451.571 252.618L559.424 252.356L564.398 296.597C564.921 299.476 562.827 302.094 559.686 302.094Z" fill="#5AD5A1"/>
<path d="M510.995 12.5654C507.33 9.9476 502.618 9.9476 499.215 12.5654C492.67 17.2774 481.414 28.7958 470.942 55.2356L539.791 54.9738C529.058 28.7958 517.801 17.2774 510.995 12.5654Z" fill="#B3B2B2"/>
<path d="M539.529 55.2355L470.681 55.4973C457.33 89.2669 445.026 147.644 445.026 248.167C445.026 250.785 447.12 252.88 449.738 252.88L561.78 252.618C564.398 252.618 566.492 250.523 566.492 247.906C565.707 147.12 553.141 89.0052 539.529 55.2355Z" fill="#EFEFEF"/>
<path d="M507.383 150.262C527.046 150.233 542.962 134.269 542.932 114.607C542.903 94.9442 526.94 79.0284 507.277 79.0577C487.615 79.087 471.699 95.0504 471.728 114.713C471.758 134.375 487.721 150.291 507.383 150.262Z" fill="#808080"/>
<path d="M521.252 141.822C538.875 133.104 546.094 111.749 537.376 94.1258C528.657 76.5023 507.303 69.2832 489.68 78.0016C472.056 86.7199 464.837 108.074 473.555 125.698C482.274 143.321 503.628 150.54 521.252 141.822Z" fill="#D1D1D1"/>
<path d="M526.963 109.948C526.963 97.9057 517.278 88.4816 505.236 88.4816C493.194 88.4816 483.77 98.1675 483.77 110.209C483.77 122.251 493.456 131.675 505.497 131.675C517.278 131.414 526.963 121.728 526.963 109.948Z" fill="#5AD5A1"/>
<g opacity="0.47">
<path opacity="0.47" d="M539.529 55.2355C528.796 28.7957 517.539 17.5392 510.995 12.5654C509.424 11.5183 507.854 10.9947 506.021 10.7329C525.916 58.6387 537.696 110.209 540.314 162.042C540.576 167.277 540.576 173.56 536.649 177.225C534.817 179.058 532.461 180.105 530.367 181.675C524.084 186.649 523.56 196.073 523.56 204.188C523.822 220.157 524.346 236.387 525.393 252.356H561.518C564.136 252.356 566.23 250.262 566.23 247.644C565.707 147.12 553.141 89.0052 539.529 55.2355Z" fill="#B3B2B2"/>
</g>
<path d="M505.759 285.34C499.738 285.34 497.644 280.367 497.644 274.346L494.764 165.445C494.764 159.424 499.476 154.45 505.497 154.45C511.518 154.45 516.23 159.424 516.23 165.445L513.874 274.607C513.874 280.367 511.78 285.34 505.759 285.34Z" fill="#B3B2B2"/>
<path opacity="0.42" d="M499.477 162.827C498.953 164.136 498.953 165.707 498.953 167.016C498.691 176.702 498.168 186.387 500 196.073C500.262 197.382 500.785 198.953 502.094 198.953C502.88 199.215 503.927 198.429 504.45 197.906C504.974 197.12 504.974 196.335 505.236 195.288C506.283 187.173 506.021 178.796 508.377 170.942C508.901 169.11 509.686 167.277 509.686 165.445C509.948 163.613 509.424 161.518 507.853 160.209C505.236 157.853 500.524 159.948 499.477 162.827Z" fill="#B3B2B2"/>
</g>
<defs>
<linearGradient id="paint0_linear" x1="130.5" y1="229.5" x2="856" y2="231.5" gradientUnits="userSpaceOnUse">
<stop stop-color="#E53654"/>
<stop offset="0.505208" stop-color="#7B839F"/>
<stop offset="1" stop-color="#5AD5A1"/>
</linearGradient>
<clipPath id="clip0">
<rect width="1000" height="490" fill="white"/>
</clipPath>
</defs>
</svg>
