<svg width="1500" height="301" viewBox="0 0 1500 301" fill="none" xmlns="http://www.w3.org/2000/svg">
<path fill-rule="evenodd" clip-rule="evenodd" d="M0 301H1500V55.2976C1482.6 29.6458 1453.38 12.8143 1420.26 12.8143C1382.94 12.8143 1350.56 34.1858 1334.49 65.4666C1326.9 42.5815 1305.47 26.0862 1280.22 26.0862C1252.46 26.0862 1229.32 46.0158 1224.11 72.4544C1207 49.3101 1179.67 34.3243 1148.87 34.3243C1097.06 34.3243 1055.05 76.7385 1055.05 129.059C1055.05 129.68 1055.06 130.301 1055.07 130.919C1041.11 116.498 1021.65 107.549 1000.13 107.549C967.145 107.549 939.01 128.57 928.095 158.096C926.497 157.96 924.879 157.891 923.246 157.891C891.651 157.891 866.039 183.709 866.039 215.556C866.039 216.458 866.059 217.355 866.1 218.247L850.479 223.794L666.496 207.749C666.5 207.453 666.501 207.157 666.501 206.861C666.501 163.892 632.078 129.059 589.615 129.059C565.313 129.059 543.644 140.469 529.554 158.283C519.719 140.831 501.112 129.059 479.778 129.059C469.263 129.059 459.411 131.918 450.945 136.908V136.839C450.945 88.8157 412.424 49.8849 364.906 49.8849C338.172 49.8849 314.286 62.2076 298.505 81.5395C297.352 50.717 272.199 26.0862 241.339 26.0862C217.795 26.0862 197.573 40.4232 188.796 60.9085C172.334 24.9513 136.271 0 94.4316 0C52.5352 0 16.4313 25.0193 0 61.0555V301Z" fill="#F7F7F7"/>
</svg>
