<svg width="128" height="106" viewBox="0 0 128 106" fill="none" xmlns="http://www.w3.org/2000/svg">
<g clip-path="url(#clip0)">
<path d="M41.4524 39.4096L34.9551 35.6077L66.5054 37.1398L41.4524 39.4096Z" fill="#EFEFEF"/>
<path d="M41.4525 39.4097L40.6013 45.7935L43.5521 42.1618L66.5055 37.1399L41.4525 39.4097Z" fill="#C6C6C6"/>
<path d="M40.6013 45.7933L44.8288 44.4882L43.5521 42.1616L40.6013 45.7933Z" fill="#B3B2B2"/>
<path d="M43.552 42.1618L45.3111 51.156L66.5054 37.1399L43.552 42.1618Z" fill="#EFEFEF"/>
<path d="M59.4406 61.1713L51.9219 61.3699L79.5 45.9919L59.4406 61.1713Z" fill="#EFEFEF"/>
<path d="M59.4407 61.1713L62.1077 67.016L62.6751 62.3629L79.5001 45.9919L59.4407 61.1713Z" fill="#C6C6C6"/>
<path d="M62.1077 67.0162L65.0017 63.6682L62.6751 62.363L62.1077 67.0162Z" fill="#B3B2B2"/>
<path d="M62.675 62.3629L68.917 69.0872L79.5 45.9919L62.675 62.3629Z" fill="#EFEFEF"/>
<path d="M61.0578 97.233L53.6809 98.7651L72.7756 79.5852L61.0578 97.233Z" fill="#EFEFEF"/>
<path d="M61.0576 97.233L63.4409 102.907L64.4623 97.8571L72.7755 79.5852L61.0576 97.233Z" fill="#C6C6C6"/>
<path d="M63.4412 102.908L66.9877 98.7084L64.4626 97.8572L63.4412 102.908Z" fill="#B3B2B2"/>
<path d="M64.4624 97.8572L73.4565 102.482L72.7756 79.5852L64.4624 97.8572Z" fill="#EFEFEF"/>
<path d="M16.0872 58.6178L9.81689 54.447L36.8843 54.5321L16.0872 58.6178Z" fill="#EFEFEF"/>
<path d="M16.0873 58.6179L13.7324 64.2924L18.0451 61.4551L36.8844 54.5322L16.0873 58.6179Z" fill="#C6C6C6"/>
<path d="M13.7324 64.2923L19.2083 63.8668L18.0451 61.4551L13.7324 64.2923Z" fill="#B3B2B2"/>
<path d="M18.0449 61.4551L21.0808 71.1302L36.8843 54.5322L18.0449 61.4551Z" fill="#EFEFEF"/>
<path d="M5.16381 35.9764L0 30.5005L29.848 40.8565L5.16381 35.9764Z" fill="#EFEFEF"/>
<path d="M5.16394 35.9763L2.58203 41.8778L6.41233 39.2108L29.8481 40.8564L5.16394 35.9763Z" fill="#C6C6C6"/>
<path d="M2.58203 41.878L7.00816 41.8212L6.41233 39.2109L2.58203 41.878Z" fill="#B3B2B2"/>
<path d="M6.41221 39.2109L5.56104 48.3185L29.848 40.8565L6.41221 39.2109Z" fill="#EFEFEF"/>
<path d="M98.6232 101.319L102.936 106L96.0129 80.1526L98.6232 101.319Z" fill="#EFEFEF"/>
<path d="M98.6232 101.319L93.4878 103.134L95.9846 100.042L96.0129 80.1526L98.6232 101.319Z" fill="#C6C6C6"/>
<path d="M93.4878 103.134L93.7999 99.3892L95.9846 100.042L93.4878 103.134Z" fill="#B3B2B2"/>
<path d="M95.9845 100.042L88.2104 100.212L96.0129 80.1526L95.9845 100.042Z" fill="#EFEFEF"/>
<path d="M111.334 16.9383C111.306 16.9383 111.277 16.9383 111.249 16.9099C111.164 16.8532 111.136 16.768 111.164 16.6829C111.476 16.0871 111.646 15.7466 111.646 15.7466C111.675 15.6615 111.788 15.6331 111.873 15.6615C111.958 15.6899 111.987 15.8034 111.958 15.8885C111.958 15.8885 111.788 16.229 111.476 16.8532C111.448 16.9099 111.391 16.9383 111.334 16.9383Z" fill="#C6C6C6"/>
<path d="M31.7206 98.2825C31.6355 98.2825 31.5787 98.2257 31.5503 98.169C31.522 98.0839 31.5787 97.9704 31.6638 97.942C32.3448 97.715 33.0257 97.4881 33.6783 97.2611C33.7634 97.2327 33.8769 97.2895 33.9053 97.3746C33.9336 97.4597 33.8769 97.5732 33.7918 97.6015C33.1108 97.8285 32.4299 98.0555 31.749 98.2825C31.749 98.2825 31.749 98.2825 31.7206 98.2825ZM35.7495 96.8922C35.6644 96.8922 35.6076 96.8355 35.5793 96.7787C35.5509 96.6936 35.5793 96.5801 35.6927 96.5518C36.3453 96.2964 37.0263 96.0411 37.6788 95.7857C37.7639 95.7573 37.8774 95.7857 37.9058 95.8708C37.9342 95.9559 37.9058 96.0694 37.8207 96.0978C37.1681 96.3532 36.4872 96.6085 35.8346 96.8639C35.8062 96.8922 35.7779 96.8922 35.7495 96.8922ZM39.7217 95.3034C39.6649 95.3034 39.5798 95.275 39.5514 95.1899C39.523 95.1048 39.5514 94.9913 39.6365 94.9629C40.2891 94.6792 40.9417 94.3954 41.5942 94.1117C41.6794 94.0834 41.7929 94.1117 41.8212 94.1968C41.8496 94.282 41.8212 94.3954 41.7361 94.4238C41.0835 94.7075 40.431 95.0196 39.7784 95.275C39.75 95.3034 39.75 95.3034 39.7217 95.3034ZM43.6087 93.5443C43.552 93.5443 43.4668 93.5159 43.4385 93.4308C43.3817 93.3457 43.4385 93.2322 43.5236 93.2038C44.1478 92.8917 44.8004 92.5796 45.4245 92.2391C45.5097 92.1824 45.6232 92.2391 45.6515 92.3242C45.7083 92.4094 45.6515 92.5229 45.5664 92.5512C44.9422 92.8633 44.2896 93.2038 43.6654 93.5159C43.6654 93.5159 43.6371 93.5443 43.6087 93.5443ZM47.3823 91.5866C47.3255 91.5866 47.2688 91.5582 47.2404 91.5014C47.1836 91.4163 47.212 91.3028 47.2971 91.2745C47.9213 90.934 48.5455 90.5935 49.1697 90.2247C49.2548 90.1679 49.3683 90.1963 49.4251 90.2814C49.4818 90.3665 49.4535 90.48 49.3683 90.5368C48.7441 90.9056 48.1199 91.2461 47.4957 91.5866C47.4674 91.5866 47.439 91.5866 47.3823 91.5866ZM51.0991 89.4586C51.0423 89.4586 50.9856 89.4302 50.9572 89.3735C50.9005 89.2884 50.9288 89.1749 51.0139 89.1181C51.6098 88.7493 52.234 88.3805 52.8298 87.9832C52.9149 87.9265 53.0284 87.9549 53.0851 88.04C53.1419 88.1251 53.1135 88.2386 53.0284 88.2953C52.4326 88.6642 51.8084 89.0614 51.2126 89.4302C51.1558 89.4302 51.1274 89.4586 51.0991 89.4586ZM54.7024 87.1321C54.6456 87.1321 54.5889 87.1037 54.5605 87.0469C54.5038 86.9618 54.5321 86.8483 54.6173 86.7916C55.2131 86.3944 55.8089 85.9972 56.3764 85.5716C56.4615 85.5148 56.575 85.5432 56.6317 85.5999C56.6885 85.6851 56.6601 85.7986 56.6033 85.8553C56.0359 86.2525 55.4401 86.6781 54.8442 87.0753C54.7591 87.1321 54.7308 87.1321 54.7024 87.1321ZM58.1922 84.6636C58.1355 84.6636 58.0787 84.6353 58.0504 84.5785C57.9936 84.4934 58.022 84.3799 58.0787 84.3232C58.6462 83.8976 59.2136 83.472 59.7811 83.0464C59.8662 82.9897 59.9797 82.9897 60.0364 83.0748C60.0932 83.1599 60.0932 83.2734 60.0081 83.3301C59.4406 83.7557 58.8732 84.2097 58.3057 84.6353C58.249 84.6636 58.2206 84.6636 58.1922 84.6636ZM61.5402 82.0534C61.4834 82.0534 61.4267 82.025 61.3983 81.9966C61.3416 81.9115 61.3416 81.798 61.4267 81.7413C61.9658 81.2873 62.5332 80.8333 63.0723 80.3794C63.1574 80.3226 63.2709 80.3226 63.3277 80.4078C63.3844 80.4929 63.3844 80.6064 63.2993 80.6631C62.7602 81.1171 62.1927 81.5994 61.6537 82.025C61.6253 82.025 61.5969 82.0534 61.5402 82.0534ZM64.803 79.2729C64.7463 79.2729 64.7179 79.2445 64.6612 79.2161C64.6044 79.131 64.6044 79.0175 64.6612 78.9608C65.2002 78.4784 65.7109 77.9961 66.2217 77.5138C66.3068 77.457 66.3919 77.457 66.477 77.5138C66.5338 77.5989 66.5338 77.684 66.477 77.7691C65.9663 78.2514 65.4272 78.7338 64.8881 79.2161C64.8881 79.2445 64.8314 79.2729 64.803 79.2729ZM67.8956 76.3505C67.8389 76.3505 67.8105 76.3221 67.7821 76.2937C67.7254 76.237 67.7254 76.1235 67.7821 76.0384C68.2929 75.556 68.8036 75.0453 69.2859 74.5346C69.3426 74.4779 69.4561 74.4495 69.5412 74.5346C69.598 74.5914 69.6264 74.7049 69.5412 74.79C69.0589 75.3007 68.5482 75.8114 68.0375 76.3221C67.9808 76.3221 67.9524 76.3505 67.8956 76.3505ZM70.8748 73.2862C70.818 73.2862 70.7896 73.2579 70.7613 73.2295C70.6761 73.1727 70.6761 73.0593 70.7613 72.9741C71.2436 72.4634 71.7259 71.9244 72.1799 71.3853C72.2366 71.3002 72.3501 71.3002 72.4353 71.3569C72.5204 71.4136 72.5204 71.5271 72.4636 71.6123C71.9813 72.1513 71.499 72.6904 71.0166 73.2011C70.9599 73.2579 70.9315 73.2862 70.8748 73.2862ZM73.712 70.0801C73.6836 70.0801 73.6269 70.0801 73.5985 70.0518C73.5134 69.995 73.5134 69.8815 73.5702 69.7964C74.0241 69.2573 74.4781 68.6899 74.932 68.1508C74.9888 68.0657 75.1023 68.0657 75.1874 68.1224C75.2725 68.1792 75.2725 68.2927 75.2158 68.3778C74.7618 68.9452 74.3078 69.4843 73.8539 70.0234C73.7971 70.0518 73.7404 70.0801 73.712 70.0801ZM76.3507 66.7322C76.3223 66.7322 76.2656 66.7322 76.2372 66.7038C76.1521 66.647 76.1521 66.5336 76.2088 66.4484C76.6344 65.881 77.06 65.3135 77.4856 64.7461C77.5423 64.661 77.6558 64.661 77.7409 64.7177C77.826 64.7745 77.826 64.8879 77.7693 64.9731C77.3437 65.5405 76.9181 66.1363 76.4925 66.7038C76.4642 66.7038 76.4074 66.7322 76.3507 66.7322ZM78.8475 63.2707C78.8191 63.2707 78.7907 63.2707 78.734 63.2423C78.6488 63.1856 78.6205 63.0721 78.6772 62.987C79.0744 62.3912 79.4717 61.7953 79.8405 61.1995C79.8972 61.1144 80.0107 61.086 80.0958 61.1428C80.181 61.1995 80.2093 61.313 80.1526 61.3981C79.7838 61.9939 79.3865 62.5898 78.9609 63.1856C78.9609 63.2423 78.9042 63.2707 78.8475 63.2707ZM81.174 59.6674C81.1456 59.6674 81.1173 59.6674 81.0889 59.639C81.0038 59.5823 80.9754 59.4688 81.0321 59.3837C81.401 58.7595 81.7698 58.1636 82.1103 57.5394C82.167 57.4543 82.2805 57.426 82.3657 57.4827C82.4508 57.5394 82.4791 57.6529 82.4224 57.7381C82.0819 58.3623 81.7131 58.9581 81.3442 59.5823C81.2875 59.639 81.2308 59.6674 81.174 59.6674ZM83.2736 55.9506C83.2452 55.9506 83.2168 55.9506 83.1885 55.9222C83.1033 55.8655 83.075 55.7803 83.1033 55.6952C83.4438 55.071 83.7559 54.4185 84.068 53.7943C84.1248 53.7091 84.2099 53.6808 84.295 53.7091C84.3801 53.7659 84.4085 53.851 84.3801 53.9361C84.068 54.5603 83.7559 55.2129 83.4154 55.8371C83.3871 55.9222 83.3303 55.9506 83.2736 55.9506ZM85.1462 52.0919C85.1178 52.0919 85.0894 52.0919 85.0611 52.0635C84.9759 52.0352 84.9192 51.9217 84.9759 51.8366C85.2597 51.184 85.5434 50.5314 85.7987 49.8788C85.8271 49.7937 85.9406 49.737 86.0257 49.7937C86.1108 49.8221 86.1676 49.9356 86.1108 50.0207C85.8555 50.6733 85.5718 51.3259 85.288 52.0068C85.2597 52.0635 85.2029 52.0919 85.1462 52.0919ZM86.7067 48.1481C86.6783 48.1481 86.6783 48.1481 86.6499 48.1481C86.5648 48.1197 86.5081 48.0063 86.5364 47.9211C86.7634 47.2402 86.9904 46.5593 87.189 45.9067C87.2174 45.8216 87.3025 45.7648 87.416 45.7932C87.5011 45.8216 87.5578 45.9067 87.5295 46.0202C87.3309 46.7011 87.1039 47.3821 86.8769 48.063C86.8485 48.0914 86.7918 48.1481 86.7067 48.1481ZM87.9551 44.0341H87.9267C87.8416 44.0057 87.7848 43.9206 87.7848 43.8071C87.9551 43.0978 88.0969 42.4169 88.2104 41.7359C88.2388 41.6508 88.3239 41.5657 88.409 41.5941C88.4941 41.6224 88.5793 41.7075 88.5509 41.7927C88.4374 42.4736 88.2672 43.1829 88.0969 43.8922C88.0969 43.9773 88.0118 44.0341 87.9551 44.0341ZM84.7773 40.2889C84.2666 40.2889 83.7275 40.2605 83.2168 40.2038C83.1317 40.2038 83.0466 40.1187 83.0466 40.0052C83.0466 39.9201 83.1317 39.8349 83.2452 39.8349C83.9545 39.9201 84.6355 39.9201 85.3448 39.8917C85.4299 39.8917 85.515 39.9768 85.515 40.0619C85.515 40.147 85.4299 40.2322 85.3448 40.2322C85.2029 40.2889 84.9759 40.2889 84.7773 40.2889ZM87.5011 40.0336C87.416 40.0336 87.3309 39.9768 87.3309 39.8917C87.3025 39.8066 87.3876 39.6931 87.4727 39.6931C87.8132 39.6363 88.182 39.5512 88.5225 39.4661C88.5793 38.8135 88.6076 38.161 88.6076 37.5368C88.6076 37.4517 88.6927 37.3665 88.7779 37.3665C88.863 37.3665 88.9481 37.4517 88.9481 37.5368C88.9481 38.1326 88.9197 38.7284 88.863 39.3526C89.0616 39.2959 89.2886 39.2391 89.4872 39.154C89.5723 39.1256 89.6858 39.1824 89.7142 39.2675C89.7425 39.3526 89.6858 39.4661 89.6007 39.4945C89.3453 39.5796 89.09 39.6647 88.8062 39.7215C88.7779 39.7782 88.6927 39.835 88.636 39.8066C88.6076 39.8066 88.5793 39.8066 88.5509 39.7782C88.2104 39.8633 87.8416 39.9484 87.5011 40.0052C87.5295 40.0336 87.5295 40.0336 87.5011 40.0336ZM81.1456 39.8349C81.1173 39.8349 81.1173 39.8349 81.0889 39.8349C80.3512 39.6647 79.6703 39.4377 79.0461 39.1824C78.9609 39.154 78.9042 39.0405 78.9609 38.9554C78.9893 38.8703 79.1028 38.8135 79.1879 38.8703C79.8121 39.1256 80.4931 39.3242 81.2024 39.5229C81.2875 39.5512 81.3442 39.6363 81.3442 39.7498C81.3159 39.7782 81.2308 39.8349 81.1456 39.8349ZM91.5584 38.7568C91.5016 38.7568 91.4165 38.7284 91.3881 38.6433C91.3598 38.5582 91.3881 38.4447 91.4733 38.4163C92.0975 38.1326 92.7217 37.8205 93.3742 37.4517C93.4593 37.3949 93.5728 37.4233 93.6296 37.5084C93.6863 37.5935 93.6579 37.707 93.5728 37.7638C92.9486 38.1326 92.2961 38.4447 91.6435 38.7284C91.6151 38.7568 91.5868 38.7568 91.5584 38.7568ZM77.2302 38.2177C77.2019 38.2177 77.1735 38.2177 77.1451 38.1893C76.4925 37.7921 75.9251 37.3098 75.4711 36.8275C75.4144 36.7423 75.4144 36.6572 75.4711 36.5721C75.5279 36.5154 75.6414 36.5154 75.7265 36.5721C76.1804 37.0544 76.7195 37.5084 77.3437 37.8772C77.4288 37.934 77.4572 38.0475 77.4005 38.1326C77.3437 38.1893 77.287 38.2177 77.2302 38.2177ZM95.2752 36.6572C95.2184 36.6572 95.1617 36.6288 95.1333 36.5721C95.0766 36.487 95.1049 36.3735 95.1901 36.3167C95.7575 35.9195 96.325 35.4939 96.8924 35.0684C96.9775 35.0116 97.091 35.0116 97.1478 35.0967C97.2045 35.1818 97.2045 35.2953 97.1194 35.3521C96.5519 35.806 95.9561 36.2316 95.3887 36.6288C95.3603 36.6572 95.3036 36.6572 95.2752 36.6572ZM88.6927 35.5791C88.6076 35.5791 88.5225 35.5223 88.5225 35.4372C88.4374 34.6995 88.2955 34.0186 88.0969 33.366C88.0685 33.2809 88.1253 33.1674 88.2104 33.139C88.2955 33.1106 88.409 33.1674 88.4374 33.2525C88.636 33.9051 88.7779 34.6144 88.863 35.3805C88.863 35.4656 88.8062 35.5507 88.6927 35.5791ZM74.3362 35.1535C74.2795 35.1535 74.1944 35.1251 74.166 35.04C73.8539 34.3874 73.6269 33.6781 73.5418 32.9404C73.5418 32.8553 73.5985 32.7418 73.6836 32.7418C73.7971 32.7418 73.8823 32.7985 73.8823 32.8837C73.9674 33.5646 74.166 34.2455 74.4781 34.8697C74.5348 34.9549 74.4781 35.0684 74.393 35.0967C74.393 35.1535 74.3646 35.1535 74.3362 35.1535ZM98.6232 34.0186C98.5664 34.0186 98.538 33.9902 98.4813 33.9618C98.4245 33.8767 98.4245 33.7632 98.4813 33.7065C98.992 33.2525 99.5027 32.7418 100.013 32.2311C100.07 32.1743 100.184 32.1743 100.269 32.2311C100.326 32.2878 100.326 32.4013 100.269 32.4864C99.758 32.9972 99.219 33.5079 98.7083 33.9618C98.7083 33.9902 98.6799 34.0186 98.6232 34.0186ZM87.416 31.5218C87.3592 31.5218 87.3025 31.4934 87.2457 31.4367C86.9053 30.7841 86.5648 30.1599 86.196 29.5924C86.1392 29.5073 86.1676 29.3938 86.2527 29.3371C86.3378 29.2803 86.4513 29.3087 86.5081 29.3938C86.8769 29.9613 87.2457 30.5855 87.5862 31.2664C87.643 31.3515 87.5862 31.465 87.5011 31.4934C87.4727 31.5218 87.4444 31.5218 87.416 31.5218ZM101.659 30.9827C101.602 30.9827 101.574 30.9543 101.546 30.926C101.46 30.8692 101.46 30.7557 101.546 30.6706C101.999 30.1599 102.482 29.6208 102.936 29.0817C102.993 28.9966 103.106 28.9966 103.191 29.0534C103.276 29.1101 103.276 29.2236 103.22 29.3087C102.766 29.8762 102.283 30.4152 101.801 30.926C101.744 30.9827 101.716 30.9827 101.659 30.9827ZM73.7971 30.9827H73.7688C73.6836 30.9543 73.5985 30.8692 73.6269 30.7841C73.7688 30.0748 73.9957 29.3655 74.3362 28.7129C74.393 28.6278 74.4781 28.5994 74.5632 28.6278C74.6483 28.6845 74.6767 28.7696 74.6483 28.8548C74.3362 29.479 74.1092 30.1315 73.9674 30.8125C73.9674 30.926 73.8823 30.9827 73.7971 30.9827ZM85.0611 27.9752C85.0043 27.9752 84.9759 27.9468 84.9192 27.9185C84.4085 27.3794 83.8978 26.897 83.3587 26.5282C83.2736 26.4715 83.2736 26.358 83.3303 26.2729C83.3871 26.1877 83.5006 26.1877 83.5857 26.2445C84.1531 26.6417 84.6922 27.124 85.2029 27.6915C85.2597 27.7766 85.2597 27.8901 85.2029 27.9468C85.1462 27.9752 85.1178 27.9752 85.0611 27.9752ZM104.411 27.7199C104.383 27.7199 104.326 27.7199 104.298 27.6915C104.213 27.6347 104.213 27.5212 104.269 27.4361C104.695 26.897 105.12 26.3012 105.546 25.7338C105.603 25.6487 105.716 25.6487 105.801 25.7054C105.887 25.7621 105.887 25.8756 105.83 25.9608C105.404 26.5566 104.979 27.124 104.553 27.6631C104.525 27.6915 104.468 27.7199 104.411 27.7199ZM75.7265 27.2375C75.6697 27.2375 75.6414 27.2091 75.613 27.1808C75.5562 27.124 75.5279 27.0105 75.613 26.9254C76.1237 26.3863 76.7195 25.9324 77.3721 25.6203C77.4572 25.5635 77.5707 25.6203 77.5991 25.7054C77.6558 25.7905 77.5991 25.904 77.5139 25.9324C76.9181 26.2445 76.3507 26.6701 75.8683 27.1808C75.84 27.2091 75.7832 27.2375 75.7265 27.2375ZM81.5712 25.5919C81.5429 25.5919 81.5429 25.5919 81.5145 25.5919C81.0038 25.4217 80.4647 25.3366 79.9256 25.3366C79.7838 25.3366 79.6135 25.3366 79.4717 25.3649C79.3865 25.3649 79.3014 25.3082 79.273 25.1947C79.273 25.1096 79.3298 25.0245 79.4433 24.9961C79.6135 24.9677 79.7838 24.9677 79.9256 24.9677C80.4931 24.9677 81.0605 25.0528 81.628 25.2231C81.7131 25.2514 81.7698 25.3649 81.7415 25.45C81.7415 25.5352 81.6563 25.5919 81.5712 25.5919ZM106.936 24.2584C106.908 24.2584 106.88 24.2584 106.823 24.23C106.738 24.1733 106.709 24.0598 106.766 23.9747C107.163 23.4072 107.561 22.783 107.929 22.1872C107.986 22.1021 108.1 22.0737 108.185 22.1305C108.27 22.1872 108.298 22.3007 108.241 22.3858C107.844 22.9816 107.447 23.5775 107.05 24.1733C107.05 24.23 106.993 24.2584 106.936 24.2584ZM109.234 20.6835C109.206 20.6835 109.178 20.6835 109.149 20.6551C109.064 20.5983 109.036 20.4848 109.093 20.3997C109.461 19.7755 109.83 19.1513 110.171 18.5555C110.228 18.4704 110.313 18.442 110.426 18.4988C110.511 18.5555 110.54 18.669 110.483 18.7541C110.142 19.3783 109.774 20.0025 109.405 20.5983C109.348 20.6267 109.291 20.6835 109.234 20.6835Z" fill="#C6C6C6"/>
<path d="M37.8774 79.4716L30.5005 78.053L55.4967 67.697L37.8774 79.4716Z" fill="#EFEFEF"/>
<path d="M37.8774 79.4716L37.9058 85.6285L40.7998 81.3726L55.4968 67.697L37.8774 79.4716Z" fill="#C6C6C6"/>
<path d="M37.9058 85.6284L42.7858 83.1317L40.7998 81.3726L37.9058 85.6284Z" fill="#B3B2B2"/>
<path d="M40.7998 81.3726L47.2971 89.1183L55.4968 67.697L40.7998 81.3726Z" fill="#EFEFEF"/>
<path d="M80.181 72.6339L74.0242 76.0386L90.3384 51.3828L80.181 72.6339Z" fill="#EFEFEF"/>
<path d="M80.1809 72.6339L84.9191 76.3507L83.387 72.2367L90.3383 51.3828L80.1809 72.6339Z" fill="#C6C6C6"/>
<path d="M84.9193 76.3506L85.884 72.3217L83.3872 72.2366L84.9193 76.3506Z" fill="#B3B2B2"/>
<path d="M83.3872 72.2367L91.4734 75.1307L90.3385 51.3828L83.3872 72.2367Z" fill="#EFEFEF"/>
<path d="M107.447 15.4631L98.7649 13.5905L127.223 0L107.447 15.4631Z" fill="#E53654"/>
<path d="M107.447 15.4631L107.958 22.6697L110.795 17.7612L127.223 0L107.447 15.4631Z" fill="#CA2C47"/>
<path d="M107.958 22.6697L113.093 19.8892L110.795 17.7612L107.958 22.6697Z" fill="#B72840"/>
<path d="M110.795 17.7612L117.235 25.7907L127.223 0L110.795 17.7612Z" fill="#E53654"/>
</g>
<defs>
<clipPath id="clip0">
<rect width="127.223" height="106" fill="white"/>
</clipPath>
</defs>
</svg>
