<svg width="200" height="106" viewBox="0 0 200 106" fill="none" xmlns="http://www.w3.org/2000/svg">
<g opacity="0.14">
<path opacity="0.14" d="M84.1151 56.1709H77.5115V104.087H84.1151V56.1709Z" fill="#DB4FFF"/>
<path opacity="0.14" d="M66.4384 61.4456H59.8348V104.047H66.4384V61.4456Z" fill="#DB4FFF"/>
<path opacity="0.14" d="M48.7618 73.7266H42.1582V104.047H48.7618V73.7266Z" fill="#DB4FFF"/>
<path opacity="0.14" d="M31.0852 87.3767H24.4816V104.047H31.0852V87.3767Z" fill="#DB4FFF"/>
<path opacity="0.14" d="M101.228 50.0503H94.6245V104.087H101.228V50.0503Z" fill="#DB4FFF"/>
<path opacity="0.14" d="M118.381 43.0039H111.778V104.047H118.381V43.0039Z" fill="#DB4FFF"/>
<path opacity="0.14" d="M135.494 44.7756H128.891V104.087H135.494V44.7756Z" fill="#DB4FFF"/>
<path opacity="0.14" d="M152.607 30.6826H146.004V104.047H152.607V30.6826Z" fill="#DB4FFF"/>
<path opacity="0.14" d="M169.72 23.2334H163.117V104.047H169.72V23.2334Z" fill="#DB4FFF"/>
<path opacity="0.14" d="M186.833 3.46289H180.229V104.087H186.833V3.46289Z" fill="#DB4FFF"/>
</g>
<path d="M200 101.671H0V105.859H200V101.671Z" fill="#EFEFEF"/>
<path d="M65.7943 101.711H31.971C30.6825 101.711 29.6356 100.664 29.6356 99.3758V96.8391C29.6356 95.5506 30.6825 94.5037 31.971 94.5037H65.7943C67.0828 94.5037 68.1297 95.5506 68.1297 96.8391V99.3758C68.1297 100.664 67.0828 101.711 65.7943 101.711Z" fill="#FCCB21"/>
<path opacity="0.5" d="M30.4006 99.4565V96.8392C30.4006 95.9936 31.0852 95.3091 31.9307 95.3091H65.8748C66.7203 95.3091 67.4049 95.9936 67.4049 96.8392V99.4565C67.4049 100.302 66.7203 100.987 65.8748 100.987H31.8905C31.0852 100.946 30.4006 100.262 30.4006 99.4565Z" fill="#F9FBFC"/>
<path opacity="0.66" d="M35.2325 95.3091H31.8099C31.0046 95.3091 30.3604 95.9533 30.3604 96.7587V99.537C30.3604 100.342 31.0046 100.987 31.8099 100.987H35.2325V95.3091Z" fill="#FC9F21"/>
<path opacity="0.66" d="M50.5336 95.3091H37.6486V100.987H50.5336V95.3091Z" fill="#FC9F21"/>
<path opacity="0.66" d="M65.915 95.3091H65.3513V100.987H65.915C66.7203 100.987 67.3646 100.342 67.3646 99.537V96.7587C67.3646 95.9533 66.7203 95.3091 65.915 95.3091Z" fill="#FC9F21"/>
<path opacity="0.66" d="M64.3448 95.3091H52.0234V100.987H64.3448V95.3091Z" fill="#FC9F21"/>
<path d="M69.6195 94.5843H35.7962C34.5077 94.5843 33.4608 93.5374 33.4608 92.2489V89.7121C33.4608 88.4236 34.5077 87.3767 35.7962 87.3767H69.6195C70.908 87.3767 71.9549 88.4236 71.9549 89.7121V92.2489C71.9146 93.5374 70.8677 94.5843 69.6195 94.5843Z" fill="#FCCB21"/>
<path opacity="0.5" d="M34.1855 92.2892V89.6719C34.1855 88.8264 34.8701 88.1418 35.7156 88.1418H69.6597C70.5052 88.1418 71.1898 88.8264 71.1898 89.6719V92.2892C71.1898 93.1348 70.5052 93.8193 69.6597 93.8193H35.7156C34.8701 93.8193 34.1855 93.1348 34.1855 92.2892Z" fill="#F9FBFC"/>
<path opacity="0.66" d="M39.0577 88.1821H35.6351C34.8298 88.1821 34.1855 88.8264 34.1855 89.6317V92.41C34.1855 93.2153 34.8298 93.8596 35.6351 93.8596H39.0577V88.1821Z" fill="#FC9F21"/>
<path opacity="0.66" d="M54.3185 88.1821H41.4335V93.8596H54.3185V88.1821Z" fill="#FC9F21"/>
<path opacity="0.66" d="M69.7402 88.1821H69.1765V93.8193H69.7402C70.5455 93.8193 71.1898 93.1751 71.1898 92.3698V89.5914C71.1495 88.8264 70.5053 88.1821 69.7402 88.1821Z" fill="#FC9F21"/>
<path opacity="0.66" d="M68.1297 88.1821H55.8083V93.8596H68.1297V88.1821Z" fill="#FC9F21"/>
<path d="M112.946 101.711H79.1223C77.8338 101.711 76.7869 100.664 76.7869 99.3758V96.8391C76.7869 95.5506 77.8338 94.5037 79.1223 94.5037H112.946C114.234 94.5037 115.281 95.5506 115.281 96.8391V99.3758C115.281 100.664 114.234 101.711 112.946 101.711Z" fill="#FCCB21"/>
<path opacity="0.5" d="M77.5519 99.4565V96.8392C77.5519 95.9936 78.2364 95.3091 79.082 95.3091H113.026C113.872 95.3091 114.556 95.9936 114.556 96.8392V99.4565C114.556 100.302 113.872 100.987 113.026 100.987H79.082C78.2364 100.946 77.5519 100.262 77.5519 99.4565Z" fill="#F9FBFC"/>
<path opacity="0.66" d="M82.3839 95.3091H78.9613C78.156 95.3091 77.5117 95.9533 77.5117 96.7587V99.537C77.5117 100.342 78.156 100.987 78.9613 100.987H82.3839V95.3091Z" fill="#FC9F21"/>
<path opacity="0.66" d="M97.6848 95.3091H84.7998V100.987H97.6848V95.3091Z" fill="#FC9F21"/>
<path opacity="0.66" d="M113.066 95.3091H112.503V100.987H113.066C113.872 100.987 114.516 100.342 114.516 99.537V96.7587C114.516 95.9533 113.872 95.3091 113.066 95.3091Z" fill="#FC9F21"/>
<path opacity="0.66" d="M111.496 95.3091H99.1747V100.987H111.496V95.3091Z" fill="#FC9F21"/>
<path d="M115.603 94.5843H81.7798C80.4912 94.5843 79.4443 93.5374 79.4443 92.2489V89.7121C79.4443 88.4236 80.4912 87.3767 81.7798 87.3767H115.603C116.891 87.3767 117.938 88.4236 117.938 89.7121V92.2489C117.938 93.5374 116.891 94.5843 115.603 94.5843Z" fill="#FCCB21"/>
<path opacity="0.5" d="M80.2094 92.2892V89.6719C80.2094 88.8264 80.8939 88.1418 81.7394 88.1418H115.683C116.529 88.1418 117.214 88.8264 117.214 89.6719V92.2892C117.214 93.1348 116.529 93.8193 115.683 93.8193H81.7394C80.8939 93.8193 80.2094 93.1348 80.2094 92.2892Z" fill="#F9FBFC"/>
<path opacity="0.66" d="M85.0815 88.1821H81.6589C80.8536 88.1821 80.2094 88.8264 80.2094 89.6317V92.41C80.2094 93.2153 80.8536 93.8596 81.6589 93.8596H85.0815V88.1821Z" fill="#FC9F21"/>
<path opacity="0.66" d="M100.342 88.1821H87.4573V93.8596H100.342V88.1821Z" fill="#FC9F21"/>
<path opacity="0.66" d="M115.764 88.1821H115.16V93.8193H115.724C116.529 93.8193 117.173 93.1751 117.173 92.3698V89.5914C117.173 88.8264 116.529 88.1821 115.764 88.1821Z" fill="#FC9F21"/>
<path opacity="0.66" d="M114.153 88.1821H101.832V93.8596H114.153V88.1821Z" fill="#FC9F21"/>
<path d="M114.113 87.4571H80.2899C79.0014 87.4571 77.9545 86.4102 77.9545 85.1217V82.5849C77.9545 81.2964 79.0014 80.2495 80.2899 80.2495H114.113C115.402 80.2495 116.449 81.2964 116.449 82.5849V85.1217C116.408 86.4102 115.361 87.4571 114.113 87.4571Z" fill="#FCCB21"/>
<path opacity="0.5" d="M78.6792 85.162V82.5447C78.6792 81.6992 79.3637 81.0146 80.2093 81.0146H114.153C114.999 81.0146 115.683 81.6992 115.683 82.5447V85.162C115.683 86.0076 114.999 86.6921 114.153 86.6921H80.2093C79.3637 86.6921 78.6792 86.0076 78.6792 85.162Z" fill="#F9FBFC"/>
<path opacity="0.66" d="M83.5514 81.0146H80.1288C79.3235 81.0146 78.6792 81.6589 78.6792 82.4642V85.2425C78.6792 86.0479 79.3235 86.6921 80.1288 86.6921H83.5514V81.0146Z" fill="#FC9F21"/>
<path opacity="0.66" d="M98.8122 81.0146H85.9271V86.6921H98.8122V81.0146Z" fill="#FC9F21"/>
<path opacity="0.66" d="M114.234 81.0146H113.67V86.6921H114.234C115.039 86.6921 115.683 86.0479 115.683 85.2425V82.4642C115.643 81.6589 114.999 81.0146 114.234 81.0146Z" fill="#FC9F21"/>
<path opacity="0.66" d="M112.623 81.0146H100.302V86.6921H112.623V81.0146Z" fill="#FC9F21"/>
<path d="M112.382 79.5651L78.5988 81.7797C77.3103 81.8602 76.2231 80.8938 76.1426 79.6053L75.9815 77.0686C75.901 75.7801 76.8673 74.6929 78.1558 74.6124L111.939 72.3978C113.227 72.3172 114.314 73.2836 114.395 74.5721L114.556 77.1088C114.637 78.3973 113.67 79.4845 112.382 79.5651Z" fill="#FCCB21"/>
<path opacity="0.5" d="M76.9076 79.6456L76.7465 77.0283C76.7063 76.1827 77.3102 75.4579 78.1558 75.4177L112.019 73.1628C112.865 73.1225 113.59 73.7265 113.63 74.5721L113.791 77.1894C113.831 78.0349 113.227 78.7597 112.382 78.8L78.5182 81.0549C77.7129 81.0951 76.9881 80.4912 76.9076 79.6456Z" fill="#F9FBFC"/>
<path opacity="0.66" d="M81.4978 75.176L78.1155 75.4176C77.3102 75.4579 76.7062 76.1424 76.7867 76.9477L76.9881 79.7261C77.0283 80.5314 77.7129 81.1354 78.5182 81.0548L81.9005 80.8132L81.4978 75.176Z" fill="#FC9F21"/>
<path opacity="0.66" d="M96.7181 74.1925L83.8615 75.0427L84.2361 80.7077L97.0928 79.8575L96.7181 74.1925Z" fill="#FC9F21"/>
<path opacity="0.66" d="M112.1 73.1629L111.536 73.2032L111.899 78.8404L112.462 78.8001C113.268 78.7599 113.872 78.0753 113.791 77.27L113.59 74.4917C113.549 73.6864 112.865 73.1226 112.1 73.1629Z" fill="#FC9F21"/>
<path opacity="0.66" d="M110.527 73.2431L98.2329 74.0562L98.6075 79.7211L110.902 78.9081L110.527 73.2431Z" fill="#FC9F21"/>
<path d="M156.392 101.711H122.569C121.28 101.711 120.234 100.664 120.234 99.3758V96.8391C120.234 95.5506 121.28 94.5037 122.569 94.5037H156.392C157.681 94.5037 158.728 95.5506 158.728 96.8391V99.3758C158.728 100.664 157.681 101.711 156.392 101.711Z" fill="#FCCB21"/>
<path opacity="0.5" d="M120.999 99.4565V96.8392C120.999 95.9936 121.683 95.3091 122.529 95.3091H156.473C157.318 95.3091 158.003 95.9936 158.003 96.8392V99.4565C158.003 100.302 157.318 100.987 156.473 100.987H122.529C121.683 100.946 120.999 100.262 120.999 99.4565Z" fill="#F9FBFC"/>
<path opacity="0.66" d="M125.83 95.3091H122.408C121.603 95.3091 120.958 95.9533 120.958 96.7587V99.537C120.958 100.342 121.603 100.987 122.408 100.987H125.83V95.3091Z" fill="#FC9F21"/>
<path opacity="0.66" d="M141.132 95.3091H128.246V100.987H141.132V95.3091Z" fill="#FC9F21"/>
<path opacity="0.66" d="M156.513 95.3091H155.949V100.987H156.513C157.318 100.987 157.963 100.342 157.963 99.537V96.7587C157.963 95.9533 157.318 95.3091 156.513 95.3091Z" fill="#FC9F21"/>
<path opacity="0.66" d="M154.943 95.3091H142.621V100.987H154.943V95.3091Z" fill="#FC9F21"/>
<path d="M160.217 94.5843H126.394C125.106 94.5843 124.059 93.5374 124.059 92.2489V89.7121C124.059 88.4236 125.106 87.3767 126.394 87.3767H160.217C161.506 87.3767 162.553 88.4236 162.553 89.7121V92.2489C162.513 93.5374 161.466 94.5843 160.217 94.5843Z" fill="#FCCB21"/>
<path opacity="0.5" d="M124.784 92.2892V89.6719C124.784 88.8264 125.468 88.1418 126.314 88.1418H160.258C161.103 88.1418 161.788 88.8264 161.788 89.6719V92.2892C161.788 93.1348 161.103 93.8193 160.258 93.8193H126.314C125.468 93.8193 124.784 93.1348 124.784 92.2892Z" fill="#F9FBFC"/>
<path opacity="0.66" d="M129.656 88.1821H126.233C125.428 88.1821 124.784 88.8264 124.784 89.6317V92.41C124.784 93.2153 125.428 93.8596 126.233 93.8596H129.656V88.1821Z" fill="#FC9F21"/>
<path opacity="0.66" d="M144.917 88.1821H132.031V93.8596H144.917V88.1821Z" fill="#FC9F21"/>
<path opacity="0.66" d="M160.338 88.1821H159.775V93.8193H160.338C161.144 93.8193 161.788 93.1751 161.788 92.3698V89.5914C161.748 88.8264 161.103 88.1821 160.338 88.1821Z" fill="#FC9F21"/>
<path opacity="0.66" d="M158.728 88.1821H146.406V93.8596H158.728V88.1821Z" fill="#FC9F21"/>
<path d="M162.11 87.4571H128.287C126.998 87.4571 125.951 86.4102 125.951 85.1217V82.5849C125.951 81.2964 126.998 80.2495 128.287 80.2495H162.11C163.398 80.2495 164.445 81.2964 164.445 82.5849V85.1217C164.445 86.4102 163.398 87.4571 162.11 87.4571Z" fill="#FCCB21"/>
<path opacity="0.5" d="M126.716 85.162V82.5447C126.716 81.6992 127.401 81.0146 128.246 81.0146H162.19C163.036 81.0146 163.721 81.6992 163.721 82.5447V85.162C163.721 86.0076 163.036 86.6921 162.19 86.6921H128.246C127.401 86.6921 126.716 86.0076 126.716 85.162Z" fill="#F9FBFC"/>
<path opacity="0.66" d="M131.548 81.0146H128.126C127.32 81.0146 126.676 81.6589 126.676 82.4642V85.2425C126.676 86.0479 127.32 86.6921 128.126 86.6921H131.548V81.0146Z" fill="#FC9F21"/>
<path opacity="0.66" d="M146.849 81.0146H133.964V86.6921H146.849V81.0146Z" fill="#FC9F21"/>
<path opacity="0.66" d="M162.231 81.0146H161.667V86.6921H162.231C163.036 86.6921 163.68 86.0479 163.68 85.2425V82.4642C163.68 81.6589 163.036 81.0146 162.231 81.0146Z" fill="#FC9F21"/>
<path opacity="0.66" d="M160.66 81.0146H148.339V86.6921H160.66V81.0146Z" fill="#FC9F21"/>
<path d="M157.52 80.3301H123.696C122.408 80.3301 121.361 79.2832 121.361 77.9947V75.458C121.361 74.1695 122.408 73.1226 123.696 73.1226H157.52C158.808 73.1226 159.855 74.1695 159.855 75.458V77.9947C159.855 79.2832 158.808 80.3301 157.52 80.3301Z" fill="#FCCB21"/>
<path opacity="0.5" d="M122.126 78.0351V75.4178C122.126 74.5722 122.811 73.8877 123.656 73.8877H157.6C158.446 73.8877 159.13 74.5722 159.13 75.4178V78.0351C159.13 78.8806 158.446 79.5652 157.6 79.5652H123.656C122.811 79.5652 122.126 78.8806 122.126 78.0351Z" fill="#F9FBFC"/>
<path opacity="0.66" d="M126.958 73.8877H123.535C122.73 73.8877 122.086 74.5319 122.086 75.3373V78.1156C122.086 78.9209 122.73 79.5652 123.535 79.5652H126.958V73.8877Z" fill="#FC9F21"/>
<path opacity="0.66" d="M142.259 73.8877H129.374V79.5652H142.259V73.8877Z" fill="#FC9F21"/>
<path opacity="0.66" d="M157.64 73.8877H157.077V79.5652H157.64C158.446 79.5652 159.09 78.9209 159.09 78.1156V75.3373C159.09 74.5319 158.446 73.8877 157.64 73.8877Z" fill="#FC9F21"/>
<path opacity="0.66" d="M156.07 73.8877H143.749V79.5652H156.07V73.8877Z" fill="#FC9F21"/>
<path d="M161.707 73.2032H127.884C126.596 73.2032 125.549 72.1563 125.549 70.8678V68.331C125.549 67.0425 126.596 65.9956 127.884 65.9956H161.707C162.996 65.9956 164.043 67.0425 164.043 68.331V70.8678C164.043 72.1563 162.996 73.2032 161.707 73.2032Z" fill="#FCCB21"/>
<path opacity="0.5" d="M126.314 70.9081V68.2908C126.314 67.4453 126.998 66.7607 127.844 66.7607H161.788C162.633 66.7607 163.318 67.4453 163.318 68.2908V70.9081C163.318 71.7537 162.633 72.4382 161.788 72.4382H127.844C126.998 72.4382 126.314 71.7537 126.314 70.9081Z" fill="#F9FBFC"/>
<path opacity="0.66" d="M131.186 66.7607H127.763C126.958 66.7607 126.314 67.405 126.314 68.2103V70.9886C126.314 71.7939 126.958 72.4382 127.763 72.4382H131.186V66.7607Z" fill="#FC9F21"/>
<path opacity="0.66" d="M146.447 66.7607H133.562V72.4382H146.447V66.7607Z" fill="#FC9F21"/>
<path opacity="0.66" d="M161.868 66.7607H161.305V72.4382H161.868C162.674 72.4382 163.318 71.7939 163.318 70.9886V68.2103C163.278 67.405 162.633 66.7607 161.868 66.7607Z" fill="#FC9F21"/>
<path opacity="0.66" d="M160.258 66.7607H147.936V72.4382H160.258V66.7607Z" fill="#FC9F21"/>
<path d="M164.768 66.0359H130.944C129.656 66.0359 128.609 64.989 128.609 63.7005V61.2041C128.609 59.9156 129.656 58.8687 130.944 58.8687H164.768C166.056 58.8687 167.103 59.9156 167.103 61.2041V63.7408C167.103 65.0293 166.056 66.0359 164.768 66.0359Z" fill="#FCCB21"/>
<path opacity="0.5" d="M129.374 63.7812V61.1639C129.374 60.3183 130.058 59.6338 130.904 59.6338H164.848C165.694 59.6338 166.378 60.3183 166.378 61.1639V63.7812C166.378 64.6267 165.694 65.3113 164.848 65.3113H130.904C130.058 65.271 129.374 64.6267 129.374 63.7812Z" fill="#F9FBFC"/>
<path opacity="0.66" d="M134.206 59.6338H130.783C129.978 59.6338 129.334 60.278 129.334 61.0834V63.8617C129.334 64.667 129.978 65.3113 130.783 65.3113H134.206V59.6338Z" fill="#FC9F21"/>
<path opacity="0.66" d="M149.507 59.6338H136.622V65.3113H149.507V59.6338Z" fill="#FC9F21"/>
<path opacity="0.66" d="M164.888 59.6338H164.325V65.3113H164.888C165.694 65.3113 166.338 64.667 166.338 63.8617V61.0834C166.338 60.278 165.694 59.6338 164.888 59.6338Z" fill="#FC9F21"/>
<path opacity="0.66" d="M163.318 59.6338H150.997V65.3113H163.318V59.6338Z" fill="#FC9F21"/>
<path d="M161.345 58.9087H127.522C126.233 58.9087 125.186 57.8618 125.186 56.5733V54.0366C125.186 52.7481 126.233 51.7012 127.522 51.7012H161.345C162.633 51.7012 163.68 52.7481 163.68 54.0366V56.5733C163.68 57.8618 162.633 58.9087 161.345 58.9087Z" fill="#FCCB21"/>
<path opacity="0.5" d="M125.951 56.6537V54.0364C125.951 53.1909 126.636 52.5063 127.481 52.5063H161.425C162.271 52.5063 162.956 53.1909 162.956 54.0364V56.6537C162.956 57.4993 162.271 58.1838 161.425 58.1838H127.481C126.636 58.1436 125.951 57.459 125.951 56.6537Z" fill="#F9FBFC"/>
<path opacity="0.66" d="M130.783 52.5063H127.361C126.555 52.5063 125.911 53.1506 125.911 53.9559V56.7343C125.911 57.5396 126.555 58.1838 127.361 58.1838H130.783V52.5063Z" fill="#FC9F21"/>
<path opacity="0.66" d="M146.084 52.5063H133.199V58.1838H146.084V52.5063Z" fill="#FC9F21"/>
<path opacity="0.66" d="M161.466 52.5063H160.902V58.1838H161.466C162.271 58.1838 162.915 57.5396 162.915 56.7343V53.9559C162.915 53.1506 162.271 52.5063 161.466 52.5063Z" fill="#FC9F21"/>
<path opacity="0.66" d="M159.895 52.5063H147.574V58.1838H159.895V52.5063Z" fill="#FC9F21"/>
<path d="M165.492 50.4126L131.75 53.1104C130.461 53.2312 129.334 52.2648 129.253 50.9763L129.052 48.4396C128.931 47.1511 129.897 46.0236 131.186 45.9431L164.929 43.2453C166.217 43.1245 167.345 44.0909 167.425 45.3794L167.626 47.9161C167.707 49.2046 166.741 50.3321 165.492 50.4126Z" fill="#FCCB21"/>
<path opacity="0.5" d="M130.018 50.9764L129.817 48.3592C129.736 47.5136 130.381 46.7888 131.226 46.7083L165.049 44.0105C165.895 43.9299 166.62 44.5742 166.7 45.4198L166.902 48.037C166.982 48.8826 166.338 49.6074 165.492 49.6879L131.669 52.3857C130.824 52.426 130.058 51.822 130.018 50.9764Z" fill="#F9FBFC"/>
<path opacity="0.66" d="M134.488 46.4666L131.105 46.7484C130.3 46.8289 129.736 47.5135 129.777 48.2785L130.018 51.0569C130.099 51.8622 130.783 52.4259 131.548 52.3856L134.931 52.1038L134.488 46.4666Z" fill="#FC9F21"/>
<path opacity="0.66" d="M149.743 45.236L136.899 46.2664L137.353 51.9257L150.197 50.8953L149.743 45.236Z" fill="#FC9F21"/>
<path opacity="0.66" d="M165.09 44.0104L164.526 44.0506L164.969 49.6879L165.533 49.6476C166.338 49.5671 166.902 48.8825 166.861 48.1175L166.62 45.3391C166.579 44.5338 165.895 43.9298 165.09 44.0104Z" fill="#FC9F21"/>
<path opacity="0.66" d="M163.515 44.1309L151.233 45.1162L151.687 50.7755L163.969 49.7902L163.515 44.1309Z" fill="#FC9F21"/>
<path d="M181.138 87.6081C183.509 77.7484 177.438 67.8336 167.578 65.4627C157.718 63.0918 147.803 69.1627 145.432 79.0224C143.062 88.8821 149.133 98.797 158.992 101.168C168.852 103.539 178.767 97.4678 181.138 87.6081Z" fill="#FCCB21"/>
<path d="M162.835 97.8458C170.863 97.8458 177.371 91.3378 177.371 83.3099C177.371 75.2819 170.863 68.7739 162.835 68.7739C154.807 68.7739 148.299 75.2819 148.299 83.3099C148.299 91.3378 154.807 97.8458 162.835 97.8458Z" fill="#FC9F21"/>
<path opacity="0.08" d="M162.835 68.7739C162.553 68.7739 162.271 68.7739 161.989 68.8142C169.64 69.2571 175.72 75.5788 175.72 83.3501C175.72 91.1214 169.64 97.4431 161.989 97.8861C162.271 97.8861 162.553 97.9263 162.835 97.9263C170.888 97.9263 177.371 91.4033 177.371 83.3904C177.371 75.3775 170.888 68.7739 162.835 68.7739Z" fill="#A5681E"/>
<path d="M169.614 90.0969C173.357 86.3544 173.357 80.2867 169.614 76.5442C165.872 72.8018 159.804 72.8018 156.062 76.5442C152.319 80.2867 152.319 86.3544 156.062 90.0969C159.804 93.8393 165.872 93.8393 169.614 90.0969Z" fill="#FCCB21"/>
<path d="M46.8693 85.605C46.8693 85.605 45.2184 80.3302 43.8091 81.1758C42.3998 82.0214 46.8693 85.605 46.8693 85.605Z" fill="#FC9F21"/>
<path d="M51.8623 85.605C51.8623 85.605 53.5132 80.3302 54.9225 81.1758C56.3318 81.9811 51.8623 85.605 51.8623 85.605Z" fill="#FC9F21"/>
<path d="M87.6183 73.2033C87.6183 73.2033 83.7528 69.2572 82.8669 70.6263C82.0213 71.955 87.6183 73.2033 87.6183 73.2033Z" fill="#FC9F21"/>
<path d="M140.165 42.8026C140.165 42.8026 137.306 38.0915 136.139 39.219C134.971 40.3061 140.165 42.8026 140.165 42.8026Z" fill="#FC9F21"/>
<path d="M90.5577 71.9952C90.5577 71.9952 92.2086 66.7203 93.6179 67.5659C95.0272 68.3712 90.5577 71.9952 90.5577 71.9952Z" fill="#FC9F21"/>
<path d="M143.346 43.0039C143.346 43.0039 145.52 37.9304 146.809 38.8968C148.138 39.8632 143.346 43.0039 143.346 43.0039Z" fill="#FC9F21"/>
<path d="M49.4867 83.8331C49.9699 71.7534 60.1169 62.3312 72.2368 62.8144C78.2767 63.056 83.6723 65.7135 87.4573 69.8207" stroke="#FC9F21" stroke-miterlimit="10"/>
<path d="M141.937 41.4737C142.541 38.0511 144.796 33.4205 148.742 29.1926" stroke="#FC9F21" stroke-miterlimit="10"/>
<path d="M87.5378 69.7805C86.048 65.4318 85.4843 60.6804 86.0883 55.768C88.2224 38.7356 103.805 26.6156 120.838 28.7899C129.696 29.9174 137.226 34.6687 142.098 41.3529" stroke="#FC9F21" stroke-miterlimit="10"/>
<path d="M155.386 16.7504C157.802 14.3345 158.768 11.3548 157.52 10.1469C156.271 8.93888 153.332 9.865 150.916 12.2809C148.057 15.1398 146.406 21.1797 146.406 21.1797C146.406 21.1797 152.567 19.5288 155.386 16.7504Z" fill="#B3B2B2"/>
<path d="M163.721 25.0856C166.137 22.6696 167.103 19.6899 165.855 18.482C164.606 17.2337 161.667 18.2001 159.251 20.6161C156.392 23.4749 154.741 29.5148 154.741 29.5148C154.741 29.5148 160.942 27.8639 163.721 25.0856Z" fill="#B3B2B2"/>
<path d="M160.701 21.7838C163.68 18.321 164.647 14.2944 162.875 12.7643C161.103 11.2342 157.278 12.8448 154.298 16.3077C150.795 20.4148 149.225 28.5485 149.225 28.5485C149.225 28.5485 157.318 25.7701 160.701 21.7838Z" fill="#FFE10A"/>
<path d="M159.13 7.65049C154.178 12.6032 152.205 18.643 154.741 21.1798C157.278 23.7165 163.318 21.7435 168.271 16.7908C174.109 10.912 176.082 0 176.082 0C176.082 0 164.808 1.97302 159.13 7.65049Z" fill="#EFEFEF"/>
<path d="M174.109 6.88544C175.519 3.10046 176.082 0 176.082 0C176.082 0 172.579 0.603986 168.512 2.13409C170.324 3.74472 172.217 5.35535 174.109 6.88544Z" fill="#B3B2B2"/>
<path d="M169.559 10.8314C168.311 12.0797 166.298 12.0797 165.049 10.8314C163.801 9.5832 163.801 7.56991 165.049 6.32168C166.298 5.07344 168.311 5.07344 169.559 6.32168C170.807 7.56991 170.807 9.5832 169.559 10.8314Z" fill="#5AD5A1"/>
<path d="M174.069 5.39559C174.069 5.59692 173.908 5.75799 173.707 5.75799C173.505 5.75799 173.344 5.59692 173.344 5.39559C173.344 5.19427 173.505 5.0332 173.707 5.0332C173.908 5.0332 174.069 5.19427 174.069 5.39559Z" fill="#F9FBFC"/>
<path d="M156.392 14.0929C156.592 14.0929 156.755 13.9307 156.755 13.7306C156.755 13.5304 156.592 13.3682 156.392 13.3682C156.192 13.3682 156.03 13.5304 156.03 13.7306C156.03 13.9307 156.192 14.0929 156.392 14.0929Z" fill="#2627A1"/>
<path d="M157.238 12.8046C157.438 12.8046 157.6 12.6424 157.6 12.4422C157.6 12.2421 157.438 12.0798 157.238 12.0798C157.038 12.0798 156.875 12.2421 156.875 12.4422C156.875 12.6424 157.038 12.8046 157.238 12.8046Z" fill="#2627A1"/>
</svg>
